<?xml version="1.0" encoding="utf-8"?>
<!-- Generator: Adobe Illustrator 21.0.2, SVG Export Plug-In . SVG Version: 6.00 Build 0)  -->
<svg version="1.0" id="Layer_1" xmlns="http://www.w3.org/2000/svg" xmlns:xlink="http://www.w3.org/1999/xlink" x="0px" y="0px"
	 viewBox="0 0 294.073 71.976" enable-background="new 0 0 294.073 71.976" xml:space="preserve">
<g opacity="0.25">
	<rect y="0.361" fill="#F2F2F2" width="2.386" height="43.331"/>
	<polygon fill="#666E72" points="0,0 0,0.722 2.025,0.722 2.025,43.331 0,43.331 0,44.053 2.747,44.053 2.747,0 	"/>
	<rect y="43.931" fill="#F2F2F2" width="5.876" height="27.684"/>
	<polygon fill="#666E72" points="0,43.57 0,44.292 5.516,44.292 5.516,71.254 0,71.254 0,71.976 6.238,71.976 6.238,43.57 	"/>
	<g>
		<path fill="#F2F2F2" d="M144.658,0.361h4.814v43.332h-4.814V0.361z"/>
		<path fill="#666E72" d="M149.833,44.053h-5.537V0h5.537V44.053z M145.019,43.331h4.092V0.722h-4.092V43.331z"/>
	</g>
	<g>
		<path fill="#F2F2F2" d="M141.167,43.931h11.796v27.684h-11.796V43.931z"/>
		<path fill="#666E72" d="M153.324,71.976h-12.518V43.57h12.518V71.976z M141.528,71.254h11.074V44.292h-11.074V71.254z"/>
	</g>
	<path fill="#F2F2F2" d="M291.665,0.361h2.408v43.332h-2.408V0.361z"/>
	<path fill="#F2F2F2" d="M288.175,43.931h5.898v27.684h-5.898V43.931z"/>
	<g>
		<path fill="#F2F2F2" d="M2.506,35.505h142.031v3.37H2.506V35.505z"/>
		<path fill="#666E72" d="M144.898,39.236H2.145v-4.093h142.753V39.236z M2.867,38.515h141.309v-2.648H2.867V38.515z"/>
	</g>
	<path fill="#666E72" d="M73.521,32.496c-14.172,0-27.738-2.74-40.319-8.144C21.2,19.197,10.493,11.65,2.238,2.527
		C2.11,2.374,2.13,2.146,2.283,2.017c0.145-0.122,0.359-0.111,0.491,0.024c8.186,9.047,18.806,16.532,30.713,21.646
		c12.491,5.365,25.961,8.086,40.035,8.086s27.543-2.72,40.035-8.086c11.907-5.114,22.527-12.599,30.713-21.646
		c0.134-0.148,0.362-0.159,0.51-0.025c0.148,0.134,0.159,0.362,0.025,0.51c-8.255,9.123-18.962,16.671-30.964,21.825
		C101.26,29.756,87.694,32.496,73.521,32.496L73.521,32.496z"/>
	<path fill="#666E72" d="M10.401,35.626c-0.199,0-0.361-0.162-0.361-0.361V9.912c0-0.199,0.162-0.361,0.361-0.361
		s0.361,0.162,0.361,0.361l0,0v25.353C10.762,35.464,10.6,35.626,10.401,35.626z M18.291,35.866c-0.199,0-0.361-0.162-0.361-0.361
		V16.247c0-0.199,0.162-0.361,0.361-0.361s0.361,0.162,0.361,0.361v19.258C18.652,35.704,18.491,35.866,18.291,35.866
		C18.291,35.866,18.291,35.866,18.291,35.866z M26.181,35.795c-0.199,0-0.361-0.162-0.361-0.361V20.823
		c0-0.199,0.162-0.361,0.361-0.361c0.199,0,0.361,0.162,0.361,0.361v14.611C26.542,35.634,26.381,35.795,26.181,35.795z
		 M34.071,35.385c-0.199,0-0.361-0.162-0.361-0.361v-10.19c0-0.199,0.162-0.361,0.361-0.361s0.361,0.162,0.361,0.361l0,0v10.19
		C34.432,35.224,34.271,35.385,34.071,35.385z M41.961,35.626c-0.199,0-0.361-0.162-0.361-0.361v-7.532
		c0-0.199,0.162-0.361,0.361-0.361s0.361,0.162,0.361,0.361v7.532C42.322,35.464,42.161,35.626,41.961,35.626z M49.851,35.626
		c-0.199,0-0.361-0.162-0.361-0.361v-5.796c0-0.199,0.162-0.361,0.361-0.361c0.199,0,0.361,0.162,0.361,0.361v5.796
		C50.212,35.464,50.051,35.626,49.851,35.626z M57.741,35.626c-0.199,0-0.361-0.162-0.361-0.361v-4.307
		c0-0.199,0.162-0.361,0.361-0.361c0.199,0,0.361,0.162,0.361,0.361v4.307c0,0.199-0.161,0.361-0.36,0.361
		C57.742,35.626,57.742,35.626,57.741,35.626z M65.631,35.795c-0.199,0-0.361-0.162-0.361-0.361v-3.295
		c0-0.199,0.162-0.361,0.361-0.361s0.361,0.162,0.361,0.361l0,0v3.295c0,0.199-0.161,0.361-0.36,0.361
		C65.632,35.795,65.632,35.795,65.631,35.795z M137.72,35.385c-0.199,0-0.361-0.162-0.361-0.361V9.671
		c0-0.199,0.162-0.361,0.362-0.36c0.199,0,0.36,0.161,0.36,0.36v25.353C138.081,35.224,137.919,35.385,137.72,35.385z
		 M129.83,35.626c-0.199,0-0.361-0.162-0.361-0.361V15.284c0-0.199,0.162-0.361,0.362-0.36c0.199,0,0.36,0.161,0.36,0.36v19.981
		C130.191,35.464,130.029,35.626,129.83,35.626z M121.939,35.385c-0.199,0-0.361-0.162-0.361-0.361V20.342
		c0-0.199,0.162-0.361,0.362-0.36c0.199,0,0.36,0.161,0.36,0.36v14.682C122.3,35.224,122.139,35.385,121.939,35.385z
		 M114.049,35.626c-0.199,0-0.361-0.162-0.361-0.361V24.111c0-0.199,0.162-0.361,0.362-0.36c0.199,0,0.36,0.161,0.36,0.36v11.154
		C114.41,35.464,114.249,35.626,114.049,35.626z M106.159,35.385c-0.199,0-0.361-0.162-0.361-0.361v-7.532
		c0-0.199,0.162-0.361,0.362-0.36c0.199,0,0.36,0.161,0.36,0.36v7.532C106.52,35.224,106.359,35.385,106.159,35.385z M98.269,35.385
		c-0.199,0-0.361-0.162-0.361-0.361v-5.796c0-0.199,0.162-0.361,0.362-0.36c0.199,0,0.36,0.161,0.36,0.36v5.796
		C98.63,35.223,98.469,35.385,98.269,35.385z M90.379,35.385c-0.199,0-0.361-0.162-0.361-0.361v-4.307
		c0-0.199,0.162-0.361,0.362-0.36c0.199,0,0.36,0.161,0.36,0.36v4.307C90.74,35.223,90.579,35.385,90.379,35.385z M82.489,35.554
		c-0.199,0-0.361-0.162-0.361-0.361v-3.295c0-0.199,0.162-0.361,0.362-0.36c0.199,0,0.36,0.161,0.36,0.36v3.295
		C82.85,35.393,82.689,35.554,82.489,35.554z M73.521,35.866c-0.199,0-0.361-0.162-0.361-0.361v-3.37
		c0-0.199,0.162-0.361,0.362-0.36c0.199,0,0.36,0.161,0.36,0.36v3.37c0,0.199-0.161,0.361-0.36,0.361
		C73.522,35.866,73.522,35.866,73.521,35.866z"/>
	<g>
		<path fill="#F2F2F2" d="M149.472,35.505h142.031v3.37H149.472V35.505z"/>
		<path fill="#666E72" d="M291.865,39.236H149.111v-4.093h142.753L291.865,39.236L291.865,39.236z M149.833,38.515h141.309v-2.648
			H149.833V38.515z"/>
	</g>
	<path fill="#666E72" d="M220.488,32.496c-14.172,0-27.738-2.74-40.319-8.144c-12.002-5.155-22.709-12.702-30.964-21.825
		c-0.128-0.153-0.109-0.381,0.044-0.509c0.145-0.122,0.359-0.111,0.491,0.024c8.186,9.047,18.806,16.532,30.713,21.646
		c12.491,5.365,25.961,8.086,40.035,8.086c14.074,0,27.543-2.72,40.035-8.086c11.907-5.114,22.527-12.599,30.713-21.646
		c0.134-0.148,0.362-0.159,0.51-0.025c0.148,0.134,0.159,0.362,0.025,0.51c-8.255,9.123-18.962,16.671-30.964,21.825
		C248.225,29.756,234.66,32.496,220.488,32.496L220.488,32.496z"/>
	<path fill="#666E72" d="M157.367,35.626c-0.199,0-0.361-0.162-0.361-0.361V9.912c0-0.199,0.162-0.361,0.362-0.36
		c0.199,0,0.36,0.161,0.36,0.36v25.353C157.728,35.464,157.566,35.625,157.367,35.626z M165.257,35.866
		c-0.199,0-0.361-0.162-0.361-0.361V16.247c0-0.199,0.162-0.361,0.362-0.36c0.199,0,0.36,0.161,0.36,0.36v19.258
		C165.618,35.704,165.457,35.866,165.257,35.866z M173.147,35.795c-0.199,0-0.361-0.162-0.361-0.361V20.823
		c0-0.199,0.162-0.361,0.362-0.36c0.199,0,0.36,0.161,0.36,0.36v14.611C173.508,35.634,173.347,35.795,173.147,35.795z
		 M181.037,35.385c-0.199,0-0.361-0.162-0.361-0.361v-10.19c0-0.199,0.162-0.361,0.362-0.36c0.199,0,0.36,0.161,0.36,0.36v10.19
		C181.398,35.223,181.237,35.385,181.037,35.385z M188.927,35.626c-0.199,0-0.361-0.162-0.361-0.361v-7.532
		c0-0.199,0.162-0.361,0.362-0.36c0.199,0,0.36,0.161,0.36,0.36v7.532C189.288,35.464,189.127,35.625,188.927,35.626z
		 M196.817,35.626c-0.199,0-0.361-0.162-0.361-0.361v-5.796c0-0.199,0.162-0.361,0.362-0.36c0.199,0,0.36,0.161,0.36,0.36v5.796
		C197.178,35.464,197.017,35.626,196.817,35.626z M204.708,35.626c-0.199,0-0.361-0.162-0.361-0.361v-4.307
		c0-0.199,0.162-0.361,0.362-0.36c0.199,0,0.36,0.161,0.36,0.36v4.307C205.068,35.464,204.907,35.626,204.708,35.626z
		 M212.598,35.795c-0.199,0-0.361-0.162-0.361-0.361v-3.295c0-0.199,0.162-0.361,0.362-0.36c0.199,0,0.36,0.161,0.36,0.36v3.295
		C212.958,35.634,212.797,35.795,212.598,35.795z M284.686,35.385c-0.199,0-0.361-0.162-0.361-0.361V9.671
		c0-0.199,0.162-0.361,0.362-0.36c0.199,0,0.36,0.161,0.36,0.36v25.353C285.047,35.224,284.885,35.385,284.686,35.385z
		 M276.796,35.626c-0.199,0-0.361-0.162-0.361-0.361V15.284c0-0.199,0.162-0.361,0.362-0.36c0.199,0,0.36,0.161,0.36,0.36v19.981
		C277.157,35.464,276.995,35.626,276.796,35.626z M268.906,35.385c-0.199,0-0.361-0.162-0.361-0.361V20.342
		c0-0.199,0.162-0.361,0.362-0.36c0.199,0,0.36,0.161,0.36,0.36v14.682C269.267,35.224,269.105,35.385,268.906,35.385z
		 M261.016,35.626c-0.199,0-0.361-0.162-0.361-0.361V24.111c0-0.199,0.162-0.361,0.362-0.36c0.199,0,0.36,0.161,0.36,0.36v11.154
		C261.377,35.464,261.215,35.626,261.016,35.626z M253.126,35.385c-0.199,0-0.361-0.162-0.361-0.361v-7.532
		c0-0.199,0.162-0.361,0.362-0.36c0.199,0,0.36,0.161,0.36,0.36v7.532C253.486,35.223,253.325,35.385,253.126,35.385z
		 M245.235,35.385c-0.199,0-0.361-0.162-0.361-0.361v-5.796c0-0.199,0.162-0.361,0.362-0.36c0.199,0,0.36,0.161,0.36,0.36v5.796
		c0,0.199-0.161,0.361-0.36,0.361C245.236,35.385,245.235,35.385,245.235,35.385z M237.345,35.385c-0.199,0-0.361-0.162-0.361-0.361
		v-4.307c0-0.199,0.162-0.361,0.362-0.36c0.199,0,0.36,0.161,0.36,0.36v4.307c0,0.199-0.161,0.361-0.36,0.361
		C237.346,35.385,237.345,35.385,237.345,35.385z M229.455,35.554c-0.199,0-0.361-0.162-0.361-0.361v-3.295
		c0-0.199,0.162-0.361,0.362-0.36c0.199,0,0.36,0.161,0.36,0.36v3.295c0,0.199-0.161,0.361-0.36,0.361
		C229.456,35.554,229.455,35.554,229.455,35.554z M220.488,35.866c-0.199,0-0.361-0.162-0.361-0.361v-3.37
		c0-0.199,0.162-0.361,0.362-0.36c0.199,0,0.36,0.161,0.36,0.36v3.37C220.849,35.705,220.687,35.866,220.488,35.866z"/>
	<g transform="translate(572 4)">
		<circle fill="#666E72" cx="-424.935" cy="-0.592" r="1.124"/>
		<path fill="#F2F2F2" d="M-424.935,0.651c-0.687-0.001-1.243-0.557-1.244-1.244c0.001-0.687,0.557-1.243,1.244-1.244
			c0.687,0.001,1.243,0.557,1.244,1.244C-423.692,0.094-424.249,0.651-424.935,0.651z M-424.935-1.595
			c-0.554,0.001-1.002,0.449-1.003,1.003c0,0.553,0.45,1.003,1.003,1.003c0.553,0,1.003-0.45,1.003-1.003
			S-424.382-1.595-424.935-1.595z"/>
	</g>
	<g>
		<path fill="none" d="M143.914,48.023h6.302"/>
		<path fill="#666E72" d="M150.216,48.385h-6.302c-0.199,0-0.361-0.162-0.36-0.362c0-0.199,0.161-0.36,0.36-0.36h6.302
			c0.199,0,0.361,0.162,0.36,0.362C150.576,48.223,150.415,48.384,150.216,48.385z"/>
		<path fill="none" d="M143.914,50.431h6.302"/>
		<path fill="#666E72" d="M150.216,50.792h-6.302c-0.199,0-0.361-0.162-0.36-0.362c0-0.199,0.161-0.36,0.36-0.36h6.302
			c0.199,0,0.361,0.162,0.36,0.362C150.576,50.63,150.415,50.791,150.216,50.792z"/>
		<path fill="none" d="M143.914,52.838h6.302"/>
		<path fill="#666E72" d="M150.216,53.199h-6.302c-0.199,0-0.361-0.162-0.36-0.362c0-0.199,0.161-0.36,0.36-0.36h6.302
			c0.199,0,0.361,0.162,0.36,0.362C150.576,53.038,150.415,53.199,150.216,53.199z"/>
		<path fill="none" d="M143.914,55.245h6.302"/>
		<path fill="#666E72" d="M150.216,55.606h-6.302c-0.199,0-0.361-0.162-0.36-0.362c0-0.199,0.161-0.36,0.36-0.36h6.302
			c0.199,0,0.361,0.162,0.36,0.362C150.576,55.445,150.415,55.606,150.216,55.606z"/>
		<g>
			<path fill="none" d="M143.914,57.652h6.302"/>
			<path fill="#666E72" d="M150.216,58.013h-6.302c-0.199,0-0.361-0.162-0.36-0.362c0-0.199,0.161-0.36,0.36-0.36h6.302
				c0.199,0,0.361,0.162,0.36,0.362C150.576,57.852,150.415,58.013,150.216,58.013z"/>
		</g>
		<g>
			<path fill="none" d="M143.914,60.06h6.302"/>
			<path fill="#666E72" d="M150.216,60.421h-6.302c-0.199,0-0.361-0.162-0.36-0.362c0-0.199,0.161-0.36,0.36-0.36h6.302
				c0.199,0,0.361,0.162,0.36,0.362C150.576,60.259,150.415,60.421,150.216,60.421z"/>
		</g>
		<g>
			<path fill="none" d="M143.914,62.467h6.302"/>
			<path fill="#666E72" d="M150.216,62.828h-6.302c-0.199,0-0.361-0.162-0.36-0.362c0-0.199,0.161-0.36,0.36-0.36h6.302
				c0.199,0,0.361,0.162,0.36,0.362C150.576,62.667,150.415,62.828,150.216,62.828z"/>
		</g>
	</g>
	<path fill="#60C29D" d="M0,66.678h5.501v4.697H0V66.678z"/>
	<path fill="#666E72" d="M0,66.316h5.501v0.722H0V66.316z"/>
	<g>
		<path fill="#F58369" d="M141.542,66.678h11.045v4.697h-11.045V66.678z"/>
		<path fill="#666E72" d="M152.948,71.735h-11.767v-5.419h11.767V71.735z M141.903,71.013h10.323v-3.974h-10.323V71.013z"/>
	</g>
	<path fill="#666E72" d="M141.542,66.316h11.045v0.722h-11.045V66.316z"/>
	<path fill="#60C29D" d="M288.55,66.678h5.523v4.697h-5.523V66.678z"/>
	<path fill="#666E72" d="M288.55,66.316h5.522v0.722h-5.522V66.316z"/>
	<path fill="#666E72" d="M0,2.287V4.53c0.61-0.012,1.102-0.508,1.102-1.121C1.102,2.795,0.61,2.298,0,2.287z"/>
	<g>
		<path fill="#666E72" d="M3.151,62.106H0v0.722h3.151c0.199,0,0.36-0.161,0.36-0.36C3.512,62.269,3.351,62.107,3.151,62.106z"/>
		<path fill="#666E72" d="M3.151,59.699H0v0.722h3.151c0.199,0,0.36-0.161,0.36-0.36C3.512,59.861,3.351,59.699,3.151,59.699z"/>
		<path fill="#666E72" d="M0,48.385h3.151c0.199,0,0.36-0.161,0.36-0.36c0-0.199-0.161-0.361-0.36-0.362H0V48.385z"/>
		<path fill="#666E72" d="M3.151,50.07H0v0.722h3.151c0.199,0,0.36-0.161,0.36-0.36C3.512,50.232,3.351,50.07,3.151,50.07z"/>
		<path fill="#666E72" d="M3.151,57.292H0v0.722h3.151c0.199,0,0.36-0.161,0.36-0.36C3.512,57.454,3.351,57.292,3.151,57.292z"/>
		<path fill="#666E72" d="M3.151,52.477H0v0.722h3.151c0.199,0,0.36-0.161,0.36-0.36C3.512,52.639,3.351,52.477,3.151,52.477z"/>
		<path fill="#666E72" d="M3.151,54.885H0v0.722h3.151c0.199,0,0.36-0.161,0.36-0.36C3.512,55.047,3.351,54.885,3.151,54.885z"/>
	</g>
	<g>
		<path fill="#666E72" d="M290.921,53.199h3.151v-0.722h-3.151c-0.199,0-0.36,0.161-0.36,0.36
			C290.561,53.037,290.722,53.199,290.921,53.199z"/>
		<path fill="#666E72" d="M290.921,55.606h3.151v-0.722h-3.151c-0.199,0-0.36,0.161-0.36,0.36
			C290.561,55.444,290.722,55.606,290.921,55.606z"/>
		<path fill="#666E72" d="M290.921,50.792h3.151V50.07h-3.151c-0.199,0-0.36,0.161-0.36,0.36
			C290.561,50.629,290.722,50.791,290.921,50.792z"/>
		<path fill="#666E72" d="M290.921,48.385h3.151v-0.722h-3.151c-0.199,0-0.36,0.161-0.36,0.36
			C290.561,48.222,290.722,48.384,290.921,48.385z"/>
		<path fill="#666E72" d="M294.073,62.106h-3.151c-0.199,0-0.36,0.161-0.36,0.36c0,0.199,0.161,0.361,0.36,0.362h3.151V62.106z"/>
		<path fill="#666E72" d="M290.921,58.013h3.151v-0.722h-3.151c-0.199,0-0.36,0.161-0.36,0.36
			C290.561,57.851,290.722,58.013,290.921,58.013z"/>
		<path fill="#666E72" d="M290.921,60.421h3.151v-0.722h-3.151c-0.199,0-0.36,0.161-0.36,0.36
			C290.561,60.259,290.722,60.421,290.921,60.421z"/>
	</g>
	<polygon fill="#666E72" points="288.536,71.254 288.536,44.292 294.073,44.292 294.073,43.57 287.813,43.57 287.813,71.976 
		294.073,71.976 294.073,71.254 	"/>
	<polygon fill="#666E72" points="294.073,43.331 292.026,43.331 292.026,0.722 294.073,0.722 294.073,0 291.304,0 291.304,44.053 
		294.073,44.053 	"/>
	<path fill="#666E72" d="M294.073,2.285C294.073,2.285,294.073,2.285,294.073,2.285c-0.621,0-1.124,0.503-1.124,1.123
		c0,0.62,0.503,1.124,1.124,1.124c0,0,0,0,0,0V2.285z"/>
</g>
</svg>
