<svg width="55" height="80" xmlns="http://www.w3.org/2000/svg">
 <title>C42A36A0-2002-4E28-8943-3DE680269810</title>

 <g>
  <title>background</title>
  <rect fill="none" id="canvas_background" height="82" width="57" y="-1" x="-1"/>
 </g>
 <g>
  <title>Layer 1</title>
  <g id="svg_1" fill-rule="evenodd" fill="none">
   <path id="svg_2" fill="#E36B6B" d="m49.83,4.607c-9.022,-3.712 -22.025,-5.462 -35.37,5.178c-12.594,9.945 -13.891,23.163 -12.954,33.355c8.052,3.07 24.744,0.75 33.883,-6.438c11.388,-8.722 15.513,-22.527 14.442,-32.095"/>
   <path id="svg_3" fill="#475669" d="m2.55,42.33c7.824,2.534 23.492,0.307 32.152,-6.504c10.816,-8.282 14.842,-21.416 14.089,-30.439c-8.414,-3.3 -20.889,-4.9 -33.638,5.269c-9.573,7.558 -13.698,17.922 -12.603,31.673m20.163,1.562c-8,2.143 -16.485,2.24 -21.602,0.288a1.113,1.113 0 0 1 -0.713,-0.938c-1.368,-14.913 3.005,-26.142 13.374,-34.331c13.91,-11.09 27.515,-9.02 36.48,-5.333c0.376,0.155 0.637,0.502 0.682,0.906c1.115,9.954 -3.05,24.05 -14.869,33.1c-3.663,2.882 -8.416,4.985 -13.35,6.307"/>
   <path id="svg_4" fill="#FFA664" d="m26.593,14.064l3.072,3.862"/>
   <path id="svg_5" fill="#475669" d="m29.954,19a1.11,1.11 0 0 1 -1.157,-0.381l-3.074,-3.862a1.114,1.114 0 0 1 0.177,-1.563a1.11,1.11 0 0 1 1.561,0.178l3.073,3.86a1.114,1.114 0 0 1 -0.58,1.768"/>
   <path id="svg_6" fill="#FFA664" d="m21.218,17.662l3.073,3.862"/>
   <path id="svg_7" fill="#475669" d="m24.58,22.598a1.11,1.11 0 0 1 -1.158,-0.383l-3.073,-3.86a1.11,1.11 0 1 1 1.738,-1.385l3.073,3.86a1.113,1.113 0 0 1 -0.58,1.768"/>
   <path id="svg_8" fill="#FFA664" d="m16.514,22.1l3.072,3.863"/>
   <path id="svg_9" fill="#475669" d="m19.875,27.037a1.11,1.11 0 0 1 -1.157,-0.382l-3.073,-3.861a1.11,1.11 0 1 1 1.738,-1.385l3.072,3.861a1.113,1.113 0 0 1 -0.58,1.767"/>
   <path id="svg_10" fill="#475669" d="m16.05,27.043a1.112,1.112 0 0 1 -1.09,-1.848c4.485,-4.652 9.51,-8.657 14.936,-11.904a1.112,1.112 0 0 1 1.14,1.91c-5.258,3.146 -10.128,7.029 -14.476,11.54c-0.145,0.15 -0.322,0.251 -0.51,0.302"/>
   <path id="svg_11" fill="#F8A468" d="m49.565,4.607c-3.787,-1.615 -9.215,-2.887 -13.745,-2.86c3.98,2.283 9.916,9.549 12.08,16.694c1.608,-4.922 2.12,-9.786 1.666,-13.834"/>
   <path id="svg_12" fill="#475669" d="m39.393,3.08c3.039,2.809 6.3,7.186 8.347,11.786c0.755,-3.286 1.03,-6.553 0.785,-9.486c-2.784,-1.111 -6.07,-1.928 -9.132,-2.3m8.793,16.435a1.114,1.114 0 0 1 -1.35,-0.753c-2.033,-6.712 -7.728,-13.845 -11.57,-16.05a1.113,1.113 0 1 1 0.545,-2.078c4.36,-0.025 9.93,1.133 14.19,2.95c0.368,0.157 0.623,0.5 0.668,0.9c0.487,4.35 -0.122,9.43 -1.714,14.302a1.112,1.112 0 0 1 -0.769,0.729"/>
   <path id="svg_13" fill="#F8A468" d="m1.53,43.17c-0.41,-4.458 -0.39,-9.497 0.822,-14.586c1.775,0.731 10.019,8.551 12.12,15.792c-4.88,0.492 -10.043,-0.101 -12.942,-1.206"/>
   <path id="svg_14" fill="#475669" d="m2.575,42.357c2.655,0.842 6.661,1.233 10.387,1.022c-2.118,-5.464 -7.366,-10.92 -9.867,-12.96c-0.699,3.652 -0.869,7.58 -0.52,11.938m12.186,3.093a1.046,1.046 0 0 1 -0.176,0.032c-4.781,0.483 -10.187,-0.028 -13.45,-1.273a1.112,1.112 0 0 1 -0.711,-0.938c-0.509,-5.529 -0.232,-10.417 0.848,-14.945a1.11,1.11 0 0 1 1.501,-0.77c2.189,0.9 10.596,9.032 12.767,16.51a1.112,1.112 0 0 1 -0.779,1.384"/>
  </g>
  <text x="2" xml:space="preserve" text-anchor="start" font-family="Helvetica, Arial, sans-serif" font-size="15" id="svg_17" y="73.421875" fill-opacity="null" stroke-opacity="null" stroke-width="0" stroke="#000" fill="#000000">PM-83</text>
 </g>
</svg>