<svg width="55" height="80" xmlns="http://www.w3.org/2000/svg">
 <title>A0D4C21F-3241-4453-8A03-2CC3B86334B6</title>

 <g>
  <title>background</title>
  <rect fill="none" id="canvas_background" height="82" width="57" y="-1" x="-1"/>
 </g>
 <g>
  <title>Layer 1</title>
  <g id="svg_1" fill="none" fill-rule="nonzero">
   <path id="svg_2" fill="#43BC79" d="m4.97,30.433l0,10.542c0,0.773 -0.629,1.401 -1.402,1.401l-0.026,0a1.403,1.403 0 0 1 -1.4,-1.401l0,-10.542c0,-0.772 0.628,-1.394 1.426,-1.394c0.773,0 1.402,0.622 1.402,1.394z"/>
   <path id="svg_3" fill="#4D5768" d="m3.542,27.042a3.392,3.392 0 0 0 -3.391,3.391l0,10.542a3.398,3.398 0 0 0 3.391,3.398l0.026,0a3.404,3.404 0 0 0 3.399,-3.398l0,-10.542c0,-1.872 -1.526,-3.391 -3.425,-3.391zm2.423,13.933a2.398,2.398 0 0 1 -2.397,2.396l-0.026,0a2.398,2.398 0 0 1 -2.396,-2.396l0,-10.542a2.398,2.398 0 0 1 2.396,-2.396l0.026,0a2.398,2.398 0 0 1 2.397,2.396l0,10.542z"/>
   <path id="svg_4" fill="#4D5768" d="m3.568,28.037l-0.026,0a2.398,2.398 0 0 0 -2.396,2.396l0,10.542a2.398,2.398 0 0 0 2.396,2.396l0.026,0a2.398,2.398 0 0 0 2.397,-2.396l0,-10.542a2.398,2.398 0 0 0 -2.397,-2.396zm1.402,12.938c0,0.773 -0.629,1.401 -1.402,1.401l-0.026,0a1.403,1.403 0 0 1 -1.4,-1.401l0,-10.542c0,-0.772 0.628,-1.394 1.426,-1.394c0.773,0 1.402,0.622 1.402,1.394l0,10.542z"/>
   <path id="svg_5" fill="#43BC79" d="m51.459,43.373l-0.03,0a2.395,2.395 0 0 1 -2.395,-2.395l0,-10.545a2.395,2.395 0 0 1 2.395,-2.395l0.03,0a2.395,2.395 0 0 1 2.395,2.395l0,10.544a2.395,2.395 0 0 1 -2.395,2.396z"/>
   <path id="svg_6" fill="#4D5768" d="m51.459,44.372l-0.03,0a3.398,3.398 0 0 1 -3.394,-3.394l0,-10.545a3.398,3.398 0 0 1 3.394,-3.395c1.901,0 3.424,1.523 3.424,3.395l0,10.544a3.398,3.398 0 0 1 -3.394,3.395zm0,-15.336c-0.8,0 -1.427,0.627 -1.427,1.397l0,10.545c0,0.77 0.627,1.396 1.397,1.396l0.03,0c0.77,0 1.397,-0.626 1.397,-1.396l0,-10.545c0,-0.77 -0.627,-1.397 -1.397,-1.397z"/>
   <g id="svg_7">
    <path id="svg_8" fill="#43BC79" d="m9.547,28.038l0,19.809c0,2.33 2.013,4.193 4.376,4.193l6.744,0l0,8.647a3.06,3.06 0 0 0 6.118,0l0,-8.647l3.2,0l0,8.647a3.06,3.06 0 0 0 6.119,0l0,-8.647l4.973,0c2.45,0 4.376,-1.864 4.376,-4.193l0,-19.81l-35.906,0l0,0.001z"/>
    <path id="svg_9" fill="#4D5768" d="m33.045,64.744a4.062,4.062 0 0 1 -4.058,-4.057l0,-7.648l-1.203,0l0,7.648a4.062,4.062 0 0 1 -4.058,4.057a4.062,4.062 0 0 1 -4.058,-4.057l0,-7.648l-5.745,0c-2.964,0 -5.374,-2.33 -5.374,-5.193l0,-20.806l37.903,0l0,20.807c0,2.912 -2.36,5.193 -5.374,5.193l-3.975,0l0,7.648a4.063,4.063 0 0 1 -4.058,4.057l0,-0.001zm-7.259,-13.702l5.198,0l0,9.645c0,1.136 0.924,2.06 2.06,2.06c1.136,0 2.06,-0.924 2.06,-2.06l0,-9.645l5.972,0c1.895,0 3.377,-1.404 3.377,-3.195l0,-18.81l-33.908,0l0,18.81c0,1.733 1.546,3.196 3.378,3.196l7.742,0l0,9.645c0,1.136 0.925,2.06 2.061,2.06s2.06,-0.924 2.06,-2.06l0,-9.648l0,0.002z"/>
   </g>
   <g id="svg_10">
    <path id="svg_11" fill="#43BC79" d="m45.434,24.259l-35.874,0c0.078,-3.202 0.72,-6.188 2.082,-8.741l30.983,0c0.118,0 0.236,-0.007 0.354,-0.026c1.519,2.553 2.35,5.539 2.455,8.767z"/>
    <g id="svg_12" fill="#4D5768">
     <ellipse id="svg_13" ry="1.283" rx="1.235" cy="18.114999" cx="36.104001"/>
     <ellipse id="svg_14" ry="1.283" rx="1.235" cy="18.114999" cx="19.432001"/>
    </g>
   </g>
   <g id="svg_15">
    <path id="svg_16" fill="#4D5768" d="m46.436,24.226c-0.105,-3.365 -0.963,-6.436 -2.495,-9.075c0.7,-0.419 1.166,-1.165 1.166,-2.01c0,-1.31 -1.114,-2.377 -2.482,-2.377l-1.179,0a16.154,16.154 0 0 0 -4.845,-4.76l2.509,-3.234a1.145,1.145 0 1 0 -1.807,-1.408l-2.737,3.523a15.326,15.326 0 0 0 -1.067,-0.452l-0.681,-0.256c-0.027,-0.006 -0.06,-0.02 -0.085,-0.026l-0.937,-0.334l0,0.053a17.526,17.526 0 0 0 -3.79,-0.59l0,-0.026l-0.852,0.007l-0.851,-0.007l0,0.026a17.988,17.988 0 0 0 -4.263,0.727l0,-0.065l-1.362,0.537l-0.059,0.02l-0.242,0.09l-2.54,-3.528a1.15,1.15 0 0 0 -1.598,-0.262a1.145,1.145 0 0 0 -0.262,1.604l2.325,3.228c-2.2,1.29 -4.086,3.051 -5.448,5.133l-1.198,0c-1.362,0 -2.475,1.068 -2.475,2.377c0,0.956 0.589,1.781 1.44,2.154c-1.283,2.501 -1.977,5.487 -2.056,8.938l-0.026,1.021l37.93,0l-0.032,-1.028l-0.001,0zm-34.781,-11.465l2.318,0l0.288,-0.478c0.124,-0.21 0.255,-0.412 0.393,-0.609a13.903,13.903 0 0 1 3.32,-3.437c0.477,-0.354 0.975,-0.681 1.499,-0.976c0.183,-0.111 0.373,-0.216 0.57,-0.314l0,0.648c0,0.269 0.09,0.511 0.255,0.707a1.137,1.137 0 0 0 2.03,-0.642c0.006,-0.019 0.006,-0.045 0.006,-0.065l0,-1.584a15.525,15.525 0 0 1 3.673,-0.714l0,3.706c0,0.629 0.51,1.133 1.146,1.133a1.14,1.14 0 0 0 1.146,-1.133l0,-3.706c1.093,0.079 2.16,0.268 3.202,0.563l0,1.735c0,0.603 0.471,1.094 1.067,1.133c0.026,0.007 0.052,0.007 0.078,0.007a1.14,1.14 0 0 0 1.009,-0.61a0.91,0.91 0 0 0 0.118,-0.346a0.828,0.828 0 0 0 0.02,-0.184l0,-0.87c0.196,0.091 0.386,0.183 0.575,0.288c0.34,0.176 0.675,0.366 1.002,0.576a6.484,6.484 0 0 1 0.635,0.419a13.898,13.898 0 0 1 4.034,4.275l0.294,0.478l2.292,0c0.262,0 0.478,0.177 0.478,0.38c0,0.144 -0.111,0.275 -0.268,0.334a0.447,0.447 0 0 1 -0.21,0.046l-30.97,0c-0.262,0 -0.478,-0.177 -0.478,-0.38s0.216,-0.38 0.478,-0.38zm-1.055,10.496c0.196,-3.018 0.93,-5.605 2.187,-7.74l29.033,0c1.44,2.227 2.318,4.853 2.56,7.74l-33.78,0z"/>
    <path id="svg_17" fill="#EBB764" d="m43.103,13.141c0,0.144 -0.111,0.275 -0.268,0.334a0.447,0.447 0 0 1 -0.21,0.046l-30.97,0c-0.262,0 -0.478,-0.177 -0.478,-0.38s0.216,-0.38 0.478,-0.38l2.318,0l0.288,-0.478c0.124,-0.21 0.255,-0.412 0.393,-0.609a13.903,13.903 0 0 1 3.32,-3.437c0.477,-0.354 0.975,-0.681 1.499,-0.976c0.183,-0.111 0.373,-0.216 0.57,-0.314l0,0.648c0,0.269 0.09,0.511 0.255,0.707a1.137,1.137 0 0 0 2.03,-0.642c0.006,-0.019 0.006,-0.045 0.006,-0.065l0,-1.584a15.525,15.525 0 0 1 3.673,-0.714l0,3.706c0,0.629 0.51,1.133 1.146,1.133a1.14,1.14 0 0 0 1.146,-1.133l0,-3.706c1.093,0.079 2.16,0.268 3.202,0.563l0,1.735c0,0.603 0.471,1.094 1.067,1.133c0.026,0.007 0.052,0.007 0.078,0.007a1.14,1.14 0 0 0 1.009,-0.61a0.91,0.91 0 0 0 0.118,-0.346a0.828,0.828 0 0 0 0.02,-0.184l0,-0.87c0.196,0.091 0.386,0.183 0.575,0.288c0.34,0.176 0.675,0.366 1.002,0.576a6.484,6.484 0 0 1 0.635,0.419a13.898,13.898 0 0 1 4.034,4.275l0.294,0.478l2.292,0c0.262,0 0.478,0.177 0.478,0.38z"/>
   </g>
  </g>
  <text xml:space="preserve" text-anchor="start" font-family="Helvetica, Arial, sans-serif" font-size="15" id="svg_18" y="78.421875" x="8.5" fill-opacity="null" stroke-opacity="null" stroke-width="0" stroke="#000" fill="#000000">FJ-57</text>
 </g>
</svg>