<svg width="55" height="80" xmlns="http://www.w3.org/2000/svg" xmlns:xlink="http://www.w3.org/1999/xlink">
 <title>0AB872A1-A7D7-4DCC-884C-6D63A21E0F25</title>
 <defs>
  <path d="m42.955,51.082l-42.955,0l0,-51.037l42.955,0l0,51.037z" id="a"/>
 </defs>
 <g>
  <title>background</title>
  <rect fill="none" id="canvas_background" height="82" width="57" y="-1" x="-1"/>
 </g>
 <g>
  <title>Layer 1</title>
  <g id="svg_1" fill-rule="evenodd" fill="none">
   <path id="svg_2" fill="#00C7DA" d="m18.887,2.1l-15.93,5.897c-1.483,0.479 -2.127,1.458 -2.004,2.892l2.162,26.06c0.178,1.657 0.445,2.393 1.643,3.248l14.173,9.76c1.624,1.126 3.343,1.158 5.168,-0.01l14.251,-9.841c1.07,-0.806 1.46,-1.552 1.62,-3.038l2.028,-25.47c0.143,-1.662 -0.443,-2.932 -2.067,-3.642l-15.767,-5.819c-1.601,-0.64 -3.542,-0.692 -5.277,-0.037"/>
   <g id="svg_3">
    <mask transform="translate(0,0.6549999713897705) " id="b">
     <use id="svg_4" xlink:href="#a"/>
    </mask>
    <path id="svg_5" mask="url(#b)" fill="#475669" d="m18.886,2.1l0.007,0l-0.007,0zm2.592,0.468a6.434,6.434 0 0 0 -2.264,0.404l-15.928,5.896c-1.093,0.354 -1.488,0.913 -1.4,1.942l2.164,26.062c0.163,1.521 0.363,1.933 1.255,2.57l14.16,9.75c1.338,0.928 2.649,0.919 4.126,-0.027l14.224,-9.824c0.82,-0.619 1.09,-1.133 1.222,-2.372l2.026,-25.444c0.119,-1.373 -0.347,-2.209 -1.51,-2.718l-15.715,-5.797a6.39,6.39 0 0 0 -2.36,-0.442zm-0.036,49.17c-1.048,0 -2.073,-0.34 -3.05,-1.018l-14.17,-9.758c-1.494,-1.066 -1.847,-2.11 -2.04,-3.915l-2.165,-26.081c-0.162,-1.881 0.78,-3.25 2.65,-3.855l15.889,-5.882c1.912,-0.721 4.084,-0.705 5.958,0.045l15.743,5.81c1.954,0.852 2.86,2.433 2.675,4.594l-2.028,25.463c-0.19,1.78 -0.71,2.743 -1.987,3.706l-14.283,9.865c-1.07,0.684 -2.142,1.026 -3.192,1.026z"/>
   </g>
   <path id="svg_6" fill="#475669" d="m21.644,24.542l4.724,0l-4.861,-10.485l-4.858,10.479l4.86,0c0.044,0 0.09,0.002 0.135,0.006m10.768,11.125a1.384,1.384 0 0 1 -1.258,-0.8l-3.513,-7.578l-6.133,0a1.24,1.24 0 0 1 -0.135,-0.007l-5.998,0l-3.513,7.579c-0.32,0.69 -1.143,0.99 -1.835,0.673a1.37,1.37 0 0 1 -0.679,-1.822l10.89,-23.49c0.28,-0.604 0.957,-0.921 1.6,-0.757c0.404,0.102 0.766,0.387 0.94,0.763l6.997,15.092l0.02,0.044l3.873,8.355c0.32,0.69 0.016,1.505 -0.679,1.822a1.376,1.376 0 0 1 -0.577,0.126"/>
  </g>
  <text xml:space="preserve" text-anchor="start" font-family="Helvetica, Arial, sans-serif" font-size="15" id="svg_7" y="69.421875" x="2.5" fill-opacity="null" stroke-opacity="null" stroke-width="0" stroke="#000" fill="#000000">JS-45</text>
 </g>
</svg>