<svg width="60" height="80" xmlns="http://www.w3.org/2000/svg" xmlns:xlink="http://www.w3.org/1999/xlink">
 <title>A450A2C1-78B1-41C9-A38D-8E7FAEC6495F</title>
 <defs>
  <path d="m0,0.258l0,31.78l38.403,0l0,-31.779l-38.403,-0.001z" id="a"/>
 </defs>
 <g>
  <title>background</title>
  <rect fill="none" id="canvas_background" height="82" width="62" y="-1" x="-1"/>
 </g>
 <g>
  <title>Layer 1</title>
  <g id="svg_1" fill-rule="evenodd" fill="none">
   <path id="svg_2" fill="#63D2DD" d="m33.856,25.656c0.288,-0.45 0.702,-0.715 1.242,-0.792c0.538,-0.078 0.993,0.053 1.366,0.393a11.256,11.256 0 0 0 4.06,2.035c1.47,0.392 2.922,0.504 4.355,0.332a11.532,11.532 0 0 0 4.121,-1.314c1.313,-0.705 2.45,-1.676 3.417,-2.913c0.962,-1.236 1.632,-2.568 2.01,-3.996c0.376,-1.425 0.466,-2.855 0.275,-4.285a12.025,12.025 0 0 0 -1.346,-4.116c-0.706,-1.314 -1.676,-2.452 -2.913,-3.416c-1.235,-0.964 -2.568,-1.634 -3.994,-2.01a10.96,10.96 0 0 0 -4.286,-0.277a11.88,11.88 0 0 0 -4.144,1.38a11.04,11.04 0 0 0 -3.444,2.947l-9.25,11.06c-0.293,0.409 -0.72,0.654 -1.278,0.733c-0.56,0.08 -1.026,-0.05 -1.398,-0.39c-0.454,-0.332 -0.71,-0.766 -0.767,-1.308c-0.057,-0.54 0.062,-1.015 0.356,-1.424l9.31,-11.067c1.299,-1.649 2.822,-2.964 4.57,-3.947a14.615,14.615 0 0 1 5.518,-1.808c1.932,-0.223 3.88,-0.08 5.847,0.429c1.966,0.51 3.814,1.388 5.544,2.636a15.215,15.215 0 0 1 3.783,4.522c0.96,1.75 1.552,3.59 1.776,5.522c0.223,1.932 0.09,3.87 -0.4,5.813c-0.49,1.944 -1.386,3.74 -2.682,5.39c-1.3,1.65 -2.815,2.954 -4.543,3.913a14.674,14.674 0 0 1 -5.491,1.773c-1.93,0.225 -3.87,0.08 -5.817,-0.431c-1.944,-0.512 -3.765,-1.434 -5.462,-2.771c-0.456,-0.332 -0.71,-0.755 -0.764,-1.277c-0.053,-0.52 0.089,-0.964 0.428,-1.337"/>
   <path id="svg_3" fill="#475669" d="m33.856,25.656l0.006,0l-0.006,0zm1.532,-0.024c-0.055,0 -0.115,0.005 -0.178,0.014a0.905,0.905 0 0 0 -0.688,0.436a0.754,0.754 0 0 1 -0.082,0.106c-0.187,0.205 -0.257,0.429 -0.226,0.724c0.031,0.297 0.167,0.519 0.443,0.72c1.625,1.28 3.366,2.163 5.198,2.645c1.843,0.484 3.702,0.622 5.525,0.41a13.975,13.975 0 0 0 5.198,-1.678c1.629,-0.904 3.077,-2.152 4.306,-3.712c1.223,-1.555 2.077,-3.27 2.537,-5.094c0.465,-1.84 0.593,-3.7 0.381,-5.529a14.253,14.253 0 0 0 -1.683,-5.233a14.491,14.491 0 0 0 -3.59,-4.29a15.733,15.733 0 0 0 -5.245,-2.485c-1.862,-0.481 -3.734,-0.62 -5.558,-0.409a13.892,13.892 0 0 0 -5.222,1.713c-1.65,0.928 -3.108,2.188 -4.336,3.747l-9.304,11.061c-0.17,0.246 -0.232,0.52 -0.197,0.859c0.034,0.318 0.172,0.55 0.448,0.753a0.918,0.918 0 0 1 0.065,0.053c0.132,0.12 0.339,0.252 0.757,0.193c0.45,-0.065 0.642,-0.266 0.747,-0.413a0.667,0.667 0 0 1 0.036,-0.046l9.249,-11.06a11.84,11.84 0 0 1 3.67,-3.133a12.718,12.718 0 0 1 4.419,-1.47a11.792,11.792 0 0 1 4.592,0.296c1.527,0.403 2.967,1.127 4.279,2.151c1.317,1.026 2.368,2.26 3.123,3.665a12.884,12.884 0 0 1 1.432,4.385a11.8,11.8 0 0 1 -0.295,4.592c-0.402,1.524 -1.127,2.964 -2.15,4.28c-1.031,1.319 -2.264,2.37 -3.666,3.123a12.375,12.375 0 0 1 -4.4,1.402c-1.526,0.182 -3.09,0.064 -4.652,-0.353a12.11,12.11 0 0 1 -4.343,-2.175l-0.046,-0.039a0.763,0.763 0 0 0 -0.544,-0.209zm8.326,6.732a16.72,16.72 0 0 1 -4.26,-0.56c-2.044,-0.537 -3.979,-1.517 -5.75,-2.913a2.535,2.535 0 0 1 -1.062,-1.815c-0.074,-0.719 0.129,-1.374 0.586,-1.902a2.487,2.487 0 0 1 1.758,-1.092c0.76,-0.107 1.443,0.088 1.985,0.569a10.528,10.528 0 0 0 3.757,1.878c1.367,0.364 2.733,0.47 4.057,0.31a10.807,10.807 0 0 0 3.84,-1.226c1.208,-0.648 2.274,-1.557 3.168,-2.702c0.892,-1.146 1.52,-2.394 1.869,-3.711c0.347,-1.316 0.433,-2.655 0.256,-3.979a11.317,11.317 0 0 0 -1.258,-3.849c-0.65,-1.21 -1.56,-2.274 -2.703,-3.165c-1.143,-0.892 -2.391,-1.521 -3.71,-1.87a10.228,10.228 0 0 0 -3.98,-0.257c-1.328,0.178 -2.63,0.612 -3.87,1.29a10.316,10.316 0 0 0 -3.199,2.738l-9.249,11.062c-0.416,0.566 -1.035,0.92 -1.79,1.03c-0.775,0.108 -1.469,-0.085 -2.01,-0.56a2.594,2.594 0 0 1 -1.053,-1.838c-0.077,-0.736 0.091,-1.4 0.501,-1.969l0.037,-0.046l9.31,-11.067a16.193,16.193 0 0 1 4.786,-4.127a15.461,15.461 0 0 1 5.815,-1.905a16.792,16.792 0 0 1 6.135,0.448c2.053,0.533 4.007,1.462 5.809,2.761a16.092,16.092 0 0 1 4.014,4.783a15.81,15.81 0 0 1 1.868,5.813c0.234,2.02 0.093,4.072 -0.419,6.097c-0.514,2.04 -1.465,3.953 -2.827,5.684c-1.36,1.726 -2.968,3.11 -4.78,4.116a15.539,15.539 0 0 1 -5.784,1.867c-0.612,0.071 -1.228,0.107 -1.847,0.107z"/>
   <path id="svg_4" fill="#6A97E3" d="m25.625,10.341a1.7,1.7 0 0 1 -1.243,0.792c-0.536,0.077 -0.993,-0.053 -1.365,-0.393a11.252,11.252 0 0 0 -4.06,-2.035c-1.47,-0.393 -2.922,-0.503 -4.355,-0.332c-1.433,0.171 -2.807,0.61 -4.12,1.315c-1.314,0.705 -2.45,1.675 -3.416,2.912c-0.964,1.236 -1.633,2.567 -2.01,3.995a10.957,10.957 0 0 0 -0.276,4.285c0.192,1.43 0.64,2.803 1.345,4.118c0.706,1.313 1.676,2.45 2.912,3.415c1.236,0.964 2.569,1.633 3.995,2.01c1.427,0.376 2.856,0.467 4.286,0.277a11.872,11.872 0 0 0 4.144,-1.38a11.036,11.036 0 0 0 3.444,-2.947l9.25,-11.06c0.293,-0.409 0.72,-0.654 1.278,-0.733c0.561,-0.08 1.026,0.05 1.399,0.39c0.453,0.331 0.71,0.766 0.767,1.307c0.057,0.54 -0.063,1.016 -0.357,1.424l-9.31,11.068c-1.298,1.649 -2.822,2.964 -4.57,3.947a14.619,14.619 0 0 1 -5.517,1.808c-1.933,0.223 -3.88,0.08 -5.848,-0.429c-1.966,-0.51 -3.814,-1.388 -5.543,-2.636a15.208,15.208 0 0 1 -3.785,-4.523a14.965,14.965 0 0 1 -1.776,-5.523c-0.224,-1.93 -0.09,-3.869 0.4,-5.812c0.49,-1.944 1.385,-3.74 2.683,-5.39c1.3,-1.65 2.813,-2.954 4.542,-3.913a14.683,14.683 0 0 1 5.491,-1.774c1.931,-0.224 3.87,-0.08 5.817,0.432c1.944,0.511 3.766,1.435 5.462,2.771c0.455,0.33 0.71,0.755 0.764,1.276c0.055,0.52 -0.088,0.965 -0.428,1.338"/>
   <g id="svg_5">
    <mask transform="translate(0,3.375) " id="b">
     <use id="svg_6" xlink:href="#a"/>
    </mask>
    <path id="svg_7" mask="url(#b)" fill="#475669" d="m15.764,5.212a13.98,13.98 0 0 0 -6.862,1.776c-1.626,0.902 -3.075,2.15 -4.305,3.712c-1.224,1.555 -2.077,3.269 -2.537,5.094c-0.465,1.84 -0.593,3.7 -0.381,5.528c0.21,1.822 0.777,3.583 1.683,5.234a14.5,14.5 0 0 0 3.59,4.29a15.776,15.776 0 0 0 5.243,2.485c1.866,0.48 3.737,0.617 5.56,0.408a13.906,13.906 0 0 0 5.222,-1.712c1.649,-0.927 3.108,-2.188 4.336,-3.747l9.304,-11.062c0.17,-0.246 0.233,-0.52 0.197,-0.858c-0.034,-0.319 -0.172,-0.55 -0.448,-0.753a0.824,0.824 0 0 1 -0.064,-0.053c-0.134,-0.122 -0.34,-0.255 -0.757,-0.192c-0.452,0.064 -0.643,0.265 -0.747,0.41a0.907,0.907 0 0 1 -0.036,0.047l-9.25,11.06a11.842,11.842 0 0 1 -3.671,3.134a12.739,12.739 0 0 1 -4.418,1.47c-1.53,0.203 -3.077,0.104 -4.592,-0.296c-1.529,-0.405 -2.968,-1.128 -4.28,-2.152c-1.316,-1.027 -2.367,-2.259 -3.122,-3.663a12.882,12.882 0 0 1 -1.432,-4.387a11.794,11.794 0 0 1 0.295,-4.592c0.403,-1.525 1.126,-2.964 2.151,-4.28c1.029,-1.318 2.262,-2.368 3.665,-3.12a12.358,12.358 0 0 1 4.401,-1.403a12.306,12.306 0 0 1 4.651,0.353a12.088,12.088 0 0 1 4.39,2.214c0.131,0.12 0.328,0.25 0.72,0.195a0.912,0.912 0 0 0 0.69,-0.437a0.776,0.776 0 0 1 0.08,-0.104c0.188,-0.207 0.258,-0.43 0.227,-0.725c-0.03,-0.298 -0.167,-0.519 -0.442,-0.719c-1.627,-1.281 -3.368,-2.165 -5.2,-2.646a15.16,15.16 0 0 0 -3.861,-0.508m0.323,30.202c-1.421,0 -2.856,-0.185 -4.287,-0.554c-2.053,-0.533 -4.007,-1.462 -5.808,-2.761a16.1,16.1 0 0 1 -4.014,-4.782a15.819,15.819 0 0 1 -1.869,-5.813c-0.233,-2.02 -0.092,-4.07 0.42,-6.096c0.513,-2.041 1.465,-3.954 2.828,-5.686c1.36,-1.726 2.968,-3.11 4.78,-4.116a15.544,15.544 0 0 1 5.781,-1.868a16.468,16.468 0 0 1 6.109,0.453c2.042,0.536 3.976,1.517 5.75,2.915a2.53,2.53 0 0 1 1.06,1.814a2.444,2.444 0 0 1 -0.585,1.902a2.494,2.494 0 0 1 -1.758,1.092c-0.759,0.108 -1.445,-0.089 -1.985,-0.57a10.512,10.512 0 0 0 -3.757,-1.877a10.7,10.7 0 0 0 -4.057,-0.31c-1.328,0.157 -2.62,0.57 -3.84,1.226c-1.21,0.648 -2.274,1.557 -3.167,2.701c-0.892,1.146 -1.521,2.394 -1.87,3.712a10.23,10.23 0 0 0 -0.256,3.978a11.32,11.32 0 0 0 1.258,3.85c0.65,1.209 1.559,2.274 2.702,3.165c1.142,0.89 2.391,1.52 3.712,1.87c1.314,0.346 2.653,0.433 3.978,0.257a11.153,11.153 0 0 0 3.87,-1.29a10.308,10.308 0 0 0 3.2,-2.74l9.25,-11.06c0.416,-0.567 1.034,-0.922 1.79,-1.029c0.775,-0.11 1.468,0.082 2.01,0.559c0.61,0.46 0.974,1.095 1.052,1.838c0.078,0.735 -0.09,1.397 -0.5,1.968a0.729,0.729 0 0 1 -0.037,0.047l-9.31,11.067a16.206,16.206 0 0 1 -4.787,4.127a15.443,15.443 0 0 1 -7.664,2.01"/>
   </g>
  </g>
  <text xml:space="preserve" text-anchor="start" font-family="Helvetica, Arial, sans-serif" font-size="15" id="svg_8" y="62.421875" x="8" fill-opacity="null" stroke-opacity="null" stroke-width="0" stroke="#000" fill="#000000">FN-23</text>
 </g>
</svg>