<svg xmlns="http://www.w3.org/2000/svg" width="64" height="57" viewBox="0 0 64 57">
    <g fill="none" fill-rule="evenodd">
        <path fill="#FFF" d="M57.678 25.88c-1.597-.998-2.096-3.094-.898-4.592 1.397-1.896.299-4.691-2.097-5.09-1.896-.3-3.094-2.096-2.595-3.893.599-2.296-1.497-4.492-3.893-3.893-1.797.499-3.693-.799-3.893-2.595-.3-2.396-3.094-3.494-5.09-2.097-1.498 1.098-3.694.7-4.592-.898-1.198-2.096-4.192-2.096-5.49 0-.998 1.597-3.094 2.096-4.592.898-1.896-1.397-4.691-.299-5.09 2.097-.3 1.896-2.096 3.094-3.893 2.595-2.296-.599-4.492 1.497-3.893 3.893.499 1.797-.799 3.693-2.595 3.893-2.396.3-3.494 3.094-2.097 5.09 1.098 1.498.7 3.694-.898 4.592-2.096 1.198-2.096 4.192 0 5.49 1.597.998 2.096 3.094.898 4.592-1.397 1.896-.299 4.691 2.097 5.09 1.896.3 3.094 2.096 2.595 3.893-.599 2.296 1.497 4.492 3.893 3.893 1.797-.499 3.693.799 3.893 2.595.3 2.396 3.094 3.494 5.09 2.097 1.498-1.098 3.694-.7 4.592.898 1.198 2.096 4.192 2.096 5.49 0 .998-1.597 3.094-2.096 4.592-.898 1.896 1.397 4.691.299 5.09-2.097.3-1.896 2.096-3.094 3.893-2.595 2.296.599 4.492-1.497 3.893-3.893-.499-1.797.799-3.693 2.595-3.893 2.396-.3 3.494-3.094 2.097-5.09-1.098-1.498-.7-3.694.898-4.592 2.096-1.298 2.096-4.292 0-5.49"/>
        <path fill="#FF9A5D" d="M32.125 7.5C20.411 7.5 11 17.011 11 28.625c0 11.714 9.511 21.125 21.125 21.125 11.714 0 21.125-9.511 21.125-21.125A21.065 21.065 0 0 0 32.125 7.5"/>
        <path fill="#009EDC" d="M61 37H3c-1.1 0-2-.897-2-1.994V22.244c0-1.097.9-1.994 2-1.994h58c1.1 0 2 .897 2 1.994v12.762C63 36.103 62.1 37 61 37"/>
        <path fill="#475669" d="M51.3 45.149c.4 1.604-1.1 3.107-2.7 2.706-2.4-.601-4.8 1.002-5.2 3.508-.2 1.603-2.1 2.405-3.5 1.403-2-1.504-4.8-.902-6.1 1.202-.8 1.403-2.9 1.403-3.8 0-1.3-2.104-4.1-2.706-6.1-1.202-1.3 1.002-3.2.2-3.5-1.403-.4-2.506-2.8-4.11-5.2-3.508-1.6.4-3.1-1.102-2.7-2.706.6-2.405-1-4.81-3.5-5.212-1-.1-1.8-.901-1.9-2.004h49.2c-.1 1.103-.9 1.904-1.9 2.004-2.1.401-3.7 2.807-3.1 5.212zM3 35.929c-.6 0-1-.401-1-1.002V22.098c0-.6.4-1.002 1-1.002h58c.6 0 1 .401 1 1.002v12.829c0 .6-.4 1.002-1 1.002H3zm6.2-18.942c2.5-.4 4.1-2.806 3.5-5.211-.4-1.604 1-3.107 2.7-2.706 2.4.601 4.8-1.002 5.2-3.508.2-1.603 2.1-2.405 3.5-1.403 2 1.503 4.8.902 6.1-1.203.8-1.403 2.9-1.403 3.8 0 1.1 2.205 4 2.807 6 1.303 1.3-1.002 3.2-.2 3.5 1.403.4 2.506 2.8 4.11 5.2 3.508 1.6-.4 3.1 1.002 2.7 2.706-.6 2.405 1 4.81 3.5 5.212 1.1.2 1.8 1.002 1.9 2.004H7.4c0-1.002.8-1.904 1.8-2.105zm45.9 24.955c2-.3 3.5-2.005 3.6-4.009H61c1.7 0 3-1.303 3-3.006V22.098c0-1.703-1.3-3.006-3-3.006h-2.4c-.1-2.004-1.5-3.708-3.6-4.009-1.3-.2-2.1-1.403-1.8-2.706.8-3.107-2-5.913-5.1-5.111-1.3.3-2.5-.501-2.7-1.804-.5-3.107-4.1-4.71-6.7-2.806-1 .801-2.5.501-3.2-.601C34.7.752 33.4.05 31.9.05s-2.8.802-3.6 2.005c-.7 1.102-2.1 1.402-3.2.6-2.5-1.903-6.2-.4-6.7 2.807-.2 1.303-1.4 2.105-2.7 1.804-3.1-.802-5.9 2.004-5.1 5.111.3 1.303-.5 2.506-1.8 2.706-2 .3-3.5 2.005-3.6 4.009H3c-1.7 0-3 1.303-3 3.006v12.829c0 1.703 1.3 3.006 3 3.006h2.4c.1 2.105 1.6 3.708 3.6 4.009 1.3.2 2.1 1.403 1.8 2.706-.8 3.107 2 5.913 5.1 5.111 1.3-.3 2.5.501 2.7 1.804.5 3.107 4.1 4.71 6.7 2.806 1-.802 2.5-.5 3.2.601 1.6 2.707 5.6 2.707 7.2 0 .7-1.102 2.1-1.403 3.2-.6 2.5 1.903 6.2.4 6.7-2.807.2-1.303 1.4-2.105 2.7-1.804 3.1.802 5.9-2.004 5.1-5.111-.5-1.203.4-2.506 1.7-2.706z"/>
        <path fill="#FFF" d="M19.099 25.709c-.655 0-1.162.248-1.52.744-.36.495-.54 1.186-.54 2.072 0 1.844.687 2.766 2.06 2.766.576 0 1.273-.145 2.092-.436v1.47c-.673.284-1.425.425-2.255.425-1.193 0-2.106-.365-2.738-1.094-.632-.73-.948-1.777-.948-3.142 0-.86.155-1.613.466-2.26a3.383 3.383 0 0 1 1.338-1.487c.581-.345 1.263-.517 2.045-.517.796 0 1.597.194 2.401.582l-.561 1.426a9.263 9.263 0 0 0-.926-.385 2.743 2.743 0 0 0-.914-.164M29 30.34c0 .747-.262 1.335-.785 1.765-.523.43-1.252.645-2.184.645-.86 0-1.62-.166-2.281-.498v-1.629a9.24 9.24 0 0 0 1.38.526c.376.102.72.153 1.033.153.375 0 .662-.073.862-.22.2-.147.3-.366.3-.656a.738.738 0 0 0-.132-.433 1.5 1.5 0 0 0-.388-.365c-.171-.117-.52-.303-1.044-.56-.492-.237-.862-.465-1.108-.684a2.557 2.557 0 0 1-.589-.763c-.147-.29-.22-.63-.22-1.019 0-.73.241-1.306.724-1.724.483-.419 1.15-.628 2.003-.628.418 0 .818.05 1.198.153.38.101.777.245 1.192.43l-.55 1.362a7.948 7.948 0 0 0-1.066-.379 3.355 3.355 0 0 0-.83-.107c-.323 0-.57.077-.743.232a.774.774 0 0 0-.26.605c0 .155.036.29.105.404.07.115.181.227.334.334.152.107.513.3 1.082.58.753.37 1.27.74 1.548 1.111.28.371.419.827.419 1.366M33.515 28.382h.58c.543 0 .95-.106 1.219-.318.27-.213.404-.522.404-.929 0-.41-.113-.713-.339-.908-.226-.196-.58-.294-1.061-.294h-.803v2.45zm3.985-1.309c0 .888-.28 1.567-.84 2.037-.56.47-1.356.706-2.388.706h-.757v2.934H31.75V24.5h2.659c1.01 0 1.777.215 2.302.646.526.431.789 1.073.789 1.927zM41.56 28.497c0 .923.172 1.617.517 2.084.345.467.861.7 1.548.7 1.377 0 2.066-.928 2.066-2.784 0-1.86-.685-2.79-2.055-2.79-.687 0-1.204.234-1.553.703-.35.47-.524 1.165-.524 2.087m5.941 0c0 1.367-.334 2.417-1.002 3.152-.668.734-1.626 1.101-2.873 1.101-1.247 0-2.205-.367-2.873-1.101-.668-.735-1.002-1.789-1.002-3.163 0-1.374.335-2.424 1.005-3.149.67-.725 1.63-1.087 2.881-1.087 1.25 0 2.208.365 2.87 1.096.663.73.994 1.78.994 3.151"/>
    </g>
</svg>
