<svg xmlns="http://www.w3.org/2000/svg" width="64" height="57" viewBox="0 0 64 57">
    <defs>
        <path id="a" d="M0 .05h64v56.825H0V.05v56.825h64V.05H0z"/>
    </defs>
    <g fill="none" fill-rule="evenodd">
        <path fill="#FFF" d="M57.9 25.825c-1.6-1-2.1-3.1-.9-4.6 1.4-1.9.3-4.7-2.1-5.1-1.9-.3-3.1-2.1-2.6-3.9.6-2.3-1.5-4.5-3.9-3.9-1.8.5-3.7-.8-3.9-2.6-.3-2.4-3.1-3.5-5.1-2.1-1.5 1.1-3.7.7-4.6-.9-1.2-2.1-4.2-2.1-5.5 0-1 1.6-3.1 2.1-4.6.9-1.9-1.4-4.7-.3-5.1 2.1-.3 1.9-2.1 3.1-3.9 2.6-2.3-.6-4.5 1.5-3.9 3.9.5 1.8-.8 3.7-2.6 3.9-2.4.3-3.5 3.1-2.1 5.1 1.1 1.5.7 3.7-.9 4.6-2.1 1.2-2.1 4.2 0 5.5 1.6 1 2.1 3.1.9 4.6-1.4 1.9-.3 4.7 2.1 5.1 1.9.3 3.1 2.1 2.6 3.9-.6 2.3 1.5 4.5 3.9 3.9 1.8-.5 3.7.8 3.9 2.6.3 2.4 3.1 3.5 5.1 2.1 1.5-1.1 3.7-.7 4.6.9 1.2 2.1 4.2 2.1 5.5 0 1-1.6 3.1-2.1 4.6-.9 1.9 1.4 4.7.3 5.1-2.1.3-1.9 2.1-3.1 3.9-2.6 2.3.6 4.5-1.5 3.9-3.9-.5-1.8.8-3.7 2.6-3.9 2.4-.3 3.5-3.1 2.1-5.1-1.1-1.5-.7-3.7.9-4.6 2.1-1.3 2.1-4.3 0-5.5"/>
        <path fill="#FFBF5D" d="M32 7.425c-11.7 0-21.1 9.5-21.1 21.1 0 11.7 9.5 21.1 21.1 21.1 11.7 0 21.1-9.5 21.1-21.1 0-11.7-9.4-21.1-21.1-21.1"/>
        <path fill="#009EDC" d="M61 36.925H3c-1.1 0-2-.9-2-2v-12.8c0-1.1.9-2 2-2h58c1.1 0 2 .9 2 2v12.8c0 1.1-.9 2-2 2"/>
        <path fill="#475669" d="M51.3 45.125c.4 1.6-1.1 3.1-2.7 2.7-2.4-.6-4.8 1-5.2 3.5-.2 1.6-2.1 2.4-3.5 1.4-2-1.5-4.8-.9-6.1 1.2-.8 1.4-2.9 1.4-3.8 0-1.3-2.1-4.1-2.7-6.1-1.2-1.3 1-3.2.2-3.5-1.4-.4-2.5-2.8-4.1-5.2-3.5-1.6.4-3.1-1.1-2.7-2.7.6-2.4-1-4.8-3.5-5.2-1-.1-1.8-.9-1.9-2h49.2c-.1 1.1-.9 1.9-1.9 2-2.1.4-3.7 2.8-3.1 5.2zM3 35.925c-.6 0-1-.4-1-1v-12.8c0-.6.4-1 1-1h58c.6 0 1 .4 1 1v12.8c0 .6-.4 1-1 1H3zm6.2-18.9c2.5-.4 4.1-2.8 3.5-5.2-.4-1.6 1-3.1 2.7-2.7 2.4.6 4.8-1 5.2-3.5.2-1.6 2.1-2.4 3.5-1.4 2 1.5 4.8.9 6.1-1.2.8-1.4 2.9-1.4 3.8 0 1.1 2.2 4 2.8 6 1.3 1.3-1 3.2-.2 3.5 1.4.4 2.5 2.8 4.1 5.2 3.5 1.6-.4 3.1 1 2.7 2.7-.6 2.4 1 4.8 3.5 5.2 1.1.2 1.8 1 1.9 2H7.4c0-1 .8-1.9 1.8-2.1zm45.9 24.9c2-.3 3.5-2 3.6-4H61c1.7 0 3-1.3 3-3v-12.8c0-1.7-1.3-3-3-3h-2.4c-.1-2-1.5-3.7-3.6-4-1.3-.2-2.1-1.4-1.8-2.7.8-3.1-2-5.9-5.1-5.1-1.3.3-2.5-.5-2.7-1.8-.5-3.1-4.1-4.7-6.7-2.8-1 .8-2.5.5-3.2-.6-.8-1.3-2.1-2-3.6-2s-2.8.8-3.6 2c-.7 1.1-2.1 1.4-3.2.6-2.5-1.9-6.2-.4-6.7 2.8-.2 1.3-1.4 2.1-2.7 1.8-3.1-.8-5.9 2-5.1 5.1.3 1.3-.5 2.5-1.8 2.7-2 .3-3.5 2-3.6 4H3c-1.7 0-3 1.3-3 3v12.8c0 1.7 1.3 3 3 3h2.4c.1 2.1 1.6 3.7 3.6 4 1.3.2 2.1 1.4 1.8 2.7-.8 3.1 2 5.9 5.1 5.1 1.3-.3 2.5.5 2.7 1.8.5 3.1 4.1 4.7 6.7 2.8 1-.8 2.5-.5 3.2.6 1.6 2.7 5.6 2.7 7.2 0 .7-1.1 2.1-1.4 3.2-.6 2.5 1.9 6.2.4 6.7-2.8.2-1.3 1.4-2.1 2.7-1.8 3.1.8 5.9-2 5.1-5.1-.5-1.2.4-2.5 1.7-2.7z"/>
        <path fill="#FFF" d="M22.292 25.769c-.657 0-1.165.247-1.525.74-.36.493-.54 1.18-.54 2.062 0 1.835.688 2.752 2.065 2.752.577 0 1.277-.144 2.099-.433v1.463c-.675.281-1.43.422-2.262.422-1.197 0-2.113-.363-2.747-1.089-.634-.726-.95-1.768-.95-3.126 0-.855.155-1.605.466-2.248a3.376 3.376 0 0 1 1.343-1.48c.583-.343 1.267-.515 2.05-.515.8 0 1.603.193 2.41.58l-.563 1.418a9.33 9.33 0 0 0-.929-.383 2.772 2.772 0 0 0-.917-.163M32.611 30.378c0 .742-.267 1.328-.802 1.755-.535.428-1.278.642-2.231.642-.878 0-1.655-.165-2.33-.495v-1.621a9.59 9.59 0 0 0 1.41.523c.384.102.736.152 1.055.152.382 0 .676-.073.88-.22.205-.145.307-.363.307-.652a.72.72 0 0 0-.135-.43 1.513 1.513 0 0 0-.397-.363c-.174-.117-.53-.302-1.066-.558-.503-.236-.88-.463-1.131-.68a2.552 2.552 0 0 1-.602-.76 2.169 2.169 0 0 1-.225-1.013c0-.728.246-1.3.74-1.716.493-.417 1.175-.625 2.045-.625.428 0 .836.05 1.224.152.388.101.795.244 1.219.427l-.563 1.357a8.258 8.258 0 0 0-1.089-.377 3.512 3.512 0 0 0-.847-.107c-.33 0-.584.077-.76.23a.761.761 0 0 0-.264.603c0 .153.035.288.107.402.071.114.185.225.34.332.156.107.524.3 1.106.577.77.368 1.296.736 1.581 1.106.285.37.428.822.428 1.359M38.738 32.662l-1.98-6.454h-.051c.07 1.313.107 2.189.107 2.628v3.826h-1.56v-8.227h2.376l1.947 6.292h.034l2.065-6.292h2.375v8.227h-1.627v-3.894c0-.184.003-.395.009-.636.005-.24.03-.878.076-1.913h-.051l-2.122 6.443h-1.598z"/>
    </g>
</svg>
