<svg width="57" height="80" xmlns="http://www.w3.org/2000/svg" xmlns:xlink="http://www.w3.org/1999/xlink">
 <title>EA9D6D1A-522E-496C-9C9F-CF6562813894</title>
 <defs>
  <path d="m0,0.568l0,9.342l56.5,0l0,-9.34l-56.5,0l0,-0.002z" id="a"/>
  <path d="m0,0.322l0,9.341l56.5,0l0,-9.34l-56.5,0l0,-0.001z" id="c"/>
  <path d="m0.07,0.5l9.34,0l0,56.5l-9.34,0l0,-56.5z" id="e"/>
  <path d="m0.518,0.5l9.34,0l0,56.5l-9.339,0l0,-56.5l-0.001,0z" id="g"/>
 </defs>
 <g>
  <title>background</title>
  <rect fill="none" id="canvas_background" height="82" width="59" y="-1" x="-1"/>
 </g>
 <g>
  <title>Layer 1</title>
  <g id="svg_1" fill-rule="evenodd" fill="none">
   <path id="svg_2" fill="#6A97E3" d="m51.83,24.337l-47.16,0a3.62,3.62 0 0 1 -3.61,-3.61a3.62,3.62 0 0 1 3.61,-3.61l47.16,0a3.62,3.62 0 0 1 3.61,3.61a3.62,3.62 0 0 1 -3.61,3.61"/>
   <g id="svg_3">
    <mask transform="translate(0,15.48799991607666) " id="b">
     <use id="svg_4" xlink:href="#a"/>
    </mask>
    <path id="svg_5" mask="url(#b)" fill="#475669" d="m4.67,18.177a2.553,2.553 0 0 0 -2.55,2.55a2.553,2.553 0 0 0 2.55,2.55l47.16,0a2.553,2.553 0 0 0 2.55,-2.55a2.553,2.553 0 0 0 -2.55,-2.55l-47.16,0zm47.16,7.22l-47.16,0a4.677,4.677 0 0 1 -4.67,-4.669a4.677,4.677 0 0 1 4.67,-4.671l47.16,0a4.676,4.676 0 0 1 4.67,4.67a4.676,4.676 0 0 1 -4.67,4.67z"/>
   </g>
   <path id="svg_6" fill="#6A97E3" d="m51.83,40.774l-47.16,0a3.62,3.62 0 0 1 -3.61,-3.61a3.62,3.62 0 0 1 3.61,-3.61l47.16,0a3.62,3.62 0 0 1 3.61,3.61a3.62,3.62 0 0 1 -3.61,3.61"/>
   <g id="svg_7">
    <mask transform="translate(0,32.17100143432617) " id="d">
     <use id="svg_8" xlink:href="#c"/>
    </mask>
    <path id="svg_9" mask="url(#d)" fill="#475669" d="m4.67,34.614001a2.553,2.553 0 0 0 -2.55,2.55a2.553,2.553 0 0 0 2.55,2.55l47.16,0a2.553,2.553 0 0 0 2.55,-2.55a2.553,2.553 0 0 0 -2.55,-2.55l-47.16,0zm47.16,7.22l-47.16,0a4.677,4.677 0 0 1 -4.67,-4.67a4.677,4.677 0 0 1 4.67,-4.67l47.16,0a4.676,4.676 0 0 1 4.67,4.67a4.676,4.676 0 0 1 -4.67,4.67z"/>
   </g>
   <path id="svg_10" fill="#6A97E3" d="m23.642,5.365l0,47.16a3.62,3.62 0 0 1 -3.61,3.61a3.62,3.62 0 0 1 -3.61,-3.61l0,-47.16a3.62,3.62 0 0 1 3.61,-3.61a3.62,3.62 0 0 1 3.61,3.61"/>
   <g id="svg_11">
    <mask transform="translate(15.293000221252441,0.19599999487400055) " id="f">
     <use id="svg_12" xlink:href="#e"/>
    </mask>
    <path id="svg_13" mask="url(#f)" fill="#475669" d="m20.033,2.816a2.553,2.553 0 0 0 -2.55,2.55l0,47.16a2.553,2.553 0 0 0 2.55,2.55a2.553,2.553 0 0 0 2.55,-2.55l0,-47.16a2.553,2.553 0 0 0 -2.55,-2.55m0,54.38a4.676,4.676 0 0 1 -4.67,-4.67l0,-47.16a4.677,4.677 0 0 1 4.67,-4.67a4.677,4.677 0 0 1 4.67,4.67l0,47.16a4.676,4.676 0 0 1 -4.67,4.67"/>
   </g>
   <path id="svg_14" fill="#6A97E3" d="m40.079,5.365l0,47.16a3.62,3.62 0 0 1 -3.61,3.61a3.62,3.62 0 0 1 -3.61,-3.61l0,-47.16a3.62,3.62 0 0 1 3.61,-3.61a3.62,3.62 0 0 1 3.61,3.61"/>
   <g id="svg_15">
    <mask transform="translate(31.280000686645508,0.19599999487400055) " id="h">
     <use id="svg_16" xlink:href="#g"/>
    </mask>
    <path id="svg_17" mask="url(#h)" fill="#475669" d="m36.468001,2.816a2.553,2.553 0 0 0 -2.55,2.55l0,47.16a2.553,2.553 0 0 0 2.55,2.55a2.553,2.553 0 0 0 2.55,-2.55l0,-47.16a2.553,2.553 0 0 0 -2.55,-2.55m0,54.38a4.676,4.676 0 0 1 -4.67,-4.67l0,-47.16a4.677,4.677 0 0 1 4.67,-4.67a4.677,4.677 0 0 1 4.67,4.67l0,47.16a4.676,4.676 0 0 1 -4.669,4.67"/>
   </g>
   <path id="svg_18" fill="#63D2DD" d="m12.979,28.945c0,-8.434 6.837,-15.271 15.272,-15.271c8.434,0 15.27,6.837 15.27,15.271c0,8.435 -6.836,15.272 -15.27,15.272c-8.435,0 -15.272,-6.837 -15.272,-15.272"/>
   <path id="svg_19" fill="#475669" d="m28.25,14.734c-7.835,0 -14.21,6.375 -14.21,14.211c0,7.837 6.375,14.212 14.21,14.212c7.837,0 14.212,-6.375 14.212,-14.212c0,-7.836 -6.375,-14.211 -14.211,-14.211m0,30.543c-9.005,0 -16.332,-7.327 -16.332,-16.332s7.327,-16.332 16.332,-16.332s16.332,7.327 16.332,16.332s-7.327,16.332 -16.332,16.332"/>
   <path id="svg_20" fill="#FFF" d="m28.856,37.424c-4.676,0 -8.479,-3.804 -8.479,-8.478c0,-4.676 3.803,-8.48 8.479,-8.48a8.477,8.477 0 0 1 7.03,3.737a1.392,1.392 0 0 1 -2.304,1.558a5.698,5.698 0 0 0 -4.726,-2.514a5.705,5.705 0 0 0 -5.698,5.699a5.705,5.705 0 0 0 5.698,5.697a5.665,5.665 0 0 0 4,-1.64a1.391,1.391 0 0 1 1.952,1.98a8.43,8.43 0 0 1 -5.952,2.44"/>
  </g>
  <text style="cursor: move;" xml:space="preserve" text-anchor="start" font-family="Helvetica, Arial, sans-serif" font-size="15" id="svg_21" y="73.421875" x="7.5" fill-opacity="null" stroke-opacity="null" stroke-width="0" stroke="#000" fill="#000000">FN-13</text>
 </g>
</svg>