<svg width="300" height="390" xmlns="http://www.w3.org/2000/svg">
 <style type="text/css">.st0{fill:none;}
	.st1{fill:#E16B6B;}
	.st2{fill:#F5A268;}
	.st3{fill:#475669;}</style>

 <g>
  <title>background</title>
  <rect fill="none" id="canvas_background" height="392" width="302" y="-1" x="-1"/>
 </g>
 <g>
  <title>Layer 1</title>
  <g id="svg_1">
   <rect id="svg_2" height="9.7" width="9.7" class="st0" y="10.1" x="23.4"/>
   <rect id="svg_3" height="9.7" width="9.7" class="st0" y="10.1" x="266.9"/>
   <path id="svg_4" d="m257.2,151.3c0,5.4 4.4,9.7 9.7,9.7c5.4,0 9.7,-4.4 9.7,-9.7s-4.4,-9.7 -9.7,-9.7c-5.4,0 -9.7,4.4 -9.7,9.7z" class="st0"/>
   <circle id="svg_5" r="9.7" cy="151.3" cx="33.1" class="st0"/>
   <path id="svg_6" d="m191.4,278l-82.8,0c-4,0 -7.3,3.3 -7.3,7.3c0,4 3.3,7.3 7.3,7.3l82.8,0c4,0 7.3,-3.3 7.3,-7.3c0,-4 -3.3,-7.3 -7.3,-7.3z" class="st1"/>
   <path id="svg_7" d="m227.7,131.8c0,-22.1 -9.4,-43.2 -25.9,-57.9c-16.7,-14.9 -38.2,-21.8 -60.7,-19.3c-35,3.9 -63.6,32 -68.1,66.8c-3.2,24.4 5,48.3 22.3,65.5c9.1,9 14.5,20.3 15.7,32.4l78,0c1.2,-12.1 6.7,-23.5 15.4,-32c15,-14.8 23.3,-34.5 23.3,-55.5zm-42.9,0.6l-38.8,43.6c-0.9,1 -2.1,1.5 -3.3,1.5c-0.6,0 -1.3,-0.1 -1.9,-0.4c-1.8,-0.8 -2.8,-2.8 -2.5,-4.7l4,-23.9l-23.8,0c-1.7,0 -3.3,-1 -4,-2.6s-0.4,-3.4 0.7,-4.7l38.8,-43.6c1.3,-1.5 3.4,-1.9 5.2,-1.1c1.8,0.8 2.8,2.8 2.5,4.7l-4,23.9l23.8,0c1.7,0 3.3,1 4,2.6c0.7,1.5 0.4,3.4 -0.7,4.7z" class="st2"/>
   <path id="svg_8" d="m149,132.3c-0.8,-1 -1.2,-2.3 -1,-3.6l2.3,-13.9l-22,24.8l19.2,0c1.3,0 2.5,0.6 3.4,1.6c0.8,1 1.2,2.3 1,3.6l-2.3,13.9l22,-24.8l-19.2,0c-1.3,0 -2.5,-0.6 -3.4,-1.6z" class="st2"/>
   <path id="svg_9" d="m208.6,66.3c-18.9,-16.9 -43.2,-24.7 -68.6,-21.8c-39.6,4.4 -72,36.2 -77.1,75.6c-3.6,27.6 5.6,54.6 25.2,74c7.6,7.6 12.1,17.2 12.8,27.3c-5.5,2.8 -9.4,8.5 -9.4,15.1c0,4.8 2,9 5.2,12.2c-3.2,3.1 -5.2,7.4 -5.2,12.2c0,4.8 2,9.1 5.2,12.2c-3.2,3.1 -5.2,7.4 -5.2,12.2c0,9.4 7.7,17.1 17.1,17.1l82.8,0c9.4,0 17.1,-7.7 17.1,-17.1c0,-4.8 -2,-9 -5.2,-12.2c3.1,-3.1 5.2,-7.4 5.2,-12.2c0,-4.8 -2,-9.1 -5.2,-12.2c3.1,-3.1 5.2,-7.4 5.2,-12.2c0,-6.7 -3.9,-12.3 -9.4,-15.2c0.7,-10.1 5.1,-19.8 12.4,-26.9c17,-16.7 26.4,-38.9 26.4,-62.7c0,-24.8 -10.7,-48.7 -29.3,-65.4zm-19.6,153l-78,0c-1.2,-12.1 -6.7,-23.4 -15.7,-32.4c-17.3,-17.2 -25.5,-41.1 -22.3,-65.5c4.5,-34.8 33.2,-62.9 68.1,-66.8c22.5,-2.5 44,4.4 60.7,19.3c16.5,14.7 25.9,35.8 25.9,57.9c0,21 -8.3,40.7 -23.3,55.4c-8.7,8.6 -14.2,20 -15.4,32.1zm2.4,73.3l-82.8,0c-4,0 -7.3,-3.3 -7.3,-7.3c0,-4 3.3,-7.3 7.3,-7.3l82.8,0c4,0 7.3,3.3 7.3,7.3c0,4 -3.3,7.3 -7.3,7.3zm0,-24.4l-82.8,0c-4,0 -7.3,-3.3 -7.3,-7.3c0,-4 3.3,-7.3 7.3,-7.3l82.8,0c4,0 7.3,3.3 7.3,7.3c0,4 -3.3,7.3 -7.3,7.3zm0,-24.3l-82.8,0c-4,0 -7.3,-3.3 -7.3,-7.3c0,-4 3.3,-7.3 7.3,-7.3l82.8,0c4,0 7.3,3.3 7.3,7.3c0,4 -3.3,7.3 -7.3,7.3z" class="st3"/>
   <path id="svg_10" d="m191.4,229.2l-82.8,0c-4,0 -7.3,3.3 -7.3,7.3c0,4 3.3,7.3 7.3,7.3l82.8,0c4,0 7.3,-3.3 7.3,-7.3c0,-3.9 -3.3,-7.3 -7.3,-7.3z" class="st1"/>
   <path id="svg_11" d="m191.4,253.7l-82.8,0c-4,0 -7.3,3.3 -7.3,7.3c0,4 3.3,7.3 7.3,7.3l82.8,0c4,0 7.3,-3.3 7.3,-7.3c0,-4.1 -3.3,-7.3 -7.3,-7.3z" class="st1"/>
   <path id="svg_12" d="m286.4,29.6l0,-29.3l-29.2,0l0,9.7l-214.4,0l0,-9.7l-29.2,0l0,29.2l29.2,0l0,-9.7l73.2,0c-49.4,14.4 -85.8,59.2 -87.7,112.7c-8.4,2.1 -14.7,9.7 -14.7,18.8c0,10.7 8.7,19.5 19.5,19.5c10.7,0 19.5,-8.7 19.5,-19.5c0,-9 -6.2,-16.5 -14.5,-18.8c2.2,-59.8 51.5,-107.8 111.9,-107.8s109.7,48 111.9,107.9c-8.3,2.2 -14.5,9.7 -14.5,18.8c0,10.7 8.7,19.5 19.5,19.5c10.7,0 19.5,-8.7 19.5,-19.5c0,-9.1 -6.3,-16.7 -14.7,-18.8c-1.9,-53.6 -38.3,-98.4 -87.7,-112.8l73.1,0l0,9.7l29.3,0l0,0.1zm-19.5,-19.5l9.7,0l0,9.7l-9.7,0l0,-9.7zm-233.8,9.7l-9.7,0l0,-9.7l9.7,0l0,9.7zm9.7,131.5c0,5.4 -4.4,9.7 -9.7,9.7s-9.7,-4.4 -9.7,-9.7s4.4,-9.7 9.7,-9.7s9.7,4.4 9.7,9.7zm233.8,0c0,5.4 -4.4,9.7 -9.7,9.7c-5.4,0 -9.7,-4.4 -9.7,-9.7s4.4,-9.7 9.7,-9.7c5.4,0 9.7,4.4 9.7,9.7z" class="st3"/>
   <path id="svg_13" d="m181.5,125l-23.8,0l4,-23.9c0.3,-1.9 -0.7,-3.9 -2.5,-4.7c-1.8,-0.8 -3.9,-0.4 -5.2,1.1l-38.8,43.6c-1.2,1.3 -1.4,3.2 -0.7,4.7s2.3,2.6 4,2.6l23.8,0l-4,23.9c-0.3,1.9 0.7,3.9 2.5,4.7c0.6,0.3 1.3,0.4 1.9,0.4c1.2,0 2.4,-0.5 3.3,-1.5l38.8,-43.6c1.2,-1.3 1.4,-3.2 0.7,-4.7c-0.7,-1.5 -2.3,-2.6 -4,-2.6zm-31.9,33.7l2.3,-13.9c0.2,-1.3 -0.1,-2.6 -1,-3.6c-0.8,-1 -2.1,-1.6 -3.4,-1.6l-19.2,0l22,-24.8l-2.3,13.9c-0.2,1.3 0.1,2.6 1,3.6c0.8,1 2.1,1.6 3.4,1.6l19.2,0l-22,24.8z" class="st3"/>
  </g>
  <text xml:space="preserve" text-anchor="start" font-family="Helvetica, Arial, sans-serif" font-size="70" id="svg_14" y="379.421875" x="68" fill-opacity="null" stroke-opacity="null" stroke-width="0" stroke="#000" fill="#000000">PI-15</text>
 </g>
</svg>