<svg width="300" height="370" xmlns="http://www.w3.org/2000/svg">
 <style type="text/css">.st0{fill:#F5A268;}
	.st1{fill:#E16B6B;}
	.st2{fill:#475669;}</style>

 <g>
  <title>background</title>
  <rect fill="none" id="canvas_background" height="372" width="302" y="-1" x="-1"/>
 </g>
 <g>
  <title>Layer 1</title>
  <g id="svg_1">
   <path id="svg_2" d="m87.4,93.1c0,-14.6 5.1,-28.1 13.5,-38.7c-9.7,-9.3 -22.8,-15 -37.2,-15c-29.7,0 -53.8,24.1 -53.8,53.7c0,29.6 24.1,53.8 53.8,53.8c14.4,0 27.5,-5.7 37.2,-15c-8.4,-10.7 -13.5,-24.1 -13.5,-38.8z" class="st0"/>
   <path id="svg_3" d="m274.3,131.2c10.2,-10.2 15.7,-23.7 15.7,-38s-5.6,-27.9 -15.7,-38c-10.5,-10.5 -24.3,-15.7 -38,-15.7c-13.4,0 -26.8,5 -37.2,15c3.7,4.6 6.7,9.8 8.9,15.4c2.2,-3.9 6.4,-6.6 11.3,-6.6c7.2,0 13,5.8 13,13c0,7.2 -5.8,13 -13,13c-2.6,0 -5,-0.8 -7,-2.1c0.2,2 0.3,4 0.3,6c0,2 -0.1,4.1 -0.3,6.1c2,-1.3 4.4,-2.1 7,-2.1c7.2,0 13,5.8 13,13c0,7.2 -5.8,13 -13,13c-4.9,0 -9,-2.7 -11.3,-6.6c-2.3,5.6 -5.3,10.7 -9,15.4c21.1,20.1 54.6,19.9 75.3,-0.8zm-21,-68.1c7.2,0 13,5.8 13,13c0,7.2 -5.8,13 -13,13c-7.2,0 -13,-5.8 -13,-13c0,-7.1 5.8,-13 13,-13zm0,34c7.2,0 13,5.8 13,13c0,7.2 -5.8,13 -13,13c-7.2,0 -13,-5.8 -13,-13c0,-7.1 5.8,-13 13,-13z" class="st0"/>
   <path id="svg_4" d="m203.8,93.1c0,-5 -0.7,-9.8 -2,-14.4l-66.1,66.1c4.6,1.3 9.4,2 14.4,2c29.5,0.1 53.7,-24 53.7,-53.7z" class="st1"/>
   <path id="svg_5" d="m96.2,93.1c0,5 0.7,9.8 2,14.4l66.1,-66.1c-4.6,-1.3 -9.4,-2 -14.4,-2c-29.5,0 -53.7,24.1 -53.7,53.7z" class="st1"/>
   <path id="svg_6" d="m196.1,65.6c-4.6,-7.6 -11,-14.1 -18.6,-18.6c-0.3,0.6 -0.7,1.1 -1.1,1.6l-71,71c-0.4,0.4 -0.9,0.8 -1.4,1.1c4.5,7.5 10.8,13.9 18.3,18.4l72.3,-72.3c0.4,-0.5 1,-0.9 1.5,-1.2z" class="st1"/>
   <path id="svg_7" d="m259.3,151.4c7.7,-3.1 15,-7.7 21.3,-13.9c11.8,-11.8 18.3,-27.6 18.3,-44.3c0,-16.7 -6.5,-32.5 -18.3,-44.3c-24.1,-24.1 -62.9,-24.4 -87.4,-1c-11.2,-10.7 -26.4,-17.3 -43.1,-17.3c-16.7,0 -31.9,6.6 -43.2,17.4c-11.3,-10.8 -26.5,-17.5 -43.2,-17.5c-34.5,0 -62.6,28.1 -62.6,62.6c0,26.4 16.4,49 39.6,58.2c-7.7,3.1 -15,7.7 -21.3,13.9l0,0c-24.4,24.4 -24.4,64.1 0,88.6c12.2,12.2 28.2,18.3 44.3,18.3s32.1,-6.1 44.3,-18.3c24.4,-24.4 24.4,-64.1 0,-88.6c-6.3,-6.3 -13.5,-10.9 -21.3,-13.9c7.5,-3 14.4,-7.4 20.1,-12.9c4.8,4.5 10.3,8.3 16.3,11.2c0.5,0.4 1.1,0.6 1.7,0.8c7.7,3.4 16.2,5.3 25.2,5.3c16.7,0 31.9,-6.6 43.1,-17.3c6,5.7 12.9,10.1 20.2,12.9c-23.2,9.2 -39.6,31.8 -39.6,58.2c0,34.5 28.1,62.6 62.6,62.6s62.6,-28.1 62.6,-62.6c0,-26.4 -16.4,-48.9 -39.6,-58.1zm-233.6,96.2c-21,-21 -21,-55.1 0,-76l0,0c21,-21 55.1,-21 76,0c21,21 21,55.1 0,76c-21,20.9 -55.1,20.9 -76,0zm-15.8,-154.5c0,-29.6 24.1,-53.8 53.8,-53.8c14.4,0 27.5,5.7 37.2,15c-8.4,10.7 -13.5,24.1 -13.5,38.7c0,14.6 5.1,28.1 13.5,38.7c-9.7,9.3 -22.8,15 -37.2,15c-29.7,0.2 -53.8,-23.9 -53.8,-53.6zm112.3,46c-7.5,-4.6 -13.8,-10.9 -18.3,-18.4c0.5,-0.3 1,-0.6 1.4,-1.1l71,-71c0.5,-0.5 0.8,-1 1.1,-1.6c7.6,4.6 14.1,11 18.6,18.6c-0.6,0.3 -1.1,0.7 -1.6,1.1l-72.2,72.4zm42.2,-97.7l-66.1,66.1c-1.3,-4.6 -2,-9.4 -2,-14.4c0,-29.6 24.1,-53.8 53.8,-53.8c4.9,0.1 9.7,0.8 14.3,2.1zm37.4,37.4c1.3,4.6 2,9.4 2,14.4c0,29.6 -24.1,53.8 -53.8,53.8c-5,0 -9.8,-0.7 -14.4,-2l66.2,-66.2zm6.2,37.7c2.2,3.9 6.4,6.6 11.3,6.6c7.2,0 13,-5.8 13,-13c0,-7.2 -5.8,-13 -13,-13c-2.6,0 -5,0.8 -7,2.1c0.2,-2 0.3,-4 0.3,-6.1c0,-2 -0.1,-4 -0.3,-6c2,1.3 4.4,2.1 7,2.1c7.2,0 13,-5.8 13,-13c0,-7.2 -5.8,-13 -13,-13c-4.8,0 -9,2.7 -11.3,6.6c-2.3,-5.6 -5.3,-10.7 -8.9,-15.4c10.4,-10 23.8,-15 37.2,-15c13.8,0 27.5,5.2 38,15.7c10.2,10.2 15.7,23.7 15.7,38s-5.6,27.9 -15.7,38c-20.7,20.7 -54.2,20.9 -75.2,0.7c3.7,-4.5 6.7,-9.7 8.9,-15.3z" class="st2"/>
   <path id="svg_8" d="m101.7,171.5c-21,-21 -55.1,-21 -76,0l0,0c-21,21 -21,55.1 0,76c21,21 55.1,21 76,0c21,-20.9 21,-55 0,-76zm-38,70.3c-17.8,0 -32.3,-14.4 -32.3,-32.3s14.4,-32.3 32.3,-32.3c17.8,0 32.3,14.4 32.3,32.3s-14.5,32.3 -32.3,32.3z" class="st1"/>
   <path id="svg_9" d="m63.7,177.3c-17.8,0 -32.3,14.4 -32.3,32.3s14.4,32.3 32.3,32.3c17.8,0 32.3,-14.4 32.3,-32.3s-14.5,-32.3 -32.3,-32.3z" class="st2"/>
   <path id="svg_10" d="m253.3,89.2c7.2,0 13,-5.8 13,-13c0,-7.2 -5.8,-13 -13,-13c-7.2,0 -13,5.8 -13,13c0,7.1 5.8,13 13,13z" class="st2"/>
   <path id="svg_11" d="m253.3,123.1c7.2,0 13,-5.8 13,-13c0,-7.2 -5.8,-13 -13,-13c-7.2,0 -13,5.8 -13,13c0,7.2 5.8,13 13,13z" class="st2"/>
  </g>
  <text xml:space="preserve" text-anchor="start" font-family="Helvetica, Arial, sans-serif" font-size="70" id="svg_12" y="359.421875" x="68" fill-opacity="null" stroke-opacity="null" stroke-width="0" stroke="#000" fill="#000000">PI-16</text>
 </g>
</svg>