<svg width="100" height="130" xmlns="http://www.w3.org/2000/svg">
 <style>.st2{fill:#f0f0f0}.st3{fill:#475669}</style>

 <g>
  <title>background</title>
  <rect fill="none" id="canvas_background" height="132" width="102" y="-1" x="-1"/>
 </g>
 <g>
  <title>Layer 1</title>
  <path id="svg_1" d="m20.1,10.1l-12.2,12.2l67.4,67.5l12,-12.7l-67.2,-67z" fill="#00bc76"/>
  <path id="svg_2" d="m67,20.8l14,14.2l-48.8,50l-14.8,-15l49.6,-49.2z" fill="#f18e61"/>
  <path id="svg_3" d="m17.3,72.3l-5,17.7l18.3,-4.3l-13.3,-13.4zm59.6,-61.4l-9.6,9.6l14.9,14.9l10.1,-10.1c0.1,-0.1 -15.4,-14.2 -15.4,-14.4z" class="st2"/>
  <path id="svg_4" d="m71.6,30.8c-0.6,-0.6 -1.7,-0.6 -2.3,0l-40.1,40.1c-0.6,0.6 -0.6,1.7 0,2.3c0.3,0.3 0.7,0.5 1.2,0.5c0.4,0 0.8,-0.2 1.2,-0.5l40.1,-40.1c0.5,-0.6 0.5,-1.7 -0.1,-2.3zm0,0c-0.6,-0.6 -1.7,-0.6 -2.3,0l-40.1,40.1c-0.6,0.6 -0.6,1.7 0,2.3c0.3,0.3 0.7,0.5 1.2,0.5c0.4,0 0.8,-0.2 1.2,-0.5l40.1,-40.1c0.5,-0.6 0.5,-1.7 -0.1,-2.3zm0,0c-0.6,-0.6 -1.7,-0.6 -2.3,0l-40.1,40.1c-0.6,0.6 -0.6,1.7 0,2.3c0.3,0.3 0.7,0.5 1.2,0.5c0.4,0 0.8,-0.2 1.2,-0.5l40.1,-40.1c0.5,-0.6 0.5,-1.7 -0.1,-2.3z" class="st3"/>
  <path id="svg_5" d="m93.5,23.9l-15.2,-15.1c-0.6,-0.6 -1.7,-0.6 -2.3,0l-27,27l-27.2,-27.1c-0.6,-0.6 -1.7,-0.6 -2.3,0l-13,13c-0.6,0.6 -0.6,1.7 0,2.3l27.2,27.2l-18.4,18.3c-0.2,0.2 -0.3,0.3 -0.3,0.5c0,0.1 0,0.1 -0.1,0.2c0,0.1 -0.1,0.1 -0.1,0.2l-4.3,19.5c-0.1,0.6 0,1.1 0.4,1.5c0.3,0.3 0.7,0.5 1.2,0.5l0.4,0l19.5,-4.5c0.1,0 0.1,0 0.2,-0.1c0.1,0 0.1,0 0.2,-0.1c0.2,-0.1 0.3,-0.2 0.5,-0.3l18.5,-18.5l22.5,22.8c0.3,0.3 0.7,0.5 1.2,0.5c0.4,0 0.8,-0.2 1.1,-0.5l13,-13c0.6,-0.6 0.6,-1.7 0,-2.3l-22.7,-22.6l27.1,-27.1c0.6,-0.6 0.6,-1.6 -0.1,-2.3zm-83.6,-1.1l10.7,-10.7l7.2,7.2l-2.6,2.7c-0.6,0.6 -0.6,1.7 0,2.3c0.3,0.3 0.7,0.5 1.2,0.5c0.4,0 0.8,-0.2 1.2,-0.5l2.7,-2.7l4.9,4.9l-2.7,2.7c-0.6,0.6 -0.6,1.7 0,2.3c0.3,0.3 0.7,0.5 1.2,0.5s0.8,-0.2 1.2,-0.5l2.7,-2.7l9.2,9.2l-10.8,10.8l-26.1,-26zm4.3,65.3l3.2,-14.1l11,11l-14.2,3.1zm54.9,-27.5l-2.7,2.7c-0.6,0.6 -0.6,1.7 0,2.3c0.3,0.3 0.7,0.5 1.2,0.5s0.8,-0.2 1.2,-0.5l2.7,-2.7l4.9,4.9l-2.7,2.7c-0.6,0.6 -0.6,1.7 0,2.3c0.3,0.3 0.7,0.5 1.2,0.5c0.4,0 0.8,-0.2 1.2,-0.5l2.7,-2.7l7,7l-10.8,10.7l-21.4,-21.6l10.6,-10.6l4.9,5zm-37.5,23l-12.9,-12.9l48.3,-48.3l12.9,12.9l-48.3,48.3zm50.6,-50.6l-12.9,-12.9l7.9,-7.9l12.9,12.9l-7.9,7.9z" class="st3"/>
  <text xml:space="preserve" text-anchor="start" font-family="Helvetica, Arial, sans-serif" font-size="20" id="svg_6" y="122.421875" x="23" fill-opacity="null" stroke-opacity="null" stroke-width="0" stroke="#000" fill="#000000">FJ-91</text>
 </g>
</svg>