<svg width="300" height="390" xmlns="http://www.w3.org/2000/svg">
 <style type="text/css">.st0{fill:#F5A268;}
	.st1{fill:#475669;}
	.st2{fill:#E16B6B;}</style>

 <g>
  <title>background</title>
  <rect fill="none" id="canvas_background" height="392" width="302" y="-1" x="-1"/>
 </g>
 <g>
  <title>Layer 1</title>
  <g id="svg_1">
   <path id="svg_2" d="m150,250.5c-11.7,0 -21.2,9.6 -21.2,21.4c0,11.8 9.5,21.4 21.2,21.4c11.7,0 21.2,-9.6 21.2,-21.4c0,-11.8 -9.5,-21.4 -21.2,-21.4z" class="st0"/>
   <path id="svg_3" d="m128.8,30.8c0,11.8 9.5,21.4 21.2,21.4c11.7,0 21.2,-9.6 21.2,-21.4s-9.5,-21.4 -21.2,-21.4c-11.7,0 -21.2,9.6 -21.2,21.4z" class="st0"/>
   <path id="svg_4" d="m80.5,221.4c-4,-4 -9.3,-6.3 -15,-6.3c-5.7,0 -11,2.2 -15,6.3c-4,4 -6.2,9.4 -6.2,15.1c0,5.7 2.2,11.1 6.2,15.1c4,4 9.3,6.3 15,6.3c5.7,0 11,-2.2 15,-6.3c4,-4 6.2,-9.4 6.2,-15.1c0,-5.6 -2.2,-11 -6.2,-15.1z" class="st0"/>
   <path id="svg_5" d="m219.5,81.2c4,4 9.3,6.3 15,6.3c5.7,0 11,-2.2 15,-6.3c8.3,-8.4 8.3,-21.9 0,-30.3c-4,-4 -9.3,-6.3 -15,-6.3c-5.7,0 -11,2.2 -15,6.3c-4,4 -6.2,9.4 -6.2,15.1c0,5.8 2.2,11.2 6.2,15.2z" class="st0"/>
   <path id="svg_6" d="m30.5,129.9c-11.7,0 -21.2,9.6 -21.2,21.4s9.5,21.4 21.2,21.4c11.7,0 21.2,-9.6 21.2,-21.4s-9.5,-21.4 -21.2,-21.4z" class="st0"/>
   <path id="svg_7" d="m269.5,129.9c-11.7,0 -21.2,9.6 -21.2,21.4c0,11.8 9.5,21.4 21.2,21.4c11.7,0 21.2,-9.6 21.2,-21.4c0,-11.8 -9.5,-21.4 -21.2,-21.4z" class="st0"/>
   <path id="svg_8" d="m269.5,120.6c-14.7,0 -27,10.5 -29.9,24.5l-18.3,0c-1.3,-15.2 -7.3,-29.1 -16.5,-40.2l13,-13.1c4.9,3.3 10.7,5.1 16.8,5.1c8.1,0 15.8,-3.2 21.6,-9c11.9,-12 11.9,-31.5 0,-43.5c-5.8,-5.8 -13.4,-9 -21.6,-9c-8.1,0 -15.8,3.2 -21.6,9c-5.8,5.8 -8.9,13.5 -8.9,21.8c0,6.1 1.8,11.9 5,16.9l-13,13.1c-11,-9.3 -24.7,-15.4 -39.8,-16.7l0,-18.6c13.9,-2.9 24.3,-15.3 24.3,-30.1c0,-17 -13.7,-30.8 -30.5,-30.8c-16.8,0 -30.5,13.8 -30.5,30.8c0,14.8 10.5,27.3 24.3,30.1l0,18.5c-15.1,1.3 -28.9,7.3 -39.8,16.7l-13.1,-13.1c7.8,-11.9 6.5,-28.2 -3.9,-38.7c-5.8,-5.8 -13.4,-9 -21.6,-9s-15.8,3.2 -21.6,9c-5.7,5.8 -8.9,13.6 -8.9,21.8c0,8.2 3.2,15.9 8.9,21.8c5.8,5.8 13.4,9 21.6,9c6,0 11.8,-1.8 16.8,-5.1l13,13.1c-9.3,11.1 -15.3,25 -16.6,40.2l-18.3,0c-2.9,-14 -15.2,-24.5 -29.9,-24.5c-16.8,0 -30.5,13.8 -30.5,30.7s13.7,30.8 30.5,30.8c14.7,0 27,-10.5 29.9,-24.5l18.3,0c1.3,15.2 7.3,29.1 16.5,40.2l-13,13.1c-4.9,-3.3 -10.7,-5.1 -16.8,-5.1c-8.1,0 -15.8,3.2 -21.6,9c-5.8,5.8 -8.9,13.5 -8.9,21.8c0,8.2 3.2,15.9 8.9,21.8c5.8,5.8 13.4,9 21.6,9c8.1,0 15.8,-3.2 21.6,-9c5.8,-5.8 8.9,-13.5 8.9,-21.8c0,-6.1 -1.8,-11.9 -5,-16.9l13,-13.1c11,9.3 24.7,15.4 39.8,16.7l0,18.5c-13.9,2.9 -24.3,15.3 -24.3,30.1c0,17 13.7,30.8 30.5,30.8c16.8,0 30.5,-13.8 30.5,-30.8c0,-14.8 -10.5,-27.2 -24.3,-30.1l0,-18.5c15.1,-1.3 28.9,-7.3 39.8,-16.7l13,13.1c-3.3,5 -5,10.8 -5,16.9c0,8.2 3.2,15.9 8.9,21.8c5.8,5.8 13.4,9 21.6,9c8.1,0 15.8,-3.2 21.6,-9c5.8,-5.8 8.9,-13.5 8.9,-21.8c0,-8.2 -3.2,-15.9 -8.9,-21.8c-5.8,-5.8 -13.4,-9 -21.6,-9c-6,0 -11.8,1.8 -16.8,5.1l-13,-13.1c9.2,-11.1 15.2,-25 16.5,-40.2l18.3,0c2.9,14 15.2,24.5 29.9,24.5c16.8,0 30.5,-13.8 30.5,-30.8c0.2,-16.9 -13.5,-30.7 -30.3,-30.7zm0,52.2c-11.7,0 -21.2,-9.6 -21.2,-21.4c0,-11.8 9.5,-21.4 21.2,-21.4c11.7,0 21.2,9.6 21.2,21.4c0,11.7 -9.5,21.4 -21.2,21.4zm-57.2,-21.5c0,34.7 -28,62.9 -62.3,62.9s-62.3,-28.2 -62.3,-62.9s28,-62.9 62.3,-62.9s62.3,28.3 62.3,62.9zm1,-85.2c0,-5.7 2.2,-11.1 6.2,-15.1c4,-4 9.3,-6.3 15,-6.3c5.7,0 11,2.2 15,6.3c8.3,8.4 8.3,21.9 0,30.3c-4,4 -9.3,6.3 -15,6.3c-5.7,0 -11,-2.2 -15,-6.3c-4,-4.1 -6.2,-9.5 -6.2,-15.2zm-42.1,-35.3c0,11.8 -9.5,21.4 -21.2,21.4c-11.7,0 -21.2,-9.6 -21.2,-21.4s9.5,-21.4 21.2,-21.4c11.7,0 21.2,9.6 21.2,21.4zm-90.7,20.1c8.3,8.4 8.3,21.9 0,30.3c-4,4 -9.3,6.3 -15,6.3c-5.7,0 -11,-2.2 -15,-6.3c-4,-4 -6.2,-9.4 -6.2,-15.1c0,-5.7 2.2,-11.1 6.2,-15.1c4,-4 9.3,-6.3 15,-6.3c5.7,0 11,2.2 15,6.2zm-28.8,100.4c0,11.8 -9.5,21.4 -21.2,21.4c-11.7,0 -21.2,-9.6 -21.2,-21.4s9.5,-21.4 21.2,-21.4c11.7,0 21.2,9.6 21.2,21.4zm35,85.3c0,5.7 -2.2,11.1 -6.2,15.1c-4,4 -9.3,6.3 -15,6.3c-5.7,0 -11,-2.2 -15,-6.3c-4,-4 -6.2,-9.4 -6.2,-15.1c0,-5.7 2.2,-11.1 6.2,-15.1c4,-4 9.3,-6.3 15,-6.3c5.7,0 11,2.2 15,6.3c4,4 6.2,9.4 6.2,15.1zm63.3,56.7c-11.7,0 -21.2,-9.6 -21.2,-21.4c0,-11.8 9.5,-21.4 21.2,-21.4c11.7,0 21.2,9.6 21.2,21.4c0,11.8 -9.5,21.4 -21.2,21.4zm99.5,-71.9c4,4 6.2,9.4 6.2,15.1c0,5.7 -2.2,11.1 -6.2,15.1c-4,4 -9.3,6.3 -15,6.3c-5.7,0 -11,-2.2 -15,-6.3c-4,-4 -6.2,-9.4 -6.2,-15.1c0,-5.7 2.2,-11.1 6.2,-15.1c4,-4 9.3,-6.3 15,-6.3c5.7,0.1 11,2.3 15,6.3z" class="st1"/>
   <path id="svg_9" d="m44.3,66.1c0,5.7 2.2,11.1 6.2,15.1c4,4 9.3,6.3 15,6.3c5.7,0 11,-2.2 15,-6.3c8.3,-8.4 8.3,-21.9 0,-30.3c-4,-4 -9.3,-6.3 -15,-6.3c-5.7,0 -11,2.2 -15,6.3c-4,4.1 -6.2,9.5 -6.2,15.2z" class="st0"/>
   <path id="svg_10" d="m219.5,221.4c-4,4 -6.2,9.4 -6.2,15.1c0,5.7 2.2,11.1 6.2,15.1c4,4 9.3,6.3 15,6.3c5.7,0 11,-2.2 15,-6.3c4,-4 6.2,-9.4 6.2,-15.1c0,-5.7 -2.2,-11.1 -6.2,-15.1c-4,-4 -9.3,-6.3 -15,-6.3c-5.7,0.1 -11,2.3 -15,6.3z" class="st0"/>
   <path id="svg_11" d="m150,88.5c-34.4,0 -62.3,28.2 -62.3,62.9s28,62.9 62.3,62.9s62.3,-28.2 62.3,-62.9s-27.9,-62.9 -62.3,-62.9zm12.3,84.2c0.7,2.6 -1.3,5.2 -4,5.2l-16.6,0c-2.7,0 -4.7,-2.6 -4,-5.2l5.5,-21.1c0.4,-1.5 0,-3.1 -1.2,-4.1c-2.8,-2.3 -4.5,-5.4 -4.7,-9.3c-0.2,-3.7 1,-6.9 3.6,-9.6c5.1,-5.3 13.7,-5.3 18.7,0.6c4.6,5.3 4.1,13.7 -1.6,18.4c-1.2,1 -1.6,2.6 -1.2,4.1l5.5,21z" class="st2"/>
   <path id="svg_12" d="m156.8,151.7c-0.4,-1.5 0,-3.1 1.2,-4.1c5.7,-4.7 6.1,-13.1 1.6,-18.4c-5.1,-5.8 -13.6,-5.9 -18.7,-0.6c-2.6,2.7 -3.8,5.9 -3.6,9.6c0.2,3.9 1.9,7 4.7,9.3c1.2,1 1.6,2.6 1.2,4.1l-5.5,21.1c-0.7,2.6 1.3,5.2 4,5.2l16.6,0c2.7,0 4.7,-2.6 4,-5.2l-5.5,-21z" class="st1"/>
  </g>
  <text xml:space="preserve" text-anchor="start" font-family="Helvetica, Arial, sans-serif" font-size="70" id="svg_13" y="371.421875" x="68" fill-opacity="null" stroke-opacity="null" stroke-width="0" stroke="#000" fill="#000000">PI-17</text>
 </g>
</svg>