<svg width="59" height="80" xmlns="http://www.w3.org/2000/svg" xmlns:xlink="http://www.w3.org/1999/xlink">
 <title>D99A54A5-066F-402F-AFB4-9B01916D2C11</title>
 <defs>
  <path d="m58.098,0l-58.098,0l0,42.33l58.098,0l0,-42.33z" id="a"/>
  <path d="m0,0l0,33.702l58.098,0l0,-33.702l-58.098,0z" id="c"/>
 </defs>
 <g>
  <title>background</title>
  <rect fill="none" id="canvas_background" height="82" width="61" y="-1" x="-1"/>
 </g>
 <g>
  <title>Layer 1</title>
  <g id="svg_1" fill-rule="evenodd" fill="none">
   <path id="svg_2" fill="#BAD7DE" d="m37.996,42.712s0.35,2.9 2.377,4.818c0.665,0.629 0.111,1.614 -0.899,1.614l-20.2,0c-1.01,0 -1.564,-0.985 -0.9,-1.614c2.029,-1.919 2.378,-4.818 2.378,-4.818"/>
   <path id="svg_3" fill="#475669" d="m39.392,49.182l-20.2,0c-0.932,0 -1.738,-0.512 -2.054,-1.306c-0.283,-0.709 -0.102,-1.486 0.47,-2.027c1.73,-1.637 2.07,-4.19 2.074,-4.215l1.977,0.24c-0.016,0.13 -0.405,3.17 -2.563,5.307a0.477,0.477 0 0 0 0.096,0.01l20.2,0a0.48,0.48 0 0 0 0.095,-0.01c-2.159,-2.143 -2.546,-5.176 -2.563,-5.307l1.978,-0.24c0.003,0.025 0.343,2.578 2.073,4.215c0.573,0.541 0.753,1.318 0.471,2.026c-0.315,0.794 -1.122,1.307 -2.054,1.307"/>
   <path id="svg_4" fill="#F3F3F3" d="m55.569,42.062l-51.221,0a2.442,2.442 0 0 1 -2.442,-2.442l0,-35.454a2.442,2.442 0 0 1 2.441,-2.441l51.221,0a2.442,2.442 0 0 1 2.442,2.442l0,35.453a2.442,2.442 0 0 1 -2.442,2.442"/>
   <mask transform="translate(0.8270000219345093,0.6460000276565552) " id="b">
    <use id="svg_5" xlink:href="#a"/>
   </mask>
   <path id="svg_6" mask="url(#b)" fill="#475669" d="m4.266,2.638c-0.798,0 -1.446,0.65 -1.446,1.446l0,35.452c0,0.798 0.648,1.447 1.446,1.447l51.22,0c0.798,0 1.447,-0.65 1.447,-1.447l0,-35.452c0,-0.797 -0.649,-1.446 -1.447,-1.446l-51.219,0l-0.001,0zm51.221,40.338l-51.22,0a3.442,3.442 0 0 1 -3.44,-3.44l0,-35.452a3.442,3.442 0 0 1 3.439,-3.438l51.22,0a3.442,3.442 0 0 1 3.44,3.438l0,35.452a3.443,3.443 0 0 1 -3.44,3.439l0.001,0.001z"/>
   <path id="svg_7" mask="url(#b)" fill="#00C6DA" d="m58.011,33.436l-56.104,0l0,-29.27a2.442,2.442 0 0 1 2.44,-2.44l51.221,0a2.442,2.442 0 0 1 2.442,2.442l0,29.268l0.001,0z"/>
   <mask transform="translate(0.8270000219345093,0.6460000276565552) " id="d">
    <use id="svg_8" xlink:href="#c"/>
   </mask>
   <path id="svg_9" mask="url(#d)" fill="#475669" d="m2.82,32.356l54.113,0l0,-28.271c0,-0.797 -0.649,-1.446 -1.446,-1.446l-51.221,0c-0.798,0 -1.446,0.649 -1.446,1.446l0,28.271zm56.105,1.993l-58.098,0l0,-30.265a3.442,3.442 0 0 1 3.439,-3.438l51.221,0a3.442,3.442 0 0 1 3.438,3.438l0,30.265z"/>
   <path id="svg_10" mask="url(#d)" fill="#475669" d="m22.432,24.278c-0.29,0 -0.577,-0.117 -0.785,-0.348l-4.365,-4.808a1.061,1.061 0 0 1 -0.002,-1.424l4.365,-4.838a1.061,1.061 0 0 1 1.574,1.422l-3.722,4.124l3.72,4.098a1.06,1.06 0 0 1 -0.785,1.773m13.972,0.001a1.06,1.06 0 0 1 -0.785,-1.773l3.719,-4.098l-3.721,-4.125a1.06,1.06 0 1 1 1.574,-1.422l4.365,4.838c0.365,0.405 0.364,1.02 -0.002,1.424l-4.365,4.808a1.055,1.055 0 0 1 -0.785,0.348m-9.708,0.538a1.06,1.06 0 0 1 -0.964,-1.501l5.139,-11.262a1.06,1.06 0 1 1 1.93,0.88l-5.14,11.263c-0.178,0.39 -0.562,0.62 -0.965,0.62"/>
  </g>
  <text xml:space="preserve" text-anchor="start" font-family="Helvetica, Arial, sans-serif" font-size="15" id="svg_11" y="73.421875" x="5.5" stroke-width="0" stroke="#000" fill="#000000">WD-43</text>
 </g>
</svg>