<svg width="100" height="140" xmlns="http://www.w3.org/2000/svg">
 <style type="text/css">.st0{fill:#F1D348;}
	.st1{fill:#4A93E6;}
	.st2{fill:#F0F0F0;}
	.st3{fill:#475669;}</style>

 <g>
  <title>background</title>
  <rect fill="none" id="canvas_background" height="142" width="102" y="-1" x="-1"/>
 </g>
 <g>
  <title>Layer 1</title>
  <g id="svg_1">
   <path id="svg_2" d="m49.2,32.2l10.8,-18.8l-21.7,0c-6.1,10.6 -5.5,9.5 -10.9,18.8l21.8,0z" class="st0"/>
   <path id="svg_3" d="m51.7,33.7l10.9,18.8c6.5,-11.3 3.8,-6.5 10.9,-18.8c-7.1,-12.4 -4.6,-8 -10.9,-18.8l-10.9,18.8z" class="st1"/>
   <path id="svg_4" d="m44.6,43.1c0.7,1.2 5.6,9.7 6.3,10.9l9.1,0l-10.8,-18.9l-21.8,0l4.6,7.9l12.6,0l0,0.1z" class="st2"/>
   <polygon id="svg_5" points="69.7,46 63.4,56.9 50.8,56.9 50.8,56.9 46.3,64.9 68,64.9 78.9,46  " class="st0"/>
   <path id="svg_6" d="m30.3,64.9l10.9,-18.9l-21.8,0c-4.7,8.1 -6,10.5 -10.9,18.8l21.8,0l0,0.1z" class="st2"/>
   <path id="svg_7" d="m41.2,86.6l-10.9,-18.8l-21.7,0c5.3,9.3 4.9,8.5 10.9,18.8l21.7,0z" class="st1"/>
   <path id="svg_8" d="m78.9,86.6l-10.9,-18.8l-21.7,0c4.9,8.4 6,10.4 10.9,18.8l21.7,0z" class="st2"/>
   <polygon id="svg_9" points="42,66.3 48.3,55.4 43.7,47.5 32.8,66.3 43.7,85.2 48.3,77.2  " class="st0"/>
   <path id="svg_10" d="m81.4,47.5l-10.9,18.8l10.9,18.8c6.3,-10.9 3.1,-5.4 10.9,-18.8c-8.1,-14 -4.6,-8 -10.9,-18.8z" class="st1"/>
   <path id="svg_11" d="m82.3,43.1l-10.9,0l5.4,-9.4c-5.3,-9.2 -7.1,-12.3 -13.4,-23.2l-26.8,0c-8.1,14 -6.2,10.7 -13.4,23.2l5.4,9.4l-10.9,0c-8.7,15.1 -5.5,9.6 -13.4,23.2c8.4,14.5 5.5,9.6 13.4,23.2l26.8,0l5.4,-9.4c0.9,1.5 4.7,8.2 5.4,9.4l26.8,0c7.8,-13.5 6,-10.4 13.4,-23.2c-4.1,-7.3 -6.4,-11.3 -13.2,-23.2zm-36,21.8l4.6,-7.9l0,0l12.6,0l6.2,-11l9.2,0l-10.9,18.9l-21.7,0zm16.3,-12.4l-10.9,-18.8l10.9,-18.8c6.3,10.8 3.7,6.5 10.9,18.8c-7.2,12.3 -4.4,7.5 -10.9,18.8zm-2.6,-39.1l-10.8,18.8l-21.8,0c5.4,-9.3 4.8,-8.3 10.9,-18.8l21.7,0zm-10.8,21.7l10.8,18.9l-9.2,0c-0.7,-1.2 -5.6,-9.7 -6.3,-10.9l-12.5,0l-4.6,-7.9l21.8,0l0,-0.1zm-8,10.9l-10.9,18.9l-21.7,0c4.8,-8.4 6.2,-10.7 10.9,-18.8l21.7,0l0,-0.1zm-10.9,21.8l10.9,18.8l-21.8,0c-5.9,-10.3 -5.5,-9.6 -10.9,-18.8l21.8,0zm2.5,-1.5l10.9,-18.8l4.6,7.9l-6.3,10.9l6.3,10.9l-4.6,7.9l-10.9,-18.8zm35.2,1.5l10.9,18.8l-21.8,0c-4.9,-8.5 -6,-10.4 -10.9,-18.8l21.8,0zm2.5,-1.5l10.9,-18.8c6.3,10.9 2.8,4.8 10.9,18.8c-7.8,13.5 -4.6,7.9 -10.9,18.8l-10.9,-18.8z" class="st3"/>
  </g>
  <text xml:space="preserve" text-anchor="start" font-family="Helvetica, Arial, sans-serif" font-size="25" id="svg_12" y="128.421875" x="18" fill-opacity="null" stroke-opacity="null" stroke-width="0" stroke="null" fill="#000000">JS-12</text>
 </g>
</svg>