<svg width="55" height="80" xmlns="http://www.w3.org/2000/svg">
 <title>C0012902-0B5A-4F56-9EEB-D3C2ACB81F26</title>

 <g>
  <title>background</title>
  <rect fill="none" id="canvas_background" height="82" width="57" y="-1" x="-1"/>
 </g>
 <g>
  <title>Layer 1</title>
  <g id="svg_1" fill-rule="evenodd" fill="none">
   <path id="svg_2" fill="#F48361" d="m15.094,17.15c3.154,-3.405 8.45,-3.632 11.887,-0.535l-11.511,12.428c-3.35,-3.19 -3.53,-8.489 -0.375,-11.894l-0.001,0.001zm18.171,-7.318c-7.183,-6.566 -18.327,-6.114 -24.95,1.036c-6.623,7.15 -6.222,18.296 0.873,24.956l-8.104,8.75l7.328,6.788l40.286,-43.49l-7.33,-6.79l-8.104,8.75l0.001,0z"/>
   <path id="svg_3" fill="#475669" d="m15.888,17.886c-2.476,2.673 -2.585,6.75 -0.41,9.555l9.906,-10.695c-2.96,-1.954 -7.018,-1.534 -9.496,1.14zm-0.418,12.24c-0.278,0 -0.546,-0.107 -0.748,-0.3c-3.763,-3.584 -3.953,-9.6 -0.423,-13.412c3.53,-3.812 9.545,-4.084 13.407,-0.603a1.081,1.081 0 0 1 0.07,1.54l-11.512,12.427a1.084,1.084 0 0 1 -0.76,0.348l-0.034,0zm-12.857,14.39l5.74,5.316l38.813,-41.902l-5.74,-5.316l-7.368,7.954a1.085,1.085 0 0 1 -1.526,0.064c-6.724,-6.148 -17.232,-5.712 -23.424,0.972c-6.19,6.684 -5.824,17.196 0.82,23.432c0.434,0.407 0.458,1.088 0.054,1.525l-7.369,7.955zm18.655,-6.46a1.08,1.08 0 0 1 -0.736,-0.288l-20.185,7.602a1.082,1.082 0 0 1 -0.06,-1.531l7.395,-7.983c-6.765,-7.116 -6.915,-18.433 -0.162,-25.723c6.753,-7.29 18.049,-8.004 25.66,-1.803l7.394,-7.982a1.08,1.08 0 0 1 0.753,-0.346c0.284,-0.016 0.568,0.09 0.778,0.286l7.328,6.79c0.44,0.406 0.465,1.092 0.06,1.53l-40.288,43.49a1.08,1.08 0 0 1 -0.795,0.348l12.858,-14.39z"/>
   <path id="svg_4" fill="#475669" d="m4.79,30.242a1.084,1.084 0 0 1 -0.363,-2.104l3.39,-1.21a1.083,1.083 0 0 1 0.729,2.04l-3.391,1.21a1.07,1.07 0 0 1 -0.364,0.064m20.173,-19.739a1.084,1.084 0 0 1 -1.039,-1.393l1.028,-3.45a1.083,1.083 0 1 1 2.077,0.619l-1.03,3.451c-0.14,0.47 -0.57,0.774 -1.036,0.774m-14.208,3.711c-0.263,0 -0.528,-0.096 -0.736,-0.289l-2.442,-2.262a1.083,1.083 0 0 1 1.472,-1.59l2.442,2.263a1.083,1.083 0 0 1 -0.736,1.878m2.712,32.772c-0.263,0 -0.528,-0.096 -0.736,-0.29l-2.732,-2.529a1.083,1.083 0 1 1 1.471,-1.59l2.733,2.532a1.083,1.083 0 0 1 -0.736,1.878m6.11,-6.598c-0.264,0 -0.528,-0.095 -0.736,-0.288l-2.732,-2.532a1.083,1.083 0 1 1 1.471,-1.59l2.733,2.532a1.083,1.083 0 0 1 -0.736,1.878m6.11,-6.595c-0.264,0 -0.528,-0.096 -0.736,-0.289l-2.732,-2.531a1.083,1.083 0 1 1 1.47,-1.59l2.734,2.532a1.083,1.083 0 0 1 -0.736,1.878m6.109,-6.596c-0.263,0 -0.528,-0.096 -0.736,-0.289l-2.732,-2.531a1.083,1.083 0 1 1 1.472,-1.59l2.732,2.532a1.083,1.083 0 0 1 -0.736,1.878m6.11,-6.596c-0.263,0 -0.528,-0.096 -0.736,-0.289l-2.732,-2.531a1.083,1.083 0 1 1 1.472,-1.59l2.732,2.532a1.083,1.083 0 0 1 -0.736,1.878m6.11,-6.596c-0.263,0 -0.528,-0.096 -0.736,-0.289l-2.733,-2.531a1.083,1.083 0 1 1 1.472,-1.59l2.733,2.532a1.083,1.083 0 0 1 -0.736,1.878"/>
   <path id="svg_5" fill="#44BC79" d="m18.244,22.04c0,-2.315 6.236,-4.192 13.927,-4.192s13.926,1.877 13.926,4.192l0,27.366c0,2.315 -6.235,4.192 -13.926,4.192s-13.927,-1.877 -13.927,-4.192l0,-27.366z"/>
   <path id="svg_6" fill="#475669" d="m32.17,18.931c-8.473,0 -12.843,2.18 -12.843,3.11l0,27.364c0,0.93 4.37,3.11 12.844,3.11s12.843,-2.18 12.843,-3.11l0,-27.365c0,-0.93 -4.37,-3.109 -12.843,-3.109m0,35.75c-7.23,0 -15.01,-1.65 -15.01,-5.276l0,-27.365c0,-3.624 7.78,-5.275 15.01,-5.275c7.229,0 15.009,1.651 15.009,5.275l0,27.365c0,3.625 -7.78,5.276 -15.01,5.276"/>
   <path id="svg_7" fill="#475669" d="m32.97,26.19c-6.18,0 -13.617,-1.165 -15.477,-4.266a1.083,1.083 0 0 1 1.857,-1.113c1.356,2.258 9.764,3.74 17.302,3.056c5.414,-0.494 7.786,-1.87 8.172,-2.898a1.082,1.082 0 1 1 2.028,0.76c-1.085,2.895 -6.04,3.933 -10.004,4.295a43.033,43.033 0 0 1 -3.877,0.166m-0.621,8.809l-0.066,0c-2.227,-0.003 -13.42,-0.241 -15.055,-4.64a1.084,1.084 0 0 1 2.03,-0.755c0.587,1.579 5.62,3.22 13.028,3.229l0.068,0c7.482,0 12.14,-1.662 12.728,-3.232a1.082,1.082 0 1 1 2.028,0.76c-1.282,3.42 -8.453,4.639 -14.762,4.639m0.001,10.257l-0.066,0c-2.227,-0.003 -13.42,-0.24 -15.055,-4.64a1.084,1.084 0 0 1 2.03,-0.755c0.587,1.579 5.62,3.22 13.028,3.229l0.068,0c7.482,0 12.14,-1.662 12.728,-3.231c0.21,-0.561 0.832,-0.845 1.394,-0.634c0.56,0.209 0.844,0.833 0.634,1.394c-1.282,3.42 -8.453,4.637 -14.762,4.637"/>
   <path id="svg_8" fill="#437857" d="m41.994,28.099a0.892,0.892 0 1 1 1.784,0a0.892,0.892 0 0 1 -1.784,0m0,19.254a0.892,0.892 0 1 1 1.784,0a0.892,0.892 0 0 1 -1.784,0"/>
   <path id="svg_9" fill="#F2F2F2" d="m45.012,32.606l0,7.452c-0.838,1.529 -5.432,3.094 -12.654,3.094l-0.071,0c-7.2,-0.015 -12.157,-1.572 -12.96,-3.116l0,-7.444c3.807,2.264 11.192,2.414 12.96,2.414l0.064,0c4.651,0 9.778,-0.664 12.661,-2.4"/>
   <path id="svg_10" fill="#D4D4D4" d="m42.034,37.739a0.892,0.892 0 1 1 1.784,0a0.892,0.892 0 0 1 -1.784,0"/>
  </g>
  <text xml:space="preserve" text-anchor="start" font-family="Helvetica, Arial, sans-serif" font-size="15" id="svg_11" y="73.421875" x="8.5" fill-opacity="null" stroke-opacity="null" stroke-width="0" stroke="null" fill="#000000">FJ-36</text>
 </g>
</svg>