<svg width="45" height="80" xmlns="http://www.w3.org/2000/svg">
 <!-- Generator: Sketch 40.3 (33839) - http://www.bohemiancoding.com/sketch -->
 <title>Desenvolvimento-na-Pratica-100x100</title>
 <desc>Created with Sketch.</desc>

 <g>
  <title>background</title>
  <rect fill="none" id="canvas_background" height="82" width="47" y="-1" x="-1"/>
 </g>
 <g>
  <title>Layer 1</title>
  <g fill-rule="evenodd" fill="none" id="Page-1">
   <g id="Artboard">
    <g id="Desenvolvimento-na-Pratica-100x100">
     <g id="Camada_1">
      <g id="Group">
       <path fill="#F16461" id="Shape" d="m28.363636,27.22624l-14.890909,18.22314c-1.472727,1.844008 -4.2,2.115186 -6.054545,0.650827l-1.636364,-1.355889c-1.854545,-1.518595 -2.127273,-4.176136 -0.654545,-6.07438l14.890909,-18.277376c1.472727,-1.844008 4.2,-2.115186 6.109091,-0.650826l1.636363,1.355888c1.854546,1.572831 2.127273,4.284607 0.6,6.128616l0,0z"/>
       <path fill="#DFEDFC" id="Shape" d="m7.309091,11.389463c-1.636364,3.579545 -1.745455,6.779442 0.163636,9.708161c2.290909,3.145661 6.327273,3.471074 9,0.650826c1.472728,-1.844008 1.745455,-4.61002 -0.163636,-6.508264c-2.509091,-2.332128 -8.072727,-2.169422 -9,-3.850723l0,0z"/>
       <path fill="#F3D0D0" id="Shape" d="m22.854546,17.13843c0,0 -2.236364,-0.596591 -3.600001,-3.254132l0.327273,-0.813534l-0.927272,-0.59659c0,0 -0.109092,-0.325414 -0.163637,-0.48812c-1.309091,-4.826963 -0.218182,-10.630166 1.909091,-10.847108c1.363636,-0.216942 2.454546,1.410124 3.272727,3.52531c0.109091,0.216942 0.218182,0.705062 0.218182,0.705062l-0.763636,1.084711l1.2,0.325413c0,0 0.218181,0.867769 0.327273,1.301653c0.054545,0.216942 0.218181,1.247417 0.272727,1.46436c0.109091,0.488119 0.163636,0.922004 0.218181,1.355888c0.327273,3.959194 -2.290908,6.237087 -2.290908,6.237087l0,0z"/>
       <g fill="#475669" id="Shape">
        <path id="svg_1" d="m29.945455,23.972107c-0.163637,-1.410123 -0.872728,-2.766012 -2.018182,-3.688016l-1.036364,-0.813533c-0.927273,-0.759298 -1.963636,-1.138946 -3.054545,-1.193182l-0.109091,-0.813533c0.763636,-0.813533 2.509091,-3.03719 2.290909,-6.5625c-0.054546,-0.433884 -0.109091,-0.922004 -0.218182,-1.410124c-0.054545,-0.271178 -0.218182,-1.301653 -0.272727,-1.518595c-0.109091,-0.433884 -0.327273,-1.355888 -0.327273,-1.355888c-0.109091,-0.271178 -0.272727,-0.542356 -0.6,-0.596591l-0.163636,-0.054236l0.218182,-0.216942c0.163636,-0.271178 0.163636,-0.48812 0.10909,-0.705062c0,0 -0.163636,-0.542355 -0.272727,-0.759298c-1.145455,-2.874483 -2.509091,-4.230371 -4.145455,-3.959194c-0.436363,0.054236 -1.145454,0.325413 -1.8,1.247418c-1.472727,2.169421 -1.799999,6.833677 -0.763636,10.575929c0.054546,0.162707 0.163637,0.542356 0.163637,0.542356c0.10909,0.216942 0.218181,0.325413 0.327272,0.433884l0.381819,0.216942l-0.163637,0.216942c-0.054545,0.162707 -0.054545,0.433885 0.054545,0.596591c1.09091,2.115186 2.727273,3.03719 3.545455,3.416839l0.109091,0.759298c-1.145455,0.271177 -2.290909,0.922004 -3.109091,1.898243l-1.418182,1.735538c-0.109091,-0.108472 -0.163636,-0.271178 -0.272727,-0.379649c1.472727,-2.277893 1.309091,-5.152376 -0.6,-6.996384c-1.472727,-1.355889 -3.654546,-1.898244 -5.672727,-2.386364c-1.309091,-0.325413 -2.945455,-0.705062 -3.218182,-1.247418c-0.163636,-0.271177 -0.436364,-0.433884 -0.709091,-0.433884c-0.272727,0.054236 -0.545455,0.162707 -0.654545,0.48812c-1.854546,3.959194 -1.745455,7.430269 0.218181,10.521694c1.254546,1.735537 3.054546,2.766013 4.963637,2.874484l0.381818,0c1.527273,0 2.945454,-0.542356 4.145454,-1.627066c0.109091,0.162706 0.218182,0.325413 0.327273,0.488119l-2.890909,3.52531l-1.909091,-0.216942c-0.163636,-0.48812 -0.6,-0.813533 -1.145454,-0.867768c-0.49091,-0.054236 -0.981819,0.162706 -1.309091,0.488119l-6.054546,-0.813533c-0.218182,-0.433884 -0.6,-0.705062 -1.090909,-0.813533c-0.818182,-0.108471 -1.527273,0.433885 -1.636363,1.247418c-0.109091,0.813533 0.436363,1.518595 1.254545,1.627066c0.545455,0.054235 0.981818,-0.162707 1.309091,-0.542356l6,0.813534l0,0l-3.818182,3.416838c-0.109091,-0.054235 -0.218182,-0.054235 -0.327273,-0.108471c-0.818181,-0.108471 -1.527272,0.433885 -1.636363,1.247418c-0.109091,0.813533 0.436363,1.518595 1.254545,1.627066c0.818182,0.108471 1.527273,-0.433885 1.636364,-1.247418l0,-0.325413l4.254545,-3.796487c0.381819,0 0.709091,-0.216943 0.981819,-0.433885l1.145454,0.162707l-7.8,9.653925c-0.927273,1.138947 -1.363636,2.603306 -1.2,4.01343c0.163636,1.46436 0.872727,2.766013 2.018182,3.688017l1.036363,0.813533c1.036364,0.867768 2.29091,1.247417 3.490909,1.247417c1.581819,0 3.163637,-0.705062 4.309092,-2.06095l14.345454,-17.62655c0.872727,-1.084711 1.309091,-2.54907 1.145455,-4.01343l0,0zm-19.472728,22.1281c-1.090909,0.108471 -2.072727,-0.216942 -2.890909,-0.867769l-1.036363,-0.813533c-0.818182,-0.650826 -1.363637,-1.572831 -1.472728,-2.657541c-0.109091,-1.084711 0.218182,-2.060951 0.872728,-2.874484l8.454545,-10.413223l1.145454,-1.410124l1.745455,-2.169421l1.2,-1.46436l1.8,-2.169421c0.545455,-0.705062 1.309091,-1.138947 2.127273,-1.355889c0.327273,-0.054235 0.654545,-0.108471 0.981818,-0.108471c0.218182,0 0.436364,0 0.654545,0.054236c0.654546,0.108471 1.254546,0.379648 1.800001,0.813533l1.036363,0.813533c0.818182,0.650826 1.363636,1.57283 1.472727,2.657541c0.109091,1.084711 -0.218182,2.06095 -0.872727,2.874483l-14.345455,17.62655c-0.654545,0.813533 -1.581818,1.355888 -2.672727,1.46436l0,0zm9.545455,-33.78874l-0.654546,-0.433884c0,-0.054236 -0.054545,-0.162707 -0.054545,-0.216943c-0.981818,-3.579545 -0.490909,-7.755681 0.6,-9.328512c0.163636,-0.216942 0.381818,-0.542355 0.709091,-0.596591c0.709091,-0.108471 1.636363,1.030475 2.4,3.03719c0.054545,0.108471 0.109091,0.216942 0.163636,0.325414l-0.6,0.867768c-0.163636,0.216942 -0.163636,0.48812 -0.109091,0.705062c0.109091,0.216942 0.272728,0.433884 0.545455,0.48812l0.709091,0.271178c0.054545,0.216942 0.163636,0.596591 0.163636,0.813533c0.054546,0.216942 0.218182,1.193181 0.272727,1.464359c0.109091,0.433885 0.163637,0.867769 0.218182,1.247417c0.163636,2.711777 -1.090909,4.555786 -1.745454,5.260848c-0.6,-0.271178 -1.690909,-0.97624 -2.563637,-2.386364l0.218182,-0.596591c0.163636,-0.325413 0,-0.705062 -0.272727,-0.922004l0,0zm-4.636364,7.430269c-0.218182,-0.162707 -0.436363,-0.271178 -0.709091,-0.433885c-0.272727,-0.813533 -0.272727,-1.627066 -0.054545,-2.223657c0.163636,-0.379648 -0.054546,-0.867768 -0.436364,-1.030475c-0.381818,-0.162707 -0.872727,0.054236 -1.036364,0.433884c-0.218181,0.542356 -0.327272,1.193182 -0.272727,1.898244c-1.472727,-0.813533 -3,-1.898244 -3.545454,-3.633781c-0.109091,-0.433884 -0.545455,-0.650826 -0.981818,-0.542355c-0.436364,0.108471 -0.654546,0.542355 -0.545455,0.976239c0.381818,1.193182 1.036364,2.169422 1.909091,2.874484c-0.327273,0.054235 -0.490909,0.162706 -0.545455,0.162706c-0.436363,0.162707 -0.6,0.650827 -0.436363,1.030476c0.163636,0.271177 0.436363,0.48812 0.709091,0.48812c0.109091,0 0.218181,-0.054236 0.272727,-0.054236c0,-0.054236 1.036363,-0.433884 1.963636,-0.216942c0.490909,0.271178 0.927273,0.48812 1.363637,0.705062c0.163636,0.054235 0.272727,0.108471 0.436363,0.216942c0.109091,0.108471 0.218182,0.162707 0.381819,0.216942c0.218181,0.108471 0.381818,0.216942 0.490909,0.325413c0,0.054236 0.054545,0.054236 0.054545,0.054236c0.327273,0.216942 0.654545,0.48812 0.927273,0.705062c-0.981818,0.813533 -2.181819,1.247417 -3.381818,1.138946c-1.472728,-0.108471 -2.836364,-0.922004 -3.818182,-2.223657c-1.527273,-2.332128 -1.690909,-4.881198 -0.545455,-7.972624c0.818182,0.48812 1.963637,0.759298 3.218182,1.084711c1.8,0.433884 3.818182,0.97624 4.909091,2.006715c1.418182,1.410124 1.363636,3.308368 0.6,4.718491c-0.272727,-0.216942 -0.6,-0.488119 -0.927273,-0.705061l0,0z"/>
        <path id="svg_2" d="m23.018182,13.721591l-0.763637,-4.98967c-0.109091,-0.433884 -0.490909,-0.705061 -0.927272,-0.650826c-0.436364,0.108471 -0.709091,0.48812 -0.654546,0.922004l0.763637,4.98967c0.054545,0.379648 0.381818,0.650826 0.763636,0.650826l0.163636,0c0.381819,-0.108471 0.709091,-0.48812 0.654546,-0.922004l0,0z"/>
       </g>
      </g>
     </g>
    </g>
   </g>
  </g>
  <text xml:space="preserve" text-anchor="start" font-family="Helvetica, Arial, sans-serif" font-size="15" id="svg_3" y="69" x="2.5" fill-opacity="null" stroke-opacity="null" stroke-width="0" stroke="null" fill="#000000">FJ-22</text>
 </g>
</svg>