<svg width="60" height="80" xmlns="http://www.w3.org/2000/svg" xmlns:xlink="http://www.w3.org/1999/xlink">
 <title>81275432-47FC-43E7-88BA-746C4C319A31</title>
 <defs>
  <path d="m31.954,0.242l-31.954,0l0,23.385l31.954,0l0,-23.385z" id="a"/>
  <path d="m31.954,0.242l-31.954,0l0,18.697l31.954,0l0,-18.697z" id="c"/>
 </defs>
 <g>
  <title>background</title>
  <rect fill="none" id="canvas_background" height="82" width="62" y="-1" x="-1"/>
 </g>
 <g>
  <title>Layer 1</title>
  <g id="svg_1" fill-rule="evenodd" fill="none">
   <path id="svg_2" fill="#E0EEFD" d="m20.662,23.184s0.19,1.575 1.292,2.617c0.362,0.342 0.06,0.877 -0.489,0.877l-10.977,0c-0.548,0 -0.85,-0.535 -0.488,-0.877c1.102,-1.042 1.291,-2.617 1.291,-2.617"/>
   <path id="svg_3" fill="#475669" d="m21.45,26.334l0.006,0l-0.005,0l-0.001,0zm0.016,1.077l-10.978,0c-0.585,0 -1.093,-0.326 -1.294,-0.83a1.179,1.179 0 0 1 0.302,-1.311c0.888,-0.84 1.067,-2.163 1.068,-2.177a0.731,0.731 0 1 1 1.454,0.178c-0.008,0.068 -0.192,1.505 -1.153,2.674l10.225,0.001c-0.963,-1.169 -1.147,-2.607 -1.154,-2.675a0.731,0.731 0 0 1 0.638,-0.814a0.726,0.726 0 0 1 0.815,0.637c0.003,0.03 0.186,1.341 1.068,2.176c0.37,0.349 0.485,0.85 0.303,1.31c-0.201,0.505 -0.71,0.831 -1.295,0.831l0.001,0z"/>
   <path id="svg_4" fill="#F2F2F2" d="m29.49,23.184l-27.027,0a1.732,1.732 0 0 1 -1.732,-1.732l0,-18.457c0,-0.956 0.776,-1.732 1.732,-1.732l27.027,0c0.957,0 1.732,0.776 1.732,1.732l0,18.457c0,0.956 -0.775,1.732 -1.732,1.732"/>
   <g id="svg_5">
    <mask transform="translate(0,0.28999999165534973) " id="b">
     <use id="svg_6" xlink:href="#a"/>
    </mask>
    <path id="svg_7" mask="url(#b)" fill="#475669" d="m2.299,1.996a0.834,0.834 0 0 0 -0.834,0.834l0,18.788c0,0.46 0.374,0.834 0.834,0.834l27.356,0c0.46,0 0.834,-0.374 0.834,-0.834l0,-18.788a0.834,0.834 0 0 0 -0.834,-0.834l-27.356,0zm27.356,21.92l-27.356,0a2.301,2.301 0 0 1 -2.299,-2.297l0,-18.789a2.301,2.301 0 0 1 2.3,-2.299l27.356,0a2.301,2.301 0 0 1 2.299,2.3l0,18.787a2.301,2.301 0 0 1 -2.3,2.299l0,-0.001z"/>
   </g>
   <path id="svg_8" fill="#A2C4F1" d="m30.33,18.496l-28.706,0a0.89,0.89 0 0 1 -0.89,-0.89l0,-14.606c0,-0.96 0.777,-1.737 1.735,-1.737l27.017,0c0.959,0 1.736,0.778 1.736,1.737l0,14.605a0.89,0.89 0 0 1 -0.89,0.89"/>
   <g id="svg_9">
    <mask transform="translate(0,0.28999999165534973) " id="d">
     <use id="svg_10" xlink:href="#c"/>
    </mask>
    <path id="svg_11" mask="url(#d)" fill="#475669" d="m2.302,1.996a0.838,0.838 0 0 0 -0.837,0.838l0,14.856c0,0.04 0.032,0.073 0.073,0.073l28.878,0c0.04,0 0.073,-0.033 0.073,-0.073l0,-14.856a0.838,0.838 0 0 0 -0.838,-0.838l-27.349,0zm28.114,17.234l-28.878,0a1.54,1.54 0 0 1 -1.538,-1.54l0,-14.856a2.305,2.305 0 0 1 2.302,-2.304l27.35,0a2.305,2.305 0 0 1 2.302,2.303l0,14.857a1.54,1.54 0 0 1 -1.538,1.538l0,0.002z"/>
   </g>
   <path id="svg_12" fill="#F4D2D2" d="m46.002,42.515s0.234,1.938 1.59,3.22c0.444,0.42 0.073,1.079 -0.602,1.079l-13.5,0c-0.676,0 -1.046,-0.659 -0.602,-1.08c1.356,-1.281 1.589,-3.219 1.589,-3.219"/>
   <path id="svg_13" fill="#475669" d="m47.088,46.267l0.005,0l-0.005,0zm-0.098,1.279l-13.502,0c-0.65,0 -1.214,-0.36 -1.435,-0.916c-0.2,-0.499 -0.072,-1.046 0.33,-1.427c1.139,-1.077 1.364,-2.76 1.366,-2.778a0.732,0.732 0 0 1 1.454,0.177c-0.01,0.087 -0.26,2.043 -1.627,3.479l13.326,0c-1.366,-1.437 -1.616,-3.392 -1.627,-3.479a0.732,0.732 0 0 1 1.454,-0.176c0.003,0.026 0.23,1.704 1.365,2.777c0.403,0.381 0.53,0.929 0.331,1.428c-0.221,0.556 -0.785,0.915 -1.435,0.915z"/>
   <path id="svg_14" fill="#F2F2F2" d="m57.221,42.515l-33.964,0a1.77,1.77 0 0 1 -1.77,-1.77l0,-23.423c0,-0.977 0.793,-1.769 1.77,-1.769l33.963,0c0.977,0 1.77,0.792 1.77,1.77l0,23.424a1.77,1.77 0 0 1 -1.77,1.769"/>
   <path id="svg_15" fill="#475669" d="m23.087,16.285a0.869,0.869 0 0 0 -0.867,0.867l0,23.763c0,0.478 0.389,0.867 0.867,0.867l34.304,0c0.478,0 0.866,-0.389 0.866,-0.867l0,-23.763a0.868,0.868 0 0 0 -0.866,-0.867l-34.304,0zm34.304,26.962l-34.304,0a2.335,2.335 0 0 1 -2.332,-2.332l0,-23.763a2.335,2.335 0 0 1 2.332,-2.332l34.304,0a2.335,2.335 0 0 1 2.331,2.332l0,23.763a2.335,2.335 0 0 1 -2.331,2.332z"/>
   <path id="svg_16" fill="#F36461" d="m58.157,36.748l-35.837,0a0.834,0.834 0 0 1 -0.833,-0.833l0,-18.617c0,-0.964 0.781,-1.746 1.745,-1.746l34.012,0c0.964,0 1.745,0.782 1.745,1.746l0,18.617c0,0.46 -0.373,0.833 -0.833,0.833"/>
   <path id="svg_17" fill="#475669" d="m23.066,16.285a0.846,0.846 0 0 0 -0.846,0.845l0,18.864l36.016,0.022c0.012,0 0.022,-0.01 0.022,-0.022l0,-18.864a0.846,0.846 0 0 0 -0.846,-0.845l-34.346,0zm35.17,21.196l-35.996,0c-0.82,0 -1.486,-0.667 -1.486,-1.487l0,-18.864a2.314,2.314 0 0 1 2.31,-2.31l34.347,0a2.314,2.314 0 0 1 2.31,2.31l0,18.864c0,0.82 -0.666,1.487 -1.486,1.487l0.001,0z"/>
   <path id="svg_18" fill="#FFF" d="m35.35,24.468c0.13,0.05 0.225,0.14 0.283,0.267a0.503,0.503 0 0 1 0.017,0.391l-1.71,4.488a0.487,0.487 0 0 1 -0.293,0.294l-0.011,0l-0.005,0.005a0.473,0.473 0 0 1 -0.076,0.017c-0.004,0.004 -0.015,0.006 -0.033,0.006a0.348,0.348 0 0 1 -0.114,0a0.496,0.496 0 0 1 -0.109,-0.022c-0.003,0 -0.005,-0.002 -0.005,-0.006l-0.01,0a0.47,0.47 0 0 1 -0.295,-0.294l-1.235,-3.236l-1.23,3.236a0.47,0.47 0 0 1 -0.294,0.294l-0.01,0c0,0.004 -0.002,0.005 -0.005,0.005a0.538,0.538 0 0 1 -0.109,0.023a0.34,0.34 0 0 1 -0.114,0c-0.018,0 -0.03,-0.002 -0.033,-0.006a0.485,0.485 0 0 1 -0.076,-0.017c-0.004,0 -0.006,-0.001 -0.006,-0.005l-0.011,0a0.47,0.47 0 0 1 -0.293,-0.294l-1.709,-4.488a0.505,0.505 0 0 1 0.017,-0.391a0.474,0.474 0 0 1 0.282,-0.267a0.476,0.476 0 0 1 0.387,0.011a0.496,0.496 0 0 1 0.267,0.283l1.235,3.242l1.229,-3.242a0.139,0.139 0 0 1 0.027,-0.05a0.488,0.488 0 0 1 0.267,-0.244a0.487,0.487 0 0 1 0.391,0.011a0.493,0.493 0 0 1 0.267,0.283l1.23,3.242l1.235,-3.242a0.471,0.471 0 0 1 0.266,-0.283l0.19,-0.087l0.196,0.076m8.469,0c0.13,0.05 0.225,0.14 0.283,0.267a0.503,0.503 0 0 1 0.016,0.391l-1.709,4.488a0.487,0.487 0 0 1 -0.293,0.294l-0.011,0l-0.006,0.005a0.473,0.473 0 0 1 -0.076,0.017c-0.003,0.004 -0.014,0.006 -0.032,0.006a0.348,0.348 0 0 1 -0.114,0a0.496,0.496 0 0 1 -0.109,-0.022c-0.004,0 -0.005,-0.002 -0.005,-0.006l-0.011,0a0.47,0.47 0 0 1 -0.294,-0.294l-1.235,-3.236l-1.23,3.236a0.47,0.47 0 0 1 -0.294,0.294l-0.01,0c0,0.004 -0.003,0.005 -0.005,0.005a0.538,0.538 0 0 1 -0.11,0.023a0.34,0.34 0 0 1 -0.114,0c-0.018,0 -0.03,-0.002 -0.033,-0.006a0.485,0.485 0 0 1 -0.076,-0.017c-0.003,0 -0.005,-0.001 -0.005,-0.005l-0.011,0a0.47,0.47 0 0 1 -0.294,-0.294l-1.708,-4.488a0.505,0.505 0 0 1 0.016,-0.391a0.474,0.474 0 0 1 0.283,-0.267a0.476,0.476 0 0 1 0.387,0.011a0.496,0.496 0 0 1 0.266,0.283l1.235,3.242l1.23,-3.242a0.139,0.139 0 0 1 0.027,-0.05a0.488,0.488 0 0 1 0.266,-0.244a0.487,0.487 0 0 1 0.392,0.011a0.493,0.493 0 0 1 0.266,0.283l1.23,3.242l1.235,-3.242a0.471,0.471 0 0 1 0.267,-0.283l0.19,-0.087l0.196,0.076m8.468,0c0.13,0.05 0.225,0.14 0.283,0.267a0.503,0.503 0 0 1 0.017,0.391l-1.709,4.488a0.487,0.487 0 0 1 -0.294,0.294l-0.011,0l-0.005,0.005a0.473,0.473 0 0 1 -0.076,0.017c-0.004,0.004 -0.015,0.006 -0.033,0.006a0.348,0.348 0 0 1 -0.114,0a0.496,0.496 0 0 1 -0.109,-0.022c-0.003,0 -0.005,-0.002 -0.005,-0.006l-0.01,0a0.47,0.47 0 0 1 -0.295,-0.294l-1.235,-3.236l-1.23,3.236a0.47,0.47 0 0 1 -0.293,0.294l-0.011,0c0,0.004 -0.002,0.005 -0.005,0.005a0.538,0.538 0 0 1 -0.109,0.023a0.34,0.34 0 0 1 -0.114,0c-0.018,0 -0.03,-0.002 -0.033,-0.006a0.485,0.485 0 0 1 -0.076,-0.017c-0.004,0 -0.006,-0.001 -0.006,-0.005l-0.011,0a0.47,0.47 0 0 1 -0.293,-0.294l-1.708,-4.488a0.505,0.505 0 0 1 0.016,-0.391a0.474,0.474 0 0 1 0.282,-0.267a0.476,0.476 0 0 1 0.387,0.011a0.496,0.496 0 0 1 0.267,0.283l1.235,3.242l1.229,-3.242a0.139,0.139 0 0 1 0.027,-0.05a0.488,0.488 0 0 1 0.267,-0.244a0.487,0.487 0 0 1 0.391,0.011a0.493,0.493 0 0 1 0.267,0.283l1.23,3.242l1.235,-3.242a0.471,0.471 0 0 1 0.266,-0.283l0.19,-0.087l0.196,0.076"/>
   <path id="svg_19" fill="#475669" d="m5.981,31.182a0.733,0.733 0 0 1 -0.732,-0.732l0,-6.894a0.733,0.733 0 0 1 1.464,0l0,6.894a0.733,0.733 0 0 1 -0.732,0.732m15.506,9.042l-10.942,0c-3.465,0 -5.296,-1.83 -5.296,-5.296l0,-2.198a0.733,0.733 0 0 1 1.465,0l0,2.198c0,2.686 1.145,3.831 3.83,3.831l10.943,0a0.733,0.733 0 0 1 0,1.465"/>
   <path id="svg_20" fill="#475669" d="m8.284,31.182l-4.606,0a0.733,0.733 0 0 1 0,-1.465l4.606,0a0.733,0.733 0 0 1 0,1.465m1.32,2.281l-7.246,0a0.733,0.733 0 0 1 0,-1.465l7.246,0a0.733,0.733 0 0 1 0,1.465"/>
  </g>
  <text xml:space="preserve" text-anchor="start" font-family="Helvetica, Arial, sans-serif" font-size="16" id="svg_21" y="72" x="9" fill-opacity="null" stroke-opacity="null" stroke-width="0" stroke="null" fill="#000000">FJ-21</text>
 </g>
</svg>