<svg width="56" height="80" xmlns="http://www.w3.org/2000/svg" xmlns:xlink="http://www.w3.org/1999/xlink">
 <title>76C1FDC5-7D88-4EE4-903F-A424A0382D54</title>
 <defs>
  <path d="m0.203,0.169l9.12,0l0,31.643l-9.119,0l0,-31.642l-0.001,-0.001z" id="a"/>
  <path d="m0.024,6.667l31.976,0l0,-6.068l-31.976,0l0,6.068z" id="c"/>
 </defs>
 <g>
  <title>background</title>
  <rect fill="none" id="canvas_background" height="82" width="58" y="-1" x="-1"/>
 </g>
 <g>
  <title>Layer 1</title>
  <g id="svg_1" fill-rule="evenodd" fill="none">
   <path id="svg_2" fill="#F2F2F2" d="m50.667,45.058l-49.39,0c-1.211,0 2.115,4.39 3.327,4.39l43.741,0c1.212,0 3.534,-4.39 2.322,-4.39"/>
   <path id="svg_3" fill="#475669" d="m50.667,46.075l0.006,0l-0.006,0zm-46,2.355l43.589,0c0.441,-0.242 1.263,-1.511 1.593,-2.355l-47.415,0c0.613,0.925 1.744,2.17 2.233,2.355zm43.678,2.034l-43.741,0c-1.24,0 -4.604,-3.186 -4.604,-5.14c0,-0.437 0.182,-0.725 0.336,-0.89c0.236,-0.253 0.57,-0.393 0.942,-0.393l49.389,0c0.441,0 0.837,0.198 1.084,0.543c0.181,0.25 0.273,0.56 0.273,0.918c0,1.478 -1.925,4.962 -3.68,4.962l0.001,0zm-18.873,-16.82a1.017,1.017 0 0 1 -0.505,-1.9c0.13,-0.076 3.275,-1.946 3.49,-5.84c0,-2.165 -1.369,-3.78 -2.953,-5.65c-1.881,-2.219 -4.014,-4.734 -4.136,-8.763c0.032,-6.278 4.936,-9.23 5.145,-9.352a1.016,1.016 0 1 1 1.03,1.753c-0.187,0.113 -4.116,2.527 -4.142,7.573c0.1,3.282 1.907,5.414 3.654,7.474c1.69,1.994 3.436,4.054 3.433,7.022c-0.279,5.078 -4.34,7.45 -4.512,7.55c-0.159,0.09 -0.332,0.133 -0.504,0.133"/>
   <g id="svg_4">
    <mask transform="translate(17.33300018310547,0.49799999594688416) " id="b">
     <use id="svg_5" xlink:href="#a"/>
    </mask>
    <path id="svg_6" mask="url(#b)" fill="#475669" d="m21.641,32.31a1.017,1.017 0 0 1 -0.505,-1.9c0.13,-0.076 3.274,-1.946 3.49,-5.839c0,-2.166 -1.37,-3.78 -2.954,-5.65c-1.881,-2.22 -4.014,-4.735 -4.136,-8.763c0.033,-6.28 4.936,-9.23 5.145,-9.352a1.017,1.017 0 0 1 1.032,1.752c-0.168,0.1 -4.117,2.514 -4.144,7.574c0.1,3.282 1.907,5.413 3.654,7.474c1.69,1.992 3.436,4.052 3.434,7.022c-0.28,5.078 -4.34,7.45 -4.513,7.55c-0.158,0.09 -0.332,0.132 -0.503,0.132"/>
   </g>
   <path id="svg_7" fill="#F36461" d="m40.152,49.447l-28.28,0a0.83,0.83 0 0 0 -0.83,0.83l1.637,2.374c0.33,0.497 0.855,0.83 1.466,0.83l23.854,0c0.573,0 1.046,-0.373 1.34,-0.83l1.643,-2.374a0.83,0.83 0 0 0 -0.83,-0.83"/>
   <g id="svg_8">
    <mask transform="translate(10,47.83100128173828) " id="d">
     <use id="svg_9" xlink:href="#c"/>
    </mask>
    <path id="svg_10" mask="url(#d)" fill="#475669" d="m40.152,50.464001l0.007,0l-0.007,0zm-27.747,0l1.111,1.61c0.104,0.154 0.308,0.39 0.628,0.39l23.856,0c0.185,0 0.372,-0.188 0.486,-0.365l1.131,-1.635l-27.212,0zm25.594,4.034l-23.855,0c-0.914,0 -1.778,-0.48 -2.311,-1.286l-1.629,-2.358a1.016,1.016 0 0 1 -0.18,-0.577a1.85,1.85 0 0 1 1.847,-1.846l28.281,0a1.85,1.85 0 0 1 1.848,1.846c0,0.207 -0.063,0.409 -0.181,0.579l-1.643,2.373c-0.513,0.796 -1.313,1.269 -2.176,1.269l-0.001,0z"/>
   </g>
   <path id="svg_11" fill="#A2C4F1" d="m47.104,22.57l-42.186,0s0.365,22.488 21.093,22.488c21.628,0 21.093,-22.488 21.093,-22.488"/>
   <path id="svg_12" fill="#475669" d="m6,23.587c0.164,1.843 0.728,5.874 2.636,9.846c3.381,7.039 9.227,10.608 17.375,10.608c5.943,0 10.686,-1.768 14.096,-5.255c4.979,-5.089 5.817,-12.534 5.955,-15.199l-40.062,0zm20.011,22.488c-21.48,0 -22.107,-23.253 -22.11,-23.488a1.014,1.014 0 0 1 1.016,-1.034l42.187,0c0.552,0 1.003,0.44 1.017,0.993c0.01,0.437 0.176,10.763 -6.548,17.65c-3.809,3.901 -9.045,5.879 -15.562,5.879z"/>
   <path id="svg_13" fill="#F2F2F2" d="m54.656,32.908a4.646,4.646 0 1 1 -9.291,0a4.646,4.646 0 0 1 9.291,0"/>
   <path id="svg_14" fill="#475669" d="m50.01,29.28a3.632,3.632 0 0 0 -3.628,3.628a3.633,3.633 0 0 0 3.628,3.63a3.633,3.633 0 0 0 3.63,-3.63a3.632,3.632 0 0 0 -3.63,-3.629m0,9.292a5.67,5.67 0 0 1 -5.662,-5.663a5.67,5.67 0 0 1 5.662,-5.663a5.67,5.67 0 0 1 5.663,5.663a5.67,5.67 0 0 1 -5.663,5.663"/>
  </g>
  <text xml:space="preserve" text-anchor="start" font-family="Helvetica, Arial, sans-serif" font-size="15" id="svg_15" y="73.421875" x="9" fill-opacity="null" stroke-opacity="null" stroke-width="0" stroke="null" fill="#000000">FJ-11</text>
 </g>
</svg>