<svg width="100" height="150" xmlns="http://www.w3.org/2000/svg">
 <style type="text/css">.st0{fill:#83DBE5;}
	.st1{fill:#475669;}
	.st2{fill:#F1F1F1;}
	.st3{fill:#53D8CB;}
	.st4{fill:#00C5D9;}
	.st5{fill:#FFFFFF;}</style>

 <g>
  <title>background</title>
  <rect fill="none" id="canvas_background" height="152" width="102" y="-1" x="-1"/>
 </g>
 <g>
  <title>Layer 1</title>
  <g id="svg_1">
   <g id="svg_2">
    <path id="svg_3" d="m63.9,77.3c0,0 0.6,4.7 3.8,7.8c1.1,1 0.2,2.6 -1.5,2.6l-16.2,0l-16.3,0c-1.6,0 -2.5,-1.6 -1.5,-2.6c3.3,-3.1 3.8,-7.8 3.8,-7.8" class="st0"/>
    <path id="svg_4" d="m66.3,89.2l-32.6,0c-1.5,0 -2.7,-0.8 -3.2,-2.1c-0.5,-1.1 -0.2,-2.3 0.7,-3.1c2.8,-2.7 3.4,-6.8 3.4,-6.8l3,0.4c0,0.2 -0.7,5.2 -4.2,8.6c0.1,0 0.2,0.1 0.3,0.1l32.6,0c0.1,0 0.2,0 0.3,-0.1c-3.5,-3.5 -4.2,-8.4 -4.2,-8.6l3,-0.4c0,0 0.6,4.2 3.4,6.9c0.9,0.9 1.2,2.1 0.7,3.2c-0.5,1.1 -1.7,1.9 -3.2,1.9z" class="st1"/>
   </g>
   <g id="svg_5">
    <path id="svg_6" d="m91.7,77.3l-83.4,0c-2,0 -3.6,-1.6 -3.6,-3.6l0,-57.9c0,-2 1.6,-3.6 3.6,-3.6l83.4,0c2,0 3.6,1.6 3.6,3.6l0,57.9c0,2 -1.6,3.6 -3.6,3.6z" class="st2"/>
    <path id="svg_7" d="m91.7,78.8l-83.4,0c-2.8,0 -5.1,-2.3 -5.1,-5.1l0,-57.9c0,-2.8 2.3,-5.1 5.1,-5.1l83.4,0c2.8,0 5.1,2.3 5.1,5.1l0,57.9c0,2.8 -2.3,5.1 -5.1,5.1zm-83.4,-65.1c-1.1,0 -2.1,0.9 -2.1,2.1l0,57.9c0,1.1 0.9,2.1 2.1,2.1l83.4,0c1.1,0 2.1,-0.9 2.1,-2.1l0,-57.9c0,-1.1 -0.9,-2.1 -2.1,-2.1l-83.4,0z" class="st1"/>
   </g>
   <g id="svg_8">
    <path id="svg_9" d="m95.3,63.4l-90.6,0l0,-47.6c0,-2 1.6,-3.6 3.6,-3.6l83.4,0c2,0 3.6,1.6 3.6,3.6l0,47.6z" class="st3"/>
    <path id="svg_10" d="m96.8,64.9l-93.6,0l0,-49.1c0,-2.8 2.3,-5.1 5.1,-5.1l83.4,0c2.8,0 5.1,2.3 5.1,5.1l0,49.1zm-90.6,-3.1l87.5,0l0,-46c0,-1.1 -0.9,-2.1 -2.1,-2.1l-83.3,0c-1.1,0 -2.1,0.9 -2.1,2.1l0,46z" class="st1"/>
   </g>
   <g id="svg_11">
    <g id="svg_12">
     <g id="svg_13">
      <path id="svg_14" d="m58.4,32.1l-18.4,0c-0.8,0 -1.5,-0.7 -1.5,-1.5s0.7,-1.6 1.5,-1.6l18.3,0c0.8,0 1.5,0.7 1.5,1.5s-0.6,1.6 -1.4,1.6z" class="st1"/>
     </g>
     <g id="svg_15">
      <path id="svg_16" d="m60,32.1c-0.3,0 -0.6,-0.1 -0.9,-0.3l-5.3,-4.1c-0.7,-0.5 -0.8,-1.5 -0.3,-2.1c0.5,-0.7 1.5,-0.8 2.1,-0.3l5.3,4.1c0.7,0.5 0.8,1.5 0.3,2.1c-0.3,0.4 -0.8,0.6 -1.2,0.6z" class="st1"/>
     </g>
     <g id="svg_17">
      <path id="svg_18" d="m54.6,36.1c-0.5,0 -0.9,-0.2 -1.2,-0.6c-0.5,-0.7 -0.4,-1.6 0.3,-2.1l5.3,-4.1c0.7,-0.5 1.6,-0.4 2.1,0.3c0.5,0.7 0.4,1.6 -0.3,2.1l-5.3,4.1c-0.2,0.2 -0.5,0.3 -0.9,0.3z" class="st1"/>
     </g>
    </g>
    <g id="svg_19">
     <g id="svg_20">
      <path id="svg_21" d="m60,46.5l-18.4,0c-0.8,0 -1.5,-0.7 -1.5,-1.5s0.7,-1.5 1.5,-1.5l18.4,0c0.8,0 1.5,0.7 1.5,1.5s-0.7,1.5 -1.5,1.5z" class="st1"/>
     </g>
     <g id="svg_22">
      <path id="svg_23" d="m40,46.5c-0.5,0 -0.9,-0.2 -1.2,-0.6c-0.5,-0.7 -0.4,-1.6 0.3,-2.1l5.3,-4.1c0.7,-0.5 1.6,-0.4 2.1,0.3c0.5,0.7 0.4,1.6 -0.3,2.1l-5.3,4.1c-0.2,0.2 -0.6,0.3 -0.9,0.3z" class="st1"/>
     </g>
     <g id="svg_24">
      <path id="svg_25" d="m45.4,50.6c-0.3,0 -0.6,-0.1 -0.9,-0.3l-5.3,-4.1c-0.7,-0.5 -0.8,-1.5 -0.3,-2.1c0.5,-0.7 1.5,-0.8 2.1,-0.3l5.3,4.1c0.7,0.5 0.8,1.5 0.3,2.1c-0.3,0.4 -0.8,0.6 -1.2,0.6z" class="st1"/>
     </g>
    </g>
   </g>
   <g id="svg_26">
    <g id="svg_27">
     <path id="svg_28" d="m76,48.2l16.8,0c1.5,0 2.6,1.2 2.6,2.6l0,34.5c0,1.5 -1.2,2.6 -2.6,2.6l-16.8,0c-1.5,0 -2.6,-1.2 -2.6,-2.6l0,-34.4c-0.1,-1.5 1.1,-2.7 2.6,-2.7z" class="st2"/>
     <path id="svg_29" d="m93,89.3l-17.3,0c-2.1,0 -3.8,-1.7 -3.8,-3.8l0,-34.9c0,-2.1 1.7,-3.8 3.8,-3.8l17.3,0c2.1,0 3.8,1.7 3.8,3.8l0,34.9c0,2.1 -1.7,3.8 -3.8,3.8zm-17.3,-39.7c-0.6,0 -1,0.5 -1,1l0,34.9c0,0.6 0.5,1 1,1l17.3,0c0.6,0 1,-0.5 1,-1l0,-34.9c0,-0.6 -0.5,-1 -1,-1l-17.3,0z" class="st1"/>
    </g>
    <g id="svg_30">
     <rect id="svg_31" height="27.5" width="22.1" class="st4" y="54.4" x="73.3"/>
     <path id="svg_32" d="m96.8,83.3l-24.9,0l0,-30.3l24.9,0l0,30.3zm-22.1,-2.8l19.3,0l0,-24.8l-19.3,0l0,24.8z" class="st1"/>
    </g>
    <g id="svg_33">
     <circle id="svg_34" r="1.2" cy="85" cx="84.3" class="st1"/>
    </g>
    <g id="svg_35">
     <line id="svg_36" y2="51.4" x2="86.1" y1="51.4" x1="82.6" class="st5"/>
     <path id="svg_37" d="m86.1,52.3l-3.6,0c-0.5,0 -0.9,-0.4 -0.9,-0.9s0.4,-0.9 0.9,-0.9l3.6,0c0.5,0 0.9,0.4 0.9,0.9s-0.4,0.9 -0.9,0.9z" class="st1"/>
    </g>
   </g>
  </g>
  <text xml:space="preserve" text-anchor="start" font-family="Helvetica, Arial, sans-serif" font-size="25" id="svg_38" y="130.421875" x="13" fill-opacity="null" stroke-opacity="null" stroke-width="0" stroke="null" fill="#000000">WD-47</text>
 </g>
</svg>