<svg width="58" height="80" xmlns="http://www.w3.org/2000/svg">
 <title>AB1DBCF6-251E-4AF9-8216-7D6C68157954</title>

 <g>
  <title>background</title>
  <rect fill="none" id="canvas_background" height="82" width="60" y="-1" x="-1"/>
 </g>
 <g>
  <title>Layer 1</title>
  <g id="svg_1" fill-rule="evenodd" fill="none">
   <path id="svg_2" d="m45.703,24.157l-11.22,0l0,11.303l-11.218,0l0,11.303l22.438,0l0,-11.303l11.219,0l0,-11.303l-11.219,0z" fill="#0096EC"/>
   <path id="svg_3" fill="#475669" d="m24.049,45.973l20.87,0l0,-10.513c0,-0.436 0.35,-0.79 0.783,-0.79l10.435,0l0,-9.723l-20.87,0l0,10.513c0,0.436 -0.35,0.79 -0.784,0.79l-10.434,0l0,9.723zm21.653,1.58l-22.437,0a0.786,0.786 0 0 1 -0.784,-0.79l0,-11.303c0,-0.436 0.35,-0.79 0.784,-0.79l10.434,0l0,-10.512c0,-0.437 0.351,-0.79 0.784,-0.79l22.437,0c0.434,0 0.784,0.353 0.784,0.79l0,11.302c0,0.436 -0.35,0.79 -0.784,0.79l-10.434,0l0,10.513c0,0.437 -0.35,0.79 -0.784,0.79z"/>
   <path id="svg_4" d="m12.002,35.45l0,-22.604l11.219,0l0,33.908l-22.438,0l0,-11.303l11.219,-0.001z" fill="#F2D448"/>
   <path id="svg_5" fill="#475669" d="m1.568,45.964l20.87,0l0,-32.329l-9.652,0l0,21.816c0,0.436 -0.35,0.79 -0.784,0.79l-10.434,0l0,9.723zm21.653,1.58l-22.437,0a0.786,0.786 0 0 1 -0.784,-0.79l0,-11.304c0,-0.437 0.35,-0.79 0.784,-0.79l10.434,0l0,-21.814c0,-0.436 0.351,-0.79 0.784,-0.79l11.22,0c0.433,0 0.783,0.354 0.783,0.79l0,33.909c0,0.436 -0.35,0.79 -0.784,0.79l0,-0.001z"/>
   <path id="svg_6" d="m34.538,24.2l11.202,0l0,-11.301l-11.202,0l0,-11.319l-11.22,0l0,33.908l11.22,0l0,-11.288z" fill="#EBEBEB"/>
   <path id="svg_7" fill="#475669" d="m24.103,34.699l9.65,0l0,-10.499c0,-0.436 0.352,-0.79 0.784,-0.79l10.42,0l0,-9.722l-10.42,0a0.787,0.787 0 0 1 -0.783,-0.79l0,-10.529l-9.651,0l0,32.331l0,-0.001zm10.434,1.581l-11.217,0a0.786,0.786 0 0 1 -0.784,-0.79l0,-33.911c0,-0.436 0.35,-0.789 0.784,-0.789l11.218,0c0.434,0 0.784,0.353 0.784,0.79l0,10.528l10.42,0c0.433,0 0.784,0.353 0.784,0.79l0,11.302c0,0.437 -0.35,0.79 -0.784,0.79l-10.422,0l0,10.499c0,0.436 -0.35,0.79 -0.784,0.79l0.001,0.001z"/>
  </g>
  <text xml:space="preserve" text-anchor="start" font-family="Helvetica, Arial, sans-serif" font-size="15" id="svg_8" y="73" x="7" fill-opacity="null" stroke-opacity="null" stroke-width="0" stroke="null" fill="#000000">WD-01</text>
 </g>
</svg>