<svg width="100" height="140" xmlns="http://www.w3.org/2000/svg">
 <style type="text/css">.st0{fill:#F0F0F0;}
	.st1{fill:#00BC76;}
	.st2{fill:#F18E61;}
	.st3{fill:#475669;}</style>

 <g>
  <title>background</title>
  <rect fill="none" id="canvas_background" height="142" width="102" y="-1" x="-1"/>
 </g>
 <g>
  <title>Layer 1</title>
  <g id="svg_1">
   <g id="svg_2">
    <g id="svg_3">
     <g id="svg_4">
      <path id="svg_5" d="m36.8,31.3c-0.3,0 -0.5,-0.1 -0.7,-0.3l-12.5,-12.5c-0.2,-0.2 -0.3,-0.5 -0.3,-0.7c0,-0.3 0.1,-0.5 0.4,-0.7c15.3,-12.3 36.9,-12.4 52.3,-0.3c0.2,0.2 0.4,0.4 0.4,0.7c0,0.3 -0.1,0.6 -0.3,0.8l-12.5,12.5c-0.3,0.3 -0.8,0.4 -1.2,0.1c-7.7,-5 -17.5,-4.9 -25.1,0.2c-0.2,0.1 -0.4,0.2 -0.5,0.2z" class="st0"/>
      <path id="svg_6" d="m82.2,76.7c-0.3,0 -0.5,-0.1 -0.7,-0.3l-12.5,-12.5c-0.3,-0.3 -0.4,-0.9 -0.1,-1.2c5.1,-7.6 5.2,-17.4 0.2,-25c-0.3,-0.4 -0.2,-0.9 0.1,-1.2l12.5,-12.5c0.2,-0.2 0.5,-0.3 0.8,-0.3c0.3,0 0.5,0.2 0.7,0.4c12.1,15.5 12,37 -0.3,52.3c-0.1,0.2 -0.4,0.3 -0.7,0.3c0,0 0,0 0,0z" class="st1"/>
      <path id="svg_7" d="m50,92.2c-9.2,0 -18.4,-3 -26,-9c-0.2,-0.2 -0.4,-0.4 -0.4,-0.7c0,-0.3 0.1,-0.6 0.3,-0.8l12.5,-12.5c0.3,-0.3 0.8,-0.4 1.2,-0.1c7.4,4.8 17,4.8 24.4,0.2c0.4,-0.2 0.9,-0.2 1.2,0.1l12.6,12.6c0.2,0.2 0.3,0.5 0.3,0.8c0,0.3 -0.2,0.5 -0.4,0.7c-7.6,5.8 -16.7,8.7 -25.7,8.7z" class="st0"/>
      <path id="svg_8" d="m17.6,76.4c0,0 -0.1,0 0,0c-0.3,0 -0.6,-0.2 -0.8,-0.4c-11.9,-15.1 -12.1,-36.4 -0.3,-51.7c0.2,-0.2 0.4,-0.4 0.7,-0.4c0.3,0 0.6,0.1 0.8,0.3l12.5,12.5c0.3,0.3 0.4,0.8 0.1,1.2c-4.6,7.5 -4.5,17.1 0.3,24.5c0.3,0.4 0.2,0.9 -0.1,1.2l-12.5,12.6c-0.2,0.1 -0.5,0.2 -0.7,0.2z" class="st2"/>
     </g>
    </g>
   </g>
   <path id="svg_9" d="m84.4,23.1c-0.4,-0.6 -1.1,-0.9 -1.8,-1c-0.7,-0.1 -1.4,0.2 -1.9,0.7l-4.7,4.8c-1.1,-1.2 -2.2,-2.4 -3.5,-3.5l4.7,-4.7c0.5,-0.5 0.8,-1.2 0.7,-1.9c0,-0.7 -0.4,-1.4 -1,-1.8c-16,-12.7 -38.3,-12.6 -54.2,0.2c-0.6,0.4 -0.9,1.1 -0.9,1.8c0,0.7 0.2,1.4 0.7,1.9l4.7,4.7c-1.2,1.1 -2.4,2.3 -3.4,3.5l-4.7,-4.7c-0.5,-0.5 -1.2,-0.8 -1.9,-0.7c-0.7,0 -1.4,0.4 -1.8,1c-12.3,15.8 -12.2,37.9 0.2,53.6c0.4,0.6 1.1,0.9 1.8,1c0,0 0.1,0 0.1,0c0.7,0 1.3,-0.3 1.8,-0.7l4.8,-4.8c1.1,1.2 2.2,2.4 3.5,3.5l-4.8,4.8c-0.5,0.5 -0.8,1.2 -0.7,1.9c0,0.7 0.4,1.4 1,1.8c7.7,6 17.2,9.3 26.9,9.3c0,0 0,0 0,0c9.6,0 19,-3.2 26.6,-9.1c0.6,-0.4 0.9,-1.1 1,-1.8c0,-0.7 -0.2,-1.4 -0.7,-1.9l-4.7,-4.7c1.3,-1.1 2.4,-2.2 3.5,-3.4l4.7,4.7c0.5,0.5 1.1,0.7 1.8,0.7c0,0 0.1,0 0.1,0c0.7,0 1.4,-0.4 1.8,-0.9c12.8,-16 12.9,-38.3 0.3,-54.3zm-59.3,-5.2c14.6,-11.4 34.8,-11.5 49.5,-0.2l-4.5,4.5c-5.6,-4.1 -12.6,-6.5 -20.1,-6.5c-7.6,0 -14.7,2.5 -20.4,6.7l-4.5,-4.5zm42.8,6.5l-5,5c-8,-5 -18.1,-4.9 -26,0.2l-5,-5c5.1,-3.7 11.4,-5.9 18.2,-5.9c6.5,0 12.7,2.1 17.8,5.7zm-50.3,50.2c-11,-14.4 -11.1,-34.4 -0.2,-48.9l4.6,4.6c-4,5.6 -6.3,12.4 -6.3,19.7c0,7.5 2.4,14.4 6.5,20.1l-4.6,4.5zm6.8,-6.7c-3.6,-5.1 -5.6,-11.2 -5.6,-17.9c0,-6.5 2,-12.5 5.4,-17.5l5,5c-4.7,7.8 -4.6,17.7 0.2,25.4l-5,5zm49.9,14.7c-7.1,5.3 -15.5,8.1 -24.3,8.1c0,0 0,0 0,0c-8.8,0 -17.5,-2.9 -24.6,-8.3l4.6,-4.6c5.6,4.1 12.5,6.5 20,6.5c7.3,0 14.1,-2.3 19.7,-6.3l4.6,4.6zm-42.1,-6.9l5,-5c7.7,4.8 17.5,4.8 25.3,0.2l5,5c-5,3.4 -11,5.4 -17.5,5.4c-6.6,0 -12.8,-2.1 -17.8,-5.6zm37.8,-1.7l-5.6,-5.6c-0.8,-0.8 -2.1,-1 -3.1,-0.4c-7,4.4 -15.9,4.3 -22.8,-0.2c-1,-0.6 -2.3,-0.5 -3.1,0.3l-5.6,5.6c-1.2,-1.1 -2.4,-2.2 -3.5,-3.5l5.6,-5.6c0.8,-0.8 1,-2.2 0.3,-3.1c-4.5,-6.9 -4.6,-15.9 -0.2,-22.8c0.6,-1 0.5,-2.3 -0.4,-3.1l-5.6,-5.6c1.1,-1.3 2.2,-2.4 3.4,-3.5l5.6,5.6c0.5,0.5 1.1,0.7 1.8,0.7c0.5,0 1,-0.1 1.4,-0.4c7.1,-4.8 16.3,-4.8 23.4,-0.2c1,0.6 2.3,0.5 3.1,-0.3l5.6,-5.6c1.2,1.1 2.4,2.2 3.5,3.5l-5.6,5.6c-0.8,0.8 -1,2.1 -0.3,3.1c4.6,7.1 4.5,16.3 -0.2,23.4c-0.7,1 -0.5,2.3 0.3,3.2l5.6,5.6c-1.2,1.1 -2.3,2.3 -3.6,3.3zm5.4,-5.8l-5,-5c5.1,-7.9 5.2,-18 0.2,-26l5,-5c3.5,5.1 5.6,11.2 5.6,17.8c0.1,6.8 -2.1,13.1 -5.8,18.2zm6.7,6.7l-4.5,-4.5c4.2,-5.7 6.7,-12.7 6.7,-20.4c0,-7.5 -2.4,-14.4 -6.5,-20l4.5,-4.5c11.3,14.7 11.2,34.8 -0.2,49.4z" class="st3"/>
  </g>
  <text xml:space="preserve" text-anchor="start" font-family="Helvetica, Arial, sans-serif" font-size="25" id="svg_10" y="130" x="17" fill-opacity="null" stroke-opacity="null" stroke-width="0" stroke="null" fill="#000000">FJ-33</text>
 </g>
</svg>