<svg width="54" height="90" xmlns="http://www.w3.org/2000/svg">
 <title>E73EB5E1-9220-4604-A458-89E4A00C4978</title>

 <g>
  <title>background</title>
  <rect fill="none" id="canvas_background" height="92" width="56" y="-1" x="-1"/>
 </g>
 <g>
  <title>Layer 1</title>
  <g id="svg_1" fill-rule="evenodd" fill="none">
   <path id="svg_2" fill="#00A385" d="m24.554,2.867c1.43,-1.176 2.92,-1.155 4.497,0l21.892,14.186c0.867,0.907 1.318,2.106 1.284,3.644l0,21.614c0.02,1.69 -0.375,3.014 -1.339,3.838l-21.74,14.37c-1.624,1.194 -3.13,1.254 -4.693,0l-21.612,-14.407c-1.176,-1.234 -1.66,-2.23 -1.63,-3.841l0,-21.534c0.034,-2.272 0.07,-2.445 1.252,-3.545l22.089,-14.325z"/>
   <path id="svg_3" fill="#475669" d="m24.554,2.868l0.008,0l-0.008,0zm-20.924,42.316l21.498,14.33c0.03,0.019 0.059,0.04 0.087,0.063c1.091,0.877 1.993,0.867 3.216,-0.032l21.719,-14.357c0.59,-0.542 0.881,-1.504 0.866,-2.863l0,-21.629c0.025,-1.148 -0.257,-2.03 -0.86,-2.714l-21.766,-14.101c-1.206,-0.881 -2.078,-0.894 -3.067,-0.08a1.23,1.23 0 0 1 -0.11,0.08l-22,14.266c-0.761,0.711 -0.763,0.77 -0.79,2.61l0,21.513c-0.023,1.206 0.261,1.9 1.206,2.913l0.001,0.001zm23.135,17.459c-1.22,0 -2.252,-0.538 -3.025,-1.149l-21.57,-14.377a1.213,1.213 0 0 1 -0.205,-0.173c-1.207,-1.267 -2.003,-2.55 -1.964,-4.694l0,-21.512c0.038,-2.436 0.1,-2.997 1.638,-4.43c0.05,-0.047 0.107,-0.091 0.166,-0.13l22.035,-14.288c1.822,-1.465 3.924,-1.464 5.927,0.004l21.836,14.145c0.079,0.051 0.152,0.112 0.217,0.18c1.113,1.167 1.658,2.682 1.618,4.504l0,21.588c0.024,2.13 -0.568,3.735 -1.762,4.755a1.198,1.198 0 0 1 -0.119,0.09l-21.739,14.37c-1.105,0.812 -2.131,1.118 -3.052,1.118l-0.001,-0.001z"/>
   <path id="svg_4" fill="#55BEFE" d="m25.87,20.397c0.562,-0.462 1.145,-0.453 1.765,0l8.589,5.565c0.34,0.357 0.516,0.827 0.503,1.43l0,8.48c0.007,0.663 -0.147,1.183 -0.525,1.506l-8.53,5.637c-0.637,0.47 -1.228,0.493 -1.84,0l-8.48,-5.652c-0.461,-0.484 -0.65,-0.875 -0.64,-1.507l0,-8.448c0.015,-0.891 0.028,-0.96 0.492,-1.39l8.666,-5.62l0,-0.001z"/>
   <path id="svg_5" fill="#475669" d="m25.87,20.397l0.008,0l-0.008,0zm-7.725,16.041l8.359,5.573c0.03,0.02 0.06,0.04 0.087,0.063a0.484,0.484 0 0 0 0.152,0.094c0.004,-0.003 0.083,-0.03 0.211,-0.126l8.477,-5.604c0.035,-0.058 0.089,-0.221 0.085,-0.553l0,-8.493c0.006,-0.272 -0.045,-0.421 -0.105,-0.515l-8.436,-5.466a1.015,1.015 0 0 0 -0.247,-0.146c-0.005,0.006 -0.037,0.024 -0.087,0.065a1.23,1.23 0 0 1 -0.11,0.08l-8.58,5.564l-0.016,0.014c-0.007,0.12 -0.01,0.312 -0.011,0.44l0,8.428c-0.004,0.235 0.006,0.34 0.221,0.582zm8.596,8.147c-0.556,0 -1.112,-0.197 -1.622,-0.592l-8.439,-5.625a1.178,1.178 0 0 1 -0.205,-0.172c-0.699,-0.733 -0.99,-1.439 -0.974,-2.361l0,-8.427c0.017,-1.101 0.093,-1.546 0.877,-2.275c0.052,-0.047 0.107,-0.09 0.166,-0.13l8.616,-5.586c0.977,-0.767 2.136,-0.766 3.191,0.006l8.532,5.527c0.08,0.05 0.153,0.111 0.218,0.18c0.567,0.595 0.857,1.385 0.837,2.289l0,8.453c0.012,1.056 -0.307,1.876 -0.95,2.424a1.434,1.434 0 0 1 -0.117,0.09l-8.53,5.636c-0.505,0.374 -1.053,0.563 -1.6,0.563z"/>
  </g>
  <text xml:space="preserve" text-anchor="start" font-family="Helvetica, Arial, sans-serif" font-size="15" id="svg_6" y="84" x="7" fill-opacity="null" stroke-opacity="null" stroke-width="0" stroke="null" fill="#000000">JS-35</text>
 </g>
</svg>