<svg width="47" height="75" xmlns="http://www.w3.org/2000/svg" xmlns:xlink="http://www.w3.org/1999/xlink">
 <title>DEAFB558-6B36-4DB0-8527-83D6C1B585EB</title>
 <defs>
  <path d="m38.441,18.8l-38.073,0l0,-18.28l38.073,0l0,18.28z" id="a"/>
  <path d="m46.412,0.522l0,12.638l-46.412,0l0,-12.638l46.412,0z" id="c"/>
  <path d="m46.412,0.452l0,12.638l-46.412,0l0,-12.638l46.412,0z" id="e"/>
  <path d="m46.412,0.247l0,12.639l-46.412,0l0,-12.639l46.412,0z" id="g"/>
 </defs>
 <g>
  <title>background</title>
  <rect fill="none" id="canvas_background" height="77" width="49" y="-1" x="-1"/>
 </g>
 <g>
  <title>Layer 1</title>
  <g id="svg_1" fill-rule="evenodd" fill="none">
   <path id="svg_2" fill="#F2F2F2" d="m41.108,31.064l0,10.696c0,2.977 -8.036,5.395 -17.943,5.395c-9.907,0 -17.942,-2.418 -17.942,-5.395l0,-10.696c4.01,1.9 10.553,3.4 17.942,3.4c7.39,0 13.933,-1.5 17.943,-3.4"/>
   <g id="svg_3">
    <mask transform="translate(3.759999990463257,29.450000762939453) " id="b">
     <use id="svg_4" xlink:href="#a"/>
    </mask>
    <path id="svg_5" mask="url(#b)" fill="#475669" d="m6.317,32.728001l0,9.032c0,1.502 5.786,4.301 16.848,4.301c11.061,0 16.848,-2.8 16.848,-4.3l0,-9.034c-4.542,1.787 -10.689,2.833 -16.848,2.833c-6.159,0 -12.305,-1.046 -16.848,-2.832m16.848,15.522c-9.46,0 -19.037,-2.23 -19.037,-6.49l0,-10.696c0,-0.374 0.193,-0.723 0.51,-0.924a1.1,1.1 0 0 1 1.054,-0.064c4.351,2.063 10.883,3.294 17.473,3.294s13.121,-1.231 17.475,-3.294a1.096,1.096 0 0 1 1.563,0.989l0,10.695c0,4.26 -9.577,6.49 -19.037,6.49"/>
   </g>
   <path id="svg_6" fill="#A2C4F1" d="m41.108,18.696l0,12.367s-8.036,4.115 -17.943,4.115c-9.907,0 -17.942,-3.816 -17.942,-3.816l0,-12.666c4.01,1.9 10.553,3.4 17.942,3.4c7.39,0 13.933,-1.5 17.943,-3.4"/>
   <path id="svg_7" fill="#475669" d="m6.317,30.647c2.046,0.858 8.865,3.437 16.848,3.437c8.006,0 14.84,-2.803 16.848,-3.714l0,-10.01c-4.542,1.786 -10.689,2.831 -16.848,2.831c-6.159,0 -12.306,-1.045 -16.848,-2.831l0,10.288l0,-0.001zm16.848,5.626c-10.038,0 -18.075,-3.76 -18.411,-3.92a1.096,1.096 0 0 1 -0.626,-0.99l0,-12.668a1.096,1.096 0 0 1 1.564,-0.988c4.351,2.063 10.883,3.295 17.473,3.295s13.121,-1.232 17.474,-3.295a1.096,1.096 0 0 1 1.562,0.988l0,12.368c0,0.411 -0.23,0.788 -0.595,0.974c-0.338,0.173 -8.385,4.235 -18.44,4.235l-0.001,0.001z"/>
   <g id="svg_8">
    <mask transform="translate(0,35.09000015258789) " id="d">
     <use id="svg_9" xlink:href="#c"/>
    </mask>
    <path id="svg_10" mask="url(#d)" fill="#475669" d="m23.206,48.25c-12.146,0 -23.206,-4.033 -23.206,-8.461c0,-1.58 1.302,-2.954 3.87,-4.084a1.094,1.094 0 1 1 0.882,2.003c-1.89,0.831 -2.563,1.62 -2.563,2.08c0,2.148 8.875,6.273 21.017,6.273c12.143,0 21.017,-4.125 21.017,-6.272c0,-0.46 -0.673,-1.25 -2.564,-2.082a1.094,1.094 0 1 1 0.881,-2.002c2.569,1.13 3.872,2.504 3.872,4.084c0,4.428 -11.06,8.461 -23.206,8.461"/>
   </g>
   <path id="svg_11" fill="#F36461" d="m41.108,6.496l0,13.164c-4.01,1.909 -10.553,3.408 -17.943,3.408c-7.39,0 -13.932,-1.5 -17.942,-3.408l0,-13.164c0,-2.984 8.035,-5.402 17.942,-5.402s17.943,2.418 17.943,5.402"/>
   <path id="svg_12" fill="#475669" d="m41.107,19.66l0.007,0l-0.007,0zm-34.79,-0.704c4.331,1.896 10.56,3.017 16.848,3.017c6.288,0 12.517,-1.121 16.848,-3.017l0,-12.46c0,-1.226 -5.011,-4.308 -16.848,-4.308c-11.836,0 -16.848,3.082 -16.848,4.309l0,12.46l0,-0.001zm16.848,5.205c-6.906,0 -13.789,-1.313 -18.412,-3.514a1.093,1.093 0 0 1 -0.624,-0.988l0,-13.162c0,-4.267 9.576,-6.497 19.036,-6.497s19.036,2.231 19.036,6.497l0,13.162c0,0.422 -0.243,0.807 -0.624,0.988c-4.623,2.2 -11.506,3.514 -18.412,3.514z"/>
   <g id="svg_13">
    <mask transform="translate(0,23.18199920654297) " id="f">
     <use id="svg_14" xlink:href="#e"/>
    </mask>
    <path id="svg_15" mask="url(#f)" fill="#475669" d="m23.206,36.271999c-12.146,0 -23.206,-4.033 -23.206,-8.46c0,-1.58 1.302,-2.955 3.87,-4.086a1.093,1.093 0 1 1 0.882,2.002c-1.89,0.834 -2.562,1.624 -2.562,2.084c0,2.148 8.875,6.272 21.017,6.272c12.143,0 21.017,-4.124 21.017,-6.272c0,-0.46 -0.673,-1.25 -2.564,-2.082a1.093,1.093 0 1 1 0.88,-2.003c2.569,1.13 3.872,2.505 3.872,4.084c0,4.428 -11.06,8.461 -23.206,8.461"/>
   </g>
   <g id="svg_16">
    <mask transform="translate(0,11.276000022888184) " id="h">
     <use id="svg_17" xlink:href="#g"/>
    </mask>
    <path id="svg_18" mask="url(#h)" fill="#475669" d="m23.206,24.162c-12.146,0 -23.206,-4.033 -23.206,-8.461c0,-1.58 1.302,-2.954 3.87,-4.084a1.095,1.095 0 0 1 0.882,2.002c-1.89,0.832 -2.563,1.621 -2.563,2.082c0,2.148 8.875,6.272 21.017,6.272c12.143,0 21.017,-4.124 21.017,-6.272c0,-0.46 -0.673,-1.25 -2.564,-2.082a1.093,1.093 0 1 1 0.881,-2.003c2.569,1.13 3.872,2.505 3.872,4.085c0,4.428 -11.06,8.46 -23.206,8.46"/>
   </g>
   <path id="svg_19" fill="#475669" d="m24.173,12.193c-7.999,0 -17.513,-1.454 -19.884,-5.345a1.094,1.094 0 0 1 1.867,-1.14c1.842,3.02 13.056,5.002 23.073,4.08c5.985,-0.551 10.145,-2.055 10.856,-3.924a1.094,1.094 0 0 1 2.045,0.78c-1.426,3.744 -8.569,4.942 -12.7,5.322a57.965,57.965 0 0 1 -5.257,0.227"/>
   <g id="svg_20" fill="#D4D4D4">
    <path id="svg_21" d="m35.586,15.065a0.897,0.897 0 1 1 1.794,0a0.897,0.897 0 0 1 -1.794,0m0,12a0.897,0.897 0 1 1 1.794,0.001a0.897,0.897 0 0 1 -1.794,0m0,11.657a0.897,0.897 0 1 1 1.794,0a0.897,0.897 0 0 1 -1.794,0"/>
   </g>
  </g>
  <text xml:space="preserve" text-anchor="start" font-family="Helvetica, Arial, sans-serif" font-size="15" id="svg_22" y="67.5" x="4.5" stroke-opacity="null" stroke-width="0" stroke="null" fill="#000000">FJ-25</text>
 </g>
</svg>