<svg width="55" height="100" xmlns="http://www.w3.org/2000/svg" xmlns:xlink="http://www.w3.org/1999/xlink">
 <title>DE3B661B-0D55-4A2B-99C6-B26720117A73</title>
 <defs>
  <path d="m0,0.519l0,30.41l38.436,0l0,-30.411l-38.436,0l0,0.001z" id="a"/>
  <path d="m11.81,0.384l11.48,0l0,37.6l-22.96,0l0,-37.6l11.48,0z" id="c"/>
 </defs>
 <g>
  <title>background</title>
  <rect fill="none" id="canvas_background" height="102" width="57" y="-1" x="-1"/>
 </g>
 <g>
  <title>Layer 1</title>
  <g id="svg_1" fill-rule="evenodd" fill="none">
   <path id="svg_2" fill="#7B7AB6" d="m33.127,39.683c2.353,0 4.26,6.339 4.26,14.156c0,7.818 -1.907,14.156 -4.26,14.156l-27.817,0c-2.353,0 -4.26,-6.338 -4.26,-14.156c0,-7.817 1.907,-14.156 4.26,-14.156l27.817,0z"/>
   <g id="svg_3">
    <mask transform="translate(0,38.11600112915039) " id="b">
     <use id="svg_4" xlink:href="#a"/>
    </mask>
    <path id="svg_5" mask="url(#b)" fill="#475669" d="m5.31,40.732001c-1.132,0 -3.213,4.977 -3.213,13.107c0,8.132 2.08,13.108 3.213,13.108l27.816,0c1.133,0 3.213,-4.976 3.213,-13.108c0,-8.13 -2.08,-13.107 -3.213,-13.107l-27.816,0zm27.816,28.312l-27.816,0c-3.649,0 -5.31,-7.882 -5.31,-15.205s1.66,-15.204 5.31,-15.204l27.816,0c3.649,0 5.31,7.881 5.31,15.204s-1.661,15.205 -5.31,15.205z"/>
   </g>
   <path id="svg_6" fill="#475669" d="m33.83,68.78c-0.123,0 -0.248,-0.021 -0.369,-0.067c-4.2,-1.575 -4.514,-11.303 -4.51,-14.248c0.01,-6.441 1.29,-14.434 4.867,-15.764a1.05,1.05 0 0 1 0.73,1.966c-1.674,0.622 -3.489,6.075 -3.5,13.801c-0.01,7.284 1.577,11.692 3.149,12.282a1.048,1.048 0 0 1 -0.368,2.03"/>
   <path id="svg_7" fill="#7B7AB6" d="m25.055,39.683c-5.212,1.937 -5.452,26.269 0,28.312"/>
   <path id="svg_8" fill="#475669" d="m25.055,69.044c-0.123,0 -0.247,-0.021 -0.368,-0.067c-3.464,-1.298 -4.689,-8.614 -4.68,-15.026c0.01,-6.235 1.24,-13.971 4.683,-15.25a1.05,1.05 0 0 1 0.73,1.966c-1.621,0.602 -3.305,5.736 -3.316,13.286c-0.01,6.733 1.418,12.348 3.319,13.06a1.048,1.048 0 0 1 -0.368,2.031"/>
   <path id="svg_9" fill="#7B7AB6" d="m14.627,39.683c-5.212,1.937 -5.452,26.269 0,28.312"/>
   <path id="svg_10" fill="#475669" d="m14.628,69.044c-0.123,0 -0.247,-0.021 -0.368,-0.067c-3.465,-1.298 -4.689,-8.613 -4.68,-15.025c0.008,-6.236 1.24,-13.971 4.682,-15.251a1.05,1.05 0 0 1 0.73,1.966c-1.621,0.603 -3.305,5.737 -3.316,13.288c-0.01,6.732 1.418,12.346 3.32,13.059a1.048,1.048 0 0 1 -0.368,2.03"/>
   <path id="svg_11" fill="#769CBE" d="m20.065,4.435l12.022,0c5.349,0 9.684,4.336 9.684,9.684l0,15.594c0,5.349 -1.71,9.684 -7.059,9.684l-7.535,0c-3.99,0.06 -5.005,2.91 -5.55,7.296c-0.595,4.904 -0.783,9.24 -0.242,13.633c0.277,2.346 1.67,7.944 3.67,7.669l-10.429,0c-7.137,-4.67 -4.023,-34.506 -4.247,-38.282l0,-15.594c0,-5.348 4.336,-9.684 9.685,-9.684"/>
   <path id="svg_12" fill="#475669" d="m14.962,66.947l7.283,0c-1.15,-2.112 -1.757,-5.27 -1.902,-6.498c-0.501,-4.075 -0.427,-8.358 0.243,-13.882c0.49,-3.937 1.442,-8.141 6.576,-8.218l7.551,-0.001c4.044,0 6.01,-2.824 6.01,-8.635l0,-15.594c0,-4.762 -3.874,-8.636 -8.636,-8.636l-12.023,0c-4.761,0 -8.635,3.874 -8.635,8.636l0,15.594c0.044,0.707 -0.033,2.358 -0.141,4.643c-0.404,8.634 -1.343,28.677 3.674,32.59m9.953,2.107c-0.063,0 -0.13,-0.003 -0.199,-0.009l-10.089,0a1.05,1.05 0 0 1 -0.574,-0.171c-5.525,-3.616 -5.601,-18.774 -4.86,-34.615c0.101,-2.137 0.18,-3.824 0.14,-4.483l-0.001,-15.656c0,-5.918 4.814,-10.733 10.732,-10.733l12.023,0c5.918,0 10.733,4.815 10.733,10.733l0,15.594c0,4.008 -1.053,10.733 -8.107,10.733l-7.536,0c-2.814,0.042 -3.914,1.592 -4.51,6.377c-0.648,5.344 -0.723,9.47 -0.242,13.375c0.429,3.627 1.849,6.546 2.449,6.749l0.181,0a1.049,1.049 0 0 1 0.142,2.087a1.96,1.96 0 0 1 -0.282,0.02"/>
   <path id="svg_13" fill="#769CBE" d="m33.003,8.303l0,-1.049a5.518,5.518 0 0 1 5.518,-5.518l9.828,0a5.518,5.518 0 0 1 5.518,5.518l0,24.468a5.518,5.518 0 0 1 -5.518,5.518l-5.443,0a5.519,5.519 0 0 1 -5.519,-5.518l0,-1.563"/>
   <g id="svg_14">
    <mask transform="translate(31.625,0.30300000309944153) " id="d">
     <use id="svg_15" xlink:href="#c"/>
    </mask>
    <path id="svg_16" mask="url(#d)" fill="#475669" d="m48.349,38.287l-5.444,0a6.574,6.574 0 0 1 -6.567,-6.567l0,-1.562a1.05,1.05 0 0 1 2.097,0l0,1.562a4.474,4.474 0 0 0 4.47,4.47l5.443,0a4.474,4.474 0 0 0 4.469,-4.47l0,-24.466a4.474,4.474 0 0 0 -4.47,-4.47l-9.825,0a4.474,4.474 0 0 0 -4.469,4.47l0,1.048a1.05,1.05 0 0 1 -2.099,0.001l0,-1.049a6.574,6.574 0 0 1 6.567,-6.567l9.828,0a6.574,6.574 0 0 1 6.567,6.567l0,24.466a6.574,6.574 0 0 1 -6.567,6.567"/>
   </g>
   <path id="svg_17" fill="#616196" d="m28.34,64.107a1.07,1.07 0 1 1 -2.14,0a1.07,1.07 0 0 1 2.14,0m-19.823,0a1.07,1.07 0 1 1 -2.141,0a1.07,1.07 0 0 1 2.14,0"/>
  </g>
  <text xml:space="preserve" text-anchor="start" font-family="Helvetica, Arial, sans-serif" font-size="15" id="svg_18" y="92" x="6.5" stroke-opacity="null" stroke-width="0" stroke="null" fill="#000000">FP-73</text>
 </g>
</svg>