<?xml version="1.0" encoding="UTF-8" standalone="no"?>
<svg
   xmlns:dc="http://purl.org/dc/elements/1.1/"
   xmlns:cc="http://creativecommons.org/ns#"
   xmlns:rdf="http://www.w3.org/1999/02/22-rdf-syntax-ns#"
   xmlns:svg="http://www.w3.org/2000/svg"
   xmlns="http://www.w3.org/2000/svg"
   xmlns:sodipodi="http://sodipodi.sourceforge.net/DTD/sodipodi-0.dtd"
   xmlns:inkscape="http://www.inkscape.org/namespaces/inkscape"
   version="1"
   viewBox="0 0 100 100"
   id="svg3394"
   inkscape:version="0.91 r13725"
   sodipodi:docname="python-orientacao-objetos.svg">
  <metadata
     id="metadata3412">
    <rdf:RDF>
      <cc:Work
         rdf:about="">
        <dc:format>image/svg+xml</dc:format>
        <dc:type
           rdf:resource="http://purl.org/dc/dcmitype/StillImage" />
        <dc:title></dc:title>
      </cc:Work>
    </rdf:RDF>
  </metadata>
  <defs
     id="defs3410" />
  <sodipodi:namedview
     pagecolor="#ffffff"
     bordercolor="#666666"
     borderopacity="1"
     objecttolerance="10"
     gridtolerance="10"
     guidetolerance="10"
     inkscape:pageopacity="0"
     inkscape:pageshadow="2"
     inkscape:window-width="1600"
     inkscape:window-height="872"
     id="namedview3408"
     showgrid="false"
     inkscape:zoom="5.33"
     inkscape:cx="49.812383"
     inkscape:cy="43.689394"
     inkscape:window-x="0"
     inkscape:window-y="0"
     inkscape:window-maximized="1"
     inkscape:current-layer="svg3394" />
  <g
     id="g3414"
     transform="translate(-0.18717897,0.20948015)">
    <path
       style="fill:#3f789b"
       inkscape:connector-curvature="0"
       id="path3396"
       d="m 14.462617,41.92952 c 1.94,-5.851 3.903,-8.821 9.228,-8.821 l 27.902,0 0,-4.747 -19.834,0 0,-6.828 c 0,-4.414 3.162,-7.569 9.398,-9.376 3.444,-1 6.636,-1.481 9.776,-1.481 3.133,0 6.199,0.467 9.643,1.481 3.511,1.029 9.398,3.622 9.398,9.376 l 0,16.563 c 0,5.854 -4.214,11.699 -9.191,11.699 l -19.833,0 c -7.125,0 -10.55,4.581 -10.55,11.785 l 0,9.626 -6.71,0 c -4.673,0 -7.606,-3.022 -9.213,-9.51 -2.007,-8.058 -2.007,-13.783 -0.014,-19.767 z" />
    <path
       style="fill:#ffdb72"
       inkscape:connector-curvature="0"
       id="path3398"
       d="m 85.912617,57.65152 c -1.94,5.851 -3.903,8.821 -9.228,8.821 l -27.902,0 0,4.747 19.834,0 0,6.828 c 0,4.414 -3.162,7.569 -9.398,9.376 -3.444,1 -6.636,1.481 -9.776,1.481 -3.133,0 -6.199,-0.467 -9.643,-1.481 -3.511,-1.029 -9.398,-3.622 -9.398,-9.376 l 0,-18.914 c 0,-5.066 4.214,-9.347 9.191,-9.347 l 19.834,0 c 7.125,0 10.55,-6.103 10.55,-13.331 l 0,-8.08 6.71,0 c 4.673,0 7.606,3.022 9.213,9.51 2.006,8.057 2.006,13.782 0.013,19.766 z" />
    <path
       style="fill:#475669"
       inkscape:connector-curvature="0"
       id="path3400"
       d="m 87.378617,37.51852 c -1.777,-7.179 -5.275,-10.669 -10.693,-10.669 l -5.185,0 0,-5.317 c 0,-5.006 -3.728,-8.855 -10.493,-10.839 -3.574,-1.0530003 -6.775,-1.5440003 -10.074,-1.5440003 -3.291,0 -6.628,0.505 -10.2,1.5420003 -8.677,2.516 -10.499,7.283 -10.499,10.841 l 0,6.829 c 0,0.842 0.684,1.525 1.525,1.525 l 18.308,0 0,1.696 -26.378,0 c -6.837,0 -8.951,4.667 -10.675,9.866 -2.094,6.288 -2.099,12.262 -0.019,20.614 1.779,7.179 5.277,10.669 10.694,10.669 l 5.185,0 0,5.317 c 0,5.005 3.728,8.854 10.493,10.839 3.574,1.053 6.776,1.544 10.074,1.544 3.291,0 6.628,-0.505 10.201,-1.542 8.677,-2.515 10.499,-7.283 10.499,-10.841 l 0,-6.828 c 0,-0.842 -0.684,-1.525 -1.525,-1.525 l -18.308,0 0,-1.697 26.377,0 c 6.836,0 8.95,-4.666 10.675,-9.864 2.093,-6.29 2.098,-12.264 0.018,-20.616 z m -63.689,32.162 c -2.637,0 -5.898,-0.949 -7.733,-8.353 -1.929,-7.745 -1.942,-13.225 -0.047,-18.917 l 0,-10e-4 c 2.001,-6.032 3.745,-7.776 7.78,-7.776 l 27.902,0 c 0.842,0 1.525,-0.684 1.525,-1.525 l 0,-4.747 c 0,-0.842 -0.684,-1.525 -1.525,-1.525 l -18.307,0 0,-5.304 c 0,-3.705 2.714,-6.293 8.299,-7.911 3.292,-0.956 6.351,-1.421 9.35,-1.421 2.998,0 5.926,0.45 9.215,1.42 3.101,0.908 8.302,3.146 8.302,7.912 l 0,14.924 c 0,5.707 -2.37,11.806 -9.024,11.806 l -19.835,0 c -5.809,0 -10.717,4.979 -10.717,10.872 l 0,10.547 -5.185,0 z m 60.776,-12.51 c -2.001,6.033 -3.746,7.776 -7.78,7.776 l -27.903,0 c -0.842,0 -1.525,0.684 -1.525,1.525 l 0,4.748 c 0,0.842 0.684,1.525 1.525,1.525 l 18.309,0 0,5.303 c 0,3.706 -2.714,6.293 -8.298,7.911 -3.294,0.956 -6.353,1.421 -9.352,1.421 -2.998,0 -5.926,-0.45 -9.215,-1.419 -3.101,-0.91 -8.302,-3.147 -8.302,-7.913 l 0,-16.469 c 0,-4.681 1.565,-10.26 9.024,-10.26 l 19.834,0 c 5.608,0 10.717,-6.304 10.717,-13.225 l 0,-8.196 5.185,0 c 2.638,0 5.899,0.949 7.733,8.353 1.93,7.747 1.943,13.228 0.048,18.92 z" />
    <circle
       style="fill:#005a79"
       id="circle3402"
       r="2.0179999"
       cy="20.26952"
       cx="41.133617" />
    <g
       transform="translate(0.18761726,-9.5684803)"
       id="g3404">
      <circle
         style="fill:#f4b84c"
         id="circle3406"
         r="2.0810001"
         cy="88.797997"
         cx="58.722" />
    </g>
  </g>
</svg>
