<svg width="100" height="140" xmlns="http://www.w3.org/2000/svg">
 <style>.st1{fill:#475669}.st2{fill:none}</style>

 <g>
  <title>background</title>
  <rect fill="none" id="canvas_background" height="142" width="102" y="-1" x="-1"/>
 </g>
 <g>
  <title>Layer 1</title>
  <path id="svg_1" fill="#04b4fc" d="m48.2,12.5l-28.8,16.6c-1.4,0.8 -2.2,2.3 -2.2,3.9l0,33.2c0,1.6 0.9,3.1 2.2,3.9l28.8,16.6c1.4,0.8 3.1,0.8 4.5,0l28.7,-16.7c1.4,-0.8 2.2,-2.3 2.2,-3.9l0,-33.1c0,-1.6 -0.9,-3.1 -2.2,-3.9l-28.7,-16.6c-1.4,-0.8 -3.1,-0.8 -4.5,0z"/>
  <path id="svg_2" d="m60.3,15.1c-0.8,0.6 -1.7,1.3 -2.6,2l17.2,9.9c0.2,-1.1 0.3,-2.2 0.4,-3.3l-15,-8.6zm-44.6,25.8l0,17.4c1,0.5 2,0.9 3.1,1.3l0,-20c-1.2,0.4 -2.2,0.8 -3.1,1.3zm66.5,-13.1l-4,-2.3l-2.8,-1.6l-15,-8.7l-2.9,-1.7l-4,-2.3c-1.8,-1.1 -4.2,-1.1 -6,0l-4,2.3l-2.9,1.7l-15,8.7l-2.8,1.6l-4,2.3c-1.8,1.1 -3,3.1 -3,5.2l0,33.2c0,2.1 1.2,4.1 3,5.2l4,2.3l2.9,1.7l15,8.7l2.8,1.6l4,2.3c0.9,0.5 2,0.8 3,0.8s2.1,-0.3 3,-0.8l4,-2.3l2.8,-1.6l15,-8.7l2.8,-1.6l4,-2.3c1.9,-1.1 3,-3.1 3,-5.2l0,-33.3c0.1,-2.2 -1.1,-4.2 -2.9,-5.2zm-0.1,38.4c0,1 -0.6,2 -1.5,2.6l-3,1.7l-2.7,1.5l-17.2,10l-2.8,1.6l-3,1.7c-0.9,0.5 -2,0.5 -3,0l-3,-1.7l-2.7,-1.6l-17.2,-9.9l-2.8,-1.6l-3,-1.7c-0.9,-0.5 -1.5,-1.5 -1.5,-2.6l0,-33.2c0,-1 0.6,-2 1.5,-2.6l3,-1.7l2.8,-1.6l17.2,-9.9l2.8,-1.6l3,-1.7c0.5,-0.3 1,-0.4 1.5,-0.4s1,0.1 1.5,0.4l3,1.7l2.8,1.6l17.2,9.9l2.8,1.6l3,1.7c0.9,0.5 1.5,1.5 1.5,2.6l0,33.2l-0.2,0zm-66.6,-25.3l0,17.4c1,0.5 2,0.9 3.1,1.3l0,-20c-1.2,0.4 -2.2,0.8 -3.1,1.3zm111.2,-0.5c-0.8,0.6 -1.7,1.3 -2.6,2l-49.2,-15.4c0.2,-1.1 0.3,-2.2 0.4,-3.3l-15,-8.6l66.4,25.3z" class="st1"/>
  <g id="svg_3">
   <ellipse id="svg_4" ry="16.3" rx="44.9" cy="49.6" cx="50.4" class="st2"/>
   <ellipse id="svg_5" ry="44.9" rx="16.3" cy="49.6" cx="50.4" class="st2" transform="rotate(-30 50.41199874877927,49.56999969482422) "/>
   <ellipse id="svg_6" ry="16.3" rx="44.9" cy="49.6" cx="50.4" class="st2" transform="rotate(-60 50.41500091552736,49.569999694824226) "/>
   <path id="svg_7" d="m96.8,49.6c0,4.6 -4.4,8.8 -11.6,11.9l-3,1.2c-8.2,3 -19.3,4.7 -31.7,4.7c-12.4,0 -23.5,-1.8 -31.7,-4.7c-1.1,-0.4 -2.1,-0.8 -3.1,-1.2c-7.3,-3.1 -11.7,-7.3 -11.7,-11.9c0,-4.6 4.3,-8.8 11.6,-12c1,-0.4 2,-0.8 3.1,-1.2l0,3.2c-1.1,0.4 -2.1,0.8 -3.1,1.3c-5.4,2.5 -8.6,5.5 -8.6,8.7c0,3 3.1,6.1 8.6,8.7c1,0.5 2,0.9 3.1,1.3c7.6,2.9 18.6,4.8 31.7,4.8c13.2,0 24.1,-2 31.7,-4.8c1.1,-0.4 2.1,-0.8 3,-1.3c5.5,-2.6 8.6,-5.7 8.6,-8.7s-3.1,-6.1 -8.6,-8.7c-0.9,-0.4 -2,-0.9 -3,-1.3l0,-3.2c1.1,0.4 2.1,0.8 3,1.2c7.3,3.2 11.7,7.3 11.7,12z" class="st1"/>
   <path id="svg_8" d="m73.6,89.7c-1.2,0.7 -2.6,1 -4.1,1c-3.5,0 -7.6,-1.8 -12.1,-5.1c-0.8,-0.6 -1.7,-1.3 -2.6,-2l2.8,-1.6c0.9,0.7 1.8,1.4 2.6,2c4.9,3.4 9.1,4.7 11.8,3.1c2.6,-1.5 3.7,-5.7 3.2,-11.8c-0.1,-1 -0.2,-2.1 -0.4,-3.3c-1.3,-8 -5.1,-18.5 -11.7,-29.9c-5.9,-10.2 -12.9,-19 -19.7,-24.7c-0.1,-0.1 -0.3,-0.2 -0.4,-0.3c-0.9,-0.7 -1.8,-1.4 -2.6,-2c-5,-3.5 -9.2,-4.6 -11.8,-3.1c-2.6,1.5 -3.7,5.7 -3.2,11.8c0.1,1 0.2,2.1 0.4,3.3l-2.8,1.6c-0.2,-1.1 -0.4,-2.2 -0.5,-3.2c-0.9,-7.9 0.5,-13.7 4.5,-16c4,-2.3 9.6,-0.8 16.2,4.1c0.7,0.5 1.4,1.1 2.1,1.7c0.1,0.1 0.3,0.2 0.4,0.4c6.9,5.9 14,14.8 19.9,25.1c6.2,10.7 10.2,21.2 11.8,29.8c0.2,1.1 0.4,2.2 0.5,3.2c1.1,7.8 -0.3,13.6 -4.3,15.9z" class="st1"/>
   <g id="svg_9">
    <path id="svg_10" d="m78.1,25.4c-0.1,1 -0.3,2.1 -0.5,3.2l-2.8,-1.6c0.2,-1.1 0.3,-2.2 0.4,-3.3c0.5,-5.9 -0.5,-10.2 -3.2,-11.8c-2.6,-1.5 -6.8,-0.4 -11.8,3.1c-0.8,0.6 -1.7,1.3 -2.6,2c-0.1,0.1 -0.3,0.2 -0.4,0.3c-6.8,5.7 -13.8,14.4 -19.7,24.7c-5.9,10.2 -10,20.6 -11.5,29.4c0,0.2 -0.1,0.4 -0.1,0.5c-0.2,1.2 -0.3,2.2 -0.4,3.3c-0.5,6 0.6,10.2 3.2,11.8c2.6,1.5 6.8,0.4 11.8,-3.1c0.9,-0.6 1.7,-1.3 2.6,-2l2.8,1.6c-0.9,0.7 -1.7,1.4 -2.6,2c-4.5,3.3 -8.6,5.1 -12.1,5.1c-1.5,0 -2.9,-0.3 -4.1,-1c-3.9,-2.3 -5.5,-7.9 -4.6,-16.1c0.1,-0.9 0.2,-1.8 0.4,-2.7c0,-0.2 0.1,-0.4 0.1,-0.5c1.8,-8.8 6,-19.3 12,-29.7c6,-10.3 13,-19.2 19.9,-25.1c0.1,-0.1 0.3,-0.2 0.4,-0.4c0.7,-0.6 1.4,-1.2 2.1,-1.7c6.6,-4.8 12.3,-6.3 16.2,-4c4,2.3 5.5,8.1 4.5,16z" class="st1"/>
   </g>
   <g id="svg_11">
    <circle id="svg_12" fill="#00bc76" r="6.5" cy="49.6" cx="50.4"/>
    <path id="svg_13" d="m50.4,57.7c-4.5,0 -8.1,-3.6 -8.1,-8.1s3.6,-8.1 8.1,-8.1s8.1,3.6 8.1,8.1c0,4.4 -3.6,8.1 -8.1,8.1zm0,-13.1c-2.7,0 -4.9,2.2 -4.9,4.9s2.2,4.9 4.9,4.9s4.9,-2.2 4.9,-4.9s-2.2,-4.9 -4.9,-4.9z" class="st1"/>
   </g>
  </g>
  <text xml:space="preserve" text-anchor="start" font-family="Helvetica, Arial, sans-serif" font-size="25" id="svg_14" y="130" x="18" stroke-opacity="null" stroke-width="0" stroke="null" fill="#000000">JS-56</text>
 </g>
</svg>