<?xml version="1.0" encoding="UTF-8" standalone="no"?>
<!-- Generator: Adobe Illustrator 22.0.1, SVG Export Plug-In . SVG Version: 6.00 Build 0)  -->

<svg
   xmlns:dc="http://purl.org/dc/elements/1.1/"
   xmlns:cc="http://creativecommons.org/ns#"
   xmlns:rdf="http://www.w3.org/1999/02/22-rdf-syntax-ns#"
   xmlns:svg="http://www.w3.org/2000/svg"
   xmlns="http://www.w3.org/2000/svg"
   xmlns:sodipodi="http://sodipodi.sourceforge.net/DTD/sodipodi-0.dtd"
   xmlns:inkscape="http://www.inkscape.org/namespaces/inkscape"
   version="1.0"
   id="Camada_1"
   x="0px"
   y="0px"
   viewBox="0 0 100 88.847572"
   enable-background="new 0 0 100 100"
   xml:space="preserve"
   inkscape:version="0.91 r13725"
   sodipodi:docname="react-redux.svg"
   width="100"
   height="88.847572"><metadata
     id="metadata33"><rdf:RDF><cc:Work
         rdf:about=""><dc:format>image/svg+xml</dc:format><dc:type
           rdf:resource="http://purl.org/dc/dcmitype/StillImage" /><dc:title></dc:title></cc:Work></rdf:RDF></metadata><defs
     id="defs31" /><sodipodi:namedview
     pagecolor="#ffffff"
     bordercolor="#666666"
     borderopacity="1"
     objecttolerance="10"
     gridtolerance="10"
     guidetolerance="10"
     inkscape:pageopacity="0"
     inkscape:pageshadow="2"
     inkscape:window-width="699"
     inkscape:window-height="480"
     id="namedview29"
     showgrid="false"
     fit-margin-top="0"
     fit-margin-left="0"
     fit-margin-right="0"
     fit-margin-bottom="0"
     inkscape:zoom="1.668772"
     inkscape:cx="64.392166"
     inkscape:cy="31.560508"
     inkscape:window-x="0"
     inkscape:window-y="0"
     inkscape:window-maximized="0"
     inkscape:current-layer="Camada_1" /><g
     id="g3"
     transform="translate(0,-5.578424)"><path
       d="m 98.3,49.976 c 0,-6.25 -8.98,-11.75 -22.52,-14.87 4.07,-13.28 3.8,-23.82 -1.63,-26.95 C 68.73,5.026 59.47,10.066 50,20.236 40.54,10.066 31.27,5.026 25.85,8.156 c -5.43,3.13 -5.69,13.67 -1.61,26.95 -13.55,3.12 -22.54,8.62 -22.54,14.87 0,6.27 8.99,11.78 22.54,14.88 -4.08,13.29 -3.82,23.83 1.61,26.96 5.42,3.13 14.69,-1.91 24.15,-12.08 9.47,10.17 18.73,15.21 24.15,12.08 5.43,-3.13 5.7,-13.67 1.62,-26.96 13.54,-3.1 22.53,-8.61 22.53,-14.88 z m -66.35,7.25 c 0.55,-1.01 1.62,-1.7 2.85,-1.7 l 0.08,0 0,0.01 c 1.75,0.03 3.16,1.47 3.16,3.22 0,1.79 -1.45,3.24 -3.24,3.24 -1.78,0 -3.23,-1.45 -3.23,-3.24 0,-0.55 0.14,-1.07 0.38,-1.53 z m 26.45,-7.24 c 0,4.63 -3.76,8.4 -8.4,8.4 -4.63,0 -8.4,-3.77 -8.4,-8.4 0,-4.63 3.77,-8.4 8.4,-8.4 4.64,0 8.4,3.77 8.4,8.4 z m 3.63,8.77 c 0,-1.78 1.45,-3.23 3.24,-3.23 1.79,0 3.23,1.45 3.23,3.23 0,1.78 -1.43,3.23 -3.21,3.24 -0.01,0 -0.01,0 -0.02,0 -1.25,0 -2.33,-0.7 -2.87,-1.74 -0.24,-0.44 -0.37,-0.95 -0.37,-1.5 z m -9.25,-28.02 c 0.29,0.48 0.46,1.05 0.46,1.66 0,0.64 -0.18,1.23 -0.5,1.73 -0.58,0.91 -1.59,1.51 -2.74,1.51 -1.79,0 -3.23,-1.45 -3.23,-3.24 0,-1.79 1.44,-3.24 3.23,-3.24 1.18,0 2.21,0.63 2.78,1.58 z"
       id="path5"
       inkscape:connector-curvature="0"
       style="fill:#a4e5ea" /><g
       id="g7"><path
         d="m 100,49.976 c 0,-6.8 -8.69,-12.66 -22.12,-16.08 3.82,-13.49 2.96,-23.84 -2.87,-27.2 -5.9,-3.4 -15.33,1.18 -25,11.09 -9.68,-9.91 -19.11,-14.5 -25,-11.09 -5.9,3.39 -6.64,13.85 -2.89,27.19 C 8.54,37.336 0,43.256 0,49.976 c 0,6.81 8.69,12.68 22.12,16.1 -3.75,13.35 -3.01,23.81 2.89,27.2 1.32,0.77 2.82,1.15 4.48,1.15 4.26,0 9.52,-2.5 15.3,-7.35 1.74,-1.45 3.48,-3.09 5.22,-4.89 7.59,7.8 14.96,12.21 20.6,12.21 1.61,0 3.09,-0.36 4.4,-1.12 5.89,-3.39 6.63,-13.85 2.88,-27.2 13.42,-3.43 22.11,-9.29 22.11,-16.1 z m -26.69,40.38 c -4.41,2.55 -12.47,-1.8 -20.99,-10.63 2.92,-3.25 5.8,-6.91 8.55,-10.91 4.92,-0.4 9.54,-1.07 13.77,-1.98 3.51,12.23 2.83,21.11 -1.33,23.52 z m -30.7,-5.86 c -6.75,5.66 -12.56,7.8 -15.92,5.86 -4.16,-2.41 -4.84,-11.29 -1.32,-23.52 4.23,0.91 8.84,1.58 13.76,1.98 2.8,4.06 5.69,7.72 8.56,10.91 -1.68,1.75 -3.39,3.35 -5.08,4.77 z M 26.69,9.626 c 4.17,-2.41 12.19,1.44 21.04,10.6 -2.91,3.21 -5.81,6.87 -8.61,10.93 -4.94,0.41 -9.55,1.07 -13.76,1.97 -3.51,-12.23 -2.83,-21.1 1.33,-23.5 z m 46.62,0 c 4.41,2.55 4.68,11.71 1.29,23.5 -4.22,-0.9 -8.82,-1.57 -13.72,-1.97 -2.8,-4.06 -5.7,-7.72 -8.59,-10.94 8.84,-9.15 16.86,-13 21.02,-10.59 z m 0.3,26.7 c -1.02,3.13 -2.29,6.39 -3.79,9.75 -0.97,-1.9 -2.01,-3.82 -3.12,-5.74 -1.11,-1.92 -2.24,-3.78 -3.41,-5.58 3.69,0.38 7.14,0.91 10.32,1.57 z m -17.04,-5.45 c -1.25,-0.06 -2.51,-0.11 -3.79,-0.14 0.29,0.48 0.46,1.05 0.46,1.66 0,0.64 -0.18,1.23 -0.5,1.73 2.15,0.04 4.24,0.13 6.28,0.27 1.6,2.39 3.18,4.95 4.75,7.64 1.67,2.91 3.18,5.76 4.52,8.53 0.05,0.12 0.1,0.24 0.17,0.35 2.16,4.48 3.88,8.75 5.19,12.72 -3.18,0.67 -6.65,1.2 -10.37,1.58 0.69,-1.05 1.36,-2.13 2.01,-3.22 -0.01,0 -0.01,0 -0.02,0 -1.25,0 -2.33,-0.7 -2.87,-1.74 -1.11,1.83 -2.24,3.6 -3.4,5.32 -2.88,0.2 -5.88,0.3 -9,0.3 -3.37,0 -6.6,-0.12 -9.68,-0.34 -0.09,-0.01 -0.18,-0.01 -0.26,-0.02 -0.01,0 -0.01,0 -0.02,0 -4.98,-0.37 -9.57,-1.02 -13.68,-1.88 1.01,-3.08 2.27,-6.36 3.8,-9.76 0.57,1.11 1.17,2.23 1.79,3.35 0.55,-1.01 1.62,-1.7 2.85,-1.7 l 0.08,0 c -1.04,-1.88 -2,-3.72 -2.9,-5.53 1.28,-2.6 2.69,-5.25 4.25,-7.96 1.67,-2.87 3.36,-5.58 5.07,-8.11 0.01,-0.01 0.01,-0.01 0.01,-0.01 0.08,-0.11 0.15,-0.22 0.23,-0.33 2.81,-4.13 5.66,-7.78 8.47,-10.91 2.16,2.43 4.36,5.17 6.56,8.2 z m -30.2,5.5 c 3.22,-0.67 6.68,-1.21 10.33,-1.59 -1.16,1.79 -2.29,3.65 -3.4,5.55 -1.11,1.93 -2.16,3.85 -3.14,5.76 -1.52,-3.39 -2.78,-6.64 -3.79,-9.72 z m -3.26,0.75 c 1.32,4.09 3.04,8.42 5.13,12.85 -2.1,4.46 -3.82,8.8 -5.15,12.92 -12.35,-3.09 -19.7,-8.1 -19.7,-12.92 0,-5.09 7.8,-9.89 19.72,-12.85 z m 20.36,31.97 c 2.13,0.11 4.31,0.17 6.53,0.17 2.22,0 4.4,-0.06 6.53,-0.17 -2.11,2.93 -4.3,5.66 -6.53,8.13 -2.19,-2.45 -4.38,-5.17 -6.53,-8.13 z m 33.45,-6.2 c -1.33,-4.12 -3.06,-8.46 -5.16,-12.92 2.13,-4.48 3.84,-8.81 5.15,-12.91 12.36,3.09 19.71,8.1 19.71,12.91 0,4.81 -7.35,9.83 -19.7,12.92 z"
         id="path9"
         inkscape:connector-curvature="0"
         style="fill:#475669" /><path
         d="m 50,41.586 c -4.63,0 -8.4,3.77 -8.4,8.4 0,4.63 3.77,8.4 8.4,8.4 4.64,0 8.4,-3.77 8.4,-8.4 0,-4.63 -3.76,-8.4 -8.4,-8.4 z m 0,13.42 c -2.76,0 -5.01,-2.25 -5.01,-5.02 0,-2.77 2.25,-5.02 5.01,-5.02 2.77,0 5.02,2.25 5.02,5.02 0,2.77 -2.25,5.02 -5.02,5.02 z"
         id="path11"
         inkscape:connector-curvature="0"
         style="fill:#475669" /></g><g
       id="g13"><g
         id="g15"><path
           d="m 68.5,58.756 c 0,1.78 -1.43,3.23 -3.21,3.24 -0.01,0 -0.01,0 -0.02,0 -1.25,0 -2.33,-0.7 -2.87,-1.74 -0.24,-0.44 -0.37,-0.95 -0.37,-1.5 0,-1.78 1.45,-3.23 3.24,-3.23 1.79,0 3.23,1.45 3.23,3.23 z"
           id="path17"
           inkscape:connector-curvature="0"
           style="fill:#00b6cf" /></g><g
         id="g19"><path
           d="m 53.24,32.396 c 0,0.64 -0.18,1.23 -0.5,1.73 -0.58,0.91 -1.59,1.51 -2.74,1.51 -1.79,0 -3.23,-1.45 -3.23,-3.24 0,-1.79 1.44,-3.24 3.23,-3.24 1.18,0 2.21,0.63 2.78,1.58 0.29,0.48 0.46,1.05 0.46,1.66 z"
           id="path21"
           inkscape:connector-curvature="0"
           style="fill:#00b6cf" /></g><g
         id="g23"><path
           d="m 38.04,58.756 c 0,1.79 -1.45,3.24 -3.24,3.24 -1.78,0 -3.23,-1.45 -3.23,-3.24 0,-0.55 0.14,-1.07 0.38,-1.53 0.55,-1.01 1.62,-1.7 2.85,-1.7 l 0.08,0 0,0.01 c 1.75,0.03 3.16,1.47 3.16,3.22 z"
           id="path25"
           inkscape:connector-curvature="0"
           style="fill:#00b6cf" /></g></g><path
       d="m 55.02,49.986 c 0,2.77 -2.25,5.02 -5.02,5.02 -2.76,0 -5.01,-2.25 -5.01,-5.02 0,-2.77 2.25,-5.02 5.01,-5.02 2.77,0 5.02,2.25 5.02,5.02 z"
       id="path27"
       inkscape:connector-curvature="0"
       style="fill:#00c5d9" /></g></svg>