<svg width="100" height="150" xmlns="http://www.w3.org/2000/svg">
 <style type="text/css">.st0{fill:#475669;}
	.st1{fill:#44BA79;}
	.st2{fill:#FD9F9F;}
	.st3{fill:#F18E61;}
	.st4{fill:#F0F0F0;}</style>

 <g>
  <title>background</title>
  <rect fill="none" id="canvas_background" height="152" width="102" y="-1" x="-1"/>
 </g>
 <g>
  <title>Layer 1</title>
  <g id="svg_1">
   <g id="svg_2">
    <path id="svg_3" d="m32.4,30.7l0,3.3l-3.6,0l0,-1c1.2,-0.9 2.4,-1.6 3.6,-2.3z" class="st0"/>
    <path id="svg_4" d="m72.3,34l-3.5,0l0,-2.5c0.3,0.2 0.5,0.3 0.8,0.5c1,0.5 1.9,1.2 2.7,2z" class="st0"/>
   </g>
   <g id="svg_5">
    <g id="svg_6">
     <g id="svg_7">
      <path id="svg_8" d="m79.1,80.7c-5.2,7.8 -13.2,13.1 -22.4,14.9s-18.6,-0.1 -26.3,-5.3c-7.8,-5.2 -13.1,-13.2 -14.9,-22.4s0.1,-18.6 5.3,-26.3c5.2,-7.9 13.2,-13.2 22.4,-15c2.2,-0.4 4.5,-0.7 6.8,-0.7c7,0 13.7,2.1 19.5,6c7.8,5.2 13,13.2 14.8,22.4s0.1,18.6 -5.2,26.4z" class="st1"/>
     </g>
     <g id="svg_9">
      <path id="svg_10" d="m72.5,29.7l0,-10.5c-1.6,-10.7 -11,-18.7 -21.7,-18.8l-0.1,0c-10.9,0 -20.2,8.1 -21.9,18.9l0,9.6c-4.2,2.8 -7.9,6.4 -10.8,10.7c-5.7,8.5 -7.8,18.8 -5.9,28.9c2,10.1 7.8,18.9 16.3,24.6c6.4,4.3 13.8,6.6 21.5,6.6c2.5,0 5,-0.3 7.5,-0.7c10.1,-2 18.9,-7.8 24.6,-16.3c11.7,-17.5 7.4,-40.9 -9.5,-53zm-21.8,-25.7l0,0c4.3,0 8.3,1.4 11.6,4.1c0.5,0.5 1,0.9 1.5,1.4c2.7,2.7 4.5,6.1 5.1,9.8l0,8.2c-8,-4.5 -17.2,-6 -26.2,-4.2c-3.6,0.7 -7,1.9 -10.2,3.5l0,-7.4c1.5,-8.9 9.1,-15.4 18.2,-15.4zm28.4,76.7c-5.2,7.8 -13.2,13.1 -22.4,14.9s-18.6,-0.1 -26.3,-5.3c-7.8,-5.2 -13.1,-13.2 -14.9,-22.4s0.1,-18.6 5.3,-26.3c2.2,-3.3 4.9,-6.1 8,-8.4c1.1,-0.9 2.4,-1.7 3.6,-2.4c3.3,-1.9 7,-3.3 10.8,-4c2.2,-0.4 4.5,-0.7 6.8,-0.7c6.7,0 13.1,1.9 18.8,5.5c0.3,0.2 0.5,0.3 0.8,0.5c0.9,0.6 1.8,1.3 2.7,2c6.3,5.2 10.6,12.3 12.1,20.4c1.9,9 0,18.4 -5.3,26.2z" class="st0"/>
     </g>
    </g>
   </g>
   <g id="svg_11">
    <g id="svg_12">
     <path id="svg_13" d="m40.3,44.5l0,0l0,0z" class="st2"/>
     <path id="svg_14" d="m58,49.2c-1.6,1.2 -3.9,2.8 -5.1,6.7c-1.9,6.4 -0.8,10.8 -0.3,13.1l0,0.1c-4,-0.6 -4.9,-3.6 -6.2,-7.6c-0.6,-2.1 -1.3,-4.2 -2.5,-6.3c-0.3,-0.5 -0.6,-1 -0.8,-1.5l0,-0.1c-2.6,-4.6 -3.4,-6.2 -1.7,-8.5c1.3,-1.9 4.5,-3 8.4,-3c0.6,0 1.2,0 1.8,0.1c3.7,0.4 6.6,1.7 7.4,3.3c1,2.3 0.7,2.5 -1,3.7z" class="st3"/>
     <g id="svg_15">
      <path id="svg_16" d="m40.3,44.2l0,0.2l0,0l0,-0.2l0,0z" class="st0"/>
      <path id="svg_17" d="m40.3,44.2l0,0.2l0,0l0,-0.2l0,0zm0,0l0,0.2l0,0l0,-0.2l0,0zm0,0l0,0.2l0,0l0,-0.2l0,0z" class="st0"/>
      <path id="svg_18" d="m61.6,44.5c-1.4,-3.1 -5.9,-4.5 -9.6,-4.9c-4.3,-0.4 -10.2,0.4 -12.8,4c-2.8,3.9 -1.1,6.9 1.5,11.5c0.3,0.5 0.6,1 0.9,1.5c1,1.8 1.6,3.8 2.2,5.7c1.5,4.7 3,9.5 10,9.7l0,0c0.8,0 1.3,-0.4 1.5,-0.7c0.6,-0.8 0.4,-1.7 0.1,-3c-0.5,-2.1 -1.5,-6 0.2,-11.6c0.9,-3 2.6,-4.2 4,-5.2c1.8,-1.3 4,-2.7 2,-7zm-3.6,4.7c-1.6,1.2 -3.9,2.8 -5.1,6.7c-1.9,6.4 -0.8,10.8 -0.3,13.1l0,0.1c-4,-0.6 -4.9,-3.6 -6.2,-7.6c-0.6,-2.1 -1.3,-4.2 -2.5,-6.3c-0.3,-0.5 -0.6,-1 -0.8,-1.5l0,-0.1c-2.6,-4.6 -3.4,-6.2 -1.7,-8.5c1.3,-1.9 4.5,-3 8.4,-3c0.6,0 1.2,0 1.8,0.1c3.7,0.4 6.6,1.7 7.4,3.3c1,2.3 0.7,2.5 -1,3.7zm-17.7,-4.7l0,0l0,-0.2l0,0l0,0.2z" class="st0"/>
     </g>
    </g>
   </g>
   <g id="svg_19">
    <g id="svg_20">
     <path id="svg_21" d="m79.2,40.8c5.2,7.5 7.1,16 5.8,25c-0.5,-0.1 -1.1,-0.3 -1.9,-0.4c-1.6,-0.4 -3.9,-0.9 -6.4,-1.6c-0.2,-0.1 -0.4,-0.2 -0.4,-0.2c-0.1,-0.2 0.3,-1.6 0.5,-2.3c0.6,-2 1.5,-4.8 0.9,-8.1c-1,-5 -1.5,-8.9 1.5,-12.4z" class="st4"/>
     <g id="svg_22">
      <path id="svg_23" d="m80.5,37.8c-0.2,-0.3 -0.6,-0.5 -1,-0.5s-0.8,0.1 -1.1,0.4c-5.6,5.2 -4.4,11.3 -3.4,16.3c0.5,2.6 -0.2,4.8 -0.8,6.7c-0.6,1.7 -1,3.2 -0.3,4.4c0.4,0.7 1.1,1.2 2.1,1.5c2.6,0.8 4.9,1.3 6.6,1.6l0.1,0c0.9,0.2 1.9,0.4 2.4,0.6c0.2,0.2 0.4,0.4 0.6,0.5s0.3,0.1 0.5,0.1c0.5,0 1,-0.3 1.2,-0.7c0.1,-0.2 0.2,-0.4 0.2,-0.6c1.9,-11.1 -0.4,-21.3 -7.1,-30.3zm4.5,28.1c-0.5,-0.1 -1.1,-0.3 -1.9,-0.4c-1.6,-0.4 -3.9,-0.9 -6.4,-1.6c-0.2,-0.1 -0.4,-0.2 -0.4,-0.2c-0.1,-0.2 0.3,-1.6 0.5,-2.3c0.6,-2 1.5,-4.8 0.9,-8.1c-1,-5.1 -1.5,-9 1.5,-12.5c5.1,7.5 7.1,16 5.8,25.1z" class="st0"/>
     </g>
    </g>
   </g>
   <g id="svg_24">
    <g id="svg_25">
     <path id="svg_26" d="m22.2,82.2c-5.5,-6.8 -8,-14.8 -7.5,-23.5c0.5,0.1 1,0.2 1.7,0.2l0.1,0c1.6,0.2 3.8,0.5 6.3,1c0.2,0.1 0.3,0.1 0.3,0.1c0.1,0.2 -0.2,1.6 -0.3,2.2c-0.5,2 -1.1,4.7 -0.2,7.9c1.4,4.8 2.1,8.5 -0.4,12.1z" class="st4"/>
     <g id="svg_27">
      <path id="svg_28" d="m25.3,69.4c-0.7,-2.4 -0.2,-4.7 0.2,-6.5c0.4,-1.7 0.7,-3.1 0,-4.3c-0.4,-0.7 -1.2,-1.1 -2.1,-1.3c-2.6,-0.5 -4.8,-0.8 -6.5,-1.1l-0.1,0c-0.9,-0.1 -1.8,-0.2 -2.3,-0.4c-0.2,-0.2 -0.4,-0.3 -0.7,-0.4c-0.7,-0.2 -1.4,0.1 -1.7,0.8c-0.1,0.2 -0.1,0.4 -0.1,0.6c-1.1,10.8 1.9,20.4 9.1,28.6c0.1,0.2 0.3,0.3 0.5,0.4s0.3,0.1 0.5,0.1l0,0c0.4,0 0.8,-0.2 1,-0.5c5.2,-5.5 3.6,-11.3 2.2,-16zm-2.5,-7.2c-0.5,2 -1.1,4.7 -0.2,7.9c1.3,4.8 2.1,8.5 -0.4,12.1c-5.5,-6.8 -8,-14.8 -7.5,-23.5c0.5,0.1 1,0.2 1.7,0.2l0.1,0c1.6,0.2 3.8,0.5 6.3,1c0.2,0.1 0.3,0.1 0.3,0.1c0.2,0.3 -0.1,1.8 -0.3,2.2z" class="st0"/>
     </g>
    </g>
   </g>
   <g id="svg_29">
    <g id="svg_30">
     <path id="svg_31" d="m75.2,86.4c-6.7,6.2 -12.8,9.1 -19,9.4c-0.4,-0.8 -1.3,-1.7 -2.5,-2.9c-2.2,-2.1 -5.2,-4.9 -5.6,-8.1c0,-0.1 0,-0.2 0,-0.2c0.6,-0.7 3.6,-1 5.8,-1.3c1.8,-0.2 3.7,-0.4 5.3,-0.8c0.8,-0.2 1.4,-0.4 2,-0.7c5.5,-2.6 11.8,1.6 14,4.6z" class="st4"/>
     <g id="svg_32">
      <path id="svg_33" d="m78,85.9c-4.9,-7.8 -13.6,-8.4 -18,-6.3c-1.6,0.7 -4,1 -6.4,1.2l0,0.2l-0.1,-0.2c-1.7,0.2 -3.3,0.3 -4.6,0.7c-1.4,0.3 -2.3,0.8 -2.8,1.5c-0.5,0.6 -0.7,1.3 -0.6,2.1c0.5,4.1 4.1,7.4 6.4,9.7c0.6,0.5 1.3,1.2 1.7,1.7c-0.1,0.3 -0.2,0.6 -0.1,0.9c0.1,0.6 0.6,1 1.2,1c0.2,0 0.5,0 0.7,0c7.5,0 14.6,-3.5 22.4,-10.8c0.4,-0.5 0.5,-1.2 0.2,-1.7zm-2.8,0.5c-6.7,6.2 -12.8,9.1 -19,9.4c-0.4,-0.8 -1.3,-1.7 -2.5,-2.9c-2.2,-2.1 -5.2,-4.9 -5.6,-8.1c0,-0.1 0,-0.2 0,-0.2c0.6,-0.7 3.6,-1 5.8,-1.3c1.8,-0.2 3.7,-0.4 5.3,-0.8c0.8,-0.2 1.4,-0.4 2,-0.7c5.5,-2.6 11.8,1.6 14,4.6z" class="st0"/>
     </g>
    </g>
   </g>
  </g>
  <text xml:space="preserve" text-anchor="start" font-family="Helvetica, Arial, sans-serif" font-size="24" id="svg_34" y="137.421875" x="17" stroke-width="0" stroke="#000" fill="#000000">SE-39</text>
 </g>
</svg>