<svg width="55" height="90" xmlns="http://www.w3.org/2000/svg">
 <title>BD23474B-0A8E-4E46-8C50-1999638F3CC6</title>

 <g>
  <title>background</title>
  <rect fill="none" id="canvas_background" height="92" width="57" y="-1" x="-1"/>
 </g>
 <g>
  <title>Layer 1</title>
  <g id="svg_1" fill-rule="evenodd" fill="none">
   <path id="svg_2" fill="#F36461" d="m19.027,57.042l-7.242,0a3.436,3.436 0 0 1 -3.427,-3.444a3.436,3.436 0 0 1 3.427,-3.443l7.242,0a3.436,3.436 0 0 1 3.427,3.443a3.436,3.436 0 0 1 -3.427,3.444"/>
   <path id="svg_3" fill="#4D5768" d="m11.785,50.981a2.614,2.614 0 0 0 -2.605,2.619a2.614,2.614 0 0 0 2.605,2.617l7.242,0a2.614,2.614 0 0 0 2.605,-2.617a2.614,2.614 0 0 0 -2.605,-2.618l-7.242,0l0,-0.001zm7.242,6.889l-7.242,0c-2.343,0 -4.25,-1.916 -4.25,-4.27c0,-2.355 1.907,-4.27 4.25,-4.27l7.242,0c2.343,0 4.25,1.915 4.25,4.27c0,2.354 -1.907,4.27 -4.25,4.27z"/>
   <path id="svg_4" fill="#A2C4F1" d="m27.347,38.221c-3.649,3.686 -8.177,5.586 -12.749,5.35l-1.025,-0.053l0.001,-0.011l-1.076,-0.222c-3.202,-0.663 -6,-2.393 -8.091,-5.004c-7.283,-9.098 -1.401,-17.588 3.788,-25.08c2.537,-3.662 4.932,-7.12 5.38,-10.21l0.21,-1.438l1.274,0.687c5.634,3.041 15.653,10.897 17.462,21.05c0.972,5.458 -0.769,10.482 -5.174,14.931"/>
   <path id="svg_5" fill="#4D5768" d="m31.523,23.24c0.91,5.115 -0.737,9.837 -4.894,14.036c-3.445,3.479 -7.698,5.271 -11.978,5.05c0.217,-3.437 1.162,-6.612 2.385,-9.307c0.007,-0.014 0.02,-0.023 0.025,-0.036c0.082,-0.172 0.141,-0.34 0.219,-0.511c2.01,-4.209 4.592,-7.144 5.733,-7.87c0.468,-0.305 0.61,-0.932 0.308,-1.406a1.012,1.012 0 0 0 -1.4,-0.311c-0.601,0.386 -1.348,1.085 -2.144,1.992c0.825,-4.325 0.564,-8.456 -0.798,-12.346a1.013,1.013 0 0 0 -1.293,-0.623a1.022,1.022 0 0 0 -0.62,1.298c1.97,5.634 1.443,11.62 -1.563,18.265c-0.926,-2.499 -2.779,-4.769 -5.726,-5.747a1.014,1.014 0 0 0 -1.281,0.648a1.02,1.02 0 0 0 0.645,1.287c3.75,1.246 4.906,4.95 5.035,7.238a28.774,28.774 0 0 0 -1.474,7.163c-2.931,-0.605 -5.551,-2.202 -7.505,-4.644c-6.808,-8.505 -1.4,-16.312 3.831,-23.861c2.596,-3.747 5.068,-7.316 5.55,-10.645c6.21,3.351 15.303,11.113 16.945,20.33m-18.47,-22.781c-0.29,0.211 -0.461,0.556 -0.43,0.917c0.242,3.074 -2.43,6.93 -5.26,11.015c-5.126,7.399 -11.505,16.609 -3.747,26.301c2.332,2.912 5.483,4.79 9.008,5.432c0.028,3.314 0.705,6.773 2.383,10.197a1.011,1.011 0 0 0 1.629,0.268c0.297,-0.3 0.388,-0.768 0.19,-1.169c-1.511,-3.084 -2.133,-6.142 -2.21,-9.061c4.839,0.228 9.612,-1.77 13.45,-5.646c4.651,-4.698 6.486,-10.023 5.451,-15.83c-1.901,-10.684 -12.944,-19.478 -19.46,-22.513a1.008,1.008 0 0 0 -1.005,0.087"/>
  </g>
  <text xml:space="preserve" text-anchor="start" font-family="Helvetica, Arial, sans-serif" font-size="15" id="svg_6" y="83.421875" x="8.5" stroke-width="0" stroke="#000" fill="#000000">FJ-27</text>
 </g>
</svg>