<svg width="54" height="100" xmlns="http://www.w3.org/2000/svg" xmlns:xlink="http://www.w3.org/1999/xlink">
 <title>E3EE4D21-CCB5-48D0-94E3-6B714BB7ED02</title>
 <defs>
  <path d="m0.053,0.029l8.915,0l0,36.314l-8.915,0l0,-36.314z" id="a"/>
  <path d="m8.44,0.625l0,17.2l-8.085,0l0,-17.201l8.085,0l0,0.001z" id="c"/>
  <path d="m0.211,0.029l8.916,0l0,36.314l-8.917,0l0,-36.313l0.001,-0.001z" id="e"/>
  <path d="m0,17.824l0,-17.2l8.085,0l0,17.2l-8.085,0z" id="g"/>
 </defs>
 <g>
  <title>background</title>
  <rect fill="none" id="canvas_background" height="102" width="56" y="-1" x="-1"/>
 </g>
 <g>
  <title>Layer 1</title>
  <g id="svg_1" fill-rule="evenodd" fill="none">
   <path id="svg_2" fill="#F6C768" d="m36.078,5.023c-0.493,-4.291 -6.548,-4.466 -6.917,0l0,27.663s-0.121,2.558 1.708,2.961c0,0 -4.306,4.103 0.355,7.947c0,0 -2.063,0.477 -2.063,2.762l0,13.784c0,3.94 6.724,5.42 6.724,0l0,-2.634s9.146,0.626 7.139,-8.42c0,0 11.6,-2.098 4.241,-12.322c2.546,-0.146 10.765,-9.67 -0.788,-15.199c0,0 5.622,-6.424 -2.388,-10.44c0,0 -1.093,-6.32 -8.01,-4.884l0,-1.22l-0.001,0.002z"/>
   <path id="svg_3" fill="#40BBC3" d="m17.35,5.023c0.493,-4.291 6.548,-4.466 6.916,0l0,27.663s0.122,2.558 -1.708,2.961c0,0 4.307,4.103 -0.354,7.947c0,0 2.062,0.477 2.062,2.762l0,13.784c0,3.94 -6.723,5.42 -6.723,0l0,-2.634s-9.147,0.626 -7.139,-8.42c0,0 -11.6,-2.098 -4.242,-12.322c-2.545,-0.146 -10.765,-9.67 0.789,-15.199c0,0 -5.623,-6.424 2.388,-10.44c0,0 1.093,-6.32 8.01,-4.884l0,-1.22l0.001,0.002z"/>
   <g id="svg_4">
    <mask transform="translate(28.110000610351562,0.7099999785423279) " id="b">
     <use id="svg_5" xlink:href="#a"/>
    </mask>
    <path id="svg_6" mask="url(#b)" fill="#475669" d="m32.587001,37.053c-2.199,0 -4.424,-1.5 -4.424,-4.367l0,-27.664c0,-0.028 0,-0.055 0.003,-0.082c0.236,-2.857 2.322,-4.17 4.285,-4.2l0.07,-0.001c2.034,0 4.233,1.42 4.55,4.169a0.971,0.971 0 0 1 0.007,0.114l0,7.444a0.999,0.999 0 0 1 -1.998,0l0,-7.384c-0.21,-1.624 -1.422,-2.346 -2.555,-2.346l-0.043,0c-1.023,0.018 -2.166,0.638 -2.322,2.33l0,27.62c0,1.75 1.307,2.37 2.427,2.37c0.926,0 2.493,-0.5 2.493,-2.37l0,-3.403a0.998,0.998 0 0 1 1.998,0l0,3.403c0,2.867 -2.26,4.367 -4.491,4.367"/>
   </g>
   <path id="svg_7" fill="#475669" d="m36.078,30.282a6.947,6.947 0 0 1 -1.555,-0.176a0.998,0.998 0 1 1 0.447,-1.946a4.947,4.947 0 0 0 6.049,-4.816a4.947,4.947 0 0 0 -5.38,-4.921a0.998,0.998 0 1 1 -0.174,-1.99a6.945,6.945 0 0 1 7.552,6.911a6.945,6.945 0 0 1 -6.939,6.938m5.697,-15.002a0.998,0.998 0 0 1 -0.658,-1.75a3.591,3.591 0 0 0 1.23,-2.704a3.59,3.59 0 0 0 -3.586,-3.585c-0.76,0 -1.485,0.234 -2.098,0.677a0.997,0.997 0 1 1 -1.17,-1.618a5.544,5.544 0 0 1 3.268,-1.056a5.589,5.589 0 0 1 5.583,5.582a5.587,5.587 0 0 1 -1.912,4.208a0.994,0.994 0 0 1 -0.657,0.246"/>
   <path id="svg_8" fill="#475669" d="m42.305,24.191a0.998,0.998 0 1 1 0,-1.996c2.85,0 5.17,-2.32 5.17,-5.17a5.153,5.153 0 0 0 -4.296,-5.095a0.999,0.999 0 1 1 0.334,-1.97a7.145,7.145 0 0 1 5.959,7.065c0,3.951 -3.215,7.166 -7.167,7.166"/>
   <g id="svg_9">
    <mask transform="translate(45.12300109863281,19.944000244140625) " id="d">
     <use id="svg_10" xlink:href="#c"/>
    </mask>
    <path id="svg_11" mask="url(#d)" fill="#475669" d="m47.263001,37.768a0.998,0.998 0 0 1 -0.332,-1.94a6.943,6.943 0 0 0 4.634,-6.544c0,-3.226 -2.188,-6 -5.32,-6.746a0.998,0.998 0 1 1 0.463,-1.943a8.9,8.9 0 0 1 6.855,8.689a8.943,8.943 0 0 1 -5.97,8.427c-0.11,0.039 -0.221,0.057 -0.33,0.057"/>
   </g>
   <path id="svg_12" fill="#475669" d="m43.023,50.085a0.998,0.998 0 0 1 -0.022,-1.996c3.205,-0.073 5.811,-2.742 5.811,-5.948c0,-1.79 -0.795,-3.468 -2.18,-4.604a5.947,5.947 0 0 0 -2.41,-1.19a0.998,0.998 0 0 1 0.454,-1.945a7.945,7.945 0 0 1 3.223,1.592a7.92,7.92 0 0 1 2.91,6.147c0,4.283 -3.482,7.847 -7.763,7.944l-0.023,0z"/>
   <path id="svg_13" fill="#475669" d="m43.624,40.954c-0.071,0 -0.144,-0.009 -0.216,-0.024c-2.718,-0.599 -4.691,-3.056 -4.691,-5.843a5.99,5.99 0 0 1 8.105,-5.594a0.998,0.998 0 1 1 -0.71,1.866a3.99,3.99 0 0 0 -5.399,3.727a4.008,4.008 0 0 0 3.125,3.893a0.999,0.999 0 0 1 -0.214,1.975m-12.401,3.638a0.995,0.995 0 0 1 -0.6,-0.2a5.772,5.772 0 0 1 -2.323,-4.652c0,-1.86 0.901,-3.622 2.409,-4.715a0.998,0.998 0 1 1 1.171,1.617a3.838,3.838 0 0 0 -1.582,3.098a3.79,3.79 0 0 0 1.525,3.056a1,1 0 0 1 -0.6,1.796m7.16,7.568a1,1 0 0 1 -0.837,-0.451a2.562,2.562 0 0 0 -2.013,-1.168a2.606,2.606 0 0 0 -1.725,0.528a0.998,0.998 0 0 1 -1.217,-1.583a4.571,4.571 0 0 1 3.06,-0.939a4.601,4.601 0 0 1 3.566,2.068a0.998,0.998 0 0 1 -0.834,1.546"/>
   <path id="svg_14" fill="#475669" d="m32.609,64.327c-2.156,0 -4.447,-1.467 -4.447,-4.187l0,-13.784c0,-2.568 2.172,-3.91 4.317,-3.91c2.189,0 4.404,1.342 4.404,3.91l0,3.182a0.998,0.998 0 0 1 -1.997,0l0,-3.182c0,-1.514 -1.574,-1.913 -2.407,-1.913c-0.238,0 -2.32,0.053 -2.32,1.913l0,13.784c0,1.505 1.27,2.19 2.45,2.19c0.629,0 1.2,-0.193 1.606,-0.543c0.445,-0.382 0.67,-0.937 0.67,-1.647l0,-2.633a0.999,0.999 0 0 1 1.998,0l0,2.633c0,1.642 -0.743,2.626 -1.365,3.161c-0.769,0.662 -1.802,1.026 -2.909,1.026"/>
   <path id="svg_15" fill="#475669" d="m37.318,58.7a7.17,7.17 0 0 1 -6.407,-3.92a0.998,0.998 0 1 1 1.777,-0.91a5.182,5.182 0 0 0 4.63,2.833a5.203,5.203 0 0 0 5.196,-5.198a5.204,5.204 0 0 0 -3.846,-5.02a0.997,0.997 0 1 1 0.517,-1.929a7.204,7.204 0 0 1 5.327,6.95c0,3.966 -3.227,7.193 -7.194,7.193"/>
   <g id="svg_16">
    <mask transform="translate(16.27400016784668,0.7099999785423279) " id="f">
     <use id="svg_17" xlink:href="#e"/>
    </mask>
    <path id="svg_18" mask="url(#f)" fill="#475669" d="m20.976,37.053c-2.231,0 -4.49,-1.5 -4.49,-4.367l0,-3.403a0.999,0.999 0 0 1 1.997,0l0,3.403c0,1.87 1.567,2.37 2.493,2.37c1.12,0 2.427,-0.62 2.427,-2.37l0,-27.62c-0.156,-1.69 -1.3,-2.313 -2.322,-2.33c-1.142,-0.056 -2.384,0.7 -2.598,2.346l0,7.384a0.998,0.998 0 0 1 -1.998,0l0,-7.444c0,-0.039 0.003,-0.076 0.007,-0.114c0.317,-2.748 2.516,-4.17 4.55,-4.17l0.07,0.002c1.963,0.031 4.049,1.343 4.285,4.2c0.002,0.027 0.004,0.054 0.004,0.082l0,27.664c0,2.867 -2.226,4.367 -4.425,4.367"/>
   </g>
   <path id="svg_19" fill="#475669" d="m17.484,30.282a6.945,6.945 0 0 1 -6.938,-6.938a6.945,6.945 0 0 1 7.552,-6.911c0.55,0.048 0.956,0.532 0.908,1.081a0.992,0.992 0 0 1 -1.082,0.909a4.947,4.947 0 0 0 -5.38,4.921a4.947,4.947 0 0 0 6.05,4.816a0.999,0.999 0 0 1 0.447,1.946a6.952,6.952 0 0 1 -1.557,0.176m-5.694,-15a0.995,0.995 0 0 1 -0.656,-0.246a5.586,5.586 0 0 1 -1.916,-4.21a5.59,5.59 0 0 1 5.584,-5.582c1.182,0 2.313,0.365 3.268,1.056a0.999,0.999 0 0 1 -1.17,1.618a3.557,3.557 0 0 0 -2.098,-0.677a3.59,3.59 0 0 0 -3.587,3.586c0,1.036 0.45,2.022 1.232,2.704a0.998,0.998 0 0 1 -0.657,1.751"/>
   <path id="svg_20" fill="#475669" d="m11.257,24.191c-3.951,0 -7.166,-3.215 -7.166,-7.166a7.145,7.145 0 0 1 5.958,-7.065a0.999,0.999 0 1 1 0.334,1.97a5.153,5.153 0 0 0 -4.295,5.095c0,2.85 2.32,5.17 5.17,5.17a0.998,0.998 0 1 1 0,1.996"/>
   <g id="svg_21">
    <mask transform="translate(0,19.944000244140625) " id="h">
     <use id="svg_22" xlink:href="#g"/>
    </mask>
    <path id="svg_23" mask="url(#h)" fill="#475669" d="m6.3,37.768c-0.11,0 -0.221,-0.018 -0.331,-0.057a8.944,8.944 0 0 1 -5.97,-8.427a8.9,8.9 0 0 1 6.857,-8.69a0.998,0.998 0 1 1 0.462,1.943a6.908,6.908 0 0 0 -5.32,6.747c0,2.94 1.863,5.569 4.634,6.543a0.998,0.998 0 0 1 -0.331,1.941"/>
   </g>
   <path id="svg_24" fill="#475669" d="m10.54,50.085l-0.024,0c-4.28,-0.097 -7.763,-3.661 -7.763,-7.944a7.922,7.922 0 0 1 2.912,-6.148a7.945,7.945 0 0 1 3.222,-1.59a0.999,0.999 0 0 1 0.453,1.945a5.952,5.952 0 0 0 -4.59,5.793c0,3.206 2.607,5.875 5.812,5.948a0.998,0.998 0 0 1 -0.023,1.996"/>
   <path id="svg_25" fill="#475669" d="m9.939,40.954a1,1 0 0 1 -0.214,-1.975a4.008,4.008 0 0 0 3.124,-3.892a3.99,3.99 0 0 0 -5.399,-3.728a0.997,0.997 0 1 1 -0.71,-1.866a5.99,5.99 0 0 1 8.105,5.594c0,2.787 -1.972,5.244 -4.69,5.843a1.033,1.033 0 0 1 -0.216,0.024m12.401,3.638a0.999,0.999 0 0 1 -0.6,-1.796a3.79,3.79 0 0 0 1.525,-3.056a3.838,3.838 0 0 0 -1.583,-3.098a0.999,0.999 0 1 1 1.173,-1.617a5.842,5.842 0 0 1 2.408,4.715a5.772,5.772 0 0 1 -2.323,4.652c-0.18,0.135 -0.39,0.2 -0.6,0.2m-7.16,7.568a0.997,0.997 0 0 1 -0.834,-1.546a4.603,4.603 0 0 1 3.566,-2.067a4.563,4.563 0 0 1 3.06,0.939a0.998,0.998 0 1 1 -1.217,1.583a2.594,2.594 0 0 0 -1.724,-0.528a2.564,2.564 0 0 0 -2.014,1.168a1,1 0 0 1 -0.837,0.452"/>
   <path id="svg_26" fill="#475669" d="m20.954,64.327c-1.107,0 -2.14,-0.364 -2.909,-1.026c-0.623,-0.535 -1.366,-1.52 -1.366,-3.16l0,-2.634a0.999,0.999 0 0 1 1.997,0l0,2.633c0,0.71 0.227,1.265 0.672,1.647c0.406,0.35 0.976,0.543 1.606,0.543c1.18,0 2.45,-0.685 2.45,-2.19l0,-13.784c0,-1.86 -2.082,-1.913 -2.32,-1.913c-0.833,0 -2.408,0.4 -2.408,1.913l0,3.182a0.998,0.998 0 0 1 -1.997,0l0,-3.182c0,-2.568 2.216,-3.91 4.405,-3.91c2.145,0 4.316,1.342 4.316,3.91l0,13.784c0,2.72 -2.29,4.187 -4.446,4.187"/>
   <path id="svg_27" fill="#475669" d="m16.245,58.7c-3.966,0 -7.194,-3.228 -7.194,-7.195c0,-3.25 2.19,-6.108 5.327,-6.949a0.998,0.998 0 1 1 0.517,1.929a5.204,5.204 0 0 0 -3.847,5.02a5.203,5.203 0 0 0 5.197,5.198a5.182,5.182 0 0 0 4.63,-2.832a0.998,0.998 0 1 1 1.777,0.91a7.17,7.17 0 0 1 -6.407,3.918"/>
  </g>
  <text xml:space="preserve" text-anchor="start" font-family="Helvetica, Arial, sans-serif" font-size="15" id="svg_28" y="90.421875" x="5" stroke-width="0" stroke="#000" fill="#000000">WD-41</text>
 </g>
</svg>