<svg width="52" height="46" viewBox="0 0 52 46" xmlns="http://www.w3.org/2000/svg"><title>C42A36A0-2002-4E28-8943-3DE680269810</title><g fill="none" fill-rule="evenodd"><path d="M49.83 4.607C40.808.895 27.805-.855 14.46 9.785 1.866 19.73.569 32.948 1.506 43.14c8.052 3.07 24.744.75 33.883-6.438C46.777 27.98 50.902 14.175 49.831 4.607" fill="#E36B6B"/><path d="M2.55 42.33c7.824 2.534 23.492.307 32.152-6.504C45.518 27.544 49.544 14.41 48.791 5.387c-8.414-3.3-20.889-4.9-33.638 5.269C5.58 18.214 1.455 28.578 2.55 42.329m20.163 1.562c-8 2.143-16.485 2.24-21.602.288a1.113 1.113 0 0 1-.713-.938C-.97 28.328 3.403 17.099 13.772 8.91c13.91-11.09 27.515-9.02 36.48-5.333.376.155.637.502.682.906 1.115 9.954-3.05 24.05-14.869 33.1-3.663 2.882-8.416 4.985-13.35 6.307" fill="#475669"/><path d="M26.593 14.064l3.072 3.862" fill="#FFA664"/><path d="M29.954 19a1.11 1.11 0 0 1-1.157-.381l-3.074-3.862a1.114 1.114 0 0 1 .177-1.563 1.11 1.11 0 0 1 1.561.178l3.073 3.86a1.114 1.114 0 0 1-.58 1.768" fill="#475669"/><path d="M21.218 17.662l3.073 3.862" fill="#FFA664"/><path d="M24.58 22.598a1.11 1.11 0 0 1-1.158-.383l-3.073-3.86a1.11 1.11 0 1 1 1.738-1.385l3.073 3.86a1.113 1.113 0 0 1-.58 1.768" fill="#475669"/><path d="M16.514 22.1l3.072 3.863" fill="#FFA664"/><path d="M19.875 27.037a1.11 1.11 0 0 1-1.157-.382l-3.073-3.861a1.11 1.11 0 1 1 1.738-1.385l3.072 3.861a1.113 1.113 0 0 1-.58 1.767" fill="#475669"/><path d="M16.05 27.043a1.112 1.112 0 0 1-1.09-1.848c4.485-4.652 9.51-8.657 14.936-11.904a1.112 1.112 0 0 1 1.14 1.91c-5.258 3.146-10.128 7.029-14.476 11.54-.145.15-.322.251-.51.302" fill="#475669"/><path d="M49.565 4.607C45.778 2.992 40.35 1.72 35.82 1.747c3.98 2.283 9.916 9.549 12.08 16.694 1.608-4.922 2.12-9.786 1.666-13.834" fill="#F8A468"/><path d="M39.393 3.08c3.039 2.809 6.3 7.186 8.347 11.786.755-3.286 1.03-6.553.785-9.486-2.784-1.111-6.07-1.928-9.132-2.3m8.793 16.435a1.114 1.114 0 0 1-1.35-.753c-2.033-6.712-7.728-13.845-11.57-16.05a1.113 1.113 0 1 1 .545-2.078c4.36-.025 9.93 1.133 14.19 2.95.368.157.623.5.668.9.487 4.35-.122 9.43-1.714 14.302a1.112 1.112 0 0 1-.769.729" fill="#475669"/><path d="M1.53 43.17c-.41-4.458-.39-9.497.822-14.586 1.775.731 10.019 8.551 12.12 15.792-4.88.492-10.043-.101-12.942-1.206" fill="#F8A468"/><path d="M2.575 42.357c2.655.842 6.661 1.233 10.387 1.022-2.118-5.464-7.366-10.92-9.867-12.96-.699 3.652-.869 7.58-.52 11.938m12.186 3.093a1.046 1.046 0 0 1-.176.032c-4.781.483-10.187-.028-13.45-1.273a1.112 1.112 0 0 1-.711-.938c-.509-5.529-.232-10.417.848-14.945a1.11 1.11 0 0 1 1.501-.77c2.189.9 10.596 9.032 12.767 16.51a1.112 1.112 0 0 1-.779 1.384" fill="#475669"/></g></svg>