<svg width="55" height="65" viewBox="0 0 55 65" xmlns="http://www.w3.org/2000/svg"><title>A0D4C21F-3241-4453-8A03-2CC3B86334B6</title><g fill-rule="nonzero" fill="none"><path d="M4.97 30.433v10.542c0 .773-.629 1.401-1.402 1.401h-.026a1.403 1.403 0 0 1-1.4-1.401V30.433c0-.772.628-1.394 1.426-1.394.773 0 1.402.622 1.402 1.394z" fill="#43BC79"/><path d="M3.542 27.042a3.392 3.392 0 0 0-3.391 3.391v10.542a3.398 3.398 0 0 0 3.391 3.398h.026a3.404 3.404 0 0 0 3.399-3.398V30.433c0-1.872-1.526-3.391-3.425-3.391zm2.423 13.933a2.398 2.398 0 0 1-2.397 2.396h-.026a2.398 2.398 0 0 1-2.396-2.396V30.433a2.398 2.398 0 0 1 2.396-2.396h.026a2.398 2.398 0 0 1 2.397 2.396v10.542z" fill="#4D5768"/><path d="M3.568 28.037h-.026a2.398 2.398 0 0 0-2.396 2.396v10.542a2.398 2.398 0 0 0 2.396 2.396h.026a2.398 2.398 0 0 0 2.397-2.396V30.433a2.398 2.398 0 0 0-2.397-2.396zM4.97 40.975c0 .773-.629 1.401-1.402 1.401h-.026a1.403 1.403 0 0 1-1.4-1.401V30.433c0-.772.628-1.394 1.426-1.394.773 0 1.402.622 1.402 1.394v10.542z" fill="#4D5768"/><path d="M51.459 43.373h-.03a2.395 2.395 0 0 1-2.395-2.395V30.433a2.395 2.395 0 0 1 2.395-2.395h.03a2.395 2.395 0 0 1 2.395 2.395v10.544a2.395 2.395 0 0 1-2.395 2.396z" fill="#43BC79"/><path d="M51.459 44.372h-.03a3.398 3.398 0 0 1-3.394-3.394V30.433a3.398 3.398 0 0 1 3.394-3.395c1.901 0 3.424 1.523 3.424 3.395v10.544a3.398 3.398 0 0 1-3.394 3.395zm0-15.336c-.8 0-1.427.627-1.427 1.397v10.545c0 .77.627 1.396 1.397 1.396h.03c.77 0 1.397-.626 1.397-1.396V30.433c0-.77-.627-1.397-1.397-1.397z" fill="#4D5768"/><g><path d="M9.547 28.038v19.809c0 2.33 2.013 4.193 4.376 4.193h6.744v8.647a3.06 3.06 0 0 0 6.118 0V52.04h3.2v8.647a3.06 3.06 0 0 0 6.119 0V52.04h4.973c2.45 0 4.376-1.864 4.376-4.193v-19.81H9.547z" fill="#43BC79"/><path d="M33.045 64.744a4.062 4.062 0 0 1-4.058-4.057v-7.648h-1.203v7.648a4.062 4.062 0 0 1-4.058 4.057 4.062 4.062 0 0 1-4.058-4.057v-7.648h-5.745c-2.964 0-5.374-2.33-5.374-5.193V27.04h37.903v20.807c0 2.912-2.36 5.193-5.374 5.193h-3.975v7.648a4.063 4.063 0 0 1-4.058 4.057zm-7.259-13.703h5.198v9.645c0 1.136.924 2.06 2.06 2.06 1.136 0 2.06-.924 2.06-2.06v-9.645h5.972c1.895 0 3.377-1.404 3.377-3.195v-18.81H10.545v18.81c0 1.733 1.546 3.196 3.378 3.196h7.742v9.645c0 1.136.925 2.06 2.061 2.06s2.06-.924 2.06-2.06V51.04z" fill="#4D5768"/></g><g><path d="M45.434 24.259H9.56c.078-3.202.72-6.188 2.082-8.741h30.983c.118 0 .236-.007.354-.026 1.519 2.553 2.35 5.539 2.455 8.767z" fill="#43BC79"/><g transform="translate(17.679 16.369)" fill="#4D5768"><ellipse cx="18.425" cy="1.746" rx="1.235" ry="1.283"/><ellipse cx="1.753" cy="1.746" rx="1.235" ry="1.283"/></g></g><g><path d="M46.436 24.226c-.105-3.365-.963-6.436-2.495-9.075.7-.419 1.166-1.165 1.166-2.01 0-1.31-1.114-2.377-2.482-2.377h-1.179a16.154 16.154 0 0 0-4.845-4.76L39.11 2.77a1.145 1.145 0 1 0-1.807-1.408l-2.737 3.523a15.326 15.326 0 0 0-1.067-.452l-.681-.256c-.027-.006-.06-.02-.085-.026l-.937-.334v.053a17.526 17.526 0 0 0-3.79-.59v-.026l-.852.007-.851-.007v.026a17.988 17.988 0 0 0-4.263.727v-.065l-1.362.537-.059.02-.242.09-2.54-3.528a1.15 1.15 0 0 0-1.598-.262 1.145 1.145 0 0 0-.262 1.604l2.325 3.228c-2.2 1.29-4.086 3.051-5.448 5.133h-1.198c-1.362 0-2.475 1.068-2.475 2.377 0 .956.589 1.781 1.44 2.154-1.283 2.501-1.977 5.487-2.056 8.938l-.026 1.021h37.93l-.032-1.028zM11.655 12.761h2.318l.288-.478c.124-.21.255-.412.393-.609a13.903 13.903 0 0 1 3.32-3.437c.477-.354.975-.681 1.499-.976.183-.111.373-.216.57-.314v.648c0 .269.09.511.255.707a1.137 1.137 0 0 0 2.03-.642c.006-.019.006-.045.006-.065V6.011a15.525 15.525 0 0 1 3.673-.714v3.706c0 .629.51 1.133 1.146 1.133a1.14 1.14 0 0 0 1.146-1.133V5.297c1.093.079 2.16.268 3.202.563v1.735c0 .603.471 1.094 1.067 1.133.026.007.052.007.078.007a1.14 1.14 0 0 0 1.009-.61.91.91 0 0 0 .118-.346.828.828 0 0 0 .02-.184v-.87c.196.091.386.183.575.288.34.176.675.366 1.002.576a6.484 6.484 0 0 1 .635.419 13.898 13.898 0 0 1 4.034 4.275l.294.478h2.292c.262 0 .478.177.478.38 0 .144-.111.275-.268.334a.447.447 0 0 1-.21.046h-30.97c-.262 0-.478-.177-.478-.38s.216-.38.478-.38zM10.6 23.257c.196-3.018.93-5.605 2.187-7.74H41.82c1.44 2.227 2.318 4.853 2.56 7.74H10.6z" fill="#4D5768"/><path d="M43.103 13.141c0 .144-.111.275-.268.334a.447.447 0 0 1-.21.046h-30.97c-.262 0-.478-.177-.478-.38s.216-.38.478-.38h2.318l.288-.478c.124-.21.255-.412.393-.609a13.903 13.903 0 0 1 3.32-3.437c.477-.354.975-.681 1.499-.976.183-.111.373-.216.57-.314v.648c0 .269.09.511.255.707a1.137 1.137 0 0 0 2.03-.642c.006-.019.006-.045.006-.065V6.011a15.525 15.525 0 0 1 3.673-.714v3.706c0 .629.51 1.133 1.146 1.133a1.14 1.14 0 0 0 1.146-1.133V5.297c1.093.079 2.16.268 3.202.563v1.735c0 .603.471 1.094 1.067 1.133.026.007.052.007.078.007a1.14 1.14 0 0 0 1.009-.61.91.91 0 0 0 .118-.346.828.828 0 0 0 .02-.184v-.87c.196.091.386.183.575.288.34.176.675.366 1.002.576a6.484 6.484 0 0 1 .635.419 13.898 13.898 0 0 1 4.034 4.275l.294.478h2.292c.262 0 .478.177.478.38z" fill="#EBB764"/></g></g></svg>