<svg width="43" height="52" viewBox="0 0 43 52" xmlns="http://www.w3.org/2000/svg" xmlns:xlink="http://www.w3.org/1999/xlink"><title>0AB872A1-A7D7-4DCC-884C-6D63A21E0F25</title><defs><path id="a" d="M42.955 51.082H0V.045h42.955v51.037z"/></defs><g fill="none" fill-rule="evenodd"><path d="M18.887 2.1L2.957 7.997C1.474 8.476.83 9.455.953 10.889l2.162 26.06c.178 1.657.445 2.393 1.643 3.248l14.173 9.76c1.624 1.126 3.343 1.158 5.168-.01l14.251-9.841c1.07-.806 1.46-1.552 1.62-3.038l2.028-25.47c.143-1.662-.443-2.932-2.067-3.642L24.164 2.137c-1.601-.64-3.542-.692-5.277-.037" fill="#00C7DA"/><g transform="translate(0 .655)"><mask id="b" fill="#fff"><use xlink:href="#a"/></mask><path d="M18.886 1.445h.007-.007zm2.592.468a6.434 6.434 0 0 0-2.264.404L3.286 8.213c-1.093.354-1.488.913-1.4 1.942L4.05 36.217c.163 1.521.363 1.933 1.255 2.57l14.16 9.75c1.338.928 2.649.919 4.126-.027l14.224-9.824c.82-.619 1.09-1.133 1.222-2.372l2.026-25.444c.119-1.373-.347-2.209-1.51-2.718L23.838 2.355a6.39 6.39 0 0 0-2.36-.442zm-.036 49.17c-1.048 0-2.073-.34-3.05-1.018l-14.17-9.758c-1.494-1.066-1.847-2.11-2.04-3.915L.017 10.311c-.162-1.881.78-3.25 2.65-3.855L18.556.574c1.912-.721 4.084-.705 5.958.045l15.743 5.81c1.954.852 2.86 2.433 2.675 4.594l-2.028 25.463c-.19 1.78-.71 2.743-1.987 3.706l-14.283 9.865c-1.07.684-2.142 1.026-3.192 1.026z" fill="#475669" mask="url(#b)"/></g><path d="M21.644 24.542h4.724l-4.861-10.485-4.858 10.479h4.86c.044 0 .09.002.135.006m10.768 11.125a1.384 1.384 0 0 1-1.258-.8l-3.513-7.578h-6.133a1.24 1.24 0 0 1-.135-.007h-5.998l-3.513 7.579c-.32.69-1.143.99-1.835.673a1.37 1.37 0 0 1-.679-1.822l10.89-23.49c.28-.604.957-.921 1.6-.757.404.102.766.387.94.763l6.997 15.092.02.044 3.873 8.355c.32.69.016 1.505-.679 1.822a1.376 1.376 0 0 1-.577.126" fill="#475669"/></g></svg>