<svg width="60" height="36" viewBox="0 0 60 36" xmlns="http://www.w3.org/2000/svg" xmlns:xlink="http://www.w3.org/1999/xlink"><title>A450A2C1-78B1-41C9-A38D-8E7FAEC6495F</title><defs><path id="a" d="M0 .258v31.78h38.403V.259z"/></defs><g fill="none" fill-rule="evenodd"><path d="M33.856 25.656c.288-.45.702-.715 1.242-.792.538-.078.993.053 1.366.393a11.256 11.256 0 0 0 4.06 2.035c1.47.392 2.922.504 4.355.332A11.532 11.532 0 0 0 49 26.31c1.313-.705 2.45-1.676 3.417-2.913.962-1.236 1.632-2.568 2.01-3.996.376-1.425.466-2.855.275-4.285A12.025 12.025 0 0 0 53.356 11c-.706-1.314-1.676-2.452-2.913-3.416-1.235-.964-2.568-1.634-3.994-2.01a10.96 10.96 0 0 0-4.286-.277 11.88 11.88 0 0 0-4.144 1.38 11.04 11.04 0 0 0-3.444 2.947l-9.25 11.06c-.293.409-.72.654-1.278.733-.56.08-1.026-.05-1.398-.39-.454-.332-.71-.766-.767-1.308-.057-.54.062-1.015.356-1.424l9.31-11.067c1.299-1.649 2.822-2.964 4.57-3.947a14.615 14.615 0 0 1 5.518-1.808c1.932-.223 3.88-.08 5.847.429 1.966.51 3.814 1.388 5.544 2.636A15.215 15.215 0 0 1 56.81 9.06c.96 1.75 1.552 3.59 1.776 5.522.223 1.932.09 3.87-.4 5.813-.49 1.944-1.386 3.74-2.682 5.39-1.3 1.65-2.815 2.954-4.543 3.913a14.674 14.674 0 0 1-5.491 1.773c-1.93.225-3.87.08-5.817-.431-1.944-.512-3.765-1.434-5.462-2.771-.456-.332-.71-.755-.764-1.277-.053-.52.089-.964.428-1.337" fill="#63D2DD"/><path d="M33.856 25.656h.006-.006zm1.532-.024c-.055 0-.115.005-.178.014a.905.905 0 0 0-.688.436.754.754 0 0 1-.082.106c-.187.205-.257.429-.226.724.031.297.167.519.443.72 1.625 1.28 3.366 2.163 5.198 2.645 1.843.484 3.702.622 5.525.41a13.975 13.975 0 0 0 5.198-1.678c1.629-.904 3.077-2.152 4.306-3.712 1.223-1.555 2.077-3.27 2.537-5.094.465-1.84.593-3.7.381-5.529a14.253 14.253 0 0 0-1.683-5.233 14.491 14.491 0 0 0-3.59-4.29 15.733 15.733 0 0 0-5.245-2.485c-1.862-.481-3.734-.62-5.558-.409a13.892 13.892 0 0 0-5.222 1.713c-1.65.928-3.108 2.188-4.336 3.747l-9.304 11.061c-.17.246-.232.52-.197.859.034.318.172.55.448.753a.918.918 0 0 1 .065.053c.132.12.339.252.757.193.45-.065.642-.266.747-.413a.667.667 0 0 1 .036-.046l9.249-11.06a11.84 11.84 0 0 1 3.67-3.133 12.718 12.718 0 0 1 4.419-1.47 11.792 11.792 0 0 1 4.592.296c1.527.403 2.967 1.127 4.279 2.151 1.317 1.026 2.368 2.26 3.123 3.665a12.884 12.884 0 0 1 1.432 4.385 11.8 11.8 0 0 1-.295 4.592c-.402 1.524-1.127 2.964-2.15 4.28-1.031 1.319-2.264 2.37-3.666 3.123a12.375 12.375 0 0 1-4.4 1.402c-1.526.182-3.09.064-4.652-.353a12.11 12.11 0 0 1-4.343-2.175l-.046-.039a.763.763 0 0 0-.544-.209zm8.326 6.732a16.72 16.72 0 0 1-4.26-.56c-2.044-.537-3.979-1.517-5.75-2.913a2.535 2.535 0 0 1-1.062-1.815c-.074-.719.129-1.374.586-1.902a2.487 2.487 0 0 1 1.758-1.092c.76-.107 1.443.088 1.985.569a10.528 10.528 0 0 0 3.757 1.878c1.367.364 2.733.47 4.057.31a10.807 10.807 0 0 0 3.84-1.226c1.208-.648 2.274-1.557 3.168-2.702.892-1.146 1.52-2.394 1.869-3.711.347-1.316.433-2.655.256-3.979a11.317 11.317 0 0 0-1.258-3.849c-.65-1.21-1.56-2.274-2.703-3.165-1.143-.892-2.391-1.521-3.71-1.87a10.228 10.228 0 0 0-3.98-.257c-1.328.178-2.63.612-3.87 1.29a10.316 10.316 0 0 0-3.199 2.738L25.949 21.17c-.416.566-1.035.92-1.79 1.03-.775.108-1.469-.085-2.01-.56a2.594 2.594 0 0 1-1.053-1.838c-.077-.736.091-1.4.501-1.969l.037-.046 9.31-11.067a16.193 16.193 0 0 1 4.786-4.127A15.461 15.461 0 0 1 41.545.688a16.792 16.792 0 0 1 6.135.448c2.053.533 4.007 1.462 5.809 2.761a16.092 16.092 0 0 1 4.014 4.783 15.81 15.81 0 0 1 1.868 5.813c.234 2.02.093 4.072-.419 6.097-.514 2.04-1.465 3.953-2.827 5.684-1.36 1.726-2.968 3.11-4.78 4.116a15.539 15.539 0 0 1-5.784 1.867c-.612.071-1.228.107-1.847.107z" fill="#475669"/><path d="M25.625 10.341a1.7 1.7 0 0 1-1.243.792c-.536.077-.993-.053-1.365-.393a11.252 11.252 0 0 0-4.06-2.035c-1.47-.393-2.922-.503-4.355-.332-1.433.171-2.807.61-4.12 1.315-1.314.705-2.45 1.675-3.416 2.912-.964 1.236-1.633 2.567-2.01 3.995a10.957 10.957 0 0 0-.276 4.285c.192 1.43.64 2.803 1.345 4.118.706 1.313 1.676 2.45 2.912 3.415 1.236.964 2.569 1.633 3.995 2.01 1.427.376 2.856.467 4.286.277a11.872 11.872 0 0 0 4.144-1.38 11.036 11.036 0 0 0 3.444-2.947l9.25-11.06c.293-.409.72-.654 1.278-.733.561-.08 1.026.05 1.399.39.453.331.71.766.767 1.307.057.54-.063 1.016-.357 1.424l-9.31 11.068c-1.298 1.649-2.822 2.964-4.57 3.947a14.619 14.619 0 0 1-5.517 1.808c-1.933.223-3.88.08-5.848-.429-1.966-.51-3.814-1.388-5.543-2.636a15.208 15.208 0 0 1-3.785-4.523 14.965 14.965 0 0 1-1.776-5.523c-.224-1.93-.09-3.869.4-5.812.49-1.944 1.385-3.74 2.683-5.39 1.3-1.65 2.813-2.954 4.542-3.913a14.683 14.683 0 0 1 5.491-1.774c1.931-.224 3.87-.08 5.817.432 1.944.511 3.766 1.435 5.462 2.771.455.33.71.755.764 1.276.055.52-.088.965-.428 1.338" fill="#6A97E3"/><g transform="translate(0 3.375)"><mask id="b" fill="#fff"><use xlink:href="#a"/></mask><path d="M15.764 1.837a13.98 13.98 0 0 0-6.862 1.776c-1.626.902-3.075 2.15-4.305 3.712C3.373 8.88 2.52 10.594 2.06 12.419c-.465 1.84-.593 3.7-.381 5.528.21 1.822.777 3.583 1.683 5.234a14.5 14.5 0 0 0 3.59 4.29 15.776 15.776 0 0 0 5.243 2.485c1.866.48 3.737.617 5.56.408a13.906 13.906 0 0 0 5.222-1.712c1.649-.927 3.108-2.188 4.336-3.747l9.304-11.062c.17-.246.233-.52.197-.858-.034-.319-.172-.55-.448-.753a.824.824 0 0 1-.064-.053c-.134-.122-.34-.255-.757-.192-.452.064-.643.265-.747.41a.907.907 0 0 1-.036.047l-9.25 11.06a11.842 11.842 0 0 1-3.671 3.134 12.739 12.739 0 0 1-4.418 1.47c-1.53.203-3.077.104-4.592-.296-1.529-.405-2.968-1.128-4.28-2.152-1.316-1.027-2.367-2.259-3.122-3.663a12.882 12.882 0 0 1-1.432-4.387 11.794 11.794 0 0 1 .295-4.592c.403-1.525 1.126-2.964 2.151-4.28C7.472 7.42 8.705 6.37 10.108 5.618a12.358 12.358 0 0 1 4.401-1.403 12.306 12.306 0 0 1 4.651.353 12.088 12.088 0 0 1 4.39 2.214c.131.12.328.25.72.195a.912.912 0 0 0 .69-.437.776.776 0 0 1 .08-.104c.188-.207.258-.43.227-.725-.03-.298-.167-.519-.442-.719-1.627-1.281-3.368-2.165-5.2-2.646a15.16 15.16 0 0 0-3.861-.508m.323 30.202c-1.421 0-2.856-.185-4.287-.554-2.053-.533-4.007-1.462-5.808-2.761a16.1 16.1 0 0 1-4.014-4.782 15.819 15.819 0 0 1-1.869-5.813c-.233-2.02-.092-4.07.42-6.096.513-2.041 1.465-3.954 2.828-5.686 1.36-1.726 2.968-3.11 4.78-4.116A15.544 15.544 0 0 1 13.918.364a16.468 16.468 0 0 1 6.109.453c2.042.536 3.976 1.517 5.75 2.915a2.53 2.53 0 0 1 1.06 1.814 2.444 2.444 0 0 1-.585 1.902 2.494 2.494 0 0 1-1.758 1.092c-.759.108-1.445-.089-1.985-.57a10.512 10.512 0 0 0-3.757-1.877 10.7 10.7 0 0 0-4.057-.31c-1.328.157-2.62.57-3.84 1.226-1.21.648-2.274 1.557-3.167 2.701-.892 1.146-1.521 2.394-1.87 3.712a10.23 10.23 0 0 0-.256 3.978 11.32 11.32 0 0 0 1.258 3.85c.65 1.209 1.559 2.274 2.702 3.165 1.142.89 2.391 1.52 3.712 1.87 1.314.346 2.653.433 3.978.257a11.153 11.153 0 0 0 3.87-1.29 10.308 10.308 0 0 0 3.2-2.74l9.25-11.06c.416-.567 1.034-.922 1.79-1.029.775-.11 1.468.082 2.01.559.61.46.974 1.095 1.052 1.838.078.735-.09 1.397-.5 1.968a.729.729 0 0 1-.037.047l-9.31 11.067a16.206 16.206 0 0 1-4.787 4.127 15.443 15.443 0 0 1-7.664 2.01" fill="#475669" mask="url(#b)"/></g></g></svg>