<svg width="57" height="58" viewBox="0 0 57 58" xmlns="http://www.w3.org/2000/svg" xmlns:xlink="http://www.w3.org/1999/xlink"><title>EA9D6D1A-522E-496C-9C9F-CF6562813894</title><defs><path id="a" d="M0 .568V9.91h56.5V.57H0z"/><path id="c" d="M0 .322v9.341h56.5V.323H0z"/><path id="e" d="M.07.5h9.34V57H.07V.5z"/><path id="g" d="M.518.5h9.34V57H.519V.5z"/></defs><g fill="none" fill-rule="evenodd"><path d="M51.83 24.337H4.67a3.62 3.62 0 0 1-3.61-3.61 3.62 3.62 0 0 1 3.61-3.61h47.16a3.62 3.62 0 0 1 3.61 3.61 3.62 3.62 0 0 1-3.61 3.61" fill="#6A97E3"/><g transform="translate(0 15.488)"><mask id="b" fill="#fff"><use xlink:href="#a"/></mask><path d="M4.67 2.689a2.553 2.553 0 0 0-2.55 2.55 2.553 2.553 0 0 0 2.55 2.55h47.16a2.553 2.553 0 0 0 2.55-2.55 2.553 2.553 0 0 0-2.55-2.55H4.67zm47.16 7.22H4.67A4.677 4.677 0 0 1 0 5.24 4.677 4.677 0 0 1 4.67.569h47.16a4.676 4.676 0 0 1 4.67 4.67 4.676 4.676 0 0 1-4.67 4.67z" fill="#475669" mask="url(#b)"/></g><path d="M51.83 40.774H4.67a3.62 3.62 0 0 1-3.61-3.61 3.62 3.62 0 0 1 3.61-3.61h47.16a3.62 3.62 0 0 1 3.61 3.61 3.62 3.62 0 0 1-3.61 3.61" fill="#6A97E3"/><g transform="translate(0 32.171)"><mask id="d" fill="#fff"><use xlink:href="#c"/></mask><path d="M4.67 2.443a2.553 2.553 0 0 0-2.55 2.55 2.553 2.553 0 0 0 2.55 2.55h47.16a2.553 2.553 0 0 0 2.55-2.55 2.553 2.553 0 0 0-2.55-2.55H4.67zm47.16 7.22H4.67A4.677 4.677 0 0 1 0 4.993 4.677 4.677 0 0 1 4.67.323h47.16a4.676 4.676 0 0 1 4.67 4.67 4.676 4.676 0 0 1-4.67 4.67z" fill="#475669" mask="url(#d)"/></g><path d="M23.642 5.365v47.16a3.62 3.62 0 0 1-3.61 3.61 3.62 3.62 0 0 1-3.61-3.61V5.365a3.62 3.62 0 0 1 3.61-3.61 3.62 3.62 0 0 1 3.61 3.61" fill="#6A97E3"/><g transform="translate(15.293 .196)"><mask id="f" fill="#fff"><use xlink:href="#e"/></mask><path d="M4.74 2.62a2.553 2.553 0 0 0-2.55 2.55v47.16a2.553 2.553 0 0 0 2.55 2.55 2.553 2.553 0 0 0 2.55-2.55V5.17a2.553 2.553 0 0 0-2.55-2.55m0 54.38a4.676 4.676 0 0 1-4.67-4.67V5.17A4.677 4.677 0 0 1 4.74.5a4.677 4.677 0 0 1 4.67 4.67v47.16A4.676 4.676 0 0 1 4.74 57" fill="#475669" mask="url(#f)"/></g><path d="M40.079 5.365v47.16a3.62 3.62 0 0 1-3.61 3.61 3.62 3.62 0 0 1-3.61-3.61V5.365a3.62 3.62 0 0 1 3.61-3.61 3.62 3.62 0 0 1 3.61 3.61" fill="#6A97E3"/><g transform="translate(31.28 .196)"><mask id="h" fill="#fff"><use xlink:href="#g"/></mask><path d="M5.188 2.62a2.553 2.553 0 0 0-2.55 2.55v47.16a2.553 2.553 0 0 0 2.55 2.55 2.553 2.553 0 0 0 2.55-2.55V5.17a2.553 2.553 0 0 0-2.55-2.55m0 54.38a4.676 4.676 0 0 1-4.67-4.67V5.17A4.677 4.677 0 0 1 5.188.5a4.677 4.677 0 0 1 4.67 4.67v47.16A4.676 4.676 0 0 1 5.189 57" fill="#475669" mask="url(#h)"/></g><path d="M12.979 28.945c0-8.434 6.837-15.271 15.272-15.271 8.434 0 15.27 6.837 15.27 15.271 0 8.435-6.836 15.272-15.27 15.272-8.435 0-15.272-6.837-15.272-15.272" fill="#63D2DD"/><path d="M28.25 14.734c-7.835 0-14.21 6.375-14.21 14.211 0 7.837 6.375 14.212 14.21 14.212 7.837 0 14.212-6.375 14.212-14.212 0-7.836-6.375-14.211-14.211-14.211m0 30.543c-9.005 0-16.332-7.327-16.332-16.332s7.327-16.332 16.332-16.332 16.332 7.327 16.332 16.332-7.327 16.332-16.332 16.332" fill="#475669"/><path d="M28.856 37.424c-4.676 0-8.479-3.804-8.479-8.478 0-4.676 3.803-8.48 8.479-8.48a8.477 8.477 0 0 1 7.03 3.737 1.392 1.392 0 0 1-2.304 1.558 5.698 5.698 0 0 0-4.726-2.514 5.705 5.705 0 0 0-5.698 5.699 5.705 5.705 0 0 0 5.698 5.697 5.665 5.665 0 0 0 4-1.64 1.391 1.391 0 0 1 1.952 1.98 8.43 8.43 0 0 1-5.952 2.44" fill="#FFF"/></g></svg>