<?xml version="1.0" encoding="utf-8"?>
<!-- Generator: Adobe Illustrator 22.0.1, SVG Export Plug-In . SVG Version: 6.00 Build 0)  -->
<svg version="1.1" id="Layer_1" xmlns="http://www.w3.org/2000/svg" xmlns:xlink="http://www.w3.org/1999/xlink" x="0px" y="0px"
	 viewBox="0 0 300 302.7" style="enable-background:new 0 0 300 302.7;" xml:space="preserve">
<style type="text/css">
	.st0{fill:none;}
	.st1{fill:#E16B6B;}
	.st2{fill:#F5A268;}
	.st3{fill:#475669;}
</style>
<g>
	<rect x="23.4" y="10.1" class="st0" width="9.7" height="9.7"/>
	<rect x="266.9" y="10.1" class="st0" width="9.7" height="9.7"/>
	<path class="st0" d="M257.2,151.3c0,5.4,4.4,9.7,9.7,9.7c5.4,0,9.7-4.4,9.7-9.7s-4.4-9.7-9.7-9.7
		C261.5,141.6,257.2,146,257.2,151.3z"/>
	<circle class="st0" cx="33.1" cy="151.3" r="9.7"/>
	<path class="st1" d="M191.4,278h-82.8c-4,0-7.3,3.3-7.3,7.3c0,4,3.3,7.3,7.3,7.3h82.8c4,0,7.3-3.3,7.3-7.3
		C198.7,281.3,195.4,278,191.4,278z"/>
	<path class="st2" d="M227.7,131.8c0-22.1-9.4-43.2-25.9-57.9c-16.7-14.9-38.2-21.8-60.7-19.3c-35,3.9-63.6,32-68.1,66.8
		c-3.2,24.4,5,48.3,22.3,65.5c9.1,9,14.5,20.3,15.7,32.4h78c1.2-12.1,6.7-23.5,15.4-32C219.4,172.5,227.7,152.8,227.7,131.8z
		 M184.8,132.4L146,176c-0.9,1-2.1,1.5-3.3,1.5c-0.6,0-1.3-0.1-1.9-0.4c-1.8-0.8-2.8-2.8-2.5-4.7l4-23.9h-23.8c-1.7,0-3.3-1-4-2.6
		s-0.4-3.4,0.7-4.7l38.8-43.6c1.3-1.5,3.4-1.9,5.2-1.1c1.8,0.8,2.8,2.8,2.5,4.7l-4,23.9h23.8c1.7,0,3.3,1,4,2.6
		C186.2,129.2,185.9,131.1,184.8,132.4z"/>
	<path class="st2" d="M149,132.3c-0.8-1-1.2-2.3-1-3.6l2.3-13.9l-22,24.8h19.2c1.3,0,2.5,0.6,3.4,1.6c0.8,1,1.2,2.3,1,3.6l-2.3,13.9
		l22-24.8h-19.2C151.1,133.9,149.9,133.3,149,132.3z"/>
	<path class="st3" d="M208.6,66.3c-18.9-16.9-43.2-24.7-68.6-21.8c-39.6,4.4-72,36.2-77.1,75.6c-3.6,27.6,5.6,54.6,25.2,74
		c7.6,7.6,12.1,17.2,12.8,27.3c-5.5,2.8-9.4,8.5-9.4,15.1c0,4.8,2,9,5.2,12.2c-3.2,3.1-5.2,7.4-5.2,12.2c0,4.8,2,9.1,5.2,12.2
		c-3.2,3.1-5.2,7.4-5.2,12.2c0,9.4,7.7,17.1,17.1,17.1h82.8c9.4,0,17.1-7.7,17.1-17.1c0-4.8-2-9-5.2-12.2c3.1-3.1,5.2-7.4,5.2-12.2
		c0-4.8-2-9.1-5.2-12.2c3.1-3.1,5.2-7.4,5.2-12.2c0-6.7-3.9-12.3-9.4-15.2c0.7-10.1,5.1-19.8,12.4-26.9c17-16.7,26.4-38.9,26.4-62.7
		C237.9,106.9,227.2,83,208.6,66.3z M189,219.3h-78c-1.2-12.1-6.7-23.4-15.7-32.4c-17.3-17.2-25.5-41.1-22.3-65.5
		c4.5-34.8,33.2-62.9,68.1-66.8c22.5-2.5,44,4.4,60.7,19.3c16.5,14.7,25.9,35.8,25.9,57.9c0,21-8.3,40.7-23.3,55.4
		C195.7,195.8,190.2,207.2,189,219.3z M191.4,292.6h-82.8c-4,0-7.3-3.3-7.3-7.3c0-4,3.3-7.3,7.3-7.3h82.8c4,0,7.3,3.3,7.3,7.3
		C198.7,289.3,195.4,292.6,191.4,292.6z M191.4,268.2h-82.8c-4,0-7.3-3.3-7.3-7.3c0-4,3.3-7.3,7.3-7.3h82.8c4,0,7.3,3.3,7.3,7.3
		C198.7,264.9,195.4,268.2,191.4,268.2z M191.4,243.9h-82.8c-4,0-7.3-3.3-7.3-7.3c0-4,3.3-7.3,7.3-7.3h82.8c4,0,7.3,3.3,7.3,7.3
		C198.7,240.6,195.4,243.9,191.4,243.9z"/>
	<path class="st1" d="M191.4,229.2h-82.8c-4,0-7.3,3.3-7.3,7.3c0,4,3.3,7.3,7.3,7.3h82.8c4,0,7.3-3.3,7.3-7.3
		C198.7,232.6,195.4,229.2,191.4,229.2z"/>
	<path class="st1" d="M191.4,253.7h-82.8c-4,0-7.3,3.3-7.3,7.3c0,4,3.3,7.3,7.3,7.3h82.8c4,0,7.3-3.3,7.3-7.3
		C198.7,256.9,195.4,253.7,191.4,253.7z"/>
	<path class="st3" d="M286.4,29.6V0.3h-29.2v9.7H42.8V0.3H13.6v29.2h29.2v-9.7H116C66.6,34.2,30.2,79,28.3,132.5
		c-8.4,2.1-14.7,9.7-14.7,18.8c0,10.7,8.7,19.5,19.5,19.5c10.7,0,19.5-8.7,19.5-19.5c0-9-6.2-16.5-14.5-18.8
		C40.3,72.7,89.6,24.7,150,24.7s109.7,48,111.9,107.9c-8.3,2.2-14.5,9.7-14.5,18.8c0,10.7,8.7,19.5,19.5,19.5
		c10.7,0,19.5-8.7,19.5-19.5c0-9.1-6.3-16.7-14.7-18.8C269.8,79,233.4,34.2,184,19.8h73.1v9.7H286.4z M266.9,10.1h9.7v9.7h-9.7V10.1
		z M33.1,19.8h-9.7v-9.7h9.7V19.8z M42.8,151.3c0,5.4-4.4,9.7-9.7,9.7s-9.7-4.4-9.7-9.7s4.4-9.7,9.7-9.7S42.8,146,42.8,151.3z
		 M276.6,151.3c0,5.4-4.4,9.7-9.7,9.7c-5.4,0-9.7-4.4-9.7-9.7s4.4-9.7,9.7-9.7C272.3,141.6,276.6,146,276.6,151.3z"/>
	<path class="st3" d="M181.5,125h-23.8l4-23.9c0.3-1.9-0.7-3.9-2.5-4.7c-1.8-0.8-3.9-0.4-5.2,1.1l-38.8,43.6
		c-1.2,1.3-1.4,3.2-0.7,4.7s2.3,2.6,4,2.6h23.8l-4,23.9c-0.3,1.9,0.7,3.9,2.5,4.7c0.6,0.3,1.3,0.4,1.9,0.4c1.2,0,2.4-0.5,3.3-1.5
		l38.8-43.6c1.2-1.3,1.4-3.2,0.7-4.7C184.8,126.1,183.2,125,181.5,125z M149.6,158.7l2.3-13.9c0.2-1.3-0.1-2.6-1-3.6
		c-0.8-1-2.1-1.6-3.4-1.6h-19.2l22-24.8l-2.3,13.9c-0.2,1.3,0.1,2.6,1,3.6c0.8,1,2.1,1.6,3.4,1.6h19.2L149.6,158.7z"/>
</g>
</svg>
