<?xml version="1.0" encoding="utf-8"?>
<!-- Generator: Adobe Illustrator 22.0.1, SVG Export Plug-In . SVG Version: 6.00 Build 0)  -->
<svg version="1.1" id="Layer_1" xmlns="http://www.w3.org/2000/svg" xmlns:xlink="http://www.w3.org/1999/xlink" x="0px" y="0px"
	 viewBox="0 0 300 302.7" style="enable-background:new 0 0 300 302.7;" xml:space="preserve">
<style type="text/css">
	.st0{fill:#F5A268;}
	.st1{fill:#E16B6B;}
	.st2{fill:#475669;}
</style>
<g>
	<path class="st0" d="M87.4,93.1c0-14.6,5.1-28.1,13.5-38.7c-9.7-9.3-22.8-15-37.2-15C34,39.4,9.9,63.5,9.9,93.1
		c0,29.6,24.1,53.8,53.8,53.8c14.4,0,27.5-5.7,37.2-15C92.5,121.2,87.4,107.8,87.4,93.1z"/>
	<path class="st0" d="M274.3,131.2c10.2-10.2,15.7-23.7,15.7-38s-5.6-27.9-15.7-38c-10.5-10.5-24.3-15.7-38-15.7
		c-13.4,0-26.8,5-37.2,15c3.7,4.6,6.7,9.8,8.9,15.4c2.2-3.9,6.4-6.6,11.3-6.6c7.2,0,13,5.8,13,13c0,7.2-5.8,13-13,13
		c-2.6,0-5-0.8-7-2.1c0.2,2,0.3,4,0.3,6c0,2-0.1,4.1-0.3,6.1c2-1.3,4.4-2.1,7-2.1c7.2,0,13,5.8,13,13c0,7.2-5.8,13-13,13
		c-4.9,0-9-2.7-11.3-6.6c-2.3,5.6-5.3,10.7-9,15.4C220.1,152.1,253.6,151.9,274.3,131.2z M253.3,63.1c7.2,0,13,5.8,13,13
		c0,7.2-5.8,13-13,13c-7.2,0-13-5.8-13-13C240.3,69,246.1,63.1,253.3,63.1z M253.3,97.1c7.2,0,13,5.8,13,13c0,7.2-5.8,13-13,13
		c-7.2,0-13-5.8-13-13C240.3,103,246.1,97.1,253.3,97.1z"/>
	<path class="st1" d="M203.8,93.1c0-5-0.7-9.8-2-14.4l-66.1,66.1c4.6,1.3,9.4,2,14.4,2C179.6,146.9,203.8,122.8,203.8,93.1z"/>
	<path class="st1" d="M96.2,93.1c0,5,0.7,9.8,2,14.4l66.1-66.1c-4.6-1.3-9.4-2-14.4-2C120.4,39.4,96.2,63.5,96.2,93.1z"/>
	<path class="st1" d="M196.1,65.6c-4.6-7.6-11-14.1-18.6-18.6c-0.3,0.6-0.7,1.1-1.1,1.6l-71,71c-0.4,0.4-0.9,0.8-1.4,1.1
		c4.5,7.5,10.8,13.9,18.3,18.4l72.3-72.3C195,66.3,195.6,65.9,196.1,65.6z"/>
	<path class="st2" d="M259.3,151.4c7.7-3.1,15-7.7,21.3-13.9c11.8-11.8,18.3-27.6,18.3-44.3c0-16.7-6.5-32.5-18.3-44.3
		c-24.1-24.1-62.9-24.4-87.4-1c-11.2-10.7-26.4-17.3-43.1-17.3c-16.7,0-31.9,6.6-43.2,17.4C95.6,37.2,80.4,30.5,63.7,30.5
		c-34.5,0-62.6,28.1-62.6,62.6c0,26.4,16.4,49,39.6,58.2c-7.7,3.1-15,7.7-21.3,13.9h0c-24.4,24.4-24.4,64.1,0,88.6
		c12.2,12.2,28.2,18.3,44.3,18.3s32.1-6.1,44.3-18.3c24.4-24.4,24.4-64.1,0-88.6c-6.3-6.3-13.5-10.9-21.3-13.9
		c7.5-3,14.4-7.4,20.1-12.9c4.8,4.5,10.3,8.3,16.3,11.2c0.5,0.4,1.1,0.6,1.7,0.8c7.7,3.4,16.2,5.3,25.2,5.3
		c16.7,0,31.9-6.6,43.1-17.3c6,5.7,12.9,10.1,20.2,12.9c-23.2,9.2-39.6,31.8-39.6,58.2c0,34.5,28.1,62.6,62.6,62.6
		s62.6-28.1,62.6-62.6C298.9,183.1,282.5,160.6,259.3,151.4z M25.7,247.6c-21-21-21-55.1,0-76h0c21-21,55.1-21,76,0
		c21,21,21,55.1,0,76C80.7,268.5,46.6,268.5,25.7,247.6z M9.9,93.1c0-29.6,24.1-53.8,53.8-53.8c14.4,0,27.5,5.7,37.2,15
		c-8.4,10.7-13.5,24.1-13.5,38.7c0,14.6,5.1,28.1,13.5,38.7c-9.7,9.3-22.8,15-37.2,15C34,146.9,9.9,122.8,9.9,93.1z M122.2,139.1
		c-7.5-4.6-13.8-10.9-18.3-18.4c0.5-0.3,1-0.6,1.4-1.1l71-71c0.5-0.5,0.8-1,1.1-1.6c7.6,4.6,14.1,11,18.6,18.6
		c-0.6,0.3-1.1,0.7-1.6,1.1L122.2,139.1z M164.4,41.4l-66.1,66.1c-1.3-4.6-2-9.4-2-14.4c0-29.6,24.1-53.8,53.8-53.8
		C155,39.4,159.8,40.1,164.4,41.4z M201.8,78.8c1.3,4.6,2,9.4,2,14.4c0,29.6-24.1,53.8-53.8,53.8c-5,0-9.8-0.7-14.4-2L201.8,78.8z
		 M208,116.5c2.2,3.9,6.4,6.6,11.3,6.6c7.2,0,13-5.8,13-13c0-7.2-5.8-13-13-13c-2.6,0-5,0.8-7,2.1c0.2-2,0.3-4,0.3-6.1
		c0-2-0.1-4-0.3-6c2,1.3,4.4,2.1,7,2.1c7.2,0,13-5.8,13-13c0-7.2-5.8-13-13-13c-4.8,0-9,2.7-11.3,6.6c-2.3-5.6-5.3-10.7-8.9-15.4
		c10.4-10,23.8-15,37.2-15c13.8,0,27.5,5.2,38,15.7c10.2,10.2,15.7,23.7,15.7,38s-5.6,27.9-15.7,38c-20.7,20.7-54.2,20.9-75.2,0.7
		C202.8,127.3,205.8,122.1,208,116.5z"/>
	<path class="st1" d="M101.7,171.5c-21-21-55.1-21-76,0h0c-21,21-21,55.1,0,76c21,21,55.1,21,76,0
		C122.7,226.6,122.7,192.5,101.7,171.5z M63.7,241.8c-17.8,0-32.3-14.4-32.3-32.3s14.4-32.3,32.3-32.3c17.8,0,32.3,14.4,32.3,32.3
		S81.5,241.8,63.7,241.8z"/>
	<path class="st2" d="M63.7,177.3c-17.8,0-32.3,14.4-32.3,32.3s14.4,32.3,32.3,32.3c17.8,0,32.3-14.4,32.3-32.3
		S81.5,177.3,63.7,177.3z"/>
	<path class="st2" d="M253.3,89.2c7.2,0,13-5.8,13-13c0-7.2-5.8-13-13-13c-7.2,0-13,5.8-13,13C240.3,83.3,246.1,89.2,253.3,89.2z"/>
	<path class="st2" d="M253.3,123.1c7.2,0,13-5.8,13-13c0-7.2-5.8-13-13-13c-7.2,0-13,5.8-13,13C240.3,117.3,246.1,123.1,253.3,123.1
		z"/>
</g>
</svg>
