<svg version="1.1" id="Camada_1" xmlns="http://www.w3.org/2000/svg" x="0" y="0" viewBox="0 0 100 100" xml:space="preserve"><style>.st2{fill:#f0f0f0}.st3{fill:#475669}</style><path fill="#00bc76" d="M20.1 10.1L7.9 22.3l67.4 67.5 12-12.7z"/><path fill="#f18e61" d="M67 20.8L81 35 32.2 85 17.4 70z"/><path class="st2" d="M17.3 72.3l-5 17.7 18.3-4.3zM76.9 10.9l-9.6 9.6 14.9 14.9 10.1-10.1c.1-.1-15.4-14.2-15.4-14.4z"/><path class="st3" d="M71.6 30.8c-.6-.6-1.7-.6-2.3 0L29.2 70.9c-.6.6-.6 1.7 0 2.3.3.3.7.5 1.2.5.4 0 .8-.2 1.2-.5l40.1-40.1c.5-.6.5-1.7-.1-2.3zm0 0c-.6-.6-1.7-.6-2.3 0L29.2 70.9c-.6.6-.6 1.7 0 2.3.3.3.7.5 1.2.5.4 0 .8-.2 1.2-.5l40.1-40.1c.5-.6.5-1.7-.1-2.3zm0 0c-.6-.6-1.7-.6-2.3 0L29.2 70.9c-.6.6-.6 1.7 0 2.3.3.3.7.5 1.2.5.4 0 .8-.2 1.2-.5l40.1-40.1c.5-.6.5-1.7-.1-2.3z"/><path class="st3" d="M93.5 23.9L78.3 8.8c-.6-.6-1.7-.6-2.3 0l-27 27L21.8 8.7c-.6-.6-1.7-.6-2.3 0l-13 13c-.6.6-.6 1.7 0 2.3l27.2 27.2-18.4 18.3c-.2.2-.3.3-.3.5 0 .1 0 .1-.1.2 0 .1-.1.1-.1.2l-4.3 19.5c-.1.6 0 1.1.4 1.5.3.3.7.5 1.2.5h.4L32 87.4c.1 0 .1 0 .2-.1.1 0 .1 0 .2-.1.2-.1.3-.2.5-.3l18.5-18.5 22.5 22.8c.3.3.7.5 1.2.5.4 0 .8-.2 1.1-.5l13-13c.6-.6.6-1.7 0-2.3L66.5 53.3l27.1-27.1c.6-.6.6-1.6-.1-2.3zM9.9 22.8l10.7-10.7 7.2 7.2-2.6 2.7c-.6.6-.6 1.7 0 2.3.3.3.7.5 1.2.5.4 0 .8-.2 1.2-.5l2.7-2.7 4.9 4.9-2.7 2.7c-.6.6-.6 1.7 0 2.3.3.3.7.5 1.2.5s.8-.2 1.2-.5l2.7-2.7 9.2 9.2L36 48.8l-26.1-26zm4.3 65.3L17.4 74l11 11-14.2 3.1zm54.9-27.5l-2.7 2.7c-.6.6-.6 1.7 0 2.3.3.3.7.5 1.2.5s.8-.2 1.2-.5l2.7-2.7 4.9 4.9-2.7 2.7c-.6.6-.6 1.7 0 2.3.3.3.7.5 1.2.5.4 0 .8-.2 1.2-.5l2.7-2.7 7 7L75 87.8 53.6 66.2l10.6-10.6 4.9 5zm-37.5 23L18.7 70.7 67 22.4l12.9 12.9-48.3 48.3zM82.2 33L69.3 20.1l7.9-7.9 12.9 12.9-7.9 7.9z"/></svg>