<svg width="59" height="50" viewBox="0 0 59 50" xmlns="http://www.w3.org/2000/svg" xmlns:xlink="http://www.w3.org/1999/xlink"><title>D99A54A5-066F-402F-AFB4-9B01916D2C11</title><defs><path id="a" d="M58.098 0H0v42.33h58.098z"/><path id="c" d="M0 0v33.702h58.098V0z"/></defs><g transform="translate(.827 .646)" fill="none" fill-rule="evenodd"><path d="M37.169 42.066s.35 2.9 2.377 4.818c.665.629.111 1.614-.899 1.614h-20.2c-1.01 0-1.564-.985-.9-1.614 2.029-1.919 2.378-4.818 2.378-4.818" fill="#BAD7DE"/><path d="M38.565 48.536h-20.2c-.932 0-1.738-.512-2.054-1.306-.283-.709-.102-1.486.47-2.027 1.73-1.637 2.07-4.19 2.074-4.215l1.977.24c-.016.13-.405 3.17-2.563 5.307a.477.477 0 0 0 .096.01h20.2a.48.48 0 0 0 .095-.01c-2.159-2.143-2.546-5.176-2.563-5.307l1.978-.24c.003.025.343 2.578 2.073 4.215.573.541.753 1.318.471 2.026-.315.794-1.122 1.307-2.054 1.307" fill="#475669"/><path d="M54.742 41.416H3.521a2.442 2.442 0 0 1-2.442-2.442V3.52A2.442 2.442 0 0 1 3.52 1.079h51.221a2.442 2.442 0 0 1 2.442 2.442v35.453a2.442 2.442 0 0 1-2.442 2.442" fill="#F3F3F3"/><mask id="b" fill="#fff"><use xlink:href="#a"/></mask><path d="M3.439 1.992c-.798 0-1.446.65-1.446 1.446V38.89c0 .798.648 1.447 1.446 1.447h51.22c.798 0 1.447-.65 1.447-1.447V3.438c0-.797-.649-1.446-1.447-1.446H3.44zm51.22 40.338H3.44A3.442 3.442 0 0 1 0 38.89V3.438A3.442 3.442 0 0 1 3.439 0h51.22a3.442 3.442 0 0 1 3.44 3.438V38.89a3.443 3.443 0 0 1-3.44 3.439z" fill="#475669" mask="url(#b)"/><path d="M57.184 32.79H1.08V3.52A2.442 2.442 0 0 1 3.52 1.08h51.221a2.442 2.442 0 0 1 2.442 2.442v29.268z" fill="#00C6DA" mask="url(#b)"/><mask id="d" fill="#fff"><use xlink:href="#c"/></mask><path d="M1.993 31.71h54.113V3.439c0-.797-.649-1.446-1.446-1.446H3.439c-.798 0-1.446.649-1.446 1.446V31.71zm56.105 1.993H0V3.438A3.442 3.442 0 0 1 3.439 0H54.66a3.442 3.442 0 0 1 3.438 3.438v30.265z" fill="#475669" mask="url(#d)"/><path d="M21.605 23.632c-.29 0-.577-.117-.785-.348l-4.365-4.808a1.061 1.061 0 0 1-.002-1.424l4.365-4.838a1.061 1.061 0 0 1 1.574 1.422L18.67 17.76l3.72 4.098a1.06 1.06 0 0 1-.785 1.773M35.577 23.632a1.06 1.06 0 0 1-.785-1.773l3.719-4.098-3.721-4.125a1.06 1.06 0 1 1 1.574-1.422l4.365 4.838c.365.405.364 1.02-.002 1.424l-4.365 4.808a1.055 1.055 0 0 1-.785.348M25.869 24.17a1.06 1.06 0 0 1-.964-1.501l5.139-11.262a1.06 1.06 0 1 1 1.93.88l-5.14 11.263c-.178.39-.562.62-.965.62" fill="#475669" mask="url(#d)"/></g></svg>