<svg width="56" height="55" viewBox="0 0 56 55" xmlns="http://www.w3.org/2000/svg" xmlns:xlink="http://www.w3.org/1999/xlink"><title>76C1FDC5-7D88-4EE4-903F-A424A0382D54</title><defs><path id="a" d="M.203.169h9.12v31.643H.204V.17z"/><path id="c" d="M.024 6.667H32V.599H.024v6.068z"/></defs><g fill="none" fill-rule="evenodd"><path d="M50.667 45.058H1.277c-1.211 0 2.115 4.39 3.327 4.39h43.741c1.212 0 3.534-4.39 2.322-4.39" fill="#F2F2F2"/><path d="M50.667 46.075h.006-.006zm-46 2.355h43.589c.441-.242 1.263-1.511 1.593-2.355H2.434c.613.925 1.744 2.17 2.233 2.355zm43.678 2.034H4.604c-1.24 0-4.604-3.186-4.604-5.14 0-.437.182-.725.336-.89.236-.253.57-.393.942-.393h49.389c.441 0 .837.198 1.084.543.181.25.273.56.273.918 0 1.478-1.925 4.962-3.68 4.962zM29.471 33.644a1.017 1.017 0 0 1-.505-1.9c.13-.076 3.275-1.946 3.49-5.84 0-2.165-1.369-3.78-2.953-5.65-1.881-2.219-4.014-4.734-4.136-8.763.032-6.278 4.936-9.23 5.145-9.352a1.016 1.016 0 1 1 1.03 1.753c-.187.113-4.116 2.527-4.142 7.573.1 3.282 1.907 5.414 3.654 7.474 1.69 1.994 3.436 4.054 3.433 7.022-.279 5.078-4.34 7.45-4.512 7.55-.159.09-.332.133-.504.133" fill="#475669"/><g transform="translate(17.333 .498)"><mask id="b" fill="#fff"><use xlink:href="#a"/></mask><path d="M4.308 31.812a1.017 1.017 0 0 1-.505-1.9c.13-.076 3.274-1.946 3.49-5.839 0-2.166-1.37-3.78-2.954-5.65C2.458 16.203.325 13.688.203 9.66.236 3.38 5.139.43 5.348.308A1.017 1.017 0 0 1 6.38 2.06c-.168.1-4.117 2.514-4.144 7.574.1 3.282 1.907 5.413 3.654 7.474C7.58 19.1 9.326 21.16 9.324 24.13c-.28 5.078-4.34 7.45-4.513 7.55-.158.09-.332.132-.503.132" fill="#475669" mask="url(#b)"/></g><path d="M40.152 49.447h-28.28a.83.83 0 0 0-.83.83l1.637 2.374c.33.497.855.83 1.466.83h23.854c.573 0 1.046-.373 1.34-.83l1.643-2.374a.83.83 0 0 0-.83-.83" fill="#F36461"/><g transform="translate(10 47.831)"><mask id="d" fill="#fff"><use xlink:href="#c"/></mask><path d="M30.152 2.633h.007-.007zm-27.747 0l1.111 1.61c.104.154.308.39.628.39H28c.185 0 .372-.188.486-.365l1.131-1.635H2.405zm25.594 4.034H4.144c-.914 0-1.778-.48-2.311-1.286L.204 3.023a1.016 1.016 0 0 1-.18-.577A1.85 1.85 0 0 1 1.871.6h28.281A1.85 1.85 0 0 1 32 2.446c0 .207-.063.409-.181.579l-1.643 2.373c-.513.796-1.313 1.269-2.176 1.269z" fill="#475669" mask="url(#d)"/></g><path d="M47.104 22.57H4.918s.365 22.488 21.093 22.488c21.628 0 21.093-22.488 21.093-22.488" fill="#A2C4F1"/><path d="M6 23.587c.164 1.843.728 5.874 2.636 9.846 3.381 7.039 9.227 10.608 17.375 10.608 5.943 0 10.686-1.768 14.096-5.255 4.979-5.089 5.817-12.534 5.955-15.199H6zm20.011 22.488c-21.48 0-22.107-23.253-22.11-23.488a1.014 1.014 0 0 1 1.016-1.034h42.187c.552 0 1.003.44 1.017.993.01.437.176 10.763-6.548 17.65-3.809 3.901-9.045 5.879-15.562 5.879z" fill="#475669"/><path d="M54.656 32.908a4.646 4.646 0 1 1-9.291 0 4.646 4.646 0 0 1 9.291 0" fill="#F2F2F2"/><path d="M50.01 29.28a3.632 3.632 0 0 0-3.628 3.628 3.633 3.633 0 0 0 3.628 3.63 3.633 3.633 0 0 0 3.63-3.63 3.632 3.632 0 0 0-3.63-3.629m0 9.292a5.67 5.67 0 0 1-5.662-5.663 5.67 5.67 0 0 1 5.662-5.663 5.67 5.67 0 0 1 5.663 5.663 5.67 5.67 0 0 1-5.663 5.663" fill="#475669"/></g></svg>