<?xml version="1.0" encoding="UTF-8"?>
<svg width="38px" height="60px" viewBox="0 0 30 48" version="1.1" xmlns="http://www.w3.org/2000/svg" xmlns:xlink="http://www.w3.org/1999/xlink">
    <!-- Generator: Sketch 40.3 (33839) - http://www.bohemiancoding.com/sketch -->
    <title>Desenvolvimento-na-Pratica-100x100</title>
    <desc>Created with Sketch.</desc>
    <defs></defs>
    <g id="Page-1" stroke="none" stroke-width="1" fill="none" fill-rule="evenodd">
        <g id="Artboard" transform="translate(-3.000000, -1.000000)">
            <g id="Desenvolvimento-na-Pratica-100x100" transform="translate(3.000000, 1.000000)">
                <g id="Camada_1">
                    <g id="Group">
                        <path d="M28.3636364,27.2262397 L13.4727273,45.4493802 C12,47.2933884 9.27272727,47.5645661 7.41818182,46.1002066 L5.78181818,44.7443182 C3.92727273,43.2257231 3.65454545,40.5681818 5.12727273,38.669938 L20.0181818,20.392562 C21.4909091,18.5485537 24.2181818,18.277376 26.1272727,19.7417355 L27.7636364,21.097624 C29.6181818,22.6704545 29.8909091,25.3822314 28.3636364,27.2262397 L28.3636364,27.2262397 Z" id="Shape" fill="#F16461"></path>
                        <path d="M7.30909091,11.3894628 C5.67272727,14.9690083 5.56363636,18.168905 7.47272727,21.097624 C9.76363636,24.2432851 13.8,24.5686983 16.4727273,21.7484504 C17.9454545,19.9044421 18.2181818,17.1384298 16.3090909,15.240186 C13.8,12.9080579 8.23636364,13.0707645 7.30909091,11.3894628 L7.30909091,11.3894628 Z" id="Shape" fill="#DFEDFC"></path>
                        <path d="M22.8545455,17.1384298 C22.8545455,17.1384298 20.6181818,16.5418388 19.2545455,13.8842975 L19.5818182,13.0707645 L18.6545455,12.4741736 C18.6545455,12.4741736 18.5454545,12.1487603 18.4909091,11.9860537 C17.1818182,7.15909091 18.2727273,1.35588843 20.4,1.13894628 C21.7636364,0.922004132 22.8545455,2.54907025 23.6727273,4.6642562 C23.7818182,4.88119835 23.8909091,5.36931818 23.8909091,5.36931818 L23.1272727,6.45402893 L24.3272727,6.77944215 C24.3272727,6.77944215 24.5454545,7.64721074 24.6545455,8.08109504 C24.7090909,8.29803719 24.8727273,9.3285124 24.9272727,9.54545455 C25.0363636,10.0335744 25.0909091,10.4674587 25.1454545,10.901343 C25.4727273,14.8605372 22.8545455,17.1384298 22.8545455,17.1384298 L22.8545455,17.1384298 Z" id="Shape" fill="#F3D0D0"></path>
                        <g id="Shape" fill="#475669">
                            <path d="M29.9454545,23.9721074 C29.7818182,22.5619835 29.0727273,21.206095 27.9272727,20.2840909 L26.8909091,19.4705579 C25.9636364,18.7112603 24.9272727,18.3316116 23.8363636,18.277376 L23.7272727,17.463843 C24.4909091,16.6503099 26.2363636,14.4266529 26.0181818,10.901343 C25.9636364,10.4674587 25.9090909,9.97933884 25.8,9.49121901 C25.7454545,9.22004132 25.5818182,8.18956612 25.5272727,7.97262397 C25.4181818,7.53873967 25.2,6.61673554 25.2,6.61673554 C25.0909091,6.34555785 24.9272727,6.07438017 24.6,6.02014463 L24.4363636,5.96590909 L24.6545455,5.74896694 C24.8181818,5.47778926 24.8181818,5.26084711 24.7636364,5.04390496 C24.7636364,5.04390496 24.6,4.50154959 24.4909091,4.28460744 C23.3454545,1.41012397 21.9818182,0.0542355372 20.3454545,0.325413223 C19.9090909,0.37964876 19.2,0.650826446 18.5454545,1.57283058 C17.0727273,3.74225207 16.7454545,8.40650826 17.7818182,12.1487603 C17.8363636,12.3114669 17.9454545,12.6911157 17.9454545,12.6911157 C18.0545455,12.9080579 18.1636364,13.0165289 18.2727273,13.125 L18.6545455,13.3419421 L18.4909091,13.5588843 C18.4363636,13.7215909 18.4363636,13.9927686 18.5454545,14.1554752 C19.6363636,16.2706612 21.2727273,17.1926653 22.0909091,17.572314 L22.2,18.3316116 C21.0545455,18.6027893 19.9090909,19.2536157 19.0909091,20.2298554 L17.6727273,21.9653926 C17.5636364,21.8569215 17.5090909,21.6942149 17.4,21.5857438 C18.8727273,19.3078512 18.7090909,16.4333678 16.8,14.5893595 C15.3272727,13.2334711 13.1454545,12.6911157 11.1272727,12.2029959 C9.81818182,11.8775826 8.18181818,11.4979339 7.90909091,10.9555785 C7.74545455,10.6844008 7.47272727,10.5216942 7.2,10.5216942 C6.92727273,10.5759298 6.65454545,10.6844008 6.54545455,11.009814 C4.69090909,14.9690083 4.8,18.4400826 6.76363636,21.5315083 C8.01818182,23.2670455 9.81818182,24.2975207 11.7272727,24.4059917 L12.1090909,24.4059917 C13.6363636,24.4059917 15.0545455,23.8636364 16.2545455,22.7789256 C16.3636364,22.9416322 16.4727273,23.1043388 16.5818182,23.2670455 L13.6909091,26.7923554 L11.7818182,26.5754132 C11.6181818,26.0872934 11.1818182,25.7618802 10.6363636,25.7076446 C10.1454545,25.6534091 9.65454545,25.8703512 9.32727273,26.1957645 L3.27272727,25.3822314 C3.05454545,24.9483471 2.67272727,24.6771694 2.18181818,24.5686983 C1.36363636,24.4602273 0.654545455,25.0025826 0.545454545,25.8161157 C0.436363636,26.6296488 0.981818182,27.3347107 1.8,27.4431818 C2.34545455,27.4974174 2.78181818,27.2804752 3.10909091,26.9008264 L9.10909091,27.7143595 L9.10909091,27.7143595 L5.29090909,31.1311983 C5.18181818,31.0769628 5.07272727,31.0769628 4.96363636,31.0227273 C4.14545455,30.9142562 3.43636364,31.4566116 3.32727273,32.2701446 C3.21818182,33.0836777 3.76363636,33.7887397 4.58181818,33.8972107 C5.4,34.0056818 6.10909091,33.4633264 6.21818182,32.6497934 L6.21818182,32.3243802 L10.4727273,28.5278926 C10.8545455,28.5278926 11.1818182,28.3109504 11.4545455,28.0940083 L12.6,28.2567149 L4.8,37.9106405 C3.87272727,39.0495868 3.43636364,40.5139463 3.6,41.9240702 C3.76363636,43.3884298 4.47272727,44.6900826 5.61818182,45.6120868 L6.65454545,46.4256198 C7.69090909,47.2933884 8.94545455,47.6730372 10.1454545,47.6730372 C11.7272727,47.6730372 13.3090909,46.9679752 14.4545455,45.6120868 L28.8,27.9855372 C29.6727273,26.9008264 30.1090909,25.4364669 29.9454545,23.9721074 L29.9454545,23.9721074 Z M10.4727273,46.1002066 C9.38181818,46.2086777 8.4,45.8832645 7.58181818,45.232438 L6.54545455,44.418905 C5.72727273,43.7680785 5.18181818,42.8460744 5.07272727,41.7613636 C4.96363636,40.6766529 5.29090909,39.7004132 5.94545455,38.8868802 L14.4,28.473657 L15.5454545,27.0635331 L17.2909091,24.8941116 L18.4909091,23.4297521 L20.2909091,21.2603306 C20.8363636,20.5552686 21.6,20.1213843 22.4181818,19.9044421 C22.7454545,19.8502066 23.0727273,19.7959711 23.4,19.7959711 C23.6181818,19.7959711 23.8363636,19.7959711 24.0545455,19.8502066 C24.7090909,19.9586777 25.3090909,20.2298554 25.8545455,20.6637397 L26.8909091,21.4772727 C27.7090909,22.1280992 28.2545455,23.0501033 28.3636364,24.134814 C28.4727273,25.2195248 28.1454545,26.1957645 27.4909091,27.0092975 L13.1454545,44.6358471 C12.4909091,45.4493802 11.5636364,45.9917355 10.4727273,46.1002066 L10.4727273,46.1002066 Z M20.0181818,12.3114669 L19.3636364,11.8775826 C19.3636364,11.8233471 19.3090909,11.714876 19.3090909,11.6606405 C18.3272727,8.08109504 18.8181818,3.90495868 19.9090909,2.3321281 C20.0727273,2.11518595 20.2909091,1.78977273 20.6181818,1.73553719 C21.3272727,1.62706612 22.2545455,2.7660124 23.0181818,4.77272727 C23.0727273,4.88119835 23.1272727,4.98966942 23.1818182,5.0981405 L22.5818182,5.96590909 C22.4181818,6.18285124 22.4181818,6.45402893 22.4727273,6.67097107 C22.5818182,6.88791322 22.7454545,7.10485537 23.0181818,7.15909091 L23.7272727,7.4302686 C23.7818182,7.64721074 23.8909091,8.0268595 23.8909091,8.24380165 C23.9454545,8.4607438 24.1090909,9.43698347 24.1636364,9.70816116 C24.2727273,10.1420455 24.3272727,10.5759298 24.3818182,10.9555785 C24.5454545,13.6673554 23.2909091,15.5113636 22.6363636,16.2164256 C22.0363636,15.9452479 20.9454545,15.240186 20.0727273,13.830062 L20.2909091,13.2334711 C20.4545455,12.9080579 20.2909091,12.5284091 20.0181818,12.3114669 L20.0181818,12.3114669 Z M15.3818182,19.7417355 C15.1636364,19.5790289 14.9454545,19.4705579 14.6727273,19.3078512 C14.4,18.4943182 14.4,17.6807851 14.6181818,17.0841942 C14.7818182,16.7045455 14.5636364,16.2164256 14.1818182,16.053719 C13.8,15.8910124 13.3090909,16.1079545 13.1454545,16.4876033 C12.9272727,17.0299587 12.8181818,17.6807851 12.8727273,18.3858471 C11.4,17.572314 9.87272727,16.4876033 9.32727273,14.7520661 C9.21818182,14.3181818 8.78181818,14.1012397 8.34545455,14.2097107 C7.90909091,14.3181818 7.69090909,14.7520661 7.8,15.1859504 C8.18181818,16.3791322 8.83636364,17.3553719 9.70909091,18.0604339 C9.38181818,18.1146694 9.21818182,18.2231405 9.16363636,18.2231405 C8.72727273,18.3858471 8.56363636,18.8739669 8.72727273,19.2536157 C8.89090909,19.5247934 9.16363636,19.7417355 9.43636364,19.7417355 C9.54545455,19.7417355 9.65454545,19.6875 9.70909091,19.6875 C9.70909091,19.6332645 10.7454545,19.2536157 11.6727273,19.4705579 C12.1636364,19.7417355 12.6,19.9586777 13.0363636,20.1756198 C13.2,20.2298554 13.3090909,20.2840909 13.4727273,20.392562 C13.5818182,20.5010331 13.6909091,20.5552686 13.8545455,20.6095041 C14.0727273,20.7179752 14.2363636,20.8264463 14.3454545,20.9349174 C14.3454545,20.9891529 14.4,20.9891529 14.4,20.9891529 C14.7272727,21.206095 15.0545455,21.4772727 15.3272727,21.6942149 C14.3454545,22.5077479 13.1454545,22.9416322 11.9454545,22.8331612 C10.4727273,22.7246901 9.10909091,21.911157 8.12727273,20.6095041 C6.6,18.277376 6.43636364,15.7283058 7.58181818,12.6368802 C8.4,13.125 9.54545455,13.3961777 10.8,13.7215909 C12.6,14.1554752 14.6181818,14.6978306 15.7090909,15.7283058 C17.1272727,17.1384298 17.0727273,19.0366736 16.3090909,20.4467975 C16.0363636,20.2298554 15.7090909,19.9586777 15.3818182,19.7417355 L15.3818182,19.7417355 Z"></path>
                            <path d="M23.0181818,13.7215909 L22.2545455,8.73192149 C22.1454545,8.29803719 21.7636364,8.0268595 21.3272727,8.08109504 C20.8909091,8.18956612 20.6181818,8.56921488 20.6727273,9.00309917 L21.4363636,13.9927686 C21.4909091,14.3724174 21.8181818,14.643595 22.2,14.643595 L22.3636364,14.643595 C22.7454545,14.535124 23.0727273,14.1554752 23.0181818,13.7215909 L23.0181818,13.7215909 Z"></path>
                        </g>
                    </g>
                </g>
            </g>
        </g>
    </g>
</svg>
