<?xml version="1.0" encoding="utf-8"?>
<!-- Generator: Adobe Illustrator 21.1.0, SVG Export Plug-In . SVG Version: 6.00 Build 0)  -->
<svg version="1.1" id="Camada_1" xmlns="http://www.w3.org/2000/svg" xmlns:xlink="http://www.w3.org/1999/xlink" x="0px" y="0px"
	 viewBox="0 0 100 100" style="enable-background:new 0 0 100 100;" xml:space="preserve" width="59px" height="60px">
<style type="text/css">
	.st0{fill:#83DBE5;}
	.st1{fill:#475669;}
	.st2{fill:#F1F1F1;}
	.st3{fill:#53D8CB;}
	.st4{fill:#00C5D9;}
	.st5{fill:#FFFFFF;}
</style>
<g>
	<g>
		<path class="st0" d="M63.9,77.3c0,0,0.6,4.7,3.8,7.8c1.1,1,0.2,2.6-1.5,2.6H50H33.7c-1.6,0-2.5-1.6-1.5-2.6
			c3.3-3.1,3.8-7.8,3.8-7.8"/>
		<path class="st1" d="M66.3,89.2H33.7c-1.5,0-2.7-0.8-3.2-2.1C30,86,30.3,84.8,31.2,84c2.8-2.7,3.4-6.8,3.4-6.8l3,0.4
			c0,0.2-0.7,5.2-4.2,8.6c0.1,0,0.2,0.1,0.3,0.1h32.6c0.1,0,0.2,0,0.3-0.1c-3.5-3.5-4.2-8.4-4.2-8.6l3-0.4c0,0,0.6,4.2,3.4,6.9
			c0.9,0.9,1.2,2.1,0.7,3.2C69,88.4,67.8,89.2,66.3,89.2z"/>
	</g>
	<g>
		<path class="st2" d="M91.7,77.3H8.3c-2,0-3.6-1.6-3.6-3.6V15.8c0-2,1.6-3.6,3.6-3.6h83.4c2,0,3.6,1.6,3.6,3.6v57.9
			C95.3,75.7,93.7,77.3,91.7,77.3z"/>
		<path class="st1" d="M91.7,78.8H8.3c-2.8,0-5.1-2.3-5.1-5.1V15.8c0-2.8,2.3-5.1,5.1-5.1h83.4c2.8,0,5.1,2.3,5.1,5.1v57.9
			C96.8,76.5,94.5,78.8,91.7,78.8z M8.3,13.7c-1.1,0-2.1,0.9-2.1,2.1v57.9c0,1.1,0.9,2.1,2.1,2.1h83.4c1.1,0,2.1-0.9,2.1-2.1V15.8
			c0-1.1-0.9-2.1-2.1-2.1H8.3z"/>
	</g>
	<g>
		<path class="st3" d="M95.3,63.4H4.7V15.8c0-2,1.6-3.6,3.6-3.6h83.4c2,0,3.6,1.6,3.6,3.6V63.4z"/>
		<path class="st1" d="M96.8,64.9H3.2V15.8c0-2.8,2.3-5.1,5.1-5.1h83.4c2.8,0,5.1,2.3,5.1,5.1V64.9z M6.2,61.8h87.5V15.8
			c0-1.1-0.9-2.1-2.1-2.1H8.3c-1.1,0-2.1,0.9-2.1,2.1V61.8z"/>
	</g>
	<g>
		<g>
			<g>
				<path class="st1" d="M58.4,32.1H40c-0.8,0-1.5-0.7-1.5-1.5S39.2,29,40,29h18.3c0.8,0,1.5,0.7,1.5,1.5S59.2,32.1,58.4,32.1z"/>
			</g>
			<g>
				<path class="st1" d="M60,32.1c-0.3,0-0.6-0.1-0.9-0.3l-5.3-4.1c-0.7-0.5-0.8-1.5-0.3-2.1c0.5-0.7,1.5-0.8,2.1-0.3l5.3,4.1
					c0.7,0.5,0.8,1.5,0.3,2.1C60.9,31.9,60.4,32.1,60,32.1z"/>
			</g>
			<g>
				<path class="st1" d="M54.6,36.1c-0.5,0-0.9-0.2-1.2-0.6c-0.5-0.7-0.4-1.6,0.3-2.1l5.3-4.1c0.7-0.5,1.6-0.4,2.1,0.3
					c0.5,0.7,0.4,1.6-0.3,2.1l-5.3,4.1C55.3,36,55,36.1,54.6,36.1z"/>
			</g>
		</g>
		<g>
			<g>
				<path class="st1" d="M60,46.5H41.6c-0.8,0-1.5-0.7-1.5-1.5s0.7-1.5,1.5-1.5H60c0.8,0,1.5,0.7,1.5,1.5S60.8,46.5,60,46.5z"/>
			</g>
			<g>
				<path class="st1" d="M40,46.5c-0.5,0-0.9-0.2-1.2-0.6c-0.5-0.7-0.4-1.6,0.3-2.1l5.3-4.1c0.7-0.5,1.6-0.4,2.1,0.3
					c0.5,0.7,0.4,1.6-0.3,2.1l-5.3,4.1C40.7,46.4,40.3,46.5,40,46.5z"/>
			</g>
			<g>
				<path class="st1" d="M45.4,50.6c-0.3,0-0.6-0.1-0.9-0.3l-5.3-4.1c-0.7-0.5-0.8-1.5-0.3-2.1c0.5-0.7,1.5-0.8,2.1-0.3l5.3,4.1
					c0.7,0.5,0.8,1.5,0.3,2.1C46.3,50.4,45.8,50.6,45.4,50.6z"/>
			</g>
		</g>
	</g>
	<g>
		<g>
			<path class="st2" d="M76,48.2h16.8c1.5,0,2.6,1.2,2.6,2.6v34.5c0,1.5-1.2,2.6-2.6,2.6H76c-1.5,0-2.6-1.2-2.6-2.6V50.9
				C73.3,49.4,74.5,48.2,76,48.2z"/>
			<path class="st1" d="M93,89.3H75.7c-2.1,0-3.8-1.7-3.8-3.8V50.6c0-2.1,1.7-3.8,3.8-3.8H93c2.1,0,3.8,1.7,3.8,3.8v34.9
				C96.8,87.6,95.1,89.3,93,89.3z M75.7,49.6c-0.6,0-1,0.5-1,1v34.9c0,0.6,0.5,1,1,1H93c0.6,0,1-0.5,1-1V50.6c0-0.6-0.5-1-1-1H75.7z
				"/>
		</g>
		<g>
			<rect x="73.3" y="54.4" class="st4" width="22.1" height="27.5"/>
			<path class="st1" d="M96.8,83.3H71.9V53h24.9V83.3z M74.7,80.5H94V55.7H74.7V80.5z"/>
		</g>
		<g>
			<circle class="st1" cx="84.3" cy="85" r="1.2"/>
		</g>
		<g>
			<line class="st5" x1="82.6" y1="51.4" x2="86.1" y2="51.4"/>
			<path class="st1" d="M86.1,52.3h-3.6c-0.5,0-0.9-0.4-0.9-0.9s0.4-0.9,0.9-0.9h3.6c0.5,0,0.9,0.4,0.9,0.9S86.6,52.3,86.1,52.3z"/>
		</g>
	</g>
</g>
</svg>
