<?xml version="1.0" encoding="utf-8"?>
<!-- Generator: Adobe Illustrator 22.0.1, SVG Export Plug-In . SVG Version: 6.00 Build 0)  -->
<svg version="1.1" id="Camada_1" xmlns="http://www.w3.org/2000/svg" xmlns:xlink="http://www.w3.org/1999/xlink" x="0px" y="0px"
	 viewBox="0 0 100 100" style="enable-background:new 0 0 100 100;" xml:space="preserve">
<style type="text/css">
	.st0{fill:#F1D348;}
	.st1{fill:#4A93E6;}
	.st2{fill:#F0F0F0;}
	.st3{fill:#475669;}
</style>
<g>
	<path class="st0" d="M49.2,32.2L60,13.4H38.3c-6.1,10.6-5.5,9.5-10.9,18.8H49.2z"/>
	<path class="st1" d="M51.7,33.7l10.9,18.8c6.5-11.3,3.8-6.5,10.9-18.8c-7.1-12.4-4.6-8-10.9-18.8L51.7,33.7z"/>
	<path class="st2" d="M44.6,43.1c0.7,1.2,5.6,9.7,6.3,10.9H60L49.2,35.1H27.4l4.6,7.9H44.6z"/>
	<polygon class="st0" points="69.7,46 63.4,56.9 50.8,56.9 50.8,56.9 46.3,64.9 68,64.9 78.9,46 	"/>
	<path class="st2" d="M30.3,64.9L41.2,46H19.4c-4.7,8.1-6,10.5-10.9,18.8H30.3z"/>
	<path class="st1" d="M41.2,86.6L30.3,67.8H8.6c5.3,9.3,4.9,8.5,10.9,18.8H41.2z"/>
	<path class="st2" d="M78.9,86.6L68,67.8H46.3c4.9,8.4,6,10.4,10.9,18.8H78.9z"/>
	<polygon class="st0" points="42,66.3 48.3,55.4 43.7,47.5 32.8,66.3 43.7,85.2 48.3,77.2 	"/>
	<path class="st1" d="M81.4,47.5L70.5,66.3l10.9,18.8c6.3-10.9,3.1-5.4,10.9-18.8C84.2,52.3,87.7,58.3,81.4,47.5z"/>
	<path class="st3" d="M82.3,43.1H71.4l5.4-9.4c-5.3-9.2-7.1-12.3-13.4-23.2H36.6c-8.1,14-6.2,10.7-13.4,23.2l5.4,9.4H17.7
		C9,58.2,12.2,52.7,4.3,66.3c8.4,14.5,5.5,9.6,13.4,23.2h26.8l5.4-9.4c0.9,1.5,4.7,8.2,5.4,9.4h26.8c7.8-13.5,6-10.4,13.4-23.2
		C91.4,59,89.1,55,82.3,43.1z M46.3,64.9l4.6-7.9l0,0h12.6L69.7,46h9.2L68,64.9H46.3z M62.6,52.5L51.7,33.7l10.9-18.8
		c6.3,10.8,3.7,6.5,10.9,18.8C66.3,46,69.1,41.2,62.6,52.5z M60,13.4L49.2,32.2H27.4c5.4-9.3,4.8-8.3,10.9-18.8H60z M49.2,35.1
		L60,54h-9.2c-0.7-1.2-5.6-9.7-6.3-10.9H32l-4.6-7.9H49.2z M41.2,46L30.3,64.9H8.6c4.8-8.4,6.2-10.7,10.9-18.8H41.2z M30.3,67.8
		l10.9,18.8H19.4c-5.9-10.3-5.5-9.6-10.9-18.8H30.3z M32.8,66.3l10.9-18.8l4.6,7.9L42,66.3l6.3,10.9l-4.6,7.9L32.8,66.3z M68,67.8
		l10.9,18.8H57.1c-4.9-8.5-6-10.4-10.9-18.8H68z M70.5,66.3l10.9-18.8c6.3,10.9,2.8,4.8,10.9,18.8c-7.8,13.5-4.6,7.9-10.9,18.8
		L70.5,66.3z"/>
</g>
</svg>
