<svg width="60" height="48" viewBox="0 0 60 48" xmlns="http://www.w3.org/2000/svg" xmlns:xlink="http://www.w3.org/1999/xlink"><title>81275432-47FC-43E7-88BA-746C4C319A31</title><defs><path id="a" d="M31.954.242H0v23.385h31.954V.242z"/><path id="c" d="M31.954.242H0v18.697h31.954V.242z"/></defs><g fill="none" fill-rule="evenodd"><path d="M20.662 23.184s.19 1.575 1.292 2.617c.362.342.06.877-.489.877H10.488c-.548 0-.85-.535-.488-.877 1.102-1.042 1.291-2.617 1.291-2.617" fill="#E0EEFD"/><path d="M21.45 26.334h.006-.005zm.015 1.077H10.488c-.585 0-1.093-.326-1.294-.83a1.179 1.179 0 0 1 .302-1.311c.888-.84 1.067-2.163 1.068-2.177a.731.731 0 1 1 1.454.178c-.008.068-.192 1.505-1.153 2.674l10.225.001c-.963-1.169-1.147-2.607-1.154-2.675a.731.731 0 0 1 .638-.814.726.726 0 0 1 .815.637c.003.03.186 1.341 1.068 2.176.37.349.485.85.303 1.31-.201.505-.71.831-1.295.831z" fill="#475669"/><path d="M29.49 23.184H2.463a1.732 1.732 0 0 1-1.732-1.732V2.995c0-.956.776-1.732 1.732-1.732H29.49c.957 0 1.732.776 1.732 1.732v18.457c0 .956-.775 1.732-1.732 1.732" fill="#F2F2F2"/><g transform="translate(0 .29)"><mask id="b" fill="#fff"><use xlink:href="#a"/></mask><path d="M2.299 1.706a.834.834 0 0 0-.834.834v18.788c0 .46.374.834.834.834h27.356c.46 0 .834-.374.834-.834V2.54a.834.834 0 0 0-.834-.834H2.299zm27.356 21.92H2.299A2.301 2.301 0 0 1 0 21.329V2.54A2.301 2.301 0 0 1 2.3.241h27.356a2.301 2.301 0 0 1 2.299 2.3v18.787a2.301 2.301 0 0 1-2.3 2.299z" fill="#475669" mask="url(#b)"/></g><path d="M30.33 18.496H1.624a.89.89 0 0 1-.89-.89V3c0-.96.777-1.737 1.735-1.737h27.017c.959 0 1.736.778 1.736 1.737v14.605a.89.89 0 0 1-.89.89" fill="#A2C4F1"/><g transform="translate(0 .29)"><mask id="d" fill="#fff"><use xlink:href="#c"/></mask><path d="M2.302 1.706a.838.838 0 0 0-.837.838V17.4c0 .04.032.073.073.073h28.878c.04 0 .073-.033.073-.073V2.544a.838.838 0 0 0-.838-.838H2.302zM30.416 18.94H1.538A1.54 1.54 0 0 1 0 17.4V2.544A2.305 2.305 0 0 1 2.302.24h27.35a2.305 2.305 0 0 1 2.302 2.303V17.4a1.54 1.54 0 0 1-1.538 1.538z" fill="#475669" mask="url(#d)"/></g><path d="M46.002 42.515s.234 1.938 1.59 3.22c.444.42.073 1.079-.602 1.079H33.49c-.676 0-1.046-.659-.602-1.08 1.356-1.281 1.589-3.219 1.589-3.219" fill="#F4D2D2"/><path d="M47.088 46.267h.005-.005zm-.098 1.279H33.488c-.65 0-1.214-.36-1.435-.916-.2-.499-.072-1.046.33-1.427 1.139-1.077 1.364-2.76 1.366-2.778a.732.732 0 0 1 1.454.177c-.01.087-.26 2.043-1.627 3.479h13.326c-1.366-1.437-1.616-3.392-1.627-3.479a.732.732 0 0 1 1.454-.176c.003.026.23 1.704 1.365 2.777.403.381.53.929.331 1.428-.221.556-.785.915-1.435.915z" fill="#475669"/><path d="M57.221 42.515H23.257a1.77 1.77 0 0 1-1.77-1.77V17.322c0-.977.793-1.769 1.77-1.769H57.22c.977 0 1.77.792 1.77 1.77v23.424a1.77 1.77 0 0 1-1.77 1.769" fill="#F2F2F2"/><path d="M23.087 16.285a.869.869 0 0 0-.867.867v23.763c0 .478.389.867.867.867h34.304c.478 0 .866-.389.866-.867V17.152a.868.868 0 0 0-.866-.867H23.087zm34.304 26.962H23.087a2.335 2.335 0 0 1-2.332-2.332V17.152a2.335 2.335 0 0 1 2.332-2.332h34.304a2.335 2.335 0 0 1 2.331 2.332v23.763a2.335 2.335 0 0 1-2.331 2.332z" fill="#475669"/><path d="M58.157 36.748H22.32a.834.834 0 0 1-.833-.833V17.298c0-.964.781-1.746 1.745-1.746h34.012c.964 0 1.745.782 1.745 1.746v18.617c0 .46-.373.833-.833.833" fill="#F36461"/><path d="M23.066 16.285a.846.846 0 0 0-.846.845v18.864l36.016.022c.012 0 .022-.01.022-.022V17.13a.846.846 0 0 0-.846-.845H23.066zm35.17 21.196H22.24c-.82 0-1.486-.667-1.486-1.487V17.13a2.314 2.314 0 0 1 2.31-2.31h34.347a2.314 2.314 0 0 1 2.31 2.31v18.864c0 .82-.666 1.487-1.486 1.487z" fill="#475669"/><path d="M35.35 24.468c.13.05.225.14.283.267a.503.503 0 0 1 .017.391l-1.71 4.488a.487.487 0 0 1-.293.294h-.011l-.005.005a.473.473 0 0 1-.076.017c-.004.004-.015.006-.033.006a.348.348 0 0 1-.114 0 .496.496 0 0 1-.109-.022c-.003 0-.005-.002-.005-.006h-.01a.47.47 0 0 1-.295-.294l-1.235-3.236-1.23 3.236a.47.47 0 0 1-.294.294h-.01c0 .004-.002.005-.005.005a.538.538 0 0 1-.109.023.34.34 0 0 1-.114 0c-.018 0-.03-.002-.033-.006a.485.485 0 0 1-.076-.017c-.004 0-.006-.001-.006-.005h-.011a.47.47 0 0 1-.293-.294l-1.709-4.488a.505.505 0 0 1 .017-.391.474.474 0 0 1 .282-.267.476.476 0 0 1 .387.011.496.496 0 0 1 .267.283l1.235 3.242 1.229-3.242a.139.139 0 0 1 .027-.05.488.488 0 0 1 .267-.244.487.487 0 0 1 .391.011.493.493 0 0 1 .267.283l1.23 3.242 1.235-3.242a.471.471 0 0 1 .266-.283l.19-.087.196.076M43.819 24.468c.13.05.225.14.283.267a.503.503 0 0 1 .016.391l-1.709 4.488a.487.487 0 0 1-.293.294h-.011l-.006.005a.473.473 0 0 1-.076.017c-.003.004-.014.006-.032.006a.348.348 0 0 1-.114 0 .496.496 0 0 1-.109-.022c-.004 0-.005-.002-.005-.006h-.011a.47.47 0 0 1-.294-.294l-1.235-3.236-1.23 3.236a.47.47 0 0 1-.294.294h-.01c0 .004-.003.005-.005.005a.538.538 0 0 1-.11.023.34.34 0 0 1-.114 0c-.018 0-.03-.002-.033-.006a.485.485 0 0 1-.076-.017c-.003 0-.005-.001-.005-.005h-.011a.47.47 0 0 1-.294-.294l-1.708-4.488a.505.505 0 0 1 .016-.391.474.474 0 0 1 .283-.267.476.476 0 0 1 .387.011.496.496 0 0 1 .266.283l1.235 3.242 1.23-3.242a.139.139 0 0 1 .027-.05.488.488 0 0 1 .266-.244.487.487 0 0 1 .392.011.493.493 0 0 1 .266.283l1.23 3.242 1.235-3.242a.471.471 0 0 1 .267-.283l.19-.087.196.076M52.287 24.468c.13.05.225.14.283.267a.503.503 0 0 1 .017.391l-1.709 4.488a.487.487 0 0 1-.294.294h-.011l-.005.005a.473.473 0 0 1-.076.017c-.004.004-.015.006-.033.006a.348.348 0 0 1-.114 0 .496.496 0 0 1-.109-.022c-.003 0-.005-.002-.005-.006h-.01a.47.47 0 0 1-.295-.294l-1.235-3.236-1.23 3.236a.47.47 0 0 1-.293.294h-.011c0 .004-.002.005-.005.005a.538.538 0 0 1-.109.023.34.34 0 0 1-.114 0c-.018 0-.03-.002-.033-.006a.485.485 0 0 1-.076-.017c-.004 0-.006-.001-.006-.005h-.011a.47.47 0 0 1-.293-.294l-1.708-4.488a.505.505 0 0 1 .016-.391.474.474 0 0 1 .282-.267.476.476 0 0 1 .387.011.496.496 0 0 1 .267.283l1.235 3.242 1.229-3.242a.139.139 0 0 1 .027-.05.488.488 0 0 1 .267-.244.487.487 0 0 1 .391.011.493.493 0 0 1 .267.283l1.23 3.242 1.235-3.242a.471.471 0 0 1 .266-.283l.19-.087.196.076" fill="#FFF"/><path d="M5.981 31.182a.733.733 0 0 1-.732-.732v-6.894a.733.733 0 0 1 1.464 0v6.894a.733.733 0 0 1-.732.732M21.487 40.224H10.545c-3.465 0-5.296-1.83-5.296-5.296V32.73a.733.733 0 0 1 1.465 0v2.198c0 2.686 1.145 3.831 3.83 3.831h10.943a.733.733 0 0 1 0 1.465" fill="#475669"/><path d="M8.284 31.182H3.678a.733.733 0 0 1 0-1.465h4.606a.733.733 0 0 1 0 1.465M9.604 33.463H2.358a.733.733 0 0 1 0-1.465h7.246a.733.733 0 0 1 0 1.465" fill="#475669"/></g></svg>