<svg width="50" height="55" viewBox="0 0 50 55" xmlns="http://www.w3.org/2000/svg"><title>C0012902-0B5A-4F56-9EEB-D3C2ACB81F26</title><g fill="none" fill-rule="evenodd"><path d="M15.094 17.15c3.154-3.405 8.45-3.632 11.887-.535L15.47 29.043c-3.35-3.19-3.53-8.489-.375-11.894zm18.17-7.317c-7.183-6.566-18.327-6.114-24.95 1.036-6.623 7.15-6.222 18.296.873 24.956l-8.104 8.75 7.328 6.788 40.286-43.49-7.33-6.79-8.104 8.75z" fill="#F48361"/><path d="M15.888 17.886c-2.476 2.673-2.585 6.75-.41 9.555l9.906-10.695c-2.96-1.954-7.018-1.534-9.496 1.14zm-.418 12.24c-.278 0-.546-.107-.748-.3-3.763-3.584-3.953-9.6-.423-13.412 3.53-3.812 9.545-4.084 13.407-.603a1.081 1.081 0 0 1 .07 1.54L16.264 29.778a1.084 1.084 0 0 1-.76.348h-.034zM2.613 44.516l5.74 5.316L47.166 7.93l-5.74-5.316-7.368 7.954a1.085 1.085 0 0 1-1.526.064C25.808 4.484 15.3 4.92 9.108 11.604c-6.19 6.684-5.824 17.196.82 23.432.434.407.458 1.088.054 1.525l-7.369 7.955zm5.798 7.93a1.08 1.08 0 0 1-.736-.288L.347 45.37a1.082 1.082 0 0 1-.06-1.531l7.395-7.983C.917 28.74.767 17.423 7.52 10.133c6.753-7.29 18.049-8.004 25.66-1.803L40.574.348a1.08 1.08 0 0 1 .753-.346c.284-.016.568.09.778.286l7.328 6.79c.44.406.465 1.092.06 1.53L9.205 52.098a1.08 1.08 0 0 1-.795.348z" fill="#475669"/><path d="M4.79 30.242a1.084 1.084 0 0 1-.363-2.104l3.39-1.21a1.083 1.083 0 0 1 .729 2.04l-3.391 1.21a1.07 1.07 0 0 1-.364.064M24.964 10.503a1.084 1.084 0 0 1-1.039-1.393l1.028-3.45a1.083 1.083 0 1 1 2.077.619L26 9.73c-.14.47-.57.774-1.036.774M10.756 14.215c-.263 0-.528-.096-.736-.289l-2.442-2.262a1.083 1.083 0 0 1 1.472-1.59l2.442 2.263a1.083 1.083 0 0 1-.736 1.878M13.468 46.987c-.263 0-.528-.096-.736-.29L10 44.168a1.083 1.083 0 1 1 1.471-1.59l2.733 2.532a1.083 1.083 0 0 1-.736 1.878M19.578 40.39c-.264 0-.528-.095-.736-.288L16.11 37.57a1.083 1.083 0 1 1 1.471-1.59l2.733 2.532a1.083 1.083 0 0 1-.736 1.878M25.688 33.795c-.264 0-.528-.096-.736-.289l-2.732-2.531a1.083 1.083 0 1 1 1.47-1.59l2.734 2.532a1.083 1.083 0 0 1-.736 1.878M31.797 27.199c-.263 0-.528-.096-.736-.289l-2.732-2.531a1.083 1.083 0 1 1 1.472-1.59l2.732 2.532a1.083 1.083 0 0 1-.736 1.878M37.907 20.603c-.263 0-.528-.096-.736-.289l-2.732-2.531a1.083 1.083 0 1 1 1.472-1.59l2.732 2.532a1.083 1.083 0 0 1-.736 1.878M44.017 14.007c-.263 0-.528-.096-.736-.289l-2.733-2.531a1.083 1.083 0 1 1 1.472-1.59l2.733 2.532a1.083 1.083 0 0 1-.736 1.878" fill="#475669"/><path d="M18.244 22.04c0-2.315 6.236-4.192 13.927-4.192s13.926 1.877 13.926 4.192v27.366c0 2.315-6.235 4.192-13.926 4.192s-13.927-1.877-13.927-4.192V22.04z" fill="#44BC79"/><path d="M32.17 18.931c-8.473 0-12.843 2.18-12.843 3.11v27.364c0 .93 4.37 3.11 12.844 3.11s12.843-2.18 12.843-3.11V22.04c0-.93-4.37-3.109-12.843-3.109m0 35.75c-7.23 0-15.01-1.65-15.01-5.276V22.04c0-3.624 7.78-5.275 15.01-5.275 7.229 0 15.009 1.651 15.009 5.275v27.365c0 3.625-7.78 5.276-15.01 5.276" fill="#475669"/><path d="M32.97 26.19c-6.18 0-13.617-1.165-15.477-4.266a1.083 1.083 0 0 1 1.857-1.113c1.356 2.258 9.764 3.74 17.302 3.056 5.414-.494 7.786-1.87 8.172-2.898a1.082 1.082 0 1 1 2.028.76c-1.085 2.895-6.04 3.933-10.004 4.295a43.033 43.033 0 0 1-3.877.166M32.35 34.999h-.066c-2.227-.003-13.42-.241-15.055-4.64a1.084 1.084 0 0 1 2.03-.755c.587 1.579 5.62 3.22 13.028 3.229h.068c7.482 0 12.14-1.662 12.728-3.232a1.082 1.082 0 1 1 2.028.76C45.829 33.781 38.658 35 32.349 35M32.35 45.257h-.066c-2.227-.003-13.42-.24-15.055-4.64a1.084 1.084 0 0 1 2.03-.755c.587 1.579 5.62 3.22 13.028 3.229h.068c7.482 0 12.14-1.662 12.728-3.231.21-.561.832-.845 1.394-.634.56.209.844.833.634 1.394-1.282 3.42-8.453 4.637-14.762 4.637" fill="#475669"/><path d="M41.994 28.099a.892.892 0 1 1 1.784 0 .892.892 0 0 1-1.784 0M41.994 47.353a.892.892 0 1 1 1.784 0 .892.892 0 0 1-1.784 0" fill="#437857"/><path d="M45.012 32.606v7.452c-.838 1.529-5.432 3.094-12.654 3.094h-.071c-7.2-.015-12.157-1.572-12.96-3.116v-7.444c3.807 2.264 11.192 2.414 12.96 2.414h.064c4.651 0 9.778-.664 12.661-2.4" fill="#F2F2F2"/><path d="M42.034 37.739a.892.892 0 1 1 1.784 0 .892.892 0 0 1-1.784 0" fill="#D4D4D4"/></g></svg>