<svg width="58" height="48" viewBox="0 0 58 48" xmlns="http://www.w3.org/2000/svg"><title>AB1DBCF6-251E-4AF9-8216-7D6C68157954</title><g fill="none" fill-rule="evenodd"><path fill="#0096EC" d="M45.703 24.157h-11.22V35.46H23.265v11.303H45.703V35.46h11.219V24.157z"/><path d="M24.049 45.973h20.87V35.46c0-.436.35-.79.783-.79h10.435v-9.723h-20.87V35.46c0 .436-.35.79-.784.79H24.049v9.723zm21.653 1.58H23.265a.786.786 0 0 1-.784-.79V35.46c0-.436.35-.79.784-.79h10.434V24.158c0-.437.351-.79.784-.79H56.92c.434 0 .784.353.784.79V35.46c0 .436-.35.79-.784.79H46.486v10.513c0 .437-.35.79-.784.79z" fill="#475669"/><path fill="#F2D448" d="M12.002 35.45V12.846h11.219V46.754H.783V35.451z"/><path d="M1.568 45.964h20.87V13.635h-9.652v21.816c0 .436-.35.79-.784.79H1.568v9.723zm21.653 1.58H.784a.786.786 0 0 1-.784-.79V35.45c0-.437.35-.79.784-.79h10.434V12.846c0-.436.351-.79.784-.79h11.22c.433 0 .783.354.783.79v33.909c0 .436-.35.79-.784.79z" fill="#475669"/><path fill="#EBEBEB" d="M34.538 24.2H45.74V12.899H34.538V1.58h-11.22v33.908h11.22z"/><path d="M24.103 34.699h9.65V24.2c0-.436.352-.79.784-.79h10.42v-9.722h-10.42a.787.787 0 0 1-.783-.79V2.369h-9.651V34.7zm10.434 1.58H23.32a.786.786 0 0 1-.784-.79V1.579c0-.436.35-.789.784-.789h11.218c.434 0 .784.353.784.79v10.528h10.42c.433 0 .784.353.784.79V24.2c0 .437-.35.79-.784.79H35.32v10.499c0 .436-.35.79-.784.79z" fill="#475669"/></g></svg>