<?xml version="1.0" encoding="utf-8"?>
<!-- Generator: Adobe Illustrator 22.1.0, SVG Export Plug-In . SVG Version: 6.00 Build 0)  -->
<svg version="1.1" id="Camada_1" xmlns="http://www.w3.org/2000/svg" xmlns:xlink="http://www.w3.org/1999/xlink" x="0px" y="0px"
	 viewBox="0 0 100 100" style="enable-background:new 0 0 100 100;" xml:space="preserve">
<style type="text/css">
	.st0{fill:#F0F0F0;}
	.st1{fill:#00BC76;}
	.st2{fill:#F18E61;}
	.st3{fill:#475669;}
</style>
<g>
	<g>
		<g>
			<g>
				<path class="st0" d="M36.8,31.3c-0.3,0-0.5-0.1-0.7-0.3L23.6,18.5c-0.2-0.2-0.3-0.5-0.3-0.7c0-0.3,0.1-0.5,0.4-0.7
					C39,4.8,60.6,4.7,76,16.8c0.2,0.2,0.4,0.4,0.4,0.7c0,0.3-0.1,0.6-0.3,0.8L63.6,30.8c-0.3,0.3-0.8,0.4-1.2,0.1
					c-7.7-5-17.5-4.9-25.1,0.2C37.1,31.2,36.9,31.3,36.8,31.3z"/>
				<path class="st1" d="M82.2,76.7c-0.3,0-0.5-0.1-0.7-0.3L69,63.9c-0.3-0.3-0.4-0.9-0.1-1.2c5.1-7.6,5.2-17.4,0.2-25
					c-0.3-0.4-0.2-0.9,0.1-1.2l12.5-12.5c0.2-0.2,0.5-0.3,0.8-0.3c0.3,0,0.5,0.2,0.7,0.4c12.1,15.5,12,37-0.3,52.3
					C82.8,76.6,82.5,76.7,82.2,76.7C82.2,76.7,82.2,76.7,82.2,76.7z"/>
				<path class="st0" d="M50,92.2c-9.2,0-18.4-3-26-9c-0.2-0.2-0.4-0.4-0.4-0.7c0-0.3,0.1-0.6,0.3-0.8l12.5-12.5
					c0.3-0.3,0.8-0.4,1.2-0.1c7.4,4.8,17,4.8,24.4,0.2c0.4-0.2,0.9-0.2,1.2,0.1L75.8,82c0.2,0.2,0.3,0.5,0.3,0.8
					c0,0.3-0.2,0.5-0.4,0.7C68.1,89.3,59,92.2,50,92.2z"/>
				<path class="st2" d="M17.6,76.4C17.6,76.4,17.5,76.4,17.6,76.4c-0.3,0-0.6-0.2-0.8-0.4C4.9,60.9,4.7,39.6,16.5,24.3
					c0.2-0.2,0.4-0.4,0.7-0.4c0.3,0,0.6,0.1,0.8,0.3l12.5,12.5c0.3,0.3,0.4,0.8,0.1,1.2C26,45.4,26.1,55,30.9,62.4
					c0.3,0.4,0.2,0.9-0.1,1.2L18.3,76.2C18.1,76.3,17.8,76.4,17.6,76.4z"/>
			</g>
		</g>
	</g>
	<path class="st3" d="M84.4,23.1c-0.4-0.6-1.1-0.9-1.8-1c-0.7-0.1-1.4,0.2-1.9,0.7L76,27.6c-1.1-1.2-2.2-2.4-3.5-3.5l4.7-4.7
		c0.5-0.5,0.8-1.2,0.7-1.9c0-0.7-0.4-1.4-1-1.8C60.9,3,38.6,3.1,22.7,15.9c-0.6,0.4-0.9,1.1-0.9,1.8c0,0.7,0.2,1.4,0.7,1.9l4.7,4.7
		c-1.2,1.1-2.4,2.3-3.4,3.5l-4.7-4.7c-0.5-0.5-1.2-0.8-1.9-0.7c-0.7,0-1.4,0.4-1.8,1C3.1,39.2,3.2,61.3,15.6,77
		c0.4,0.6,1.1,0.9,1.8,1c0,0,0.1,0,0.1,0c0.7,0,1.3-0.3,1.8-0.7l4.8-4.8c1.1,1.2,2.2,2.4,3.5,3.5l-4.8,4.8c-0.5,0.5-0.8,1.2-0.7,1.9
		c0,0.7,0.4,1.4,1,1.8c7.7,6,17.2,9.3,26.9,9.3c0,0,0,0,0,0c9.6,0,19-3.2,26.6-9.1c0.6-0.4,0.9-1.1,1-1.8c0-0.7-0.2-1.4-0.7-1.9
		l-4.7-4.7c1.3-1.1,2.4-2.2,3.5-3.4l4.7,4.7c0.5,0.5,1.1,0.7,1.8,0.7c0,0,0.1,0,0.1,0c0.7,0,1.4-0.4,1.8-0.9
		C96.9,61.4,97,39.1,84.4,23.1z M25.1,17.9C39.7,6.5,59.9,6.4,74.6,17.7l-4.5,4.5c-5.6-4.1-12.6-6.5-20.1-6.5
		c-7.6,0-14.7,2.5-20.4,6.7L25.1,17.9z M67.9,24.4l-5,5c-8-5-18.1-4.9-26,0.2l-5-5c5.1-3.7,11.4-5.9,18.2-5.9
		C56.6,18.7,62.8,20.8,67.9,24.4z M17.6,74.6c-11-14.4-11.1-34.4-0.2-48.9l4.6,4.6C18,35.9,15.7,42.7,15.7,50
		c0,7.5,2.4,14.4,6.5,20.1L17.6,74.6z M24.4,67.9c-3.6-5.1-5.6-11.2-5.6-17.9c0-6.5,2-12.5,5.4-17.5l5,5c-4.7,7.8-4.6,17.7,0.2,25.4
		L24.4,67.9z M74.3,82.6c-7.1,5.3-15.5,8.1-24.3,8.1c0,0,0,0,0,0c-8.8,0-17.5-2.9-24.6-8.3l4.6-4.6c5.6,4.1,12.5,6.5,20,6.5
		c7.3,0,14.1-2.3,19.7-6.3L74.3,82.6z M32.2,75.7l5-5c7.7,4.8,17.5,4.8,25.3,0.2l5,5c-5,3.4-11,5.4-17.5,5.4
		C43.4,81.3,37.2,79.2,32.2,75.7z M70,74l-5.6-5.6c-0.8-0.8-2.1-1-3.1-0.4c-7,4.4-15.9,4.3-22.8-0.2c-1-0.6-2.3-0.5-3.1,0.3
		l-5.6,5.6c-1.2-1.1-2.4-2.2-3.5-3.5l5.6-5.6c0.8-0.8,1-2.2,0.3-3.1c-4.5-6.9-4.6-15.9-0.2-22.8c0.6-1,0.5-2.3-0.4-3.1L26,30
		c1.1-1.3,2.2-2.4,3.4-3.5l5.6,5.6c0.5,0.5,1.1,0.7,1.8,0.7c0.5,0,1-0.1,1.4-0.4c7.1-4.8,16.3-4.8,23.4-0.2c1,0.6,2.3,0.5,3.1-0.3
		l5.6-5.6c1.2,1.1,2.4,2.2,3.5,3.5l-5.6,5.6c-0.8,0.8-1,2.1-0.3,3.1c4.6,7.1,4.5,16.3-0.2,23.4c-0.7,1-0.5,2.3,0.3,3.2l5.6,5.6
		C72.4,71.8,71.3,73,70,74z M75.4,68.2l-5-5c5.1-7.9,5.2-18,0.2-26l5-5c3.5,5.1,5.6,11.2,5.6,17.8C81.3,56.8,79.1,63.1,75.4,68.2z
		 M82.1,74.9l-4.5-4.5c4.2-5.7,6.7-12.7,6.7-20.4c0-7.5-2.4-14.4-6.5-20l4.5-4.5C93.6,40.2,93.5,60.3,82.1,74.9z"/>
</g>
</svg>
