<svg width="54" height="63" viewBox="0 0 54 63" xmlns="http://www.w3.org/2000/svg"><title>E73EB5E1-9220-4604-A458-89E4A00C4978</title><g fill="none" fill-rule="evenodd"><path d="M24.554 2.867c1.43-1.176 2.92-1.155 4.497 0l21.892 14.186c.867.907 1.318 2.106 1.284 3.644v21.614c.02 1.69-.375 3.014-1.339 3.838l-21.74 14.37c-1.624 1.194-3.13 1.254-4.693 0L2.843 46.112c-1.176-1.234-1.66-2.23-1.63-3.841V20.737c.034-2.272.07-2.445 1.252-3.545L24.554 2.867z" fill="#00A385"/><path d="M24.554 2.868h.008-.008zM3.63 45.184l21.498 14.33c.03.019.059.04.087.063 1.091.877 1.993.867 3.216-.032L50.15 45.188c.59-.542.881-1.504.866-2.863V20.696c.025-1.148-.257-2.03-.86-2.714L28.39 3.881c-1.206-.881-2.078-.894-3.067-.08a1.23 1.23 0 0 1-.11.08l-22 14.266c-.761.711-.763.77-.79 2.61V42.27c-.023 1.206.261 1.9 1.206 2.913zm23.136 17.46c-1.22 0-2.252-.538-3.025-1.149L2.17 47.117a1.213 1.213 0 0 1-.205-.173C.758 45.677-.038 44.394.001 42.25V20.738c.038-2.436.1-2.997 1.638-4.43.05-.047.107-.091.166-.13L23.84 1.89c1.822-1.465 3.924-1.464 5.927.004l21.836 14.145c.079.051.152.112.217.18 1.113 1.167 1.658 2.682 1.618 4.504v21.588c.024 2.13-.568 3.735-1.762 4.755a1.198 1.198 0 0 1-.119.09l-21.739 14.37c-1.105.812-2.131 1.118-3.052 1.118z" fill="#475669"/><path d="M25.87 20.397c.562-.462 1.145-.453 1.765 0l8.589 5.565c.34.357.516.827.503 1.43v8.48c.007.663-.147 1.183-.525 1.506l-8.53 5.637c-.637.47-1.228.493-1.84 0l-8.48-5.652c-.461-.484-.65-.875-.64-1.507v-8.448c.015-.891.028-.96.492-1.39l8.666-5.62z" fill="#55BEFE"/><path d="M25.87 20.397h.008-.008zm-7.725 16.041l8.359 5.573c.03.02.06.04.087.063a.484.484 0 0 0 .152.094c.004-.003.083-.03.211-.126l8.477-5.604c.035-.058.089-.221.085-.553v-8.493c.006-.272-.045-.421-.105-.515l-8.436-5.466a1.015 1.015 0 0 0-.247-.146c-.005.006-.037.024-.087.065a1.23 1.23 0 0 1-.11.08l-8.58 5.564-.016.014c-.007.12-.01.312-.011.44v8.428c-.004.235.006.34.221.582zm8.596 8.147c-.556 0-1.112-.197-1.622-.592l-8.439-5.625a1.178 1.178 0 0 1-.205-.172c-.699-.733-.99-1.439-.974-2.361v-8.427c.017-1.101.093-1.546.877-2.275.052-.047.107-.09.166-.13l8.616-5.586c.977-.767 2.136-.766 3.191.006l8.532 5.527c.08.05.153.111.218.18.567.595.857 1.385.837 2.289v8.453c.012 1.056-.307 1.876-.95 2.424a1.434 1.434 0 0 1-.117.09l-8.53 5.636c-.505.374-1.053.563-1.6.563z" fill="#475669"/></g></svg>