<svg width="47" height="49" viewBox="0 0 47 49" xmlns="http://www.w3.org/2000/svg" xmlns:xlink="http://www.w3.org/1999/xlink"><title>DEAFB558-6B36-4DB0-8527-83D6C1B585EB</title><defs><path id="a" d="M38.441 18.8H.368V.52h38.073z"/><path id="c" d="M46.412.522V13.16H0V.522h46.412z"/><path id="e" d="M46.412.452V13.09H0V.452h46.412z"/><path id="g" d="M46.412.247v12.639H0V.247z"/></defs><g fill="none" fill-rule="evenodd"><path d="M41.108 31.064V41.76c0 2.977-8.036 5.395-17.943 5.395-9.907 0-17.942-2.418-17.942-5.395V31.064c4.01 1.9 10.553 3.4 17.942 3.4 7.39 0 13.933-1.5 17.943-3.4" fill="#F2F2F2"/><g transform="translate(3.76 29.45)"><mask id="b" fill="#fff"><use xlink:href="#a"/></mask><path d="M2.557 3.278v9.032c0 1.502 5.786 4.301 16.848 4.301 11.061 0 16.848-2.8 16.848-4.3V3.277C31.711 5.064 25.564 6.11 19.405 6.11 13.246 6.11 7.1 5.064 2.557 3.278M19.405 18.8C9.945 18.8.368 16.57.368 12.31V1.614c0-.374.193-.723.51-.924A1.1 1.1 0 0 1 1.932.626C6.283 2.689 12.815 3.92 19.405 3.92S32.526 2.689 36.88.626a1.096 1.096 0 0 1 1.563.989V12.31c0 4.26-9.577 6.49-19.037 6.49" fill="#475669" mask="url(#b)"/></g><path d="M41.108 18.696v12.367s-8.036 4.115-17.943 4.115c-9.907 0-17.942-3.816-17.942-3.816V18.696c4.01 1.9 10.553 3.4 17.942 3.4 7.39 0 13.933-1.5 17.943-3.4" fill="#A2C4F1"/><path d="M6.317 30.647c2.046.858 8.865 3.437 16.848 3.437 8.006 0 14.84-2.803 16.848-3.714V20.36c-4.542 1.786-10.689 2.831-16.848 2.831-6.159 0-12.306-1.045-16.848-2.831v10.288zm16.848 5.625c-10.038 0-18.075-3.76-18.411-3.92a1.096 1.096 0 0 1-.626-.99V18.695a1.096 1.096 0 0 1 1.564-.988c4.351 2.063 10.883 3.295 17.473 3.295s13.121-1.232 17.474-3.295a1.096 1.096 0 0 1 1.562.988v12.368c0 .411-.23.788-.595.974-.338.173-8.385 4.235-18.44 4.235z" fill="#475669"/><g transform="translate(0 35.09)"><mask id="d" fill="#fff"><use xlink:href="#c"/></mask><path d="M23.206 13.16C11.06 13.16 0 9.127 0 4.699 0 3.119 1.302 1.745 3.87.615a1.094 1.094 0 1 1 .882 2.003c-1.89.831-2.563 1.62-2.563 2.08 0 2.148 8.875 6.273 21.017 6.273 12.143 0 21.017-4.125 21.017-6.272 0-.46-.673-1.25-2.564-2.082A1.094 1.094 0 1 1 42.54.615c2.569 1.13 3.872 2.504 3.872 4.084 0 4.428-11.06 8.461-23.206 8.461" fill="#475669" mask="url(#d)"/></g><path d="M41.108 6.496V19.66c-4.01 1.909-10.553 3.408-17.943 3.408-7.39 0-13.932-1.5-17.942-3.408V6.496c0-2.984 8.035-5.402 17.942-5.402s17.943 2.418 17.943 5.402" fill="#F36461"/><path d="M41.107 19.66h.007-.007zm-34.79-.704c4.331 1.896 10.56 3.017 16.848 3.017 6.288 0 12.517-1.121 16.848-3.017V6.496c0-1.226-5.011-4.308-16.848-4.308-11.836 0-16.848 3.082-16.848 4.309v12.46zm16.848 5.205c-6.906 0-13.789-1.313-18.412-3.514a1.093 1.093 0 0 1-.624-.988V6.497C4.129 2.23 13.705 0 23.165 0s19.036 2.231 19.036 6.497v13.162c0 .422-.243.807-.624.988-4.623 2.2-11.506 3.514-18.412 3.514z" fill="#475669"/><g transform="translate(0 23.182)"><mask id="f" fill="#fff"><use xlink:href="#e"/></mask><path d="M23.206 13.09C11.06 13.09 0 9.057 0 4.63 0 3.05 1.302 1.675 3.87.544a1.093 1.093 0 1 1 .882 2.002C2.862 3.38 2.19 4.17 2.19 4.63c0 2.148 8.875 6.272 21.017 6.272 12.143 0 21.017-4.124 21.017-6.272 0-.46-.673-1.25-2.564-2.082A1.093 1.093 0 1 1 42.54.545c2.569 1.13 3.872 2.505 3.872 4.084 0 4.428-11.06 8.461-23.206 8.461" fill="#475669" mask="url(#f)"/></g><g transform="translate(0 11.276)"><mask id="h" fill="#fff"><use xlink:href="#g"/></mask><path d="M23.206 12.886C11.06 12.886 0 8.853 0 4.425 0 2.845 1.302 1.471 3.87.341a1.095 1.095 0 0 1 .882 2.002c-1.89.832-2.563 1.621-2.563 2.082 0 2.148 8.875 6.272 21.017 6.272 12.143 0 21.017-4.124 21.017-6.272 0-.46-.673-1.25-2.564-2.082A1.093 1.093 0 1 1 42.54.34c2.569 1.13 3.872 2.505 3.872 4.085 0 4.428-11.06 8.46-23.206 8.46" fill="#475669" mask="url(#h)"/></g><path d="M24.173 12.193c-7.999 0-17.513-1.454-19.884-5.345a1.094 1.094 0 0 1 1.867-1.14c1.842 3.02 13.056 5.002 23.073 4.08 5.985-.551 10.145-2.055 10.856-3.924a1.094 1.094 0 0 1 2.045.78c-1.426 3.744-8.569 4.942-12.7 5.322a57.965 57.965 0 0 1-5.257.227" fill="#475669"/><g fill="#D4D4D4"><path d="M35.586 15.065a.897.897 0 1 1 1.794 0 .897.897 0 0 1-1.794 0M35.586 27.065a.897.897 0 1 1 1.794.001.897.897 0 0 1-1.794 0M35.586 38.723a.897.897 0 1 1 1.794 0 .897.897 0 0 1-1.794 0"/></g></g></svg>