<svg width="55" height="70" viewBox="0 0 55 70" xmlns="http://www.w3.org/2000/svg" xmlns:xlink="http://www.w3.org/1999/xlink"><title>DE3B661B-0D55-4A2B-99C6-B26720117A73</title><defs><path id="a" d="M0 .519v30.41h38.436V.518H0z"/><path id="c" d="M11.81.384h11.48v37.6H.33V.384z"/></defs><g fill="none" fill-rule="evenodd"><path d="M33.127 39.683c2.353 0 4.26 6.339 4.26 14.156 0 7.818-1.907 14.156-4.26 14.156H5.31c-2.353 0-4.26-6.338-4.26-14.156 0-7.817 1.907-14.156 4.26-14.156h27.817z" fill="#7B7AB6"/><g transform="translate(0 38.116)"><mask id="b" fill="#fff"><use xlink:href="#a"/></mask><path d="M5.31 2.616c-1.132 0-3.213 4.977-3.213 13.107 0 8.132 2.08 13.108 3.213 13.108h27.816c1.133 0 3.213-4.976 3.213-13.108 0-8.13-2.08-13.107-3.213-13.107H5.31zm27.816 28.312H5.31C1.661 30.928 0 23.046 0 15.723S1.66.519 5.31.519h27.816c3.649 0 5.31 7.881 5.31 15.204s-1.661 15.205-5.31 15.205z" fill="#475669" mask="url(#b)"/></g><path d="M33.83 68.78c-.123 0-.248-.021-.369-.067-4.2-1.575-4.514-11.303-4.51-14.248.01-6.441 1.29-14.434 4.867-15.764a1.05 1.05 0 0 1 .73 1.966c-1.674.622-3.489 6.075-3.5 13.801-.01 7.284 1.577 11.692 3.149 12.282a1.048 1.048 0 0 1-.368 2.03" fill="#475669"/><path d="M25.055 39.683c-5.212 1.937-5.452 26.269 0 28.312" fill="#7B7AB6"/><path d="M25.055 69.044c-.123 0-.247-.021-.368-.067-3.464-1.298-4.689-8.614-4.68-15.026.01-6.235 1.24-13.971 4.683-15.25a1.05 1.05 0 0 1 .73 1.966c-1.621.602-3.305 5.736-3.316 13.286-.01 6.733 1.418 12.348 3.319 13.06a1.048 1.048 0 0 1-.368 2.031" fill="#475669"/><path d="M14.627 39.683c-5.212 1.937-5.452 26.269 0 28.312" fill="#7B7AB6"/><path d="M14.628 69.044c-.123 0-.247-.021-.368-.067-3.465-1.298-4.689-8.613-4.68-15.025.008-6.236 1.24-13.971 4.682-15.251a1.05 1.05 0 0 1 .73 1.966c-1.621.603-3.305 5.737-3.316 13.288-.01 6.732 1.418 12.346 3.32 13.059a1.048 1.048 0 0 1-.368 2.03" fill="#475669"/><path d="M20.065 4.435h12.022c5.349 0 9.684 4.336 9.684 9.684v15.594c0 5.349-1.71 9.684-7.059 9.684h-7.535c-3.99.06-5.005 2.91-5.55 7.296-.595 4.904-.783 9.24-.242 13.633.277 2.346 1.67 7.944 3.67 7.669H14.626c-7.137-4.67-4.023-34.506-4.247-38.282V14.119c0-5.348 4.336-9.684 9.685-9.684" fill="#769CBE"/><path d="M14.962 66.947h7.283c-1.15-2.112-1.757-5.27-1.902-6.498-.501-4.075-.427-8.358.243-13.882.49-3.937 1.442-8.141 6.576-8.218l7.551-.001c4.044 0 6.01-2.824 6.01-8.635V14.119c0-4.762-3.874-8.636-8.636-8.636H20.064c-4.761 0-8.635 3.874-8.635 8.636v15.594c.044.707-.033 2.358-.141 4.643-.404 8.634-1.343 28.677 3.674 32.59m9.953 2.107c-.063 0-.13-.003-.199-.009H14.627a1.05 1.05 0 0 1-.574-.171c-5.525-3.616-5.601-18.774-4.86-34.615.101-2.137.18-3.824.14-4.483l-.001-15.656c0-5.918 4.814-10.733 10.732-10.733h12.023c5.918 0 10.733 4.815 10.733 10.733v15.594c0 4.008-1.053 10.733-8.107 10.733h-7.536c-2.814.042-3.914 1.592-4.51 6.377-.648 5.344-.723 9.47-.242 13.375.429 3.627 1.849 6.546 2.449 6.749h.181a1.049 1.049 0 0 1 .142 2.087 1.96 1.96 0 0 1-.282.02" fill="#475669"/><path d="M33.003 8.303V7.254a5.518 5.518 0 0 1 5.518-5.518h9.828a5.518 5.518 0 0 1 5.518 5.518v24.468a5.518 5.518 0 0 1-5.518 5.518h-5.443a5.519 5.519 0 0 1-5.519-5.518v-1.563" fill="#769CBE"/><g transform="translate(31.625 .303)"><mask id="d" fill="#fff"><use xlink:href="#c"/></mask><path d="M16.724 37.984H11.28a6.574 6.574 0 0 1-6.567-6.567v-1.562a1.05 1.05 0 0 1 2.097 0v1.562a4.474 4.474 0 0 0 4.47 4.47h5.443a4.474 4.474 0 0 0 4.469-4.47V6.951a4.474 4.474 0 0 0-4.47-4.47H6.897a4.474 4.474 0 0 0-4.469 4.47v1.048A1.05 1.05 0 0 1 .329 8V6.951A6.574 6.574 0 0 1 6.896.384h9.828a6.574 6.574 0 0 1 6.567 6.567v24.466a6.574 6.574 0 0 1-6.567 6.567" fill="#475669" mask="url(#d)"/></g><path d="M28.34 64.107a1.07 1.07 0 1 1-2.14 0 1.07 1.07 0 0 1 2.14 0M8.517 64.107a1.07 1.07 0 1 1-2.141 0 1.07 1.07 0 0 1 2.14 0" fill="#616196"/></g></svg>