<svg id="Camada_1" xmlns="http://www.w3.org/2000/svg" viewBox="0 0 100 100">
  <style>
    .st1{fill:#475669}.st2{fill:none}
  </style>
  <path d="M48.2 12.5L19.4 29.1c-1.4.8-2.2 2.3-2.2 3.9v33.2c0 1.6.9 3.1 2.2 3.9l28.8 16.6c1.4.8 3.1.8 4.5 0L81.4 70c1.4-.8 2.2-2.3 2.2-3.9V33c0-1.6-.9-3.1-2.2-3.9L52.7 12.5c-1.4-.8-3.1-.8-4.5 0z" fill="#04b4fc"/>
  <path class="st1" d="M60.3 15.1c-.8.6-1.7 1.3-2.6 2L74.9 27c.2-1.1.3-2.2.4-3.3l-15-8.6zM15.7 40.9v17.4c1 .5 2 .9 3.1 1.3v-20c-1.2.4-2.2.8-3.1 1.3zm66.5-13.1l-4-2.3-2.8-1.6-15-8.7-2.9-1.7-4-2.3c-1.8-1.1-4.2-1.1-6 0l-4 2.3-2.9 1.7-15 8.7-2.8 1.6-4 2.3c-1.8 1.1-3 3.1-3 5.2v33.2c0 2.1 1.2 4.1 3 5.2l4 2.3 2.9 1.7 15 8.7 2.8 1.6 4 2.3c.9.5 2 .8 3 .8s2.1-.3 3-.8l4-2.3 2.8-1.6 15-8.7 2.8-1.6 4-2.3c1.9-1.1 3-3.1 3-5.2V33c.1-2.2-1.1-4.2-2.9-5.2zm-.1 38.4c0 1-.6 2-1.5 2.6l-3 1.7-2.7 1.5-17.2 10-2.8 1.6-3 1.7c-.9.5-2 .5-3 0l-3-1.7-2.7-1.6L26 72.1l-2.8-1.6-3-1.7c-.9-.5-1.5-1.5-1.5-2.6V33c0-1 .6-2 1.5-2.6l3-1.7 2.8-1.6 17.2-9.9 2.8-1.6 3-1.7c.5-.3 1-.4 1.5-.4s1 .1 1.5.4l3 1.7 2.8 1.6L75 27.1l2.8 1.6 3 1.7c.9.5 1.5 1.5 1.5 2.6v33.2zM15.7 40.9v17.4c1 .5 2 .9 3.1 1.3v-20c-1.2.4-2.2.8-3.1 1.3zm44.6-25.8c-.8.6-1.7 1.3-2.6 2L74.9 27c.2-1.1.3-2.2.4-3.3l-15-8.6z"/>
  <g>
    <ellipse class="st2" cx="50.4" cy="49.6" rx="44.9" ry="16.3"/>
    <ellipse transform="rotate(-30 50.412 49.57)" class="st2" cx="50.4" cy="49.6" rx="16.3" ry="44.9"/>
    <ellipse transform="rotate(-60 50.415 49.57)" class="st2" cx="50.4" cy="49.6" rx="44.9" ry="16.3"/>
    <path class="st1" d="M96.8 49.6c0 4.6-4.4 8.8-11.6 11.9l-3 1.2c-8.2 3-19.3 4.7-31.7 4.7-12.4 0-23.5-1.8-31.7-4.7-1.1-.4-2.1-.8-3.1-1.2C8.4 58.4 4 54.2 4 49.6c0-4.6 4.3-8.8 11.6-12 1-.4 2-.8 3.1-1.2v3.2c-1.1.4-2.1.8-3.1 1.3-5.4 2.5-8.6 5.5-8.6 8.7 0 3 3.1 6.1 8.6 8.7 1 .5 2 .9 3.1 1.3 7.6 2.9 18.6 4.8 31.7 4.8 13.2 0 24.1-2 31.7-4.8 1.1-.4 2.1-.8 3-1.3 5.5-2.6 8.6-5.7 8.6-8.7s-3.1-6.1-8.6-8.7c-.9-.4-2-.9-3-1.3v-3.2c1.1.4 2.1.8 3 1.2 7.3 3.2 11.7 7.3 11.7 12z"/>
    <path class="st1" d="M73.6 89.7c-1.2.7-2.6 1-4.1 1-3.5 0-7.6-1.8-12.1-5.1-.8-.6-1.7-1.3-2.6-2l2.8-1.6c.9.7 1.8 1.4 2.6 2 4.9 3.4 9.1 4.7 11.8 3.1 2.6-1.5 3.7-5.7 3.2-11.8-.1-1-.2-2.1-.4-3.3-1.3-8-5.1-18.5-11.7-29.9-5.9-10.2-12.9-19-19.7-24.7-.1-.1-.3-.2-.4-.3-.9-.7-1.8-1.4-2.6-2-5-3.5-9.2-4.6-11.8-3.1-2.6 1.5-3.7 5.7-3.2 11.8.1 1 .2 2.1.4 3.3L23 28.7c-.2-1.1-.4-2.2-.5-3.2-.9-7.9.5-13.7 4.5-16 4-2.3 9.6-.8 16.2 4.1.7.5 1.4 1.1 2.1 1.7.1.1.3.2.4.4 6.9 5.9 14 14.8 19.9 25.1C71.8 51.5 75.8 62 77.4 70.6c.2 1.1.4 2.2.5 3.2 1.1 7.8-.3 13.6-4.3 15.9z"/>
    <g>
      <path class="st1" d="M78.1 25.4c-.1 1-.3 2.1-.5 3.2L74.8 27c.2-1.1.3-2.2.4-3.3.5-5.9-.5-10.2-3.2-11.8-2.6-1.5-6.8-.4-11.8 3.1-.8.6-1.7 1.3-2.6 2-.1.1-.3.2-.4.3C50.4 23 43.4 31.7 37.5 42c-5.9 10.2-10 20.6-11.5 29.4 0 .2-.1.4-.1.5-.2 1.2-.3 2.2-.4 3.3-.5 6 .6 10.2 3.2 11.8 2.6 1.5 6.8.4 11.8-3.1.9-.6 1.7-1.3 2.6-2l2.8 1.6c-.9.7-1.7 1.4-2.6 2-4.5 3.3-8.6 5.1-12.1 5.1-1.5 0-2.9-.3-4.1-1-3.9-2.3-5.5-7.9-4.6-16.1.1-.9.2-1.8.4-2.7 0-.2.1-.4.1-.5 1.8-8.8 6-19.3 12-29.7 6-10.3 13-19.2 19.9-25.1.1-.1.3-.2.4-.4.7-.6 1.4-1.2 2.1-1.7 6.6-4.8 12.3-6.3 16.2-4 4 2.3 5.5 8.1 4.5 16z"/>
    </g>
    <g>
      <circle cx="50.4" cy="49.6" r="6.5" fill="#00bc76"/>
      <path class="st1" d="M50.4 57.7c-4.5 0-8.1-3.6-8.1-8.1s3.6-8.1 8.1-8.1 8.1 3.6 8.1 8.1c0 4.4-3.6 8.1-8.1 8.1zm0-13.1c-2.7 0-4.9 2.2-4.9 4.9s2.2 4.9 4.9 4.9 4.9-2.2 4.9-4.9-2.2-4.9-4.9-4.9z"/>
    </g>
  </g>
</svg>
