<?xml version="1.0" encoding="utf-8"?>
<!-- Generator: Adobe Illustrator 22.0.1, SVG Export Plug-In . SVG Version: 6.00 Build 0)  -->
<svg version="1.1" id="Camada_1" xmlns="http://www.w3.org/2000/svg" xmlns:xlink="http://www.w3.org/1999/xlink" x="0px" y="0px"
	 viewBox="0 0 100 100" style="enable-background:new 0 0 100 100;" xml:space="preserve">
<style type="text/css">
	.st0{fill:#475669;}
	.st1{fill:#44BA79;}
	.st2{fill:#FD9F9F;}
	.st3{fill:#F18E61;}
	.st4{fill:#F0F0F0;}
</style>
<g>
	<g>
		<path class="st0" d="M32.4,30.7V34h-3.6v-1C30,32.1,31.2,31.4,32.4,30.7z"/>
		<path class="st0" d="M72.3,34h-3.5v-2.5c0.3,0.2,0.5,0.3,0.8,0.5C70.6,32.5,71.5,33.2,72.3,34z"/>
	</g>
	<g>
		<g>
			<g>
				<path class="st1" d="M79.1,80.7c-5.2,7.8-13.2,13.1-22.4,14.9s-18.6-0.1-26.3-5.3c-7.8-5.2-13.1-13.2-14.9-22.4
					s0.1-18.6,5.3-26.3c5.2-7.9,13.2-13.2,22.4-15c2.2-0.4,4.5-0.7,6.8-0.7c7,0,13.7,2.1,19.5,6c7.8,5.2,13,13.2,14.8,22.4
					S84.4,72.9,79.1,80.7z"/>
			</g>
			<g>
				<path class="st0" d="M72.5,29.7V19.2C70.9,8.5,61.5,0.5,50.8,0.4h-0.1c-10.9,0-20.2,8.1-21.9,18.9v9.6
					c-4.2,2.8-7.9,6.4-10.8,10.7c-5.7,8.5-7.8,18.8-5.9,28.9c2,10.1,7.8,18.9,16.3,24.6c6.4,4.3,13.8,6.6,21.5,6.6
					c2.5,0,5-0.3,7.5-0.7c10.1-2,18.9-7.8,24.6-16.3C93.7,65.2,89.4,41.8,72.5,29.7z M50.7,4L50.7,4C55,4,59,5.4,62.3,8.1
					c0.5,0.5,1,0.9,1.5,1.4c2.7,2.7,4.5,6.1,5.1,9.8v8.2c-8-4.5-17.2-6-26.2-4.2c-3.6,0.7-7,1.9-10.2,3.5v-7.4
					C34,10.5,41.6,4,50.7,4z M79.1,80.7c-5.2,7.8-13.2,13.1-22.4,14.9s-18.6-0.1-26.3-5.3c-7.8-5.2-13.1-13.2-14.9-22.4
					s0.1-18.6,5.3-26.3c2.2-3.3,4.9-6.1,8-8.4c1.1-0.9,2.4-1.7,3.6-2.4c3.3-1.9,7-3.3,10.8-4c2.2-0.4,4.5-0.7,6.8-0.7
					c6.7,0,13.1,1.9,18.8,5.5c0.3,0.2,0.5,0.3,0.8,0.5c0.9,0.6,1.8,1.3,2.7,2c6.3,5.2,10.6,12.3,12.1,20.4
					C86.3,63.5,84.4,72.9,79.1,80.7z"/>
			</g>
		</g>
	</g>
	<g>
		<g>
			<path class="st2" d="M40.3,44.5L40.3,44.5L40.3,44.5z"/>
			<path class="st3" d="M58,49.2c-1.6,1.2-3.9,2.8-5.1,6.7C51,62.3,52.1,66.7,52.6,69v0.1c-4-0.6-4.9-3.6-6.2-7.6
				c-0.6-2.1-1.3-4.2-2.5-6.3c-0.3-0.5-0.6-1-0.8-1.5v-0.1c-2.6-4.6-3.4-6.2-1.7-8.5c1.3-1.9,4.5-3,8.4-3c0.6,0,1.2,0,1.8,0.1
				c3.7,0.4,6.6,1.7,7.4,3.3C60,47.8,59.7,48,58,49.2z"/>
			<g>
				<path class="st0" d="M40.3,44.2v0.2l0,0V44.2L40.3,44.2z"/>
				<path class="st0" d="M40.3,44.2v0.2l0,0V44.2L40.3,44.2z M40.3,44.2v0.2l0,0V44.2L40.3,44.2z M40.3,44.2v0.2l0,0V44.2L40.3,44.2
					z"/>
				<path class="st0" d="M61.6,44.5c-1.4-3.1-5.9-4.5-9.6-4.9c-4.3-0.4-10.2,0.4-12.8,4c-2.8,3.9-1.1,6.9,1.5,11.5
					c0.3,0.5,0.6,1,0.9,1.5c1,1.8,1.6,3.8,2.2,5.7c1.5,4.7,3,9.5,10,9.7l0,0c0.8,0,1.3-0.4,1.5-0.7c0.6-0.8,0.4-1.7,0.1-3
					c-0.5-2.1-1.5-6,0.2-11.6c0.9-3,2.6-4.2,4-5.2C61.4,50.2,63.6,48.8,61.6,44.5z M58,49.2c-1.6,1.2-3.9,2.8-5.1,6.7
					C51,62.3,52.1,66.7,52.6,69v0.1c-4-0.6-4.9-3.6-6.2-7.6c-0.6-2.1-1.3-4.2-2.5-6.3c-0.3-0.5-0.6-1-0.8-1.5v-0.1
					c-2.6-4.6-3.4-6.2-1.7-8.5c1.3-1.9,4.5-3,8.4-3c0.6,0,1.2,0,1.8,0.1c3.7,0.4,6.6,1.7,7.4,3.3C60,47.8,59.7,48,58,49.2z
					 M40.3,44.5L40.3,44.5v-0.2l0,0V44.5z"/>
			</g>
		</g>
	</g>
	<g>
		<g>
			<path class="st4" d="M79.2,40.8c5.2,7.5,7.1,16,5.8,25c-0.5-0.1-1.1-0.3-1.9-0.4c-1.6-0.4-3.9-0.9-6.4-1.6
				c-0.2-0.1-0.4-0.2-0.4-0.2c-0.1-0.2,0.3-1.6,0.5-2.3c0.6-2,1.5-4.8,0.9-8.1C76.7,48.2,76.2,44.3,79.2,40.8z"/>
			<g>
				<path class="st0" d="M80.5,37.8c-0.2-0.3-0.6-0.5-1-0.5s-0.8,0.1-1.1,0.4C72.8,42.9,74,49,75,54c0.5,2.6-0.2,4.8-0.8,6.7
					c-0.6,1.7-1,3.2-0.3,4.4c0.4,0.7,1.1,1.2,2.1,1.5c2.6,0.8,4.9,1.3,6.6,1.6h0.1c0.9,0.2,1.9,0.4,2.4,0.6c0.2,0.2,0.4,0.4,0.6,0.5
					s0.3,0.1,0.5,0.1c0.5,0,1-0.3,1.2-0.7c0.1-0.2,0.2-0.4,0.2-0.6C89.5,57,87.2,46.8,80.5,37.8z M85,65.9c-0.5-0.1-1.1-0.3-1.9-0.4
					c-1.6-0.4-3.9-0.9-6.4-1.6c-0.2-0.1-0.4-0.2-0.4-0.2c-0.1-0.2,0.3-1.6,0.5-2.3c0.6-2,1.5-4.8,0.9-8.1c-1-5.1-1.5-9,1.5-12.5
					C84.3,48.3,86.3,56.8,85,65.9z"/>
			</g>
		</g>
	</g>
	<g>
		<g>
			<path class="st4" d="M22.2,82.2c-5.5-6.8-8-14.8-7.5-23.5c0.5,0.1,1,0.2,1.7,0.2h0.1c1.6,0.2,3.8,0.5,6.3,1
				C23,60,23.1,60,23.1,60c0.1,0.2-0.2,1.6-0.3,2.2c-0.5,2-1.1,4.7-0.2,7.9C24,74.9,24.7,78.6,22.2,82.2z"/>
			<g>
				<path class="st0" d="M25.3,69.4c-0.7-2.4-0.2-4.7,0.2-6.5c0.4-1.7,0.7-3.1,0-4.3c-0.4-0.7-1.2-1.1-2.1-1.3
					c-2.6-0.5-4.8-0.8-6.5-1.1h-0.1c-0.9-0.1-1.8-0.2-2.3-0.4c-0.2-0.2-0.4-0.3-0.7-0.4c-0.7-0.2-1.4,0.1-1.7,0.8
					C12,56.4,12,56.6,12,56.8c-1.1,10.8,1.9,20.4,9.1,28.6c0.1,0.2,0.3,0.3,0.5,0.4s0.3,0.1,0.5,0.1l0,0c0.4,0,0.8-0.2,1-0.5
					C28.3,79.9,26.7,74.1,25.3,69.4z M22.8,62.2c-0.5,2-1.1,4.7-0.2,7.9c1.3,4.8,2.1,8.5-0.4,12.1c-5.5-6.8-8-14.8-7.5-23.5
					c0.5,0.1,1,0.2,1.7,0.2h0.1c1.6,0.2,3.8,0.5,6.3,1C23,60,23.1,60,23.1,60C23.3,60.3,23,61.8,22.8,62.2z"/>
			</g>
		</g>
	</g>
	<g>
		<g>
			<path class="st4" d="M75.2,86.4c-6.7,6.2-12.8,9.1-19,9.4c-0.4-0.8-1.3-1.7-2.5-2.9c-2.2-2.1-5.2-4.9-5.6-8.1c0-0.1,0-0.2,0-0.2
				c0.6-0.7,3.6-1,5.8-1.3c1.8-0.2,3.7-0.4,5.3-0.8c0.8-0.2,1.4-0.4,2-0.7C66.7,79.2,73,83.4,75.2,86.4z"/>
			<g>
				<path class="st0" d="M78,85.9c-4.9-7.8-13.6-8.4-18-6.3c-1.6,0.7-4,1-6.4,1.2V81l-0.1-0.2c-1.7,0.2-3.3,0.3-4.6,0.7
					c-1.4,0.3-2.3,0.8-2.8,1.5c-0.5,0.6-0.7,1.3-0.6,2.1c0.5,4.1,4.1,7.4,6.4,9.7c0.6,0.5,1.3,1.2,1.7,1.7c-0.1,0.3-0.2,0.6-0.1,0.9
					c0.1,0.6,0.6,1,1.2,1c0.2,0,0.5,0,0.7,0c7.5,0,14.6-3.5,22.4-10.8C78.2,87.1,78.3,86.4,78,85.9z M75.2,86.4
					c-6.7,6.2-12.8,9.1-19,9.4c-0.4-0.8-1.3-1.7-2.5-2.9c-2.2-2.1-5.2-4.9-5.6-8.1c0-0.1,0-0.2,0-0.2c0.6-0.7,3.6-1,5.8-1.3
					c1.8-0.2,3.7-0.4,5.3-0.8c0.8-0.2,1.4-0.4,2-0.7C66.7,79.2,73,83.4,75.2,86.4z"/>
			</g>
		</g>
	</g>
</g>
</svg>
