<svg width="34" height="58" viewBox="0 0 34 58" xmlns="http://www.w3.org/2000/svg"><title>BD23474B-0A8E-4E46-8C50-1999638F3CC6</title><g fill="none" fill-rule="evenodd"><path d="M19.027 57.042h-7.242a3.436 3.436 0 0 1-3.427-3.444 3.436 3.436 0 0 1 3.427-3.443h7.242a3.436 3.436 0 0 1 3.427 3.443 3.436 3.436 0 0 1-3.427 3.444" fill="#F36461"/><path d="M11.785 50.981A2.614 2.614 0 0 0 9.18 53.6a2.614 2.614 0 0 0 2.605 2.617h7.242a2.614 2.614 0 0 0 2.605-2.617 2.614 2.614 0 0 0-2.605-2.618h-7.242zm7.242 6.888h-7.242c-2.343 0-4.25-1.916-4.25-4.27 0-2.355 1.907-4.27 4.25-4.27h7.242c2.343 0 4.25 1.915 4.25 4.27 0 2.354-1.907 4.27-4.25 4.27z" fill="#4D5768"/><path d="M27.347 38.221c-3.649 3.686-8.177 5.586-12.749 5.35l-1.025-.053.001-.011-1.076-.222c-3.202-.663-6-2.393-8.091-5.004-7.283-9.098-1.401-17.588 3.788-25.08 2.537-3.662 4.932-7.12 5.38-10.21l.21-1.438 1.274.687c5.634 3.041 15.653 10.897 17.462 21.05.972 5.458-.769 10.482-5.174 14.931" fill="#A2C4F1"/><path d="M31.523 23.24c.91 5.115-.737 9.837-4.894 14.036-3.445 3.479-7.698 5.271-11.978 5.05.217-3.437 1.162-6.612 2.385-9.307.007-.014.02-.023.025-.036.082-.172.141-.34.219-.511 2.01-4.209 4.592-7.144 5.733-7.87.468-.305.61-.932.308-1.406a1.012 1.012 0 0 0-1.4-.311c-.601.386-1.348 1.085-2.144 1.992.825-4.325.564-8.456-.798-12.346a1.013 1.013 0 0 0-1.293-.623 1.022 1.022 0 0 0-.62 1.298c1.97 5.634 1.443 11.62-1.563 18.265-.926-2.499-2.779-4.769-5.726-5.747a1.014 1.014 0 0 0-1.281.648 1.02 1.02 0 0 0 .645 1.287c3.75 1.246 4.906 4.95 5.035 7.238a28.774 28.774 0 0 0-1.474 7.163c-2.931-.605-5.551-2.202-7.505-4.644-6.808-8.505-1.4-16.312 3.831-23.861 2.596-3.747 5.068-7.316 5.55-10.645 6.21 3.351 15.303 11.113 16.945 20.33M13.053.459c-.29.211-.461.556-.43.917.242 3.074-2.43 6.93-5.26 11.015C2.237 19.79-4.142 29 3.616 38.692c2.332 2.912 5.483 4.79 9.008 5.432.028 3.314.705 6.773 2.383 10.197a1.011 1.011 0 0 0 1.629.268c.297-.3.388-.768.19-1.169-1.511-3.084-2.133-6.142-2.21-9.061 4.839.228 9.612-1.77 13.45-5.646 4.651-4.698 6.486-10.023 5.451-15.83C31.616 12.199 20.573 3.405 14.057.37a1.008 1.008 0 0 0-1.005.087" fill="#4D5768"/></g></svg>
