<svg width="54" height="65" viewBox="0 0 54 65" xmlns="http://www.w3.org/2000/svg" xmlns:xlink="http://www.w3.org/1999/xlink"><title>E3EE4D21-CCB5-48D0-94E3-6B714BB7ED02</title><defs><path id="a" d="M.053.029h8.915v36.314H.053z"/><path id="c" d="M8.44.625v17.2H.355V.624H8.44z"/><path id="e" d="M.211.029h8.916v36.314H.21V.03z"/><path id="g" d="M0 17.824V.624h8.085v17.2H0z"/></defs><g fill="none" fill-rule="evenodd"><path d="M36.078 5.023c-.493-4.291-6.548-4.466-6.917 0v27.663s-.121 2.558 1.708 2.961c0 0-4.306 4.103.355 7.947 0 0-2.063.477-2.063 2.762V60.14c0 3.94 6.724 5.42 6.724 0v-2.634s9.146.626 7.139-8.42c0 0 11.6-2.098 4.241-12.322 2.546-.146 10.765-9.67-.788-15.199 0 0 5.622-6.424-2.388-10.44 0 0-1.093-6.32-8.01-4.884v-1.22z" fill="#F6C768"/><path d="M17.35 5.023c.493-4.291 6.548-4.466 6.916 0v27.663s.122 2.558-1.708 2.961c0 0 4.307 4.103-.354 7.947 0 0 2.062.477 2.062 2.762V60.14c0 3.94-6.723 5.42-6.723 0v-2.634s-9.147.626-7.139-8.42c0 0-11.6-2.098-4.242-12.322-2.545-.146-10.765-9.67.789-15.199 0 0-5.623-6.424 2.388-10.44 0 0 1.093-6.32 8.01-4.884v-1.22z" fill="#40BBC3"/><g transform="translate(28.11 .71)"><mask id="b" fill="#fff"><use xlink:href="#a"/></mask><path d="M4.477 36.343c-2.199 0-4.424-1.5-4.424-4.367V4.312c0-.028 0-.055.003-.082C.292 1.373 2.378.06 4.341.03l.07-.001c2.034 0 4.233 1.42 4.55 4.169a.971.971 0 0 1 .007.114v7.444a.999.999 0 0 1-1.998 0V4.372C6.76 2.748 5.548 2.026 4.415 2.026h-.043c-1.023.018-2.166.638-2.322 2.33v27.62c0 1.75 1.307 2.37 2.427 2.37.926 0 2.493-.5 2.493-2.37v-3.403a.998.998 0 0 1 1.998 0v3.403c0 2.867-2.26 4.367-4.491 4.367" fill="#475669" mask="url(#b)"/></g><path d="M36.078 30.282a6.947 6.947 0 0 1-1.555-.176.998.998 0 1 1 .447-1.946 4.947 4.947 0 0 0 6.049-4.816 4.947 4.947 0 0 0-5.38-4.921.998.998 0 1 1-.174-1.99 6.945 6.945 0 0 1 7.552 6.911 6.945 6.945 0 0 1-6.939 6.938M41.775 15.28a.998.998 0 0 1-.658-1.75 3.591 3.591 0 0 0 1.23-2.704 3.59 3.59 0 0 0-3.586-3.585c-.76 0-1.485.234-2.098.677a.997.997 0 1 1-1.17-1.618 5.544 5.544 0 0 1 3.268-1.056 5.589 5.589 0 0 1 5.583 5.582 5.587 5.587 0 0 1-1.912 4.208.994.994 0 0 1-.657.246" fill="#475669"/><path d="M42.305 24.191a.998.998 0 1 1 0-1.996c2.85 0 5.17-2.32 5.17-5.17a5.153 5.153 0 0 0-4.296-5.095.999.999 0 1 1 .334-1.97 7.145 7.145 0 0 1 5.959 7.065c0 3.951-3.215 7.166-7.167 7.166" fill="#475669"/><g transform="translate(45.123 19.944)"><mask id="d" fill="#fff"><use xlink:href="#c"/></mask><path d="M2.14 17.824a.998.998 0 0 1-.332-1.94A6.943 6.943 0 0 0 6.442 9.34c0-3.226-2.188-6-5.32-6.746A.998.998 0 1 1 1.585.651 8.9 8.9 0 0 1 8.44 9.34a8.943 8.943 0 0 1-5.97 8.427c-.11.039-.221.057-.33.057" fill="#475669" mask="url(#d)"/></g><path d="M43.023 50.085a.998.998 0 0 1-.022-1.996c3.205-.073 5.811-2.742 5.811-5.948 0-1.79-.795-3.468-2.18-4.604a5.947 5.947 0 0 0-2.41-1.19.998.998 0 0 1 .454-1.945 7.945 7.945 0 0 1 3.223 1.592 7.92 7.92 0 0 1 2.91 6.147c0 4.283-3.482 7.847-7.763 7.944h-.023z" fill="#475669"/><path d="M43.624 40.954c-.071 0-.144-.009-.216-.024-2.718-.599-4.691-3.056-4.691-5.843a5.99 5.99 0 0 1 8.105-5.594.998.998 0 1 1-.71 1.866 3.99 3.99 0 0 0-5.399 3.727 4.008 4.008 0 0 0 3.125 3.893.999.999 0 0 1-.214 1.975M31.223 44.592a.995.995 0 0 1-.6-.2A5.772 5.772 0 0 1 28.3 39.74c0-1.86.901-3.622 2.409-4.715a.998.998 0 1 1 1.171 1.617 3.838 3.838 0 0 0-1.582 3.098 3.79 3.79 0 0 0 1.525 3.056 1 1 0 0 1-.6 1.796M38.383 52.16a1 1 0 0 1-.837-.451 2.562 2.562 0 0 0-2.013-1.168 2.606 2.606 0 0 0-1.725.528.998.998 0 0 1-1.217-1.583 4.571 4.571 0 0 1 3.06-.939 4.601 4.601 0 0 1 3.566 2.068.998.998 0 0 1-.834 1.546" fill="#475669"/><path d="M32.609 64.327c-2.156 0-4.447-1.467-4.447-4.187V46.356c0-2.568 2.172-3.91 4.317-3.91 2.189 0 4.404 1.342 4.404 3.91v3.182a.998.998 0 0 1-1.997 0v-3.182c0-1.514-1.574-1.913-2.407-1.913-.238 0-2.32.053-2.32 1.913V60.14c0 1.505 1.27 2.19 2.45 2.19.629 0 1.2-.193 1.606-.543.445-.382.67-.937.67-1.647v-2.633a.999.999 0 0 1 1.998 0v2.633c0 1.642-.743 2.626-1.365 3.161-.769.662-1.802 1.026-2.909 1.026" fill="#475669"/><path d="M37.318 58.7a7.17 7.17 0 0 1-6.407-3.92.998.998 0 1 1 1.777-.91 5.182 5.182 0 0 0 4.63 2.833 5.203 5.203 0 0 0 5.196-5.198 5.204 5.204 0 0 0-3.846-5.02.997.997 0 1 1 .517-1.929 7.204 7.204 0 0 1 5.327 6.95c0 3.966-3.227 7.193-7.194 7.193" fill="#475669"/><g transform="translate(16.274 .71)"><mask id="f" fill="#fff"><use xlink:href="#e"/></mask><path d="M4.702 36.343c-2.231 0-4.49-1.5-4.49-4.367v-3.403a.999.999 0 0 1 1.997 0v3.403c0 1.87 1.567 2.37 2.493 2.37 1.12 0 2.427-.62 2.427-2.37V4.356c-.156-1.69-1.3-2.313-2.322-2.33-1.142-.056-2.384.7-2.598 2.346v7.384a.998.998 0 0 1-1.998 0V4.312c0-.039.003-.076.007-.114C.535 1.45 2.734.028 4.768.028l.07.002c1.963.031 4.049 1.343 4.285 4.2.002.027.004.054.004.082v27.664c0 2.867-2.226 4.367-4.425 4.367" fill="#475669" mask="url(#f)"/></g><path d="M17.484 30.282a6.945 6.945 0 0 1-6.938-6.938 6.945 6.945 0 0 1 7.552-6.911c.55.048.956.532.908 1.081a.992.992 0 0 1-1.082.909 4.947 4.947 0 0 0-5.38 4.921 4.947 4.947 0 0 0 6.05 4.816.999.999 0 0 1 .447 1.946 6.952 6.952 0 0 1-1.557.176M11.79 15.282a.995.995 0 0 1-.656-.246 5.586 5.586 0 0 1-1.916-4.21 5.59 5.59 0 0 1 5.584-5.582c1.182 0 2.313.365 3.268 1.056a.999.999 0 0 1-1.17 1.618 3.557 3.557 0 0 0-2.098-.677 3.59 3.59 0 0 0-3.587 3.586c0 1.036.45 2.022 1.232 2.704a.998.998 0 0 1-.657 1.751" fill="#475669"/><path d="M11.257 24.191c-3.951 0-7.166-3.215-7.166-7.166a7.145 7.145 0 0 1 5.958-7.065.999.999 0 1 1 .334 1.97 5.153 5.153 0 0 0-4.295 5.095c0 2.85 2.32 5.17 5.17 5.17a.998.998 0 1 1 0 1.996" fill="#475669"/><g transform="translate(0 19.944)"><mask id="h" fill="#fff"><use xlink:href="#g"/></mask><path d="M6.3 17.824c-.11 0-.221-.018-.331-.057A8.944 8.944 0 0 1-.001 9.34 8.9 8.9 0 0 1 6.856.65a.998.998 0 1 1 .462 1.943 6.908 6.908 0 0 0-5.32 6.747c0 2.94 1.863 5.569 4.634 6.543a.998.998 0 0 1-.331 1.941" fill="#475669" mask="url(#h)"/></g><path d="M10.54 50.085h-.024c-4.28-.097-7.763-3.661-7.763-7.944a7.922 7.922 0 0 1 2.912-6.148 7.945 7.945 0 0 1 3.222-1.59.999.999 0 0 1 .453 1.945 5.952 5.952 0 0 0-4.59 5.793c0 3.206 2.607 5.875 5.812 5.948a.998.998 0 0 1-.023 1.996" fill="#475669"/><path d="M9.939 40.954a1 1 0 0 1-.214-1.975 4.008 4.008 0 0 0 3.124-3.892 3.99 3.99 0 0 0-5.399-3.728.997.997 0 1 1-.71-1.866 5.99 5.99 0 0 1 8.105 5.594c0 2.787-1.972 5.244-4.69 5.843a1.033 1.033 0 0 1-.216.024M22.34 44.592a.999.999 0 0 1-.6-1.796 3.79 3.79 0 0 0 1.525-3.056 3.838 3.838 0 0 0-1.583-3.098.999.999 0 1 1 1.173-1.617 5.842 5.842 0 0 1 2.408 4.715 5.772 5.772 0 0 1-2.323 4.652c-.18.135-.39.2-.6.2M15.18 52.16a.997.997 0 0 1-.834-1.546 4.603 4.603 0 0 1 3.566-2.067 4.563 4.563 0 0 1 3.06.939.998.998 0 1 1-1.217 1.583 2.594 2.594 0 0 0-1.724-.528 2.564 2.564 0 0 0-2.014 1.168 1 1 0 0 1-.837.452" fill="#475669"/><path d="M20.954 64.327c-1.107 0-2.14-.364-2.909-1.026-.623-.535-1.366-1.52-1.366-3.16v-2.634a.999.999 0 0 1 1.997 0v2.633c0 .71.227 1.265.672 1.647.406.35.976.543 1.606.543 1.18 0 2.45-.685 2.45-2.19V46.356c0-1.86-2.082-1.913-2.32-1.913-.833 0-2.408.4-2.408 1.913v3.182a.998.998 0 0 1-1.997 0v-3.182c0-2.568 2.216-3.91 4.405-3.91 2.145 0 4.316 1.342 4.316 3.91V60.14c0 2.72-2.29 4.187-4.446 4.187" fill="#475669"/><path d="M16.245 58.7c-3.966 0-7.194-3.228-7.194-7.195 0-3.25 2.19-6.108 5.327-6.949a.998.998 0 1 1 .517 1.929 5.204 5.204 0 0 0-3.847 5.02 5.203 5.203 0 0 0 5.197 5.198 5.182 5.182 0 0 0 4.63-2.832.998.998 0 1 1 1.777.91 7.17 7.17 0 0 1-6.407 3.918" fill="#475669"/></g></svg>
